<?xml version="1.0" standalone="no"?>
<!DOCTYPE svg PUBLIC "-//W3C//DTD SVG 1.1//EN" "http://www.w3.org/Graphics/SVG/1.1/DTD/svg11.dtd" >
<svg xmlns="http://www.w3.org/2000/svg" xmlns:xlink="http://www.w3.org/1999/xlink" version="1.1">
<metadata>
Created by FontForge 20170731 at Tue Jun 19 02:07:47 2018
 By Aleksey,,,
Copyright (c) 2016 by Saber Rastikerdar. All Rights Reserved.
Based on DejaVu font.
Non-Arabic(Latin) glyphs and data are imported from Open Sans font under the Apache License, Version 2.0.
</metadata>
<defs>
<font id="Sahel-Bold" horiz-adv-x="0" >
  <font-face 
    font-family="Sahel"
    font-weight="700"
    font-stretch="normal"
    units-per-em="2048"
    panose-1="2 11 6 3 3 8 4 2 2 4"
    ascent="1638"
    descent="-410"
    x-height="1118"
    cap-height="1462"
    bbox="-1153 -989 2681 2807"
    underline-thickness="100"
    underline-position="-700"
    unicode-range="U+000D-FFFD"
  />
<missing-glyph horiz-adv-x="1229" 
d="M193 1462h841v-1462h-841v1462zM297 104h633v1254h-633v-1254z" />
    <glyph glyph-name="uni0622" unicode="&#x627;&#x653;" horiz-adv-x="559" 
d="M220.816 -5.5q0 370.785 -15.6797 674.072q-12.7393 244.791 -56.8379 496.78l184.236 116.995q48.0186 31.499 54.8789 27.8994q7.83984 -3.60059 8.81934 -44.0986q14.7002 -420.283 14.7002 -562.478q0 -579.576 -43.1191 -659.673
q-33.3203 -60.2979 -131.318 -58.4971h-15.6797v8.99902zM169 1465q-86 -1 -184 -89q-33 21 -51 45q60 155 97 190q47 46 103 46t167 -14q159 -21 274 8q63 16 70 1q5 -10 -13 -38q-51 -78 -108 -124.5t-355 -24.5z" />
    <glyph glyph-name="uni0623" unicode="&#x627;&#x654;" horiz-adv-x="476" 
d="M180.816 -5.5q0 370.785 -15.6797 674.072q-12.7393 244.791 -56.8379 496.78l184.236 116.995q48.0186 31.499 54.8789 27.8994q7.83984 -3.60059 8.81934 -44.0986q14.7002 -420.283 14.7002 -562.478q0 -579.576 -43.1191 -659.673
q-33.3203 -60.2979 -131.318 -58.4971h-15.6797v8.99902zM30 1314l25 168q7 3 63 29l22 10l-22 10q-107 45 -70 192q46 180 221 179q79 0 147 -63l16 -15l-43 -96q-174 55 -237 -30q-11 -15 -1 -32q47 -82 214 -40q51 13 60 7t8 -44l-1 -100q-130 -44 -402 -175z" />
    <glyph glyph-name="afii57412" unicode="&#x648;&#x654;" horiz-adv-x="806" 
d="M200 843l25 168q7 3 63 29l22 10l-22 10q-107 45 -70 192q46 180 221 179q79 0 147 -63l16 -15l-43 -96q-174 55 -237 -30q-11 -15 -1 -32q47 -82 214 -40q51 13 60 7t8 -44l-1 -100q-130 -44 -402 -175zM346 -506q-62 -32 -106 -36q-46 -4 -133 50q-110 68 -115 100
q-1 10 77 40q316 121 422 278q31 47 40 77l-70 -4q-163 -8 -249 38q-125 68 -126 227q0 71 27 167q46 160 134 242q65 61 156 61q176 -1 257 -190q64 -149 64 -341q0 -294 -123 -480q-99 -149 -255 -229zM555 287q-50 201 -185 201q-88 0 -115 -85q-7 -23 -7 -42
q0 -50 66 -69q78 -23 220 -7z" />
    <glyph glyph-name="uni0625" unicode="&#x627;&#x655;" horiz-adv-x="464" 
d="M31 -691l25 168q7 3 63 29l22 10l-22 10q-107 45 -70 192q46 180 221 179q79 0 147 -63l16 -15l-43 -96q-174 55 -237 -30q-11 -15 -1 -32q47 -82 214 -40q51 13 60 7t8 -44l-1 -100q-130 -44 -402 -175zM159 -5q0 412 -16 749q-13 272 -58 552l188 130q49 35 56 31
q8 -4 9 -49q15 -467 15 -625q0 -644 -44 -733q-34 -67 -134 -65h-16v10z" />
    <glyph glyph-name="afii57414" unicode="&#x64a;&#x654;" horiz-adv-x="1474" 
d="M316 641l25 168q7 3 63 29l22 10l-22 10q-107 45 -70 192q46 180 221 179q79 0 147 -63l16 -15l-43 -96q-174 55 -237 -30q-11 -15 -1 -32q47 -82 214 -40q51 13 60 7t8 -44l-1 -100q-130 -44 -402 -175zM677 -221q356 0 494 181q22 29 -6 34l-188 33q-89 13 -152 28
q-83 20 -83 135q0 62 28 159q53 180 164 296q135 140 300 140q82 0 169 -29q-14 -143 -41 -250l-54 6q-36 3 -62 3q-188 -3 -317 -202l-11 -17l259 -49q171 -32 173 -177q0 -39 -10 -86q-46 -225 -208 -351q-174 -135 -455 -135q-301 0 -444 155q-135 145 -135 358
q0 219 100 441l118 -39q-52 -172 -52 -295q0 -135 63 -211q105 -129 350 -128z" />
    <glyph glyph-name="uni06C0" unicode="&#x647;&#x654;" horiz-adv-x="877" 
d="M182 1174q58 -28 134 -27q147 1 207 71q10 11 -2 16q-41 16 -94 34q-128 43 -83 161q62 160 185 210q78 32 184 -1q-5 -57 -28 -151l-27 3q-117 9 -178 -75l107 -35q73 -25 72.5 -110t-49.5 -150q-95 -124 -295 -124q-106 0 -206 41l53 147zM367 590q-113 -151 -113 -226
q0 -28 15 -45q33 -38 168 -38q195 0 195 105q0 66 -94 123q-52 31 -138 68q-12 5 -33 13zM795 380q0 -158 -88 -259q-101 -115 -261 -115q-180 0 -272 100q-82 89 -82 251q0 216 218 489q23 29 52 29q11 0 23 -4q256 -93 364 -307q46 -90 46 -184z" />
    <glyph glyph-name="ff" unicode="ff" horiz-adv-x="1585" 
d="M778 889h-264v-889h-305v889h-168v147l168 82v82q0 191 94 279t301 88q158 0 281 -47l-78 -224q-92 29 -170 29q-65 0 -94 -38.5t-29 -98.5v-70h264v-229zM1571 889h-264v-889h-305v889h-168v147l168 82v82q0 191 94 279t301 88q158 0 281 -47l-78 -224q-92 29 -170 29
q-65 0 -94 -38.5t-29 -98.5v-70h264v-229z" />
    <glyph glyph-name="uniFB01" unicode="fi" horiz-adv-x="1417" 
d="M778 889h-264v-889h-305v889h-168v147l168 82v82q0 191 94 279t301 88q158 0 281 -47l-78 -224q-92 29 -170 29q-65 0 -94 -38.5t-29 -98.5v-70h264v-229zM940 1407q0 149 166 149t166 -149q0 -71 -41.5 -110.5t-124.5 -39.5q-166 0 -166 150zM1258 0h-305v1118h305
v-1118z" />
    <glyph glyph-name="uniFB02" unicode="fl" horiz-adv-x="1417" 
d="M778 889h-264v-889h-305v889h-168v147l168 82v82q0 191 94 279t301 88q158 0 281 -47l-78 -224q-92 29 -170 29q-65 0 -94 -38.5t-29 -98.5v-70h264v-229zM1258 0h-305v1556h305v-1556z" />
    <glyph glyph-name="uniFB03" unicode="ffi" horiz-adv-x="2208" 
d="M778 889h-264v-889h-305v889h-168v147l168 82v82q0 191 94 279t301 88q158 0 281 -47l-78 -224q-92 29 -170 29q-65 0 -94 -38.5t-29 -98.5v-70h264v-229zM1571 889h-264v-889h-305v889h-168v147l168 82v82q0 191 94 279t301 88q158 0 281 -47l-78 -224q-92 29 -170 29
q-65 0 -94 -38.5t-29 -98.5v-70h264v-229zM1730 1407q0 149 166 149t166 -149q0 -71 -41.5 -110.5t-124.5 -39.5q-166 0 -166 150zM2048 0h-305v1118h305v-1118z" />
    <glyph glyph-name="uniFB04" unicode="ffl" horiz-adv-x="2208" 
d="M778 889h-264v-889h-305v889h-168v147l168 82v82q0 191 94 279t301 88q158 0 281 -47l-78 -224q-92 29 -170 29q-65 0 -94 -38.5t-29 -98.5v-70h264v-229zM1571 889h-264v-889h-305v889h-168v147l168 82v82q0 191 94 279t301 88q158 0 281 -47l-78 -224q-92 29 -170 29
q-65 0 -94 -38.5t-29 -98.5v-70h264v-229zM2048 0h-305v1556h305v-1556z" />
    <glyph glyph-name="uniFBA5.fina" unicode="&#xfeea;&#x654;" horiz-adv-x="1036" arabic-form="final" 
d="M272 1321q58 -28 134 -27q147 1 207 71q10 11 -2 16q-41 16 -94 34q-128 43 -83 161q62 160 185 210q78 32 184 -1q-5 -57 -28 -151l-27 3q-117 9 -178 -75l107 -35q73 -25 72.5 -110t-49.5 -150q-95 -124 -295 -124q-106 0 -206 41l53 147zM1041 0h-40q-247 0 -343 252
l-6 15l-165 -153q-106 2 -242 30q-136 29 -149 106q-11 70 -11 159q0 78 14 127q42 153 427 319l-18 86l113 127q36 40 43 38q8 -3 20 -62l117 -578q35 -172 200 -172h40q25 0 25 -97v-73q0 -124 -25 -124zM245 461q55 -54 276 -56q16 0 96 2l-57 252q-258 -79 -315 -160
q-15 -22 0 -38z" />
    <glyph glyph-name="uniFDF2" unicode="&#x627;&#xfedf;&#xfee0;&#xfeea;" horiz-adv-x="2682" arabic-form="isolated" 
d="M2389 -5q0 412 -16 749q-13 272 -58 552l188 130q49 35 56 31q8 -4 9 -49q15 -467 15 -625q0 -644 -44 -733q-34 -67 -134 -65h-16v10zM1679 0q-55 0 -55 144v33q0 117 55 117h32q202 0 243 64q20 31 14 199q-5 149 -56 652l183 138q48 37 54 34q5 -2 6 -52l13 -786
q3 -203 -58 -328q-106 -215 -405 -215h-26zM1691 0h-49q-209 0 -293 159q-95 -159 -294 -159h-25q-55 0 -55 144v33q0 117 55 117h31q113 0 162 44q60 54 54 271q-3 142 -23 462l167 122q41 29 47 27q8 -2 8 -54v-534q0 -236 33 -284q37 -54 144 -54h38q25 0 25 -97v-73
q0 -124 -25 -124zM1286 1719l-56 358l140 84v-414zM1121 1555l1 -89q2 -67 77 -64q81 2 82 83v131q36 12 94 18l2 -98q1 -73 85 -73q74 0 71 86l-2 81q78 51 93 61l5 -58q27 -329 -151 -328q-77 0 -130 54q-48 -116 -163 -115q-170 1 -153 262l5 83q64 -25 84 -34zM1043 0
h-40q-247 0 -343 252l-6 15l-165 -153q-106 2 -242 30q-136 29 -149 106q-11 70 -11 159q0 78 14 127q42 153 427 319l-18 86l113 127q36 40 43 38q8 -3 20 -62l117 -578q35 -172 200 -172h40q25 0 25 -97v-73q0 -124 -25 -124zM247 461q55 -54 276 -56q16 0 96 2l-57 252
q-258 -79 -315 -160q-15 -22 0 -38z" />
    <glyph glyph-name="uniFE70" unicode="&#x20;&#x64b;" horiz-adv-x="769" arabic-form="isolated" 
d="M83 1118v122l449 184v-122zM83 1365v122l449 184v-122z" />
    <glyph glyph-name="uniFE72" unicode="&#x20;&#x64c;" horiz-adv-x="769" arabic-form="isolated" 
d="M410 1806q-21 0 -37 -4t-26 -14q-20 -17 -20 -56q0 -28 19 -49l6.5 -6.5t8 -6.5t9 -5.5t10 -5.5t11.5 -5t12 -5q16 -6 45 -15l9 -3l12 29q2 4 3.5 8.5l3 9t2.5 8.5q3 13 3 25q0 40 -14 61q-14 23 -42 31l-8 2q-2 0 -3.5 0.5t-3.5 0.5zM69 1577q2 -32 4.5 -57t5.5 -43
t6 -29q16 -51 41 -74q26 -24 63 -23q13 1 26 3t26 6.5t26 11.5q38 18 77 56q23 22 41 46t31 50l8 17l-18 3q-131 28 -175 135q-4 10 -6 22q0 7 -0.5 14.5t-0.5 16.5v9.5t0.5 9l1 9l1 9t1.5 8.5t2.5 8t2.5 8q9 28 24.5 49.5t36.5 35.5q7 5 14.5 9t16 7t17.5 6q26 7 58 7
q16 0 30.5 -1.5t27.5 -5t25 -9t23 -12.5q22 -14 37.5 -34.5t26.5 -48.5q13 -34 13 -78q0 -22 -3.5 -43.5t-10.5 -42.5l-5 -18l18 -1h7t9 -1q9 0 20 -0.5t24 -0.5h10v-102h-11q-6 0 -11.5 0.5t-10.5 0.5h-9q-13 1 -21 2l-72 6l-3 -6q-31 -66 -76 -120q-11 -13 -23 -25.5
t-25 -24.5t-27 -23t-29 -21q-22 -16 -44 -26t-45 -15t-47 -5q-51 0 -88.5 20t-62.5 61q-53 84 -56 243v11h77z" />
    <glyph glyph-name="uniFE74" unicode="&#x20;&#x64d;" horiz-adv-x="769" arabic-form="isolated" 
d="M27 -478v122l449 184v-122zM27 -231v122l449 184v-122z" />
    <glyph glyph-name="uniFE76" unicode="&#x20;&#x64e;" horiz-adv-x="769" arabic-form="isolated" 
d="M9 1294v122l449 184v-122z" />
    <glyph glyph-name="uniFE78" unicode="&#x20;&#x64f;" horiz-adv-x="769" arabic-form="isolated" 
d="M529 1417l-130 8q-136 -180 -375 -193v97q158 7 252 109l14 15q-23 8 -41 15q-118 48 -118 142q-1 97 67 152q37 30 100 30q66 0 118 -51q48 -48 49 -130q-1 -34 -20 -95l84 -3v-96zM347 1532q21 56 21 82q0 76 -70 78q-42 1 -61 -34q-9 -16 -9 -38q1 -25 16 -42
q19 -18 47 -28q25 -8 29 -9q8 -3 27 -9z" />
    <glyph glyph-name="uniFE7A" unicode="&#x20;&#x650;" horiz-adv-x="769" arabic-form="isolated" 
d="M52 -338v122l449 184v-122z" />
    <glyph glyph-name="uniFE7C" unicode="&#x20;&#x651;" horiz-adv-x="769" arabic-form="isolated" 
d="M151 1631l1 -89q2 -67 77 -64q81 2 82 83v131q36 12 94 18l2 -98q1 -73 85 -73q74 0 71 86l-2 81q78 51 93 61l5 -58q27 -329 -151 -328q-77 0 -130 54q-48 -116 -163 -115q-170 1 -153 262l5 83q64 -25 84 -34z" />
    <glyph glyph-name="uniFE7E" unicode="&#x20;&#x652;" horiz-adv-x="769" arabic-form="isolated" 
d="M527 1686q5 5 8.5 9.5t7.5 9.5q6 9 10.5 19.5t6.5 22t2 24.5q0 17 -4 32t-11.5 28t-19.5 25q-17 17 -38.5 25.5t-46.5 8.5q-13 0 -24.5 -2t-22 -6.5t-20.5 -10.5t-18 -15q-17 -17 -25.5 -38.5t-8.5 -46.5q0 -17 3.5 -32t11 -28.5t19.5 -24.5q17 -17 38.5 -25.5t46.5 -8.5
q8 0 16 1t15.5 3t15.5 4q21 9 38 26zM660 1772q0 -23 -3.5 -44.5t-11.5 -40.5q-4 -10 -9 -19t-11 -18q-12 -18 -28 -34q-5 -5 -10.5 -9.5l-11 -9t-11.5 -8.5t-12 -7.5t-12.5 -6.5t-12.5 -6q-20 -8 -41 -12t-43 -4q-16 0 -30 1.5t-28 5.5t-27 9t-25 12q-24 14 -45 35
q-63 64 -63 155.5t63 154.5t155 63q22 0 43 -4t40.5 -11.5t37.5 -19.5t33 -28q5 -4 9 -9t8 -9q8 -10 14 -20q2 -4 4 -7q1 -2 2 -3.5t2 -3.5q2 -4 4 -7q2 -6 4.5 -11.5t4.5 -10.5q1 -3 1.5 -6t1.5 -6q2 -6 3 -12v0l4 -24v0q0 -3 0.5 -5.5t0.5 -4.5v-2.5v-2.5v-2.5v-2.5v-5z
" />
    <glyph glyph-name="uniFEF5" unicode="&#xfedf;&#xfe82;" horiz-adv-x="1197" arabic-form="isolated" 
d="M201 1470q-86 -1 -184 -89q-33 21 -51 45q60 155 97 190q47 46 103 46t167 -14q159 -21 274 8q63 16 70 1q5 -10 -13 -38q-51 -78 -108 -124.5t-355 -24.5zM717 332q158 93 158 243q-1 199 -59 722l187 132q47 32 51 28q8 -8 9 -47l6 -771q3 -337 -203 -505
q-198 -162 -629 -162q-102 104 -172 199q-49 66 28 66q304 -1 439 30q-144 478 -456 901l165 134q25 20 29 18q5 -2 21 -26q237 -373 426 -962z" />
    <glyph glyph-name="uniFEF6" unicode="&#xfee0;&#xfe82;" horiz-adv-x="1281" arabic-form="final" 
d="M201 1470q-86 -1 -184 -89q-33 21 -51 45q60 155 97 190q47 46 103 46t167 -14q159 -21 274 8q63 16 70 1q5 -10 -13 -38q-51 -78 -108 -124.5t-355 -24.5zM717 332q156 94 158 233q2 147 -59 732l188 132q45 33 50 28q8 -9 8 -48l7 -770q2 -266 91 -324q33 -21 95 -21
h31q25 0 25 -97v-73q0 -124 -25 -124h-52q-224 0 -317 183q-209 -211 -680 -211q-102 104 -172 199q-49 66 28 66q303 -1 439 30q-144 478 -456 901l165 134q25 20 30 18q3 -1 20 -26q247 -404 426 -962z" />
    <glyph glyph-name="uniFEF7" unicode="&#xfedf;&#xfe84;" horiz-adv-x="1197" arabic-form="isolated" 
d="M17 1305l25 168q7 3 63 29l22 10l-22 10q-107 45 -70 192q46 180 221 179q79 0 147 -63l16 -15l-43 -96q-174 55 -237 -30q-11 -15 -1 -32q47 -82 214 -40q51 13 60 7t8 -44l-1 -100q-130 -44 -402 -175zM717 332q158 93 158 243q-1 199 -59 722l187 132q47 32 51 28
q8 -8 9 -47l6 -771q3 -337 -203 -505q-198 -162 -629 -162q-102 104 -172 199q-49 66 28 66q304 -1 439 30q-144 478 -456 901l165 134q25 20 29 18q5 -2 21 -26q237 -373 426 -962z" />
    <glyph glyph-name="uniFEF8" unicode="&#xfee0;&#xfe84;" horiz-adv-x="1281" arabic-form="final" 
d="M17 1305l25 168q7 3 63 29l22 10l-22 10q-107 45 -70 192q46 180 221 179q79 0 147 -63l16 -15l-43 -96q-174 55 -237 -30q-11 -15 -1 -32q47 -82 214 -40q51 13 60 7t8 -44l-1 -100q-130 -44 -402 -175zM717 332q156 94 158 233q2 147 -59 732l188 132q45 33 50 28
q8 -9 8 -48l7 -770q2 -266 91 -324q33 -21 95 -21h31q25 0 25 -97v-73q0 -124 -25 -124h-52q-224 0 -317 183q-209 -211 -680 -211q-102 104 -172 199q-49 66 28 66q303 -1 439 30q-144 478 -456 901l165 134q25 20 30 18q3 -1 20 -26q247 -404 426 -962z" />
    <glyph glyph-name="uniFEF9" unicode="&#xfedf;&#xfe88;" horiz-adv-x="1197" arabic-form="isolated" 
d="M161 -721l25 168q7 3 63 29l22 10l-22 10q-107 45 -70 192q46 180 221 179q79 0 147 -63l16 -15l-43 -96q-174 55 -237 -30q-11 -15 -1 -32q47 -82 214 -40q51 13 60 7t8 -44l-1 -100q-130 -44 -402 -175zM717 332q158 93 158 243q-1 199 -59 722l187 132q47 32 51 28
q8 -8 9 -47l6 -771q3 -337 -203 -505q-198 -162 -629 -162q-102 104 -172 199q-49 66 28 66q304 -1 439 30q-144 478 -456 901l165 134q25 20 29 18q5 -2 21 -26q237 -373 426 -962z" />
    <glyph glyph-name="uniFEFA" unicode="&#xfee0;&#xfe88;" horiz-adv-x="1281" arabic-form="final" 
d="M161 -721l25 168q7 3 63 29l22 10l-22 10q-107 45 -70 192q46 180 221 179q79 0 147 -63l16 -15l-43 -96q-174 55 -237 -30q-11 -15 -1 -32q47 -82 214 -40q51 13 60 7t8 -44l-1 -100q-130 -44 -402 -175zM717 332q156 94 158 233q2 147 -59 732l188 132q45 33 50 28
q8 -9 8 -48l7 -770q2 -266 91 -324q33 -21 95 -21h31q25 0 25 -97v-73q0 -124 -25 -124h-52q-224 0 -317 183q-209 -211 -680 -211q-102 104 -172 199q-49 66 28 66q303 -1 439 30q-144 478 -456 901l165 134q25 20 30 18q3 -1 20 -26q247 -404 426 -962z" />
    <glyph glyph-name="uniFEFB" unicode="&#xfedf;&#xfe8e;" horiz-adv-x="1197" arabic-form="isolated" 
d="M717 332q158 93 158 243q-1 199 -59 722l187 132q47 32 51 28q8 -8 9 -47l6 -771q3 -337 -203 -505q-198 -162 -629 -162q-102 104 -172 199q-49 66 28 66q304 -1 439 30q-144 478 -456 901l165 134q25 20 29 18q5 -2 21 -26q237 -373 426 -962z" />
    <glyph glyph-name="uniFEFC" unicode="&#xfee0;&#xfe8e;" horiz-adv-x="1281" arabic-form="final" 
d="M717 332q156 94 158 233q2 147 -59 732l188 132q45 33 50 28q8 -9 8 -48l7 -770q2 -266 91 -324q33 -21 95 -21h31q25 0 25 -97v-73q0 -124 -25 -124h-52q-224 0 -317 183q-209 -211 -680 -211q-102 104 -172 199q-49 66 28 66q303 -1 439 30q-144 478 -456 901l165 134
q25 20 30 18q3 -1 20 -26q247 -404 426 -962z" />
    <glyph glyph-name="uni0651064B" unicode="&#x64b;&#x651;" 
d="M350 1032v122l449 184v-122zM350 1279v122l449 184v-122zM371 929l1 -89q2 -67 77 -64q81 2 82 83v131q36 12 94 18l2 -98q1 -73 85 -73q74 0 71 86l-2 81q78 51 93 61l5 -58q27 -329 -151 -328q-77 0 -130 54q-48 -116 -163 -115q-170 1 -153 262l5 83q64 -25 84 -34z
" />
    <glyph glyph-name="uni0651064C" unicode="&#x64c;&#x651;" 
d="M610 1623q-21 0 -37 -4t-26 -14q-20 -17 -20 -56q0 -28 19 -49l6.5 -6.5t8 -6.5t9 -5.5t10 -5.5t11.5 -5t12 -5q16 -6 45 -15l9 -3l12 29q2 4 3.5 8.5l3 9t2.5 8.5q3 13 3 25q0 40 -14 61q-14 23 -42 31l-8 2q-2 0 -3.5 0.5t-3.5 0.5zM269 1394q2 -32 4.5 -57t5.5 -43
t6 -29q16 -51 41 -74q26 -24 63 -23q13 1 26 3t26 6.5t26 11.5q38 18 77 56q23 22 41 46t31 50l8 17l-18 3q-131 28 -175 135q-4 10 -6 22q0 7 -0.5 14.5t-0.5 16.5v9.5t0.5 9l1 9l1 9t1.5 8.5t2.5 8t2.5 8q9 28 24.5 49.5t36.5 35.5q7 5 14.5 9t16 7t17.5 6q26 7 58 7
q16 0 30.5 -1.5t27.5 -5t25 -9t23 -12.5q22 -14 37.5 -34.5t26.5 -48.5q13 -34 13 -78q0 -22 -3.5 -43.5t-10.5 -42.5l-5 -18l18 -1h7t9 -1q9 0 20 -0.5t24 -0.5h10v-102h-11q-6 0 -11.5 0.5t-10.5 0.5h-9q-13 1 -21 2l-72 6l-3 -6q-31 -66 -76 -120q-11 -13 -23 -25.5
t-25 -24.5t-27 -23t-29 -21q-22 -16 -44 -26t-45 -15t-47 -5q-51 0 -88.5 20t-62.5 61q-53 84 -56 243v11h77zM359 943l1 -89q2 -67 77 -64q81 2 82 83v131q36 12 94 18l2 -98q1 -73 85 -73q74 0 71 86l-2 81q78 51 93 61l5 -58q27 -329 -151 -328q-77 0 -130 54
q-48 -116 -163 -115q-170 1 -153 262l5 83q64 -25 84 -34z" />
    <glyph glyph-name="uni064B0651" unicode="&#x64d;&#x651;" 
d="M321 1647l1 -89q2 -67 77 -64q81 2 82 83v131q36 12 94 18l2 -98q1 -73 85 -73q74 0 71 86l-2 81q78 51 93 61l5 -58q27 -329 -151 -328q-77 0 -130 54q-48 -116 -163 -115q-170 1 -153 262l5 83q64 -25 84 -34zM347 723v122l449 184v-122zM347 970v122l449 184v-122z
" />
    <glyph glyph-name="uni0651064E" unicode="&#x64e;&#x651;" 
d="M321 1245v122l449 184v-122zM377 1127l1 -89q2 -67 77 -64q81 2 82 83v131q36 12 94 18l2 -98q1 -73 85 -73q74 0 71 86l-2 81q78 51 93 61l5 -58q27 -329 -151 -328q-77 0 -130 54q-48 -116 -163 -115q-170 1 -153 262l5 83q64 -25 84 -34z" />
    <glyph glyph-name="uni0651064F" unicode="&#x64f;&#x651;" 
d="M798 1256l-130 8q-136 -180 -375 -193v97q158 7 252 109l14 15q-23 8 -41 15q-118 48 -118 142q-1 97 67 152q37 30 100 30q66 0 118 -51q48 -48 49 -130q-1 -34 -20 -95l84 -3v-96zM616 1371q21 56 21 82q0 76 -70 78q-42 1 -61 -34q-9 -16 -9 -38q1 -25 16 -42
q19 -18 47 -28q25 -8 29 -9q8 -3 27 -9zM360 967l1 -89q2 -67 77 -64q81 2 82 83v131q36 12 94 18l2 -98q1 -73 85 -73q74 0 71 86l-2 81q78 51 93 61l5 -58q27 -329 -151 -328q-77 0 -130 54q-48 -116 -163 -115q-170 1 -153 262l5 83q64 -25 84 -34z" />
    <glyph glyph-name="uni064E0651" unicode="&#x650;&#x651;" 
d="M361 1540l1 -89q2 -67 77 -64q81 2 82 83v131q36 12 94 18l2 -98q1 -73 85 -73q74 0 71 86l-2 81q78 51 93 61l5 -58q27 -329 -151 -328q-77 0 -130 54q-48 -116 -163 -115q-170 1 -153 262l5 83q64 -25 84 -34zM371 903v122l449 184v-122z" />
    <glyph glyph-name="uni0654064E" unicode="&#x64e;&#x654;" 
d="M395 1690v122l449 184v-122zM444 1088l25 168q7 3 63 29l22 10l-22 10q-107 45 -70 192q46 180 221 179q79 0 147 -63l16 -15l-43 -96q-174 55 -237 -30q-11 -15 -1 -32q47 -82 214 -40q51 13 60 7t8 -44l-1 -100q-130 -44 -402 -175z" />
    <glyph glyph-name="uni0654064F" unicode="&#x64f;&#x654;" 
d="M907 1745l-130 8q-136 -180 -375 -193v97q158 7 252 109l14 15q-23 8 -41 15q-118 48 -118 142q-1 97 67 152q37 30 100 30q66 0 118 -51q48 -48 49 -130q-1 -34 -20 -95l84 -3v-96zM725 1860q21 56 21 82q0 76 -70 78q-42 1 -61 -34q-9 -16 -9 -38q1 -25 16 -42
q19 -18 47 -28q25 -8 29 -9q8 -3 27 -9zM454 975l25 168q7 3 63 29l22 10l-22 10q-107 45 -70 192q46 180 221 179q79 0 147 -63l16 -15l-43 -96q-174 55 -237 -30q-11 -15 -1 -32q47 -82 214 -40q51 13 60 7t8 -44l-1 -100q-130 -44 -402 -175z" />
    <glyph glyph-name="uni066E.fina" unicode="&#x66e;" horiz-adv-x="1942" 
d="M1947 0h-18q-268 0 -351 231q-215 -231 -728 -231q-361 0 -543 100q-210 116 -211 349q0 188 86 356l111 -35q-31 -111 -32 -196q0 -72 37 -128q103 -155 579 -155q354 0 543 97q149 75 184 219l117 -15q-8 -63 -8 -82q0 -216 219 -216h15q25 0 25 -97v-73
q0 -124 -25 -124z" />
    <glyph glyph-name="uni066F.fina" unicode="&#x66f;" horiz-adv-x="1409" 
d="M1144 1h-120q-354 -1 -356 264q0 71 27 167q46 160 134 242q65 61 156 61q175 -1 257 -189q49 -114 59 -251l113 -1q25 0 25 -97v-73q0 -124 -25 -124h-121q-5 -144 -36 -223q-125 -313 -578 -312q-311 0 -454 154q-135 146 -135 358q0 220 100 441l118 -39
q-52 -171 -52 -294q0 -135 62 -212q104 -128 361 -128q360 2 449 187q15 32 16 69zM1137 289q-50 200 -185 200q-88 0 -115 -85q-7 -23 -7 -42q0 -72 136 -73h171z" />
    <glyph glyph-name="uni06A1.init" unicode="&#x6a1;" horiz-adv-x="822" 
d="M-5 0q-55 0 -55 144v33q0 117 55 117h204q370 0 381 129l1 14q-96 -19 -198 -19q-274 0 -272 249q0 40 7 87q25 166 112 268q74 87 186 87q174 0 265 -215q60 -141 60 -377q0 -298 -150 -412q-139 -105 -398 -105h-198zM573 681q-44 186 -188 185q-77 0 -107 -80
q-23 -59 1 -90q26 -35 127 -35q109 0 167 20z" />
    <glyph glyph-name="uni06A1.medi" unicode="&#x6a1;" horiz-adv-x="907" 
d="M912 0h-42q-223 0 -394 170q-184 -170 -458 -170h-23q-55 0 -55 144v33q0 117 55 117h22q172 0 243 38q-89 103 -89 237q0 114 75 228q99 149 248 149q126 -1 227 -146q73 -106 73 -215q0 -147 -105 -260q58 -31 190 -31h33q25 0 25 -97v-73q0 -124 -25 -124zM368 460
q80 -70 115 -70t93 55q57 55 57 96q-1 43 -57 95q-43 42 -99 42q-51 1 -94 -46q-51 -55 -51 -98t36 -74z" />
    <glyph glyph-name="uni06A1.fina" unicode="&#x6a1;" horiz-adv-x="1893" 
d="M1676 315q36 -20 193 -20h31q23 0 23 -98v-73q0 -124 -23 -124h-30q-238 0 -405 160q-207 -160 -645 -160q-331 0 -513 100q-210 116 -211 349q0 188 86 356l111 -35q-31 -111 -32 -196q0 -72 37 -128q103 -155 521 -155q311 0 428 31q-89 103 -89 247q0 114 75 228
q99 149 248 149q126 -1 227 -146q73 -106 73 -215q0 -157 -105 -270zM1355 460q80 -70 115 -70t92 55q58 55 57 96q0 41 -56 95q-43 42 -99 42q-51 1 -94 -46q-51 -55 -51 -98t36 -74z" />
    <glyph glyph-name="uni06CA.fina" unicode="&#x6ca;" horiz-adv-x="816" 
d="M240 1208l156 -156l-156 -156l-157 156zM563 1208l156 -156l-156 -156l-156 156zM346 -506q-62 -32 -106 -36q-46 -4 -133 50q-110 68 -115 100q-1 10 77 40q312 118 422 278q30 44 38 74l-87 -1q-354 -2 -356 265q0 71 27 167q46 160 134 242q65 61 156 61
q175 -1 257 -190q49 -113 59 -250h102q25 0 25 -97v-73q0 -124 -25 -124h-114q-31 -170 -118 -293q-96 -137 -243 -213zM555 287q-50 201 -185 201q-88 0 -115 -85q-7 -23 -7 -42q0 -72 136 -73z" />
    <glyph glyph-name="uniFB56" unicode="&#x67e;" horiz-adv-x="1864" arabic-form="isolated" 
d="M885 -694l-148 148l148 148l148 -148zM903 -304l148 148l148 -148l-148 -149zM867 -304l-148 -149l-148 149l148 148zM868 291q526 0 609 78q28 27 20 65q-12 62 -82 225l138 179q13 16 27 16q15 1 31 -27q82 -144 82 -348q0 -117 -51 -205q-157 -274 -791 -274
q-361 0 -543 100q-210 116 -211 349q0 188 86 356l111 -35q-31 -111 -32 -196q0 -72 37 -128q103 -155 569 -155z" />
    <glyph glyph-name="uniFB57" unicode="&#x67e;" horiz-adv-x="1942" arabic-form="final" 
d="M868 -694l-148 148l148 148l148 -148zM886 -304l148 148l148 -148l-148 -149zM850 -304l-148 -149l-148 149l148 148zM1947 0h-18q-268 0 -351 231q-215 -231 -728 -231q-361 0 -543 100q-210 116 -211 349q0 188 86 356l111 -35q-31 -111 -32 -196q0 -72 37 -128
q103 -155 579 -155q354 0 543 97q149 75 184 219l117 -15q-8 -63 -8 -82q0 -216 219 -216h15q25 0 25 -97v-73q0 -124 -25 -124z" />
    <glyph glyph-name="uniFB58" unicode="&#x67e;" horiz-adv-x="626" arabic-form="initial" 
d="M354 373q0 82 -83 276l136 176q23 30 30 30t25 -30q87 -151 88 -353q0 -200 -91 -316q-121 -156 -364 -156h-100q-55 0 -55 144v33q0 117 55 117h104q217 0 248 45q7 11 7 34zM260 -694l-148 148l148 148l148 -148zM278 -304l148 148l148 -148l-148 -149zM242 -304
l-148 -149l-148 149l148 148z" />
    <glyph glyph-name="uniFB59" unicode="&#x67e;" horiz-adv-x="728" arabic-form="medial" 
d="M733 0h-21q-199 0 -299 159q-104 -159 -324 -159h-94q-55 0 -55 144v33q0 117 55 117h89q246 0 259 148l15 172h133l16 -169q14 -151 206 -151h20q25 0 25 -97v-73q0 -124 -25 -124zM292 -694l-148 148l148 148l148 -148zM310 -304l148 148l148 -148l-148 -149zM274 -304
l-148 -149l-148 149l148 148z" />
    <glyph glyph-name="uniFB7A" unicode="&#x686;" horiz-adv-x="1296" arabic-form="isolated" 
d="M765.285 -335.338l-140.594 140.593l140.594 140.593l140.592 -140.593zM782.384 35.1436l140.593 140.593l140.593 -140.593l-140.593 -141.543zM748.186 35.1436l-140.593 -141.543l-140.593 141.543l140.593 140.593zM730 -699q-315 0 -473 148q-140 132 -140 396
q0 500 582 705q-4 0 -99 22q-149 34 -219 34q-98 0 -198 -119l-106 55l7 19q106 304 305 304q96 0 587 -147q93 -28 237 -31q18 0 13 -16l-96 -255q-372 -50 -573 -169q-284 -168 -284 -380q0 -305 452 -305q185 0 306 15q86 11 123 16q58 7 31 -43l-77 -139
q-50 -90 -156 -101q-84 -9 -222 -9z" />
    <glyph glyph-name="uniFB7B" unicode="&#x686;" horiz-adv-x="1319" arabic-form="final" 
d="M656.66 -369.525l-131.344 131.343l131.344 131.343l131.342 -131.343zM672.634 -23.4189l131.343 131.343l131.343 -131.343l-131.343 -132.23zM640.686 -23.4189l-131.343 -132.23l-131.343 132.23l131.343 131.343zM117 -155q1 500 582 705q-4 0 -99 22
q-149 34 -219 34q-98 0 -198 -119l-106 55l7 19q106 304 305 304q96 0 587 -147q93 -28 237 -31q18 0 13 -16l-96 -255q-78 -10 -151 -24l1 -10q8 -88 315 -88h29q25 0 25 -97v-73q0 -124 -25 -124h-80q-374 0 -405 360q-169 -45 -284 -113q-282 -166 -282 -380
q0 -305 452 -305q185 0 306 15q86 11 123 16q58 7 31 -43l-77 -139q-50 -90 -156 -101q-84 -9 -222 -9q-315 0 -473 148q-140 132 -140 396z" />
    <glyph glyph-name="uniFB7C" unicode="&#x686;" horiz-adv-x="1300" arabic-form="initial" 
d="M601 -694l-148 148l148 148l148 -148zM619 -304l148 148l148 -148l-148 -149zM583 -304l-148 -149l-148 149l148 148zM-5 0q-55 0 -55 144v33q0 117 55 117h201q184 0 385 83l249 103q-97 29 -210 71q-144 53 -203 53q-125 0 -236 -134l-106 55l9 23q120 313 346 325
q108 6 312 -89q314 -146 438 -156q27 -2 73 -2q16 0 10 -19l-63 -206q-181 -44 -494 -203q-389 -198 -554 -198h-157z" />
    <glyph glyph-name="uniFB7D" unicode="&#x686;" horiz-adv-x="1327" arabic-form="medial" 
d="M620 -694l-148 148l148 148l148 -148zM638 -304l148 148l148 -148l-148 -149zM602 -304l-148 -149l-148 149l148 148zM1180 628q25 -2 73 -2q16 0 10 -19l-65 -206q-133 -17 -209 -54q44 -53 161 -53h182q25 0 25 -97v-73q0 -124 -25 -124h-155q-302 0 -351 272
q-252 -130 -256 -132q-258 -140 -498 -140h-77q-55 0 -55 144v33q0 117 55 117h101q284 0 485 83l249 103q-97 29 -210 71q-144 53 -203 53q-125 0 -236 -134l-106 55l9 23q120 313 346 325q108 6 312 -89q309 -144 438 -156z" />
    <glyph glyph-name="uniFB8A" unicode="&#x698;" horiz-adv-x="752" arabic-form="isolated" 
d="M381 931l-148 -149l-148 149l148 148zM417 931l148 148l148 -148l-148 -149zM399 1320l148 -148l-148 -148l-149 148zM627 -185q-107 -220 -303 -321q-62 -32 -106 -36q-46 -4 -133 50q-110 68 -115 100q-1 10 77 40q411 157 467 372q8 31 6 53q-14 114 -171 311l171 235
q3 4 7 4q5 0 10 -6q87 -99 128 -228q37 -116 37 -257q0 -165 -75 -317z" />
    <glyph glyph-name="uniFB8B" unicode="&#x698;" horiz-adv-x="854" arabic-form="final" 
d="M422 890l-148 -149l-148 149l148 148zM458 890l148 148l148 -148l-148 -149zM440 1279l148 -148l-148 -148l-149 148zM324 -506q-62 -32 -106 -36q-46 -4 -133 50q-110 68 -115 100q-1 10 77 40q411 156 467 372q8 31 6 53q-13 107 -148 273l161 225q9 12 17 -2
q28 -46 148 -217q41 -58 124 -58h27q25 0 25 -117v-53q0 -124 -25 -124h-32q-67 0 -120 39q-22 -128 -69 -226q-102 -216 -304 -319z" />
    <glyph glyph-name="uniFB8E" unicode="&#x6a9;" horiz-adv-x="1892" arabic-form="isolated" 
d="M1605 453q0 -148 -94 -244q-202 -209 -691 -209q-331 0 -513 100q-210 116 -211 349q0 188 86 356l111 -35q-31 -111 -32 -196q0 -72 37 -128q103 -155 539 -155q397 0 573 92q32 17 29 33q-15 99 -510 493l56 275l800 295q40 15 30 -49l-31 -201l-595 -209
q415 -341 416 -567z" />
    <glyph glyph-name="uniFB8F" unicode="&#x6a9;" horiz-adv-x="2115" arabic-form="final" 
d="M1434 419q-1 89 -506 490l56 275l800 295q40 15 30 -49l-31 -201l-595 -209q162 -142 472 -499q197 -227 443 -227h13q25 0 25 -97v-73q0 -124 -25 -124h-13q-305 0 -532 311q-12 -54 -61 -105q-200 -206 -690 -206q-331 0 -513 100q-210 116 -211 349q0 188 86 356
l111 -35q-31 -111 -32 -196q0 -72 37 -128q103 -155 539 -155q402 0 573 92q24 13 24 36z" />
    <glyph glyph-name="uniFB90" unicode="&#x6a9;" horiz-adv-x="975" arabic-form="initial" 
d="M-5 0q-55 0 -55 144v33q0 117 55 117h104q325 0 397 55q43 32 43 67q0 86 -510 493l56 275l800 295q40 15 30 -49l-31 -201l-595 -209q415 -341 416 -567q0 -178 -94 -275q-173 -178 -507 -178h-109z" />
    <glyph glyph-name="uniFB91" unicode="&#x6a9;" horiz-adv-x="1212" arabic-form="medial" 
d="M29 909l56 275l800 295q40 15 30 -49l-31 -201l-595 -209q162 -142 472 -499q197 -227 443 -227h13q25 0 25 -97v-73q0 -124 -25 -124h-13q-306 0 -532 313q-29 -69 -63 -111q-162 -202 -504 -202h-110q-55 0 -55 144v33q0 117 55 117h103q308 0 378 46q51 33 51 79
q-1 97 -498 490z" />
    <glyph glyph-name="uniFB92" unicode="&#x6af;" horiz-adv-x="1892" arabic-form="isolated" 
d="M1189 961q369 -288 369 -494q0 -163 -100 -266q-195 -201 -638 -201q-331 0 -513 100q-210 116 -211 349q0 188 86 356l111 -35q-31 -111 -32 -196q0 -72 37 -128q103 -155 529 -155q395 0 555 100q24 15 24 34q0 9 -5 19q-43 84 -472 406l56 275l800 295q41 15 31 -49
l-32 -201zM1828.07 1667.48l-20.415 -115.684l-798.445 -294.88l26.0859 146.306l766.689 289.21q34.0244 12.4756 26.085 -24.9521z" />
    <glyph glyph-name="uniFB93" unicode="&#x6af;" horiz-adv-x="2036" arabic-form="final" 
d="M1189 961q160 -146 436 -412q263 -255 403 -255h12q25 0 25 -97v-73q0 -124 -25 -124h-12q-252 0 -489 315q-41 -109 -191 -200q-189 -115 -528 -115q-331 0 -513 100q-210 116 -211 349q0 188 86 356l111 -35q-31 -111 -32 -196q0 -72 37 -128q103 -155 529 -155
q395 0 555 100q24 15 24 34q0 9 -5 19q-43 84 -472 406l56 275l800 295q41 15 31 -49l-32 -201zM1828.07 1667.48l-20.415 -115.684l-798.445 -294.88l26.0859 146.306l766.689 289.21q34.0244 12.4756 26.085 -24.9521z" />
    <glyph glyph-name="uniFB94" unicode="&#x6af;" horiz-adv-x="974" arabic-form="initial" 
d="M511 444q-61 120 -482 436l56 275l800 295q41 15 31 -49l-32 -201l-595 -209q377 -295 377 -547q0 -177 -118 -299q-140 -145 -449 -145h-104q-55 0 -55 144v33q0 117 55 117h101q373 0 413 92q14 34 2 58zM934.067 1697.48l-20.415 -115.684l-798.445 -294.88
l26.0859 146.306l766.689 289.21q34.0244 12.4756 26.085 -24.9521z" />
    <glyph glyph-name="uniFB95" unicode="&#x6af;" horiz-adv-x="1135" arabic-form="medial" 
d="M29 850l56 275l800 295q41 15 31 -49l-32 -201l-595 -209q99 -90 436 -412q266 -255 403 -255h12q25 0 25 -97v-73q0 -124 -25 -124h-12q-262 0 -499 315q-5 -78 -91 -170q-136 -145 -439 -145h-104q-55 0 -55 144v33q0 117 55 117h101q364 0 403 92q14 34 2 58
q-43 84 -472 406zM934.067 1667.48l-20.415 -115.684l-798.445 -294.88l26.0859 146.306l766.689 289.21q34.0244 12.4756 26.085 -24.9521z" />
    <glyph glyph-name="uniFB9E" unicode="&#x6ba;" horiz-adv-x="1395" arabic-form="isolated" 
d="M999 477l140 209q20 30 47 -13q122 -195 122 -442q0 -349 -217 -512q-159 -118 -410 -118q-303 0 -446 155q-135 146 -135 358q0 219 99 441l119 -39q-52 -171 -52 -294q0 -135 62 -212q104 -128 355 -128q301 0 417 180q44 70 21 144q-36 121 -122 271z" />
    <glyph glyph-name="uniFB9F" unicode="&#x6ba;" horiz-adv-x="1453" arabic-form="final" 
d="M1100 -74q44 68 21 143q-36 121 -122 271l139 209q19 29 40 -11l21 -39q62 -121 105 -166q37 -39 121 -39h33q25 0 25 -97v-73q0 -124 -25 -124h-33q-69 0 -123 47q-11 -316 -211 -464q-160 -118 -412 -118q-301 0 -444 154q-135 146 -135 358q0 220 100 441l118 -39
q-52 -171 -52 -294q0 -135 62 -212q104 -128 351 -128q304 0 421 181z" />
    <glyph glyph-name="uniFBAA" unicode="&#x6be;" horiz-adv-x="1226" arabic-form="isolated" 
d="M-5 0q-55 0 -55 144v33q0 117 55 117h265q-162 68 -120 275q34 169 195 290l16 12l-144 61l68 215l398 -193q322 -155 408 -291q110 -175 9 -404q-78 -176 -147 -180q-17 -1 -35 -1q-155 0 -400 77q-183 -155 -460 -155h-53zM669 388q193 -70 249 -75q44 65 44 122
q0 116 -185 198l-14 6q-2 -151 -94 -251zM516 439q70 51 97 138q18 59 -2 106q-17 40 -69 59q-25 9 -50 9q-81 0 -153 -105q-25 -36 -25 -68q0 -91 202 -139z" />
    <glyph glyph-name="uniFBAB" unicode="&#x6be;" horiz-adv-x="928" arabic-form="final" 
d="M933 0h-19q-277 0 -160 -441l-195 -133q-329 250 -397 574h-167q-55 0 -55 144v33q0 117 55 117h159q29 235 131 419q113 208 188 208q87 0 172 -128q111 -168 111 -299q-1 -128 -74 -259q-115 -205 -350 -236q86 -169 182 -226q140 521 398 521h21q25 0 25 -97v-73
q0 -124 -25 -124zM319 297q296 12 297 129q0 52 -160 236q-103 -172 -137 -365z" />
    <glyph glyph-name="uniFBAC" unicode="&#x6be;" horiz-adv-x="1226" arabic-form="initial" 
d="M-5 0q-55 0 -55 144v33q0 117 55 117h265q-162 68 -120 275q34 169 195 290l16 12l-144 61l68 215l398 -193q322 -155 408 -291q110 -175 9 -404q-78 -176 -147 -180q-17 -1 -35 -1q-155 0 -400 77q-183 -155 -460 -155h-53zM669 388q193 -70 249 -75q44 65 44 122
q0 116 -185 198l-14 6q-2 -151 -94 -251zM516 439q70 51 97 138q18 59 -2 106q-17 40 -69 59q-25 9 -50 9q-81 0 -153 -105q-25 -36 -25 -68q0 -91 202 -139z" />
    <glyph glyph-name="uniFBAD" unicode="&#x6be;" horiz-adv-x="928" arabic-form="medial" 
d="M933 0h-19q-277 0 -160 -441l-195 -133q-329 250 -397 574h-167q-55 0 -55 144v33q0 117 55 117h159q29 235 131 419q113 208 188 208q87 0 172 -128q111 -168 111 -299q-1 -128 -74 -259q-115 -205 -350 -236q86 -169 182 -226q140 521 398 521h21q25 0 25 -97v-73
q0 -124 -25 -124zM319 297q296 12 297 129q0 52 -160 236q-103 -172 -137 -365z" />
    <glyph glyph-name="uniFBE8" unicode="&#x649;" horiz-adv-x="626" arabic-form="initial" 
d="M354 373q0 82 -83 276l136 176q23 30 30 30t25 -30q87 -151 88 -353q0 -200 -91 -316q-121 -156 -364 -156h-100q-55 0 -55 144v33q0 117 55 117h104q217 0 248 45q7 11 7 34z" />
    <glyph glyph-name="uniFBE9" unicode="&#x649;" horiz-adv-x="728" arabic-form="medial" 
d="M733 0h-21q-199 0 -299 159q-104 -159 -324 -159h-94q-55 0 -55 144v33q0 117 55 117h89q246 0 259 148l15 172h133l16 -169q14 -151 206 -151h20q25 0 25 -97v-73q0 -124 -25 -124z" />
    <glyph glyph-name="uniFBFC" unicode="&#x6cc;" horiz-adv-x="1474" arabic-form="isolated" 
d="M677 -221q356 0 494 181q22 29 -6 34l-188 33q-89 13 -152 28q-83 20 -83 135q0 62 28 159q53 180 164 296q135 140 300 140q82 0 169 -29q-14 -143 -41 -250l-54 6q-36 3 -62 3q-188 -3 -317 -202l-11 -17l259 -49q171 -32 173 -177q0 -39 -10 -86q-46 -225 -208 -351
q-174 -135 -455 -135q-301 0 -444 155q-135 145 -135 358q0 219 100 441l118 -39q-52 -172 -52 -295q0 -135 63 -211q105 -129 350 -128z" />
    <glyph glyph-name="uniFBFD" unicode="&#x6cc;" horiz-adv-x="1441" arabic-form="final" 
d="M679 -535q-301 0 -444 154q-135 146 -135 358q0 220 100 441l118 -39q-52 -171 -52 -294q0 -135 62 -212q104 -128 351 -128q321 0 465 127q24 21 22 38q-2 16 -15 28q-42 40 -297 65q-29 3 -29 40q0 5 1 11q22 240 125 240h495q25 0 25 -97v-73q0 -124 -25 -124h-155
q37 -42 37 -111q-1 -176 -186 -302q-180 -122 -463 -122z" />
    <glyph glyph-name="uniFBFE" unicode="&#x6cc;" horiz-adv-x="626" arabic-form="initial" 
d="M98 -179l156 -156l-156 -156l-157 156zM421 -179l156 -156l-156 -156l-156 156zM354 373q0 82 -83 276l136 176q23 30 30 30t25 -30q87 -151 88 -353q0 -200 -91 -316q-121 -156 -364 -156h-100q-55 0 -55 144v33q0 117 55 117h104q217 0 248 45q7 11 7 34z" />
    <glyph glyph-name="uniFBFF" unicode="&#x6cc;" horiz-adv-x="728" arabic-form="medial" 
d="M130 -178l156 -156l-156 -156l-157 156zM453 -178l156 -156l-156 -156l-156 156zM733 0h-21q-199 0 -299 159q-104 -159 -324 -159h-94q-55 0 -55 144v33q0 117 55 117h89q246 0 259 148l15 172h133l16 -169q14 -151 206 -151h20q25 0 25 -97v-73q0 -124 -25 -124z" />
    <glyph glyph-name="uniFDFC" unicode="&#xfdfc;" horiz-adv-x="2565" arabic-form="isolated" 
d="M2377 -82q-107 -220 -303 -321q-62 -32 -106 -36q-46 -4 -133 50q-110 68 -115 100q-1 10 77 40q411 157 467 372q8 31 6 53q-14 114 -171 311l171 235q3 4 7 4q5 0 10 -6q87 -99 128 -228q37 -116 37 -257q0 -165 -75 -317zM1834 217l171 -170l-171 -171l-158 159
l-159 -159l-171 171l171 170l159 -158zM1801 657q34 41 12 94q-25 60 -51 120l111 140q34 42 50 28q6 -5 9 -12q56 -103 56 -299q1 -216 -119 -318q-79 -67 -207 -67l-91 1q-213 0 -268 184q-28 92 -29 330q-1 285 -32 426l186 127q30 20 36 18q8 -4 8 -42l-3 -349
q-3 -305 33 -359q34 -53 102 -53h95q76 0 102 31zM1084 273q-55 -509 -483 -508q-234 1 -354 132q-112 122 -112 323q1 208 86 396l117 -41q-94 -300 10 -427q82 -101 236 -101q222 0 288 108q34 56 29 165q-8 222 -70 962l181 125q33 23 39 17q5 -5 7 -54l21 -538
q2 -127 7.5 -308t-2.5 -251z" />
    <glyph glyph-name="uniFE71" unicode="&#xfe71;" horiz-adv-x="769" arabic-form="medial" 
d="M519 0q-55 0 -55 124v73q0 97 55 97h255q25 0 25 -97v-73q0 -124 -25 -124h-255zM255 0q-55 0 -55 124v73q0 97 55 97h255q25 0 25 -97v-73q0 -124 -25 -124h-255zM-5 0q-55 0 -55 124v73q0 97 55 97h255q25 0 25 -97v-73q0 -124 -25 -124h-255zM163 1118v122l449 184
v-122zM163 1365v122l449 184v-122z" />
    <glyph glyph-name="uniFE77" unicode="&#xfe77;" horiz-adv-x="769" arabic-form="medial" 
d="M519 0q-55 0 -55 124v73q0 97 55 97h255q25 0 25 -97v-73q0 -124 -25 -124h-255zM255 0q-55 0 -55 124v73q0 97 55 97h255q25 0 25 -97v-73q0 -124 -25 -124h-255zM-5 0q-55 0 -55 124v73q0 97 55 97h255q25 0 25 -97v-73q0 -124 -25 -124h-255zM159 1294v122l449 184
v-122z" />
    <glyph glyph-name="uniFE79" unicode="&#xfe79;" horiz-adv-x="769" arabic-form="medial" 
d="M519 0q-55 0 -55 124v73q0 97 55 97h255q25 0 25 -97v-73q0 -124 -25 -124h-255zM255 0q-55 0 -55 124v73q0 97 55 97h255q25 0 25 -97v-73q0 -124 -25 -124h-255zM-5 0q-55 0 -55 124v73q0 97 55 97h255q25 0 25 -97v-73q0 -124 -25 -124h-255zM639 1417l-130 8
q-136 -180 -375 -193v97q158 7 252 109l14 15q-23 8 -41 15q-118 48 -118 142q-1 97 67 152q37 30 100 30q66 0 118 -51q48 -48 49 -130q-1 -34 -20 -95l84 -3v-96zM457 1532q21 56 21 82q0 76 -70 78q-42 1 -61 -34q-9 -16 -9 -38q1 -25 16 -42q19 -18 47 -28q25 -8 29 -9
q8 -3 27 -9z" />
    <glyph glyph-name="uniFE7B" unicode="&#xfe7b;" horiz-adv-x="769" arabic-form="medial" 
d="M519 0q-55 0 -55 124v73q0 97 55 97h255q25 0 25 -97v-73q0 -124 -25 -124h-255zM255 0q-55 0 -55 124v73q0 97 55 97h255q25 0 25 -97v-73q0 -124 -25 -124h-255zM-5 0q-55 0 -55 124v73q0 97 55 97h255q25 0 25 -97v-73q0 -124 -25 -124h-255zM160 -442v122l449 184
v-122z" />
    <glyph glyph-name="uniFE7D" unicode="&#xfe7d;" horiz-adv-x="769" arabic-form="medial" 
d="M519 0q-55 0 -55 124v73q0 97 55 97h255q25 0 25 -97v-73q0 -124 -25 -124h-255zM255 0q-55 0 -55 124v73q0 97 55 97h255q25 0 25 -97v-73q0 -124 -25 -124h-255zM-5 0q-55 0 -55 124v73q0 97 55 97h255q25 0 25 -97v-73q0 -124 -25 -124h-255zM164 1625l1 -89
q2 -67 77 -64q81 2 82 83v131q36 12 94 18l2 -98q1 -73 85 -73q74 0 71 86l-2 81q78 51 93 61l5 -58q27 -329 -151 -328q-77 0 -130 54q-48 -116 -163 -115q-170 1 -153 262l5 83q64 -25 84 -34z" />
    <glyph glyph-name="uniFE7F" unicode="&#xfe7f;" horiz-adv-x="769" arabic-form="medial" 
d="M519 0q-55 0 -55 124v73q0 97 55 97h255q25 0 25 -97v-73q0 -124 -25 -124h-255zM255 0q-55 0 -55 124v73q0 97 55 97h255q25 0 25 -97v-73q0 -124 -25 -124h-255zM-5 0q-55 0 -55 124v73q0 97 55 97h255q25 0 25 -97v-73q0 -124 -25 -124h-255zM467 1686q5 5 8.5 9.5
t7.5 9.5q6 9 10.5 19.5t6.5 22t2 24.5q0 17 -4 32t-11.5 28t-19.5 25q-17 17 -38.5 25.5t-46.5 8.5q-13 0 -24.5 -2t-22 -6.5t-20.5 -10.5t-18 -15q-17 -17 -25.5 -38.5t-8.5 -46.5q0 -17 3.5 -32t11 -28.5t19.5 -24.5q17 -17 38.5 -25.5t46.5 -8.5q8 0 16 1t15.5 3t15.5 4
q21 9 38 26zM600 1772q0 -23 -3.5 -44.5t-11.5 -40.5q-4 -10 -9 -19t-11 -18q-12 -18 -28 -34q-5 -5 -10.5 -9.5l-11 -9t-11.5 -8.5t-12 -7.5t-12.5 -6.5t-12.5 -6q-20 -8 -41 -12t-43 -4q-16 0 -30 1.5t-28 5.5t-27 9t-25 12q-24 14 -45 35q-63 64 -63 155.5t63 154.5
t155 63q22 0 43 -4t40.5 -11.5t37.5 -19.5t33 -28q5 -4 9 -9t8 -9q8 -10 14 -20q2 -4 4 -7q1 -2 2 -3.5t2 -3.5q2 -4 4 -7q2 -6 4.5 -11.5t4.5 -10.5q1 -3 1.5 -6t1.5 -6q2 -6 3 -12v0l4 -24v0q0 -3 0.5 -5.5t0.5 -4.5v-2.5v-2.5v-2.5v-2.5v-5z" />
    <glyph glyph-name="uniFE80" unicode="&#x621;" horiz-adv-x="891" arabic-form="isolated" 
d="M688 530q-100 50 -188 44q-104 -6 -163 -86q-12 -16 -11 -32q2 -36 69 -82q66 -44 89 -55q42 2 141 27l102 26q5 1 10 3q44 12 50 6q14 -15 10 -34q-3 -20 -4 -25l-17 -116l-686 -189l76 206l87 24l-12 13q-118 121 -56 310q46 142 184 192q54 19 110 20q150 2 253 -99
q-9 -50 -44 -153z" />
    <glyph glyph-name="uniFE81" unicode="&#x622;" horiz-adv-x="559" arabic-form="isolated" 
d="M220.816 -5.5q0 370.785 -15.6797 674.072q-12.7393 244.791 -56.8379 496.78l184.236 116.995q48.0186 31.499 54.8789 27.8994q7.83984 -3.60059 8.81934 -44.0986q14.7002 -420.283 14.7002 -562.478q0 -579.576 -43.1191 -659.673
q-33.3203 -60.2979 -131.318 -58.4971h-15.6797v8.99902zM169 1465q-86 -1 -184 -89q-33 21 -51 45q60 155 97 190q47 46 103 46t167 -14q159 -21 274 8q63 16 70 1q5 -10 -13 -38q-51 -78 -108 -124.5t-355 -24.5z" />
    <glyph glyph-name="uniFE82" unicode="&#x622;" horiz-adv-x="541" arabic-form="final" 
d="M546 0h-42q-157 0 -237 64q-122 97 -120 465v84q2 326 -55 542l180 135q38 29 43 27q6 -2 8 -45q12 -233 15 -443l3 -189q3 -235 39 -291q36 -55 140 -55h26q25 0 25 -117v-53q0 -124 -25 -124zM194 1464q-86 -1 -184 -89q-33 21 -51 45q60 155 97 190q47 46 103 46
t167 -14q159 -21 274 8q63 16 70 1q5 -10 -13 -38q-51 -78 -108 -124.5t-355 -24.5z" />
    <glyph glyph-name="uniFE83" unicode="&#x623;" horiz-adv-x="476" arabic-form="isolated" 
d="M180.816 -5.5q0 370.785 -15.6797 674.072q-12.7393 244.791 -56.8379 496.78l184.236 116.995q48.0186 31.499 54.8789 27.8994q7.83984 -3.60059 8.81934 -44.0986q14.7002 -420.283 14.7002 -562.478q0 -579.576 -43.1191 -659.673
q-33.3203 -60.2979 -131.318 -58.4971h-15.6797v8.99902zM30 1314l25 168q7 3 63 29l22 10l-22 10q-107 45 -70 192q46 180 221 179q79 0 147 -63l16 -15l-43 -96q-174 55 -237 -30q-11 -15 -1 -32q47 -82 214 -40q51 13 60 7t8 -44l-1 -100q-130 -44 -402 -175z" />
    <glyph glyph-name="uniFE84" unicode="&#x623;" horiz-adv-x="541" arabic-form="final" 
d="M546 0h-42q-157 0 -237 64q-122 97 -120 465v84q2 326 -55 542l180 135q38 29 43 27q6 -2 8 -45q12 -233 15 -443l3 -189q3 -235 39 -291q36 -55 140 -55h26q25 0 25 -117v-53q0 -124 -25 -124zM30 1315l25 168q7 3 63 29l22 10l-22 10q-107 45 -70 192q46 180 221 179
q79 0 147 -63l16 -15l-43 -96q-174 55 -237 -30q-11 -15 -1 -32q47 -82 214 -40q51 13 60 7t8 -44l-1 -100q-130 -44 -402 -175z" />
    <glyph glyph-name="uniFE85" unicode="&#x624;" horiz-adv-x="806" arabic-form="isolated" 
d="M200 843l25 168q7 3 63 29l22 10l-22 10q-107 45 -70 192q46 180 221 179q79 0 147 -63l16 -15l-43 -96q-174 55 -237 -30q-11 -15 -1 -32q47 -82 214 -40q51 13 60 7t8 -44l-1 -100q-130 -44 -402 -175zM346 -506q-62 -32 -106 -36q-46 -4 -133 50q-110 68 -115 100
q-1 10 77 40q316 121 422 278q31 47 40 77l-70 -4q-163 -8 -249 38q-125 68 -126 227q0 71 27 167q46 160 134 242q65 61 156 61q176 -1 257 -190q64 -149 64 -341q0 -294 -123 -480q-99 -149 -255 -229zM555 287q-50 201 -185 201q-88 0 -115 -85q-7 -23 -7 -42
q0 -50 66 -69q78 -23 220 -7z" />
    <glyph glyph-name="uniFE86" unicode="&#x624;" horiz-adv-x="816" arabic-form="final" 
d="M200 843l25 168q7 3 63 29l22 10l-22 10q-107 45 -70 192q46 180 221 179q79 0 147 -63l16 -15l-43 -96q-174 55 -237 -30q-11 -15 -1 -32q47 -82 214 -40q51 13 60 7t8 -44l-1 -100q-130 -44 -402 -175zM346 -506q-62 -32 -106 -36q-46 -4 -133 50q-110 68 -115 100
q-1 10 77 40q312 118 422 278q30 44 38 74l-87 -1q-354 -2 -356 265q0 71 27 167q46 160 134 242q65 61 156 61q175 -1 257 -190q49 -113 59 -250h102q25 0 25 -97v-73q0 -124 -25 -124h-114q-31 -170 -118 -293q-96 -137 -243 -213zM555 287q-50 201 -185 201
q-88 0 -115 -85q-7 -23 -7 -42q0 -72 136 -73z" />
    <glyph glyph-name="uniFE87" unicode="&#x625;" horiz-adv-x="464" arabic-form="isolated" 
d="M31 -691l25 168q7 3 63 29l22 10l-22 10q-107 45 -70 192q46 180 221 179q79 0 147 -63l16 -15l-43 -96q-174 55 -237 -30q-11 -15 -1 -32q47 -82 214 -40q51 13 60 7t8 -44l-1 -100q-130 -44 -402 -175zM159 -5q0 412 -16 749q-13 272 -58 552l188 130q49 35 56 31
q8 -4 9 -49q15 -467 15 -625q0 -644 -44 -733q-34 -67 -134 -65h-16v10z" />
    <glyph glyph-name="uniFE88" unicode="&#x625;" horiz-adv-x="541" arabic-form="final" 
d="M48 -684l25 168q7 3 63 29l22 10l-22 10q-107 45 -70 192q46 180 221 179q79 0 147 -63l16 -15l-43 -96q-174 55 -237 -30q-11 -15 -1 -32q47 -82 214 -40q51 13 60 7t8 -44l-1 -100q-130 -44 -402 -175zM546 0h-42q-279 0 -343 237q-24 90 -26 305l-1 138
q-4 440 -54 625l178 122q38 26 48 20q8 -5 10 -55q7 -171 11 -489l3 -265q3 -220 34 -272q45 -72 155 -72h27q25 0 25 -97v-73q0 -124 -25 -124z" />
    <glyph glyph-name="uniFE89" unicode="&#x626;" horiz-adv-x="1474" arabic-form="isolated" 
d="M316 641l25 168q7 3 63 29l22 10l-22 10q-107 45 -70 192q46 180 221 179q79 0 147 -63l16 -15l-43 -96q-174 55 -237 -30q-11 -15 -1 -32q47 -82 214 -40q51 13 60 7t8 -44l-1 -100q-130 -44 -402 -175zM677 -221q356 0 494 181q22 29 -6 34l-188 33q-89 13 -152 28
q-83 20 -83 135q0 62 28 159q53 180 164 296q135 140 300 140q82 0 169 -29q-14 -143 -41 -250l-54 6q-36 3 -62 3q-188 -3 -317 -202l-11 -17l259 -49q171 -32 173 -177q0 -39 -10 -86q-46 -225 -208 -351q-174 -135 -455 -135q-301 0 -444 155q-135 145 -135 358
q0 219 100 441l118 -39q-52 -172 -52 -295q0 -135 63 -211q105 -129 350 -128z" />
    <glyph glyph-name="uniFE8A" unicode="&#x626;" horiz-adv-x="1441" arabic-form="final" 
d="M502 504l25 168q7 3 63 29l22 10l-22 10q-107 45 -70 192q46 180 221 179q79 0 147 -63l16 -15l-43 -96q-174 55 -237 -30q-11 -15 -1 -32q47 -82 214 -40q51 13 60 7t8 -44l-1 -100q-130 -44 -402 -175zM679 -535q-301 0 -444 154q-135 146 -135 358q0 220 100 441
l118 -39q-52 -171 -52 -294q0 -135 62 -212q104 -128 351 -128q321 0 465 127q24 21 22 38q-2 16 -15 28q-42 40 -297 65q-29 3 -29 40q0 5 1 11q22 240 125 240h495q25 0 25 -97v-73q0 -124 -25 -124h-155q37 -42 37 -111q-1 -176 -186 -302q-180 -122 -463 -122z" />
    <glyph glyph-name="uniFE8B" unicode="&#x626;" horiz-adv-x="626" arabic-form="initial" 
d="M92 876l25 168q7 3 63 29l22 10l-22 10q-107 45 -70 192q46 180 221 179q79 0 147 -63l16 -15l-43 -96q-174 55 -237 -30q-11 -15 -1 -32q47 -82 214 -40q51 13 60 7t8 -44l-1 -100q-130 -44 -402 -175zM354 373q0 82 -83 276l136 176q23 30 30 30t25 -30
q87 -151 88 -353q0 -200 -91 -316q-121 -156 -364 -156h-100q-55 0 -55 144v33q0 117 55 117h104q217 0 248 45q7 11 7 34z" />
    <glyph glyph-name="uniFE8C" unicode="&#x626;" horiz-adv-x="728" arabic-form="medial" 
d="M124 748l25 168q7 3 63 29l22 10l-22 10q-107 45 -70 192q46 180 221 179q79 0 147 -63l16 -15l-43 -96q-174 55 -237 -30q-11 -15 -1 -32q47 -82 214 -40q51 13 60 7t8 -44l-1 -100q-130 -44 -402 -175zM733 0h-21q-199 0 -299 159q-104 -159 -324 -159h-94
q-55 0 -55 144v33q0 117 55 117h89q246 0 259 148l15 172h133l16 -169q14 -151 206 -151h20q25 0 25 -97v-73q0 -124 -25 -124z" />
    <glyph glyph-name="uniFE8D" unicode="&#x627;" horiz-adv-x="464" arabic-form="isolated" 
d="M159 -5q0 412 -16 749q-13 272 -58 552l188 130q49 35 56 31q8 -4 9 -49q15 -467 15 -625q0 -644 -44 -733q-34 -67 -134 -65h-16v10z" />
    <glyph glyph-name="uniFE8E" unicode="&#x627;" horiz-adv-x="541" arabic-form="final" 
d="M546 0h-42q-279 0 -343 237q-24 90 -26 305l-1 138q-4 440 -54 625l178 122q38 26 48 20q8 -5 10 -55q7 -171 11 -489l3 -265q3 -220 34 -272q45 -72 155 -72h27q25 0 25 -97v-73q0 -124 -25 -124z" />
    <glyph glyph-name="uniFE8F" unicode="&#x628;" horiz-adv-x="1788" arabic-form="isolated" 
d="M931 -167l164 -164l-164 -164l-164 164zM867 291q526 0 609 78q28 27 20 65q-12 62 -82 225l138 179q13 16 27 16q15 1 31 -27q82 -144 82 -348q0 -117 -51 -205q-157 -274 -791 -274q-361 0 -543 100q-210 116 -211 349q0 188 86 356l111 -35q-31 -111 -32 -196
q0 -72 37 -128q103 -155 569 -155z" />
    <glyph glyph-name="uniFE90" unicode="&#x628;" horiz-adv-x="1942" arabic-form="final" 
d="M915 -167l164 -164l-164 -164l-164 164zM1947 0h-18q-268 0 -351 231q-215 -231 -728 -231q-361 0 -543 100q-210 116 -211 349q0 188 86 356l111 -35q-31 -111 -32 -196q0 -72 37 -128q103 -155 579 -155q354 0 543 97q149 75 184 219l117 -15q-8 -63 -8 -82
q0 -216 219 -216h15q25 0 25 -97v-73q0 -124 -25 -124z" />
    <glyph glyph-name="uniFE91" unicode="&#x628;" horiz-adv-x="576" arabic-form="initial" 
d="M300 373q0 82 -83 276l136 176q23 30 30 30t25 -30q87 -151 88 -353q0 -201 -90 -316q-121 -156 -321 -156h-90q-55 0 -55 144v33q0 117 55 117h104q163 0 194 45q7 11 7 34zM204 -165l164 -164l-164 -164l-164 164z" />
    <glyph glyph-name="uniFE92" unicode="&#x628;" horiz-adv-x="688" arabic-form="medial" 
d="M693 0h-21q-199 0 -299 159q-104 -159 -294 -159h-84q-55 0 -55 144v33q0 117 55 117h79q211 0 224 148l15 172h143l16 -169q14 -151 201 -151h20q25 0 25 -97v-73q0 -124 -25 -124zM246 -166l164 -164l-164 -164l-164 164z" />
    <glyph glyph-name="uniFE93" unicode="&#x629;" horiz-adv-x="877" arabic-form="isolated" 
d="M252 1360l156 -156l-156 -156l-157 156zM575 1360l156 -156l-156 -156l-156 156zM367 590q-113 -151 -113 -226q0 -28 15 -45q33 -38 168 -38q195 0 195 105q0 66 -94 123q-52 31 -138 68q-12 5 -33 13zM795 380q0 -158 -88 -259q-101 -115 -261 -115q-180 0 -272 100
q-82 89 -82 251q0 216 218 489q23 29 52 29q11 0 23 -4q256 -93 364 -307q46 -90 46 -184z" />
    <glyph glyph-name="uniFE94" unicode="&#x629;" horiz-adv-x="1036" arabic-form="final" 
d="M397 1541l156 -156l-156 -156l-157 156zM720 1541l156 -156l-156 -156l-156 156zM1041 0h-40q-247 0 -343 252l-6 15l-165 -153q-106 2 -242 30q-136 29 -149 106q-11 70 -11 159q0 78 14 127q42 153 427 319l-18 86l113 127q36 40 43 38q8 -3 20 -62l117 -578
q35 -172 200 -172h40q25 0 25 -97v-73q0 -124 -25 -124zM245 461q55 -54 276 -56q16 0 96 2l-57 252q-258 -79 -315 -160q-15 -22 0 -38z" />
    <glyph glyph-name="uniFE95" unicode="&#x62a;" horiz-adv-x="1788" arabic-form="isolated" 
d="M716 1208l156 -156l-156 -156l-157 156zM1039 1208l156 -156l-156 -156l-156 156zM867 291q526 0 609 78q28 27 20 65q-12 62 -82 225l138 179q13 16 27 16q15 1 31 -27q82 -144 82 -348q0 -117 -51 -205q-157 -274 -791 -274q-361 0 -543 100q-210 116 -211 349
q0 188 86 356l111 -35q-31 -111 -32 -196q0 -72 37 -128q103 -155 569 -155z" />
    <glyph glyph-name="uniFE96" unicode="&#x62a;" horiz-adv-x="1942" arabic-form="final" 
d="M771 1163l156 -156l-156 -156l-157 156zM1094 1163l156 -156l-156 -156l-156 156zM1947 0h-18q-268 0 -351 231q-215 -231 -728 -231q-361 0 -543 100q-210 116 -211 349q0 188 86 356l111 -35q-31 -111 -32 -196q0 -72 37 -128q103 -155 579 -155q354 0 543 97
q149 75 184 219l117 -15q-8 -63 -8 -82q0 -216 219 -216h15q25 0 25 -97v-73q0 -124 -25 -124z" />
    <glyph glyph-name="uniFE97" unicode="&#x62a;" horiz-adv-x="626" arabic-form="initial" 
d="M354 373q0 82 -83 276l136 176q23 30 30 30t25 -30q87 -151 88 -353q0 -200 -91 -316q-121 -156 -364 -156h-100q-55 0 -55 144v33q0 117 55 117h104q217 0 248 45q7 11 7 34zM109 1290l156 -156l-156 -156l-157 156zM432 1290l156 -156l-156 -156l-156 156z" />
    <glyph glyph-name="uniFE98" unicode="&#x62a;" horiz-adv-x="728" arabic-form="medial" 
d="M152 1202l156 -156l-156 -156l-157 156zM475 1202l156 -156l-156 -156l-156 156zM733 0h-21q-199 0 -299 159q-104 -159 -324 -159h-94q-55 0 -55 144v33q0 117 55 117h89q246 0 259 148l15 172h133l16 -169q14 -151 206 -151h20q25 0 25 -97v-73q0 -124 -25 -124z" />
    <glyph glyph-name="uniFE99" unicode="&#x62b;" horiz-adv-x="1788" arabic-form="isolated" 
d="M866 962l-148 -149l-148 149l148 148zM902 962l148 148l148 -148l-148 -149zM884 1351l148 -148l-148 -148l-149 148zM867 291q526 0 609 78q28 27 20 65q-12 62 -82 225l138 179q13 16 27 16q15 1 31 -27q82 -144 82 -348q0 -117 -51 -205q-157 -274 -791 -274
q-361 0 -543 100q-210 116 -211 349q0 188 86 356l111 -35q-31 -111 -32 -196q0 -72 37 -128q103 -155 569 -155z" />
    <glyph glyph-name="uniFE9A" unicode="&#x62b;" horiz-adv-x="1942" arabic-form="final" 
d="M901 929l-148 -149l-148 149l148 148zM937 929l148 148l148 -148l-148 -149zM919 1318l148 -148l-148 -148l-149 148zM1947 0h-18q-268 0 -351 231q-215 -231 -728 -231q-361 0 -543 100q-210 116 -211 349q0 188 86 356l111 -35q-31 -111 -32 -196q0 -72 37 -128
q103 -155 579 -155q354 0 543 97q149 75 184 219l117 -15q-8 -63 -8 -82q0 -216 219 -216h15q25 0 25 -97v-73q0 -124 -25 -124z" />
    <glyph glyph-name="uniFE9B" unicode="&#x62b;" horiz-adv-x="644" arabic-form="initial" 
d="M354 373q0 82 -83 276l136 176q23 30 30 30t25 -30q87 -151 88 -353q0 -200 -91 -316q-121 -156 -364 -156h-100q-55 0 -55 144v33q0 117 55 117h104q217 0 248 45q7 11 7 34zM253 1114l-148 -149l-148 149l148 148zM289 1114l148 148l148 -148l-148 -149zM271 1503
l148 -148l-148 -148l-149 148z" />
    <glyph glyph-name="uniFE9C" unicode="&#x62b;" horiz-adv-x="728" arabic-form="medial" 
d="M294 998l-148 -149l-148 149l148 148zM330 998l148 148l148 -148l-148 -149zM312 1387l148 -148l-148 -148l-149 148zM733 0h-21q-199 0 -299 159q-104 -159 -324 -159h-94q-55 0 -55 144v33q0 117 55 117h89q246 0 259 148l15 172h133l16 -169q14 -151 206 -151h20
q25 0 25 -97v-73q0 -124 -25 -124z" />
    <glyph glyph-name="uniFE9D" unicode="&#x62c;" horiz-adv-x="1296" arabic-form="isolated" 
d="M778 124l164 -164l-164 -164l-164 164zM730 -699q-315 0 -473 148q-140 132 -140 396q0 500 582 705q-4 0 -99 22q-149 34 -219 34q-98 0 -198 -119l-106 55l7 19q106 304 305 304q96 0 587 -147q93 -28 237 -31q18 0 13 -16l-96 -255q-372 -50 -573 -169
q-284 -168 -284 -380q0 -305 452 -305q185 0 306 15q86 11 123 16q58 7 31 -43l-77 -139q-50 -90 -156 -101q-84 -9 -222 -9z" />
    <glyph glyph-name="uniFE9E" unicode="&#x62c;" horiz-adv-x="1319" arabic-form="final" 
d="M675 90l164 -164l-164 -164l-164 164zM117 -155q1 500 582 705q-4 0 -99 22q-149 34 -219 34q-98 0 -198 -119l-106 55l7 19q106 304 305 304q96 0 587 -147q93 -28 237 -31q18 0 13 -16l-96 -255q-78 -10 -151 -24l1 -10q8 -88 315 -88h29q25 0 25 -97v-73
q0 -124 -25 -124h-80q-374 0 -405 360q-169 -45 -284 -113q-282 -166 -282 -380q0 -305 452 -305q185 0 306 15q86 11 123 16q58 7 31 -43l-77 -139q-50 -90 -156 -101q-84 -9 -222 -9q-315 0 -473 148q-140 132 -140 396z" />
    <glyph glyph-name="uniFE9F" unicode="&#x62c;" horiz-adv-x="1300" arabic-form="initial" 
d="M567 -172l164 -164l-164 -164l-164 164zM-5 0q-55 0 -55 144v33q0 117 55 117h201q184 0 385 83l249 103q-97 29 -210 71q-144 53 -203 53q-125 0 -236 -134l-106 55l9 23q120 313 346 325q108 6 312 -89q314 -146 438 -156q27 -2 73 -2q16 0 10 -19l-63 -206
q-181 -44 -494 -203q-389 -198 -554 -198h-157z" />
    <glyph glyph-name="uniFEA0" unicode="&#x62c;" horiz-adv-x="1327" arabic-form="medial" 
d="M566 -171l164 -164l-164 -164l-164 164zM1180 628q25 -2 73 -2q16 0 10 -19l-65 -206q-133 -17 -209 -54q44 -53 161 -53h182q25 0 25 -97v-73q0 -124 -25 -124h-155q-302 0 -351 272q-252 -130 -256 -132q-258 -140 -498 -140h-77q-55 0 -55 144v33q0 117 55 117h101
q284 0 485 83l249 103q-97 29 -210 71q-144 53 -203 53q-125 0 -236 -134l-106 55l9 23q120 313 346 325q108 6 312 -89q309 -144 438 -156z" />
    <glyph glyph-name="uniFEA1" unicode="&#x62d;" horiz-adv-x="1296" arabic-form="isolated" 
d="M730 -699q-315 0 -473 148q-140 132 -140 396q0 500 582 705q-4 0 -99 22q-149 34 -219 34q-98 0 -198 -119l-106 55l7 19q106 304 305 304q96 0 587 -147q93 -28 237 -31q18 0 13 -16l-96 -255q-372 -50 -573 -169q-284 -168 -284 -380q0 -305 452 -305q185 0 306 15
q86 11 123 16q58 7 31 -43l-77 -139q-50 -90 -156 -101q-84 -9 -222 -9z" />
    <glyph glyph-name="uniFEA2" unicode="&#x62d;" horiz-adv-x="1319" arabic-form="final" 
d="M117 -155q1 500 582 705q-4 0 -99 22q-149 34 -219 34q-98 0 -198 -119l-106 55l7 19q106 304 305 304q96 0 587 -147q93 -28 237 -31q18 0 13 -16l-96 -255q-78 -10 -151 -24l1 -10q8 -88 315 -88h29q25 0 25 -97v-73q0 -124 -25 -124h-80q-374 0 -405 360
q-169 -45 -284 -113q-282 -166 -282 -380q0 -305 452 -305q185 0 306 15q86 11 123 16q58 7 31 -43l-77 -139q-50 -90 -156 -101q-84 -9 -222 -9q-315 0 -473 148q-140 132 -140 396z" />
    <glyph glyph-name="uniFEA3" unicode="&#x62d;" horiz-adv-x="1300" arabic-form="initial" 
d="M-5 0q-55 0 -55 144v33q0 117 55 117h201q184 0 385 83l249 103q-97 29 -210 71q-144 53 -203 53q-125 0 -236 -134l-106 55l9 23q120 313 346 325q108 6 312 -89q314 -146 438 -156q27 -2 73 -2q16 0 10 -19l-63 -206q-181 -44 -494 -203q-389 -198 -554 -198h-157z" />
    <glyph glyph-name="uniFEA4" unicode="&#x62d;" horiz-adv-x="1327" arabic-form="medial" 
d="M1180 628q25 -2 73 -2q16 0 10 -19l-65 -206q-133 -17 -209 -54q44 -53 161 -53h182q25 0 25 -97v-73q0 -124 -25 -124h-155q-302 0 -351 272q-252 -130 -256 -132q-258 -140 -498 -140h-77q-55 0 -55 144v33q0 117 55 117h101q284 0 485 83l249 103q-97 29 -210 71
q-144 53 -203 53q-125 0 -236 -134l-106 55l9 23q120 313 346 325q108 6 312 -89q309 -144 438 -156z" />
    <glyph glyph-name="uniFEA5" unicode="&#x62e;" horiz-adv-x="1296" arabic-form="isolated" 
d="M603 1330l164 -164l-164 -164l-164 164zM730 -699q-315 0 -473 148q-140 132 -140 396q0 500 582 705q-4 0 -99 22q-149 34 -219 34q-98 0 -198 -119l-106 55l7 19q106 304 305 304q96 0 587 -147q93 -28 237 -31q18 0 13 -16l-96 -255q-372 -50 -573 -169
q-284 -168 -284 -380q0 -305 452 -305q185 0 306 15q86 11 123 16q58 7 31 -43l-77 -139q-50 -90 -156 -101q-84 -9 -222 -9z" />
    <glyph glyph-name="uniFEA6" unicode="&#x62e;" horiz-adv-x="1319" arabic-form="final" 
d="M603 1330l164 -164l-164 -164l-164 164zM117 -155q1 500 582 705q-4 0 -99 22q-149 34 -219 34q-98 0 -198 -119l-106 55l7 19q106 304 305 304q96 0 587 -147q93 -28 237 -31q18 0 13 -16l-96 -255q-78 -10 -151 -24l1 -10q8 -88 315 -88h29q25 0 25 -97v-73
q0 -124 -25 -124h-80q-374 0 -405 360q-169 -45 -284 -113q-282 -166 -282 -380q0 -305 452 -305q185 0 306 15q86 11 123 16q58 7 31 -43l-77 -139q-50 -90 -156 -101q-84 -9 -222 -9q-315 0 -473 148q-140 132 -140 396z" />
    <glyph glyph-name="uniFEA7" unicode="&#x62e;" horiz-adv-x="1300" arabic-form="initial" 
d="M515 1376l164 -164l-164 -164l-164 164zM-5 0q-55 0 -55 144v33q0 117 55 117h201q184 0 385 83l249 103q-97 29 -210 71q-144 53 -203 53q-125 0 -236 -134l-106 55l9 23q120 313 346 325q108 6 312 -89q314 -146 438 -156q27 -2 73 -2q16 0 10 -19l-63 -206
q-181 -44 -494 -203q-389 -198 -554 -198h-157z" />
    <glyph glyph-name="uniFEA8" unicode="&#x62e;" horiz-adv-x="1327" arabic-form="medial" 
d="M515 1378l164 -164l-164 -164l-164 164zM1180 628q25 -2 73 -2q16 0 10 -19l-65 -206q-133 -17 -209 -54q44 -53 161 -53h182q25 0 25 -97v-73q0 -124 -25 -124h-155q-302 0 -351 272q-252 -130 -256 -132q-258 -140 -498 -140h-77q-55 0 -55 144v33q0 117 55 117h101
q284 0 485 83l249 103q-97 29 -210 71q-144 53 -203 53q-125 0 -236 -134l-106 55l9 23q120 313 346 325q108 6 312 -89q309 -144 438 -156z" />
    <glyph glyph-name="uniFEA9" unicode="&#x62f;" horiz-adv-x="1020" arabic-form="isolated" 
d="M425 0q-336 0 -338 299q0 46 23 141l124 -13l1 -28q4 -103 207 -102q319 0 318 84q0 8 -3 17q-61 148 -420 392l95 235q9 21 25 23q12 1 37 -19q426 -320 426 -639q0 -390 -495 -390z" />
    <glyph glyph-name="uniFEAA" unicode="&#x62f;" horiz-adv-x="1122" arabic-form="final" 
d="M696 431l-134 448l126 145q36 42 44 38q9 -4 23 -57l143 -523q51 -188 208 -188h21q25 0 25 -97v-73q0 -124 -25 -124h-31q-224 0 -290 204q-139 -204 -391 -204q-326 0 -328 299q0 46 23 141l124 -13l1 -28q4 -102 197 -102q304 0 264 134z" />
    <glyph glyph-name="uniFEAB" unicode="&#x630;" horiz-adv-x="1020" arabic-form="isolated" 
d="M435 1527l164 -164l-164 -164l-164 164zM425 0q-336 0 -338 299q0 46 23 141l124 -13l1 -28q4 -103 207 -102q319 0 318 84q0 8 -3 17q-61 148 -420 392l95 235q9 21 25 23q12 1 37 -19q426 -320 426 -639q0 -390 -495 -390z" />
    <glyph glyph-name="uniFEAC" unicode="&#x630;" horiz-adv-x="1122" arabic-form="final" 
d="M622 1526l164 -164l-164 -164l-164 164zM696 431l-134 448l126 145q36 42 44 38q9 -4 23 -57l143 -523q51 -188 208 -188h21q25 0 25 -97v-73q0 -124 -25 -124h-31q-224 0 -290 204q-139 -204 -391 -204q-326 0 -328 299q0 46 23 141l124 -13l1 -28q4 -102 197 -102
q304 0 264 134z" />
    <glyph glyph-name="uniFEAD" unicode="&#x631;" horiz-adv-x="752" arabic-form="isolated" 
d="M627 -185q-107 -220 -303 -321q-62 -32 -106 -36q-46 -4 -133 50q-110 68 -115 100q-1 10 77 40q411 157 467 372q8 31 6 53q-14 114 -171 311l171 235q3 4 7 4q5 0 10 -6q87 -99 128 -228q37 -116 37 -257q0 -165 -75 -317z" />
    <glyph glyph-name="uniFEAE" unicode="&#x631;" horiz-adv-x="854" arabic-form="final" 
d="M324 -506q-62 -32 -106 -36q-46 -4 -133 50q-110 68 -115 100q-1 10 77 40q411 156 467 372q8 31 6 53q-13 107 -148 273l161 225q9 12 17 -2q28 -46 148 -217q41 -58 124 -58h27q25 0 25 -117v-53q0 -124 -25 -124h-32q-67 0 -120 39q-22 -128 -69 -226
q-102 -216 -304 -319z" />
    <glyph glyph-name="uniFEAF" unicode="&#x632;" horiz-adv-x="752" arabic-form="isolated" 
d="M417 1152l164 -164l-164 -164l-164 164zM627 -185q-107 -220 -303 -321q-62 -32 -106 -36q-46 -4 -133 50q-110 68 -115 100q-1 10 77 40q411 157 467 372q8 31 6 53q-14 114 -171 311l171 235q3 4 7 4q5 0 10 -6q87 -99 128 -228q37 -116 37 -257q0 -165 -75 -317z" />
    <glyph glyph-name="uniFEB0" unicode="&#x632;" horiz-adv-x="854" arabic-form="final" 
d="M427 1112l164 -164l-164 -164l-164 164zM324 -506q-62 -32 -106 -36q-46 -4 -133 50q-110 68 -115 100q-1 10 77 40q411 156 467 372q8 31 6 53q-13 107 -148 273l161 225q9 12 17 -2q28 -46 148 -217q41 -58 124 -58h27q25 0 25 -117v-53q0 -124 -25 -124h-32
q-67 0 -120 39q-22 -128 -69 -226q-102 -216 -304 -319z" />
    <glyph glyph-name="uniFEB1" unicode="&#x633;" horiz-adv-x="2349" arabic-form="isolated" 
d="M1950 -1q-178 1 -258 153q-98 -153 -233 -152q-82 0 -157 47q-11 -316 -211 -464q-160 -118 -412 -118q-301 0 -444 154q-135 146 -135 358q0 220 100 441l118 -39q-52 -171 -52 -294q0 -135 62 -212q104 -128 348 -128q308 0 424 181q44 69 21 143q-36 121 -122 271
l139 209q19 29 40 -11l21 -39q49 -95 105 -146q63 -56 134 -58q171 -3 180 140l11 158h133l10 -152q10 -146 164 -147q116 0 138 83q7 24 -3 65q-8 34 -78 173l136 175q22 29 29 30q6 1 25 -30q90 -150 90 -335q0 -196 -109 -338q-91 -118 -214 -118z" />
    <glyph glyph-name="uniFEB2" unicode="&#x633;" horiz-adv-x="2463" arabic-form="final" 
d="M997 340l139 209q19 29 40 -11l21 -39q47 -91 105 -146q61 -57 153 -57q151 -1 161 139l10 159h133l10 -153q10 -145 165 -146q143 -2 151 146l8 173h142l7 -171q7 -149 201 -149h29q25 0 25 -87v-83q0 -124 -25 -124h-30q-193 0 -275 149q-91 -149 -220 -149
q-178 0 -258 153q-97 -153 -233 -153q-81 0 -156 47q-11 -316 -211 -464q-160 -118 -412 -118q-301 0 -444 154q-135 146 -135 358q0 220 100 441l118 -39q-52 -171 -52 -294q0 -135 62 -212q104 -128 348 -128q308 0 424 181q44 69 21 143q-36 121 -122 271z" />
    <glyph glyph-name="uniFEB3" unicode="&#x633;" horiz-adv-x="1532" arabic-form="initial" 
d="M1126 0q-178 0 -258 153q-97 -153 -233 -153q-174 0 -255 148q-112 -148 -331 -148h-54q-55 0 -55 144v33q0 117 55 117h51q252 0 262 144l11 155h133l10 -148q10 -149 172 -149q151 -1 161 139l10 159h133l10 -153q10 -145 165 -146q113 -1 137 82q8 26 -3 66
q-8 32 -78 172l136 176q20 26 29 27q8 1 26 -27q89 -151 89 -335q0 -197 -109 -338q-90 -118 -214 -118z" />
    <glyph glyph-name="uniFEB4" unicode="&#x633;" horiz-adv-x="1646" arabic-form="medial" 
d="M1651 0h-30q-193 0 -275 149q-91 -149 -220 -149q-178 0 -258 153q-97 -153 -233 -153q-174 0 -255 148q-112 -148 -331 -148h-54q-55 0 -55 144v33q0 117 55 117h51q252 0 262 144l11 155h133l10 -148q10 -149 172 -149q151 -1 161 139l10 159h133l10 -153
q10 -145 165 -146q143 -2 151 146l8 173h142l7 -172q7 -148 201 -148h29q25 0 25 -97v-73q0 -124 -25 -124z" />
    <glyph glyph-name="uniFEB5" unicode="&#x634;" horiz-adv-x="2349" arabic-form="isolated" 
d="M1631 1012l-148 -149l-148 149l148 148zM1667 1012l148 148l148 -148l-148 -149zM1649 1401l148 -148l-148 -148l-149 148zM1950 -1q-178 1 -258 153q-98 -153 -233 -152q-82 0 -157 47q-11 -316 -211 -464q-160 -118 -412 -118q-301 0 -444 154q-135 146 -135 358
q0 220 100 441l118 -39q-52 -171 -52 -294q0 -135 62 -212q104 -128 348 -128q308 0 424 181q44 69 21 143q-36 121 -122 271l139 209q19 29 40 -11l21 -39q49 -95 105 -146q63 -56 134 -58q171 -3 180 140l11 158h133l10 -152q10 -146 164 -147q116 0 138 83q7 24 -3 65
q-8 34 -78 173l136 175q22 29 29 30q6 1 25 -30q90 -150 90 -335q0 -196 -109 -338q-91 -118 -214 -118z" />
    <glyph glyph-name="uniFEB6" unicode="&#x634;" horiz-adv-x="2463" arabic-form="final" 
d="M1634 991l-148 -149l-148 149l148 148zM1670 991l148 148l148 -148l-148 -149zM1652 1380l148 -148l-148 -148l-149 148zM997 340l139 209q19 29 40 -11l21 -39q47 -91 105 -146q61 -57 153 -57q151 -1 161 139l10 159h133l10 -153q10 -145 165 -146q143 -2 151 146
l8 173h142l7 -171q7 -149 201 -149h29q25 0 25 -87v-83q0 -124 -25 -124h-30q-193 0 -275 149q-91 -149 -220 -149q-178 0 -258 153q-97 -153 -233 -153q-81 0 -156 47q-11 -316 -211 -464q-160 -118 -412 -118q-301 0 -444 154q-135 146 -135 358q0 220 100 441l118 -39
q-52 -171 -52 -294q0 -135 62 -212q104 -128 348 -128q308 0 424 181q44 69 21 143q-36 121 -122 271z" />
    <glyph glyph-name="uniFEB7" unicode="&#x634;" horiz-adv-x="1532" arabic-form="initial" 
d="M808 981l-148 -149l-148 149l148 148zM844 981l148 148l148 -148l-148 -149zM826 1370l148 -148l-148 -148l-149 148zM1126 0q-178 0 -258 153q-97 -153 -233 -153q-174 0 -255 148q-112 -148 -331 -148h-54q-55 0 -55 144v33q0 117 55 117h51q252 0 262 144l11 155h133
l10 -148q10 -149 172 -149q151 -1 161 139l10 159h133l10 -153q10 -145 165 -146q113 -1 137 82q8 26 -3 66q-8 32 -78 172l136 176q20 26 29 27q8 1 26 -27q89 -151 89 -335q0 -197 -109 -338q-90 -118 -214 -118z" />
    <glyph glyph-name="uniFEB8" unicode="&#x634;" horiz-adv-x="1646" arabic-form="medial" 
d="M819 981l-148 -149l-148 149l148 148zM855 981l148 148l148 -148l-148 -149zM837 1370l148 -148l-148 -148l-149 148zM1651 0h-30q-193 0 -275 149q-91 -149 -220 -149q-178 0 -258 153q-97 -153 -233 -153q-174 0 -255 148q-112 -148 -331 -148h-54q-55 0 -55 144v33
q0 117 55 117h51q252 0 262 144l11 155h133l10 -148q10 -149 172 -149q151 -1 161 139l10 159h133l10 -153q10 -145 165 -146q143 -2 151 146l8 173h142l7 -172q7 -148 201 -148h29q25 0 25 -97v-73q0 -124 -25 -124z" />
    <glyph glyph-name="uniFEB9" unicode="&#x635;" horiz-adv-x="2603" arabic-form="isolated" 
d="M1582 2q-177 0 -280 42q-11 -313 -211 -461q-160 -118 -414 -118q-299 0 -442 154q-135 146 -135 358q0 220 100 441l118 -39q-52 -171 -52 -294q0 -135 62 -212q104 -128 350 -128q310 0 422 171q45 69 21 153q-35 121 -123 271l140 210q19 28 38 -10l27 -52
q94 -185 225 -191h17q69 96 198 237q281 308 531 308q215 -1 304 -167q37 -69 37 -178q0 -123 -70 -235q-164 -260 -629 -260h-234zM1607 296h300q334 0 382 45q30 27 30 67q0 12 -2 24q-25 138 -213 138q-222 0 -497 -274z" />
    <glyph glyph-name="uniFEBA" unicode="&#x635;" horiz-adv-x="2651" arabic-form="final" 
d="M2456 294h200q25 0 25 -97v-73q0 -124 -25 -124h-38q-168 0 -325 128q-172 -128 -477 -128h-234q-177 0 -280 44q-11 -313 -211 -461q-160 -118 -414 -118q-298 -1 -442 154q-135 146 -135 358q0 220 100 441l118 -39q-52 -171 -52 -294q0 -135 62 -212
q104 -128 350 -128q304 0 422 181q44 68 21 143q-39 130 -123 271l140 210q19 28 38 -10l27 -52q94 -185 225 -191h17q76 103 198 237q278 306 528 305l2 3l-2 -3q217 0 305 -166q37 -72 37 -178q-1 -112 -57 -201zM1607 296h300h1q333 0 381 45q30 27 30 67q0 12 -2 24
q-25 138 -213 138q-223 0 -497 -274z" />
    <glyph glyph-name="uniFEBB" unicode="&#x635;" horiz-adv-x="1685" arabic-form="initial" 
d="M518 295q69 96 198 237q281 308 531 307q215 0 304 -166q37 -69 37 -178q0 -123 -70 -235q-164 -260 -629 -260h-234q-192 0 -331 163q-132 -163 -296 -163h-33q-55 0 -55 144v33q0 117 55 117h14q204 0 220 148l19 172h133l20 -169q15 -135 117 -150zM680 294h300
q334 0 383 45q29 27 29 67q0 12 -2 24q-25 138 -213 138q-222 0 -497 -274z" />
    <glyph glyph-name="uniFEBC" unicode="&#x635;" horiz-adv-x="1733" arabic-form="medial" 
d="M1532 294h206q25 0 25 -97v-73q0 -124 -25 -124h-41q-171 0 -328 128q-174 -128 -480 -128h-234q-192 0 -331 163q-132 -163 -296 -163h-33q-55 0 -55 144v33q0 117 55 117h14q204 0 220 148l19 172h133l20 -169q15 -135 117 -150q67 94 198 237q281 308 533 310l-2 -3
q215 0 304 -166q37 -69 37 -178q0 -112 -56 -201zM680 294h300q334 0 383 45q29 27 29 67q0 12 -2 24q-25 138 -213 138q-222 0 -497 -274z" />
    <glyph glyph-name="uniFEBD" unicode="&#x636;" horiz-adv-x="2603" arabic-form="isolated" 
d="M2068 1372l164 -164l-164 -164l-164 164zM1582 2q-177 0 -280 42q-11 -313 -211 -461q-160 -118 -414 -118q-299 0 -442 154q-135 146 -135 358q0 220 100 441l118 -39q-52 -171 -52 -294q0 -135 62 -212q104 -128 350 -128q310 0 422 171q45 69 21 153q-35 121 -123 271
l140 210q19 28 38 -10l27 -52q94 -185 225 -191h17q69 96 198 237q281 308 531 308q215 -1 304 -167q37 -69 37 -178q0 -123 -70 -235q-164 -260 -629 -260h-234zM1607 296h300q334 0 382 45q30 27 30 67q0 12 -2 24q-25 138 -213 138q-222 0 -497 -274z" />
    <glyph glyph-name="uniFEBE" unicode="&#x636;" horiz-adv-x="2651" arabic-form="final" 
d="M2068 1372l164 -164l-164 -164l-164 164zM2456 294h200q25 0 25 -97v-73q0 -124 -25 -124h-38q-168 0 -325 128q-172 -128 -477 -128h-234q-177 0 -280 44q-11 -313 -211 -461q-160 -118 -414 -118q-298 -1 -442 154q-135 146 -135 358q0 220 100 441l118 -39
q-52 -171 -52 -294q0 -135 62 -212q104 -128 350 -128q304 0 422 181q44 68 21 143q-39 130 -123 271l140 210q19 28 38 -10l27 -52q94 -185 225 -191h17q76 103 198 237q278 306 528 305l2 3l-2 -3q217 0 305 -166q37 -72 37 -178q-1 -112 -57 -201zM1607 296h300h1
q333 0 381 45q30 27 30 67q0 12 -2 24q-25 138 -213 138q-223 0 -497 -274z" />
    <glyph glyph-name="uniFEBF" unicode="&#x636;" horiz-adv-x="1685" arabic-form="initial" 
d="M1155 1372l164 -164l-164 -164l-164 164zM518 295q69 96 198 237q281 308 531 307q215 0 304 -166q37 -69 37 -178q0 -123 -70 -235q-164 -260 -629 -260h-234q-192 0 -331 163q-132 -163 -296 -163h-33q-55 0 -55 144v33q0 117 55 117h14q204 0 220 148l19 172h133
l20 -169q15 -135 117 -150zM680 294h300q334 0 383 45q29 27 29 67q0 12 -2 24q-25 138 -213 138q-222 0 -497 -274z" />
    <glyph glyph-name="uniFEC0" unicode="&#x636;" horiz-adv-x="1733" arabic-form="medial" 
d="M1155 1372l164 -164l-164 -164l-164 164zM1532 294h206q25 0 25 -97v-73q0 -124 -25 -124h-41q-171 0 -328 128q-174 -128 -480 -128h-234q-192 0 -331 163q-132 -163 -296 -163h-33q-55 0 -55 144v33q0 117 55 117h14q204 0 220 148l19 172h133l20 -169
q15 -135 117 -150q67 94 198 237q281 308 533 310l-2 -3q215 0 304 -166q37 -69 37 -178q0 -112 -56 -201zM680 294h300q334 0 383 45q29 27 29 67q0 12 -2 24q-25 138 -213 138q-222 0 -497 -274z" />
    <glyph glyph-name="uniFEC1" unicode="&#x637;" horiz-adv-x="1570" arabic-form="isolated" 
d="M583 296h300q334 0 383 45q29 27 29 67q0 12 -2 24q-24 138 -212 138q-223 0 -498 -274zM635 531q287 311 515 311q217 -1 304 -167q37 -69 37 -177q0 -123 -70 -236q-165 -262 -628 -262h-235l-296 -1q-167 171 -192 209q-55 86 38 86h342q-2 280 -26 692
q-13 223 -32 312l185 128q45 32 50 28q8 -5 8 -67v-856z" />
    <glyph glyph-name="uniFEC2" unicode="&#x637;" horiz-adv-x="1612" arabic-form="final" 
d="M1276 132q-176 -132 -483 -132h-235l-296 -1q-167 171 -192 209q-55 86 38 86h342q-2 265 -26 692q-13 219 -32 312l185 128q46 33 50 30q8 -5 8 -69v-856q287 311 515 311q216 -1 304 -167q38 -70 37 -177q0 -98 -57 -204h183q25 0 25 -97v-73q0 -124 -25 -124h-39
q-132 0 -302 132zM583 296h300q334 0 383 45q29 27 29 67q0 12 -2 24q-24 138 -212 138q-223 0 -498 -274z" />
    <glyph glyph-name="uniFEC3" unicode="&#x637;" horiz-adv-x="1296" arabic-form="initial" 
d="M307 296h300q333 0 382 45q29 26 30 67q0 12 -3 24q-24 138 -212 138q-222 0 -497 -274zM-5 0q-55 0 -55 144v33q0 117 55 117h177q-1 229 -26 660q-11 204 -42 344l196 129q44 29 49 28q9 -1 9 -58l1 -866q286 311 515 311q215 -1 304 -167q37 -69 37 -177
q0 -123 -70 -236q-165 -262 -629 -262h-521z" />
    <glyph glyph-name="uniFEC4" unicode="&#x637;" horiz-adv-x="1339" arabic-form="medial" 
d="M307 296h300q333 0 382 45q29 26 30 67q0 12 -3 24q-24 138 -212 138q-222 0 -497 -274zM516 0h-521q-55 0 -55 144v33q0 117 55 117h177q-1 235 -26 665q-11 195 -42 339l196 129q47 31 51 30q7 -2 7 -60l1 -866q287 311 515 311q215 -1 304 -167q38 -70 37 -177
q0 -100 -57 -204h187q25 0 25 -97v-73q0 -124 -25 -124h-50q-125 0 -295 132q-175 -132 -484 -132z" />
    <glyph glyph-name="uniFEC5" unicode="&#x638;" horiz-adv-x="1570" arabic-form="isolated" 
d="M1106 1370l164 -164l-164 -164l-164 164zM583 296h300q334 0 383 45q29 27 29 67q0 12 -2 24q-24 138 -212 138q-223 0 -498 -274zM635 531q287 311 515 311q217 -1 304 -167q37 -69 37 -177q0 -123 -70 -236q-165 -262 -628 -262h-235l-296 -1q-167 171 -192 209
q-55 86 38 86h342q-2 280 -26 692q-13 223 -32 312l185 128q45 32 50 28q8 -5 8 -67v-856z" />
    <glyph glyph-name="uniFEC6" unicode="&#x638;" horiz-adv-x="1612" arabic-form="final" 
d="M1107 1370l164 -164l-164 -164l-164 164zM1276 132q-176 -132 -483 -132h-235l-296 -1q-167 171 -192 209q-55 86 38 86h342q-2 265 -26 692q-13 219 -32 312l185 128q46 33 50 30q8 -5 8 -69v-856q287 311 515 311q216 -1 304 -167q38 -70 37 -177q0 -98 -57 -204h183
q25 0 25 -97v-73q0 -124 -25 -124h-39q-132 0 -302 132zM583 296h300q334 0 383 45q29 27 29 67q0 12 -2 24q-24 138 -212 138q-223 0 -498 -274z" />
    <glyph glyph-name="uniFEC7" unicode="&#x638;" horiz-adv-x="1296" arabic-form="initial" 
d="M832 1372l164 -164l-164 -164l-164 164zM307 296h300q333 0 382 45q29 26 30 67q0 12 -3 24q-24 138 -212 138q-222 0 -497 -274zM-5 0q-55 0 -55 144v33q0 117 55 117h177q-1 229 -26 660q-11 204 -42 344l196 129q44 29 49 28q9 -1 9 -58l1 -866q286 311 515 311
q215 -1 304 -167q37 -69 37 -177q0 -123 -70 -236q-165 -262 -629 -262h-521z" />
    <glyph glyph-name="uniFEC8" unicode="&#x638;" horiz-adv-x="1339" arabic-form="medial" 
d="M832 1372l164 -164l-164 -164l-164 164zM307 296h300q333 0 382 45q29 26 30 67q0 12 -3 24q-24 138 -212 138q-222 0 -497 -274zM516 0h-521q-55 0 -55 144v33q0 117 55 117h177q-1 235 -26 665q-11 195 -42 339l196 129q47 31 51 30q7 -2 7 -60l1 -866q287 311 515 311
q215 -1 304 -167q38 -70 37 -177q0 -100 -57 -204h187q25 0 25 -97v-73q0 -124 -25 -124h-50q-125 0 -295 132q-175 -132 -484 -132z" />
    <glyph glyph-name="uniFEC9" unicode="&#x639;" horiz-adv-x="1262" arabic-form="isolated" 
d="M730 -699q-322 0 -483 151q-138 130 -140 393q-2 329 312 524l-29 32q-102 119 -102 229q1 67 31 143q69 173 242 239q59 23 129 23q188 0 309 -134l-48 -158q-102 49 -226 52q-123 2 -205 -76q-59 -55 -59 -85q-1 -47 92 -113q89 -62 120 -54q195 44 395 51q30 1 36 -11
t0 -35l-63 -231q-388 -5 -581 -102q-198 -99 -197 -272q1 -305 462 -305q165 0 286 15q86 11 123 16q58 7 31 -43l-77 -139q-49 -90 -156 -101q-84 -9 -202 -9zM390 401v0v0z" />
    <glyph glyph-name="uniFECA" unicode="&#x639;" horiz-adv-x="1263" arabic-form="final" 
d="M750 -699q-343 0 -504 151q-139 130 -140 393q0 450 525 707q-32 46 -316 84v140q116 70 416 70q322 -1 323 -149q1 -153 -178 -256l1 -14q6 -133 351 -133h40q25 0 25 -97v-73q0 -124 -25 -124h-29q-465 0 -510 325l-2 13q-466 -177 -465 -471q1 -305 483 -305
q165 0 286 15q86 11 123 16q58 7 31 -43l-77 -139q-49 -90 -156 -101q-84 -9 -202 -9z" />
    <glyph glyph-name="uniFECB" unicode="&#x639;" horiz-adv-x="1003" arabic-form="initial" 
d="M-5 0q-55 0 -55 144v33q0 117 55 117h197l-12 19q-71 103 -71 201q0 87 39 182q50 120 177 195q84 50 181 50q210 0 326 -151l-33 -150q-150 51 -241 51q-120 0 -206 -78q-68 -62 -68 -102q0 -46 158 -142q48 -29 72 -29q32 0 284 64l72 19q61 15 50 -34l-48 -222
q-280 -66 -487 -120q-178 -47 -342 -47h-48z" />
    <glyph glyph-name="uniFECC" unicode="&#x639;" horiz-adv-x="959" arabic-form="medial" 
d="M964 0h-43q-263 0 -401 180q-181 -180 -464 -180h-61q-55 0 -55 144v33q0 117 55 117h59q291 0 389 85q-106 154 -331 184v140q130 80 405 80q338 0 323 -179q-9 -111 -191 -230l13 -11q88 -69 262 -69h40q25 0 25 -97v-73q0 -124 -25 -124z" />
    <glyph glyph-name="uniFECD" unicode="&#x63a;" horiz-adv-x="1262" arabic-form="isolated" 
d="M675 1505l164 -164l-164 -164l-164 164zM730 -699q-322 0 -483 151q-138 130 -140 393q-2 329 312 524l-29 32q-102 119 -102 229q1 67 31 143q69 173 242 239q59 23 129 23q188 0 309 -134l-48 -158q-102 49 -226 52q-123 2 -205 -76q-59 -55 -59 -85q-1 -47 92 -113
q89 -62 120 -54q195 44 395 51q30 1 36 -11t0 -35l-63 -231q-388 -5 -581 -102q-198 -99 -197 -272q1 -305 462 -305q165 0 286 15q86 11 123 16q58 7 31 -43l-77 -139q-49 -90 -156 -101q-84 -9 -202 -9zM390 401v0v0z" />
    <glyph glyph-name="uniFECE" unicode="&#x63a;" horiz-adv-x="1263" arabic-form="final" 
d="M709 1420l164 -164l-164 -164l-164 164zM750 -699q-343 0 -504 151q-139 130 -140 393q0 450 525 707q-32 46 -316 84v140q116 70 416 70q322 -1 323 -149q1 -153 -178 -256l1 -14q6 -133 351 -133h40q25 0 25 -97v-73q0 -124 -25 -124h-29q-465 0 -510 325l-2 13
q-466 -177 -465 -471q1 -305 483 -305q165 0 286 15q86 11 123 16q58 7 31 -43l-77 -139q-49 -90 -156 -101q-84 -9 -202 -9z" />
    <glyph glyph-name="uniFECF" unicode="&#x63a;" horiz-adv-x="1003" arabic-form="initial" 
d="M484 1437l164 -164l-164 -164l-164 164zM-5 0q-55 0 -55 144v33q0 117 55 117h197l-12 19q-71 103 -71 201q0 87 39 182q50 120 177 195q84 50 181 50q210 0 326 -151l-33 -150q-150 51 -241 51q-120 0 -206 -78q-68 -62 -68 -102q0 -46 158 -142q48 -29 72 -29
q32 0 284 64l72 19q61 15 50 -34l-48 -222q-280 -66 -487 -120q-178 -47 -342 -47h-48z" />
    <glyph glyph-name="uniFED0" unicode="&#x63a;" horiz-adv-x="959" arabic-form="medial" 
d="M477 1312l164 -164l-164 -164l-164 164zM964 0h-43q-263 0 -401 180q-181 -180 -464 -180h-61q-55 0 -55 144v33q0 117 55 117h59q291 0 389 85q-106 154 -331 184v140q130 80 405 80q338 0 323 -179q-9 -111 -191 -230l13 -11q88 -69 262 -69h40q25 0 25 -97v-73
q0 -124 -25 -124z" />
    <glyph glyph-name="uniFED1" unicode="&#x641;" horiz-adv-x="1728" arabic-form="isolated" 
d="M1286 1574l164 -164l-164 -164l-164 164zM1008 756q25 165 112 267q74 87 186 87q174 0 265 -215q59 -138 60 -367q2 -308 -154 -420q-152 -108 -575 -108h-82q-331 0 -513 100q-210 116 -211 349q0 188 86 356l111 -35q-31 -111 -32 -196q0 -72 37 -128
q103 -155 539 -155q413 0 510 28q114 32 122 102l2 17q-104 -18 -198 -18q-274 2 -272 249q0 40 7 87zM1463 682q-44 186 -188 185q-77 0 -107 -80q-23 -59 1 -90q26 -35 127 -35q109 0 167 20z" />
    <glyph glyph-name="uniFED2" unicode="&#x641;" horiz-adv-x="1895" arabic-form="final" 
d="M1460 1410l164 -164l-164 -164l-164 164zM1676 315q36 -20 193 -20h31q23 0 23 -98v-73q0 -124 -23 -124h-30q-238 0 -405 160q-207 -160 -645 -160q-331 0 -513 100q-210 116 -211 349q0 188 86 356l111 -35q-31 -111 -32 -196q0 -72 37 -128q103 -155 521 -155
q311 0 428 31q-89 103 -89 247q0 114 75 228q99 149 248 149q126 -1 227 -146q73 -106 73 -215q0 -157 -105 -270zM1355 460q80 -70 115 -70t92 55q58 55 57 96q0 41 -56 95q-43 42 -99 42q-51 1 -94 -46q-51 -55 -51 -98t36 -74z" />
    <glyph glyph-name="uniFED3" unicode="&#x641;" horiz-adv-x="832" arabic-form="initial" 
d="M398 1574l164 -164l-164 -164l-164 164zM-5 0q-55 0 -55 144v33q0 117 55 117h204q370 0 381 129l1 14q-96 -19 -198 -19q-274 0 -272 249q0 40 7 87q25 166 112 268q74 87 186 87q174 0 265 -215q60 -141 60 -377q0 -298 -150 -412q-139 -105 -398 -105h-198zM573 681
q-44 186 -188 185q-77 0 -107 -80q-23 -59 1 -90q26 -35 127 -35q109 0 167 20z" />
    <glyph glyph-name="uniFED4" unicode="&#x641;" horiz-adv-x="907" arabic-form="medial" 
d="M475 1411l164 -164l-164 -164l-164 164zM912 0h-42q-223 0 -394 170q-184 -170 -458 -170h-23q-55 0 -55 144v33q0 117 55 117h22q172 0 243 38q-89 103 -89 237q0 114 75 228q99 149 248 149q126 -1 227 -146q73 -106 73 -215q0 -147 -105 -260q58 -31 190 -31h33
q25 0 25 -97v-73q0 -124 -25 -124zM368 460q80 -70 115 -70t93 55q57 55 57 96q-1 43 -57 95q-43 42 -99 42q-51 1 -94 -46q-51 -55 -51 -98t36 -74z" />
    <glyph glyph-name="uniFED5" unicode="&#x642;" horiz-adv-x="1390" arabic-form="isolated" 
d="M787 1243l156 -156l-156 -156l-157 156zM1110 1243l156 -156l-156 -156l-156 156zM687 -153q352 1 436 171q11 22 14 61q-117 -19 -191 -19q-268 1 -268 264q0 37 10 102q26 168 112 268q74 87 186 87q162 0 254 -215q53 -126 53 -364q1 -201 -56 -337
q-126 -299 -550 -299q-311 0 -454 155q-135 145 -135 358q0 219 100 441l118 -40q-52 -171 -52 -294q0 -135 62 -211q106 -129 361 -128zM1137 353q-44 186 -181 185q-76 0 -108 -80q-11 -28 -11 -50q0 -23 12 -40q26 -35 127 -35q103 0 161 20z" />
    <glyph glyph-name="uniFED6" unicode="&#x642;" horiz-adv-x="1403" arabic-form="final" 
d="M788 1212l156 -156l-156 -156l-157 156zM1111 1212l156 -156l-156 -156l-156 156zM1144 1h-120q-354 -1 -356 264q0 71 27 167q46 160 134 242q65 61 156 61q175 -1 257 -189q49 -114 59 -251l113 -1q25 0 25 -97v-73q0 -124 -25 -124h-121q-5 -144 -36 -223
q-125 -313 -578 -312q-311 0 -454 154q-135 146 -135 358q0 220 100 441l118 -39q-52 -171 -52 -294q0 -135 62 -212q104 -128 361 -128q360 2 449 187q15 32 16 69zM1137 289q-50 200 -185 200q-88 0 -115 -85q-7 -23 -7 -42q0 -72 136 -73h171z" />
    <glyph glyph-name="uniFED7" unicode="&#x642;" horiz-adv-x="832" arabic-form="initial" 
d="M231 1558l156 -156l-156 -156l-157 156zM554 1558l156 -156l-156 -156l-156 156zM-5 0q-55 0 -55 144v33q0 117 55 117h204q370 0 381 129l1 14q-96 -19 -198 -19q-274 0 -272 249q0 40 7 87q25 166 112 268q74 87 186 87q174 0 265 -215q60 -141 60 -377
q0 -298 -150 -412q-139 -105 -398 -105h-198zM573 681q-44 186 -188 185q-77 0 -107 -80q-23 -59 1 -90q26 -35 127 -35q109 0 167 20z" />
    <glyph glyph-name="uniFED8" unicode="&#x642;" horiz-adv-x="907" arabic-form="medial" 
d="M297 1391l156 -156l-156 -156l-157 156zM620 1391l156 -156l-156 -156l-156 156zM912 0h-42q-223 0 -394 170q-184 -170 -458 -170h-23q-55 0 -55 144v33q0 117 55 117h22q172 0 243 38q-89 103 -89 237q0 114 75 228q99 149 248 149q126 -1 227 -146q73 -106 73 -215
q0 -147 -105 -260q58 -31 190 -31h33q25 0 25 -97v-73q0 -124 -25 -124zM368 460q80 -70 115 -70t93 55q57 55 57 96q-1 43 -57 95q-43 42 -99 42q-51 1 -94 -46q-51 -55 -51 -98t36 -74z" />
    <glyph glyph-name="uniFED9" unicode="&#x643;" horiz-adv-x="1878" arabic-form="isolated" 
d="M843 292q524 0 657 86q42 27 49 101q8 106 -9 472q-12 242 -28 347l188 128q39 27 43 24q7 -6 7 -62v-669q0 -482 -148 -582q-200 -137 -759 -137q-354 0 -536 100q-210 116 -211 349q0 197 90 373l98 -42q-33 -119 -33 -206q0 -72 37 -128q103 -154 555 -154zM1149 702
q-105 -167 -419 -94q-26 6 -65 18l16 161q118 -42 250 -41q131 2 141 63q6 38 -128 67q-182 39 -177 216q6 186 327 231q39 6 50 -11t3 -36l-39 -111q-121 -12 -181.5 -32.5t-61.5 -57.5q-1 -23 34 -37q35 -13 108 -26q167 -29 171 -192q2 -68 -29 -118z" />
    <glyph glyph-name="uniFEDA" unicode="&#x643;" horiz-adv-x="1936" arabic-form="final" 
d="M1149 702q-105 -167 -419 -94q-26 6 -65 18l16 161q118 -42 250 -41q131 2 141 63q6 38 -128 67q-182 39 -177 216q6 186 327 231q39 6 50 -11t3 -36l-39 -111q-121 -12 -181.5 -32.5t-61.5 -57.5q-1 -23 34 -37q35 -13 108 -26q167 -29 171 -192q2 -68 -29 -118z
M843 292q514 0 647 86q42 27 49 101q8 92 -9 442q-15 288 -28 377l198 128q42 28 45 25q5 -4 5 -63v-729q0 -344 154 -344h36q26 1 26 -118v-73q0 -124 -25 -124h-27q-180 0 -272 197q-135 -197 -799 -197q-354 0 -536 100q-210 116 -211 349q0 197 90 373l98 -42
q-33 -119 -33 -206q0 -72 37 -128q103 -154 555 -154z" />
    <glyph glyph-name="uniFEDB" unicode="&#x643;" horiz-adv-x="975" arabic-form="initial" 
d="M-5 0q-55 0 -55 144v33q0 117 55 117h104q325 0 397 55q43 32 43 67q0 86 -510 493l56 275l800 295q40 15 30 -49l-31 -201l-595 -209q415 -341 416 -567q0 -178 -94 -275q-173 -178 -507 -178h-109z" />
    <glyph glyph-name="uniFEDC" unicode="&#x643;" horiz-adv-x="1212" arabic-form="medial" 
d="M29 909l56 275l800 295q40 15 30 -49l-31 -201l-595 -209q162 -142 472 -499q197 -227 443 -227h13q25 0 25 -97v-73q0 -124 -25 -124h-13q-306 0 -532 313q-29 -69 -63 -111q-162 -202 -504 -202h-110q-55 0 -55 144v33q0 117 55 117h103q308 0 378 46q51 33 51 79
q-1 97 -498 490z" />
    <glyph glyph-name="uniFEDD" unicode="&#x644;" horiz-adv-x="1325" arabic-form="isolated" 
d="M654 -228q250 0 333 140q36 62 29 183q-10 201 -93 1201l176 125q54 39 62 33t9 -77l25 -1181q8 -369 -109 -518q-147 -187 -435 -187q-283 0 -426 155q-135 146 -135 358q0 219 100 441l118 -39q-52 -172 -52 -295q0 -134 62 -211q105 -128 336 -128z" />
    <glyph glyph-name="uniFEDE" unicode="&#x644;" horiz-adv-x="1379" arabic-form="final" 
d="M664 -228q253 0 333 140q36 64 29 183q-7 135 -93 1200l174 125q55 40 64 34q8 -6 9 -74l15 -807q4 -279 167 -279h22q25 0 25 -97v-73q0 -124 -25 -124h-28q-105 0 -159 51q-12 -257 -101 -373q-145 -187 -435 -187q-283 0 -426 155q-135 146 -135 358q0 219 100 441
l118 -39q-52 -172 -52 -295q0 -134 62 -211q105 -128 336 -128z" />
    <glyph glyph-name="uniFEDF" unicode="&#x644;" horiz-adv-x="556" arabic-form="initial" 
d="M-5 0q-55 0 -55 144v33q0 117 55 117h22q157 0 197 64q19 31 14 239q-8 320 -62 699l179 128q52 38 58 32q9 -8 10 -65l15 -798q5 -250 -58 -378q-106 -215 -359 -215h-16z" />
    <glyph glyph-name="uniFEE0" unicode="&#x644;" horiz-adv-x="651" arabic-form="medial" 
d="M656 0h-49q-211 0 -292 158q-105 -158 -278 -158h-42q-55 0 -55 144v33q0 117 55 117h15q120 0 175 47q57 47 55 216q0 20 -1 42q-13 398 -45 702l191 129q36 24 43 20q10 -5 10 -58v-770q0 -191 26 -261q26 -67 154 -67h38q25 0 25 -97v-73q0 -124 -25 -124z" />
    <glyph glyph-name="uniFEE1" unicode="&#x645;" horiz-adv-x="1110" arabic-form="isolated" 
d="M266 70l15 -507l1 -8q0 -163 -106 -264q-25 -24 -41 -24q-24 0 -25 51l-14 359q-4 105 -4 177q0 155 28 266q43 170 174 218q64 244 148 351q90 113 209 113q161 0 299 -206q41 -60 76 -156q22 -58 12 -124q-8 -54 -42 -121q-66 -128 -131 -159q-16 -7 -44 -2
q-286 49 -469 50q-48 0 -86 -14zM861 308q-15 62 -49 118q-79 136 -184 135q-63 0 -121 -78q-47 -65 -69 -136q167 -11 246 -25q107 -19 124 -21q31 -5 32 -5q23 1 21 12z" />
    <glyph glyph-name="uniFEE2" unicode="&#x645;" horiz-adv-x="1249" arabic-form="final" 
d="M1254 0h-21q-93 0 -168 65l-5 -15q-84 -253 -276 -253q-319 1 -311 425l2 86q-141 -48 -209 -155l14 -461q7 -204 -114 -321q-20 -19 -33 -19q-22 0 -23 52l-14 379q-3 87 -3 152q0 122 9 217q12 145 102 237q136 138 310 160q31 146 64 158q11 4 27 -7l468 -352
q72 -54 171 -54h10q25 0 25 -97v-73q0 -124 -25 -124zM643 376q-6 -107 0 -185q8 -83 51 -116q35 -27 97 -27q87 0 111 50q10 19 10 40q0 89 -255 247l-13 8z" />
    <glyph glyph-name="uniFEE3" unicode="&#x645;" horiz-adv-x="1008" arabic-form="initial" 
d="M-5 0q-55 0 -55 144v33q0 117 55 117h26q120 0 225 134q51 64 112 146q119 160 241 160q92 0 161 -60q93 -80 131 -225q69 -257 -69 -391q-93 -90 -155 -90q-150 0 -375 199q-136 -167 -275 -167h-22zM436 376q162 -146 249 -141q39 3 56 24q12 15 10 46q-1 17 -6 38
q-16 62 -52 108q-41 53 -77 57q-49 5 -93 -33q-45 -40 -87 -99z" />
    <glyph glyph-name="uniFEE4" unicode="&#x645;" horiz-adv-x="1145" arabic-form="medial" 
d="M1150 0h-24q-119 0 -231 110q-38 -80 -109 -136q-58 -45 -112 -45q-159 0 -383 198q-88 -127 -268 -127h-28q-55 0 -55 144v33q0 117 55 117h26q159 0 259 119q110 131 177 190q70 60 159 60q85 0 137 -40q87 -68 186 -250q43 -79 193 -79h18q25 0 25 -117v-53
q0 -124 -25 -124zM449 316q133 -128 268 -124q62 2 60 58q-2 70 -63 138q-95 102 -148 54q-65 -59 -117 -126z" />
    <glyph glyph-name="uniFEE5" unicode="&#x646;" horiz-adv-x="1395" arabic-form="isolated" 
d="M671 985l164 -164l-164 -164l-164 164zM999 477l140 209q20 30 47 -13q122 -195 122 -442q0 -349 -217 -512q-159 -118 -410 -118q-303 0 -446 155q-135 146 -135 358q0 219 99 441l119 -39q-52 -171 -52 -294q0 -135 62 -212q104 -128 355 -128q301 0 417 180
q44 70 21 144q-36 121 -122 271z" />
    <glyph glyph-name="uniFEE6" unicode="&#x646;" horiz-adv-x="1453" arabic-form="final" 
d="M671 866l164 -164l-164 -164l-164 164zM1100 -74q44 68 21 143q-36 121 -122 271l139 209q19 29 40 -11l21 -39q62 -121 105 -166q37 -39 121 -39h33q25 0 25 -97v-73q0 -124 -25 -124h-33q-69 0 -123 47q-11 -316 -211 -464q-160 -118 -412 -118q-301 0 -444 154
q-135 146 -135 358q0 220 100 441l118 -39q-52 -171 -52 -294q0 -135 62 -212q104 -128 351 -128q304 0 421 181z" />
    <glyph glyph-name="uniFEE7" unicode="&#x646;" horiz-adv-x="576" arabic-form="initial" 
d="M300 373q0 82 -83 276l136 176q23 30 30 30t25 -30q87 -151 88 -353q0 -201 -90 -316q-121 -156 -321 -156h-90q-55 0 -55 144v33q0 117 55 117h104q163 0 194 45q7 11 7 34zM240 1299l164 -164l-164 -164l-164 164z" />
    <glyph glyph-name="uniFEE8" unicode="&#x646;" horiz-adv-x="688" arabic-form="medial" 
d="M693 0h-21q-199 0 -299 159q-104 -159 -294 -159h-84q-55 0 -55 144v33q0 117 55 117h79q211 0 224 148l15 172h143l16 -169q14 -151 201 -151h20q25 0 25 -97v-73q0 -124 -25 -124zM316 1212l164 -164l-164 -164l-164 164z" />
    <glyph glyph-name="uniFEE9" unicode="&#x647;" horiz-adv-x="877" arabic-form="isolated" 
d="M367 590q-113 -151 -113 -226q0 -28 15 -45q33 -38 168 -38q195 0 195 105q0 66 -94 123q-52 31 -138 68q-12 5 -33 13zM795 380q0 -158 -88 -259q-101 -115 -261 -115q-180 0 -272 100q-82 89 -82 251q0 216 218 489q23 29 52 29q11 0 23 -4q256 -93 364 -307
q46 -90 46 -184z" />
    <glyph glyph-name="uniFEEA" unicode="&#x647;" horiz-adv-x="1036" arabic-form="final" 
d="M1041 0h-40q-247 0 -343 252l-6 15l-165 -153q-106 2 -242 30q-136 29 -149 106q-11 70 -11 159q0 78 14 127q42 153 427 319l-18 86l113 127q36 40 43 38q8 -3 20 -62l117 -578q35 -172 200 -172h40q25 0 25 -97v-73q0 -124 -25 -124zM245 461q55 -54 276 -56q16 0 96 2
l-57 252q-258 -79 -315 -160q-15 -22 0 -38z" />
    <glyph glyph-name="uniFEEB" unicode="&#x647;" horiz-adv-x="1226" arabic-form="initial" 
d="M-5 0q-55 0 -55 144v33q0 117 55 117h265q-162 68 -120 275q34 169 195 290l16 12l-144 61l68 215l398 -193q322 -155 408 -291q110 -175 9 -404q-78 -176 -147 -180q-17 -1 -35 -1q-155 0 -400 77q-183 -155 -460 -155h-53zM669 388q193 -70 249 -75q44 65 44 122
q0 116 -185 198l-14 6q-2 -151 -94 -251zM516 439q70 51 97 138q18 59 -2 106q-17 40 -69 59q-25 9 -50 9q-81 0 -153 -105q-25 -36 -25 -68q0 -91 202 -139z" />
    <glyph glyph-name="uniFEEC" unicode="&#x647;" horiz-adv-x="928" arabic-form="medial" 
d="M933 0h-19q-277 0 -160 -441l-195 -133q-329 250 -397 574h-167q-55 0 -55 144v33q0 117 55 117h159q29 235 131 419q113 208 188 208q87 0 172 -128q111 -168 111 -299q-1 -128 -74 -259q-115 -205 -350 -236q86 -169 182 -226q140 521 398 521h21q25 0 25 -97v-73
q0 -124 -25 -124zM319 297q296 12 297 129q0 52 -160 236q-103 -172 -137 -365z" />
    <glyph glyph-name="uniFEED" unicode="&#x648;" horiz-adv-x="806" arabic-form="isolated" 
d="M346 -506q-62 -32 -106 -36q-46 -4 -133 50q-110 68 -115 100q-1 10 77 40q316 121 422 278q31 47 40 77l-70 -4q-163 -8 -249 38q-125 68 -126 227q0 71 27 167q46 160 134 242q65 61 156 61q176 -1 257 -190q64 -149 64 -341q0 -294 -123 -480q-99 -149 -255 -229z
M555 287q-50 201 -185 201q-88 0 -115 -85q-7 -23 -7 -42q0 -50 66 -69q78 -23 220 -7z" />
    <glyph glyph-name="uniFEEE" unicode="&#x648;" horiz-adv-x="816" arabic-form="final" 
d="M346 -506q-62 -32 -106 -36q-46 -4 -133 50q-110 68 -115 100q-1 10 77 40q312 118 422 278q30 44 38 74l-87 -1q-354 -2 -356 265q0 71 27 167q46 160 134 242q65 61 156 61q175 -1 257 -190q49 -113 59 -250h102q25 0 25 -97v-73q0 -124 -25 -124h-114
q-31 -170 -118 -293q-96 -137 -243 -213zM555 287q-50 201 -185 201q-88 0 -115 -85q-7 -23 -7 -42q0 -72 136 -73z" />
    <glyph glyph-name="uniFEEF" unicode="&#x649;" horiz-adv-x="1474" arabic-form="isolated" 
d="M677 -221q356 0 494 181q22 29 -6 34l-188 33q-89 13 -152 28q-83 20 -83 135q0 62 28 159q53 180 164 296q135 140 300 140q82 0 169 -29q-14 -143 -41 -250l-54 6q-36 3 -62 3q-188 -3 -317 -202l-11 -17l259 -49q171 -32 173 -177q0 -39 -10 -86q-46 -225 -208 -351
q-174 -135 -455 -135q-301 0 -444 155q-135 145 -135 358q0 219 100 441l118 -39q-52 -172 -52 -295q0 -135 63 -211q105 -129 350 -128z" />
    <glyph glyph-name="uniFEF0" unicode="&#x649;" horiz-adv-x="1441" arabic-form="final" 
d="M679 -535q-301 0 -444 154q-135 146 -135 358q0 220 100 441l118 -39q-52 -171 -52 -294q0 -135 62 -212q104 -128 351 -128q321 0 465 127q24 21 22 38q-2 16 -15 28q-42 40 -297 65q-29 3 -29 40q0 5 1 11q22 240 125 240h495q25 0 25 -97v-73q0 -124 -25 -124h-155
q37 -42 37 -111q-1 -176 -186 -302q-180 -122 -463 -122z" />
    <glyph glyph-name="uniFEF1" unicode="&#x64a;" horiz-adv-x="1474" arabic-form="isolated" 
d="M550 -634l156 -156l-156 -156l-157 156zM873 -634l156 -156l-156 -156l-156 156zM677 -221q356 0 494 181q22 29 -6 34l-188 33q-89 13 -152 28q-83 20 -83 135q0 62 28 159q53 180 164 296q135 140 300 140q82 0 169 -29q-14 -143 -41 -250l-54 6q-36 3 -62 3
q-188 -3 -317 -202l-11 -17l259 -49q171 -32 173 -177q0 -39 -10 -86q-46 -225 -208 -351q-174 -135 -455 -135q-301 0 -444 155q-135 145 -135 358q0 219 100 441l118 -39q-52 -172 -52 -295q0 -135 63 -211q105 -129 350 -128z" />
    <glyph glyph-name="uniFEF2" unicode="&#x64a;" horiz-adv-x="1441" arabic-form="final" 
d="M563 -677l156 -156l-156 -156l-157 156zM886 -677l156 -156l-156 -156l-156 156zM679 -535q-301 0 -444 154q-135 146 -135 358q0 220 100 441l118 -39q-52 -171 -52 -294q0 -135 62 -212q104 -128 351 -128q321 0 465 127q24 21 22 38q-2 16 -15 28q-42 40 -297 65
q-29 3 -29 40q0 5 1 11q22 240 125 240h495q25 0 25 -97v-73q0 -124 -25 -124h-155q37 -42 37 -111q-1 -176 -186 -302q-180 -122 -463 -122z" />
    <glyph glyph-name="uniFEF3" unicode="&#x64a;" horiz-adv-x="626" arabic-form="initial" 
d="M98 -179l156 -156l-156 -156l-157 156zM421 -179l156 -156l-156 -156l-156 156zM354 373q0 82 -83 276l136 176q23 30 30 30t25 -30q87 -151 88 -353q0 -200 -91 -316q-121 -156 -364 -156h-100q-55 0 -55 144v33q0 117 55 117h104q217 0 248 45q7 11 7 34z" />
    <glyph glyph-name="uniFEF4" unicode="&#x64a;" horiz-adv-x="728" arabic-form="medial" 
d="M130 -178l156 -156l-156 -156l-157 156zM453 -178l156 -156l-156 -156l-156 156zM733 0h-21q-199 0 -299 159q-104 -159 -324 -159h-94q-55 0 -55 144v33q0 117 55 117h89q246 0 259 148l15 172h133l16 -169q14 -151 206 -151h20q25 0 25 -97v-73q0 -124 -25 -124z" />
    <glyph glyph-name=".notdef" horiz-adv-x="1229" 
d="M193 1462h841v-1462h-841v1462zM297 104h633v1254h-633v-1254z" />
    <glyph glyph-name=".null" 
 />
    <glyph glyph-name="nonmarkingreturn" unicode="&#xd;" horiz-adv-x="1044" 
 />
    <glyph glyph-name="space" unicode=" " horiz-adv-x="560" 
 />
    <glyph glyph-name="exclam" unicode="!" horiz-adv-x="676" 
d="M163 176q0 74 51 125t124.5 51t125 -51t51.5 -125t-51.5 -125t-125 -51t-124.5 51t-51 125zM423 599q-6 -66 -54 -66h-54q-54 0 -61 67l-66 675q-18 178 137 178h29q142 0 127 -178z" />
    <glyph glyph-name="quotedbl" unicode="&#x22;" horiz-adv-x="967" 
d="M412 1462l-41 -528h-197l-41 528h279zM834 1462l-41 -528h-197l-41 528h279z" />
    <glyph glyph-name="numbersign" unicode="#" horiz-adv-x="1323" 
d="M999 844l-47 -232h258v-206h-297l-77 -406h-220l78 406h-194l-76 -406h-215l74 406h-238v206h277l47 232h-252v209h289l77 407h219l-77 -407h198l78 407h215l-78 -407h240v-209h-279zM539 612h196l47 232h-196z" />
    <glyph glyph-name="dollar" unicode="$" horiz-adv-x="1169" 
d="M1092 457q0 -159 -115 -255.5t-322 -115.5v-205h-137v201q-244 5 -428 86v264q87 -43 209.5 -76t218.5 -39v310l-67 26q-198 78 -280.5 169.5t-82.5 226.5q0 145 113.5 238.5t316.5 113.5v153h137v-149q229 -10 414 -92l-94 -234q-156 64 -320 78v-295
q195 -75 277.5 -130t121 -121t38.5 -154zM791 442q0 42 -34 71t-102 60v-249q136 23 136 118zM389 1049q0 -44 30.5 -72.5t98.5 -58.5v235q-129 -19 -129 -104z" />
    <glyph glyph-name="percent" unicode="%" horiz-adv-x="1845" 
d="M315 1024q0 -127 22.5 -189.5t72.5 -62.5q96 0 96 252q0 250 -96 250q-50 0 -72.5 -61.5t-22.5 -188.5zM758 1026q0 -230 -89 -345.5t-261 -115.5q-165 0 -255 118.5t-90 342.5q0 457 345 457q169 0 259.5 -118.5t90.5 -338.5zM1446 1462l-811 -1462h-240l811 1462h240z
M1339 440q0 -127 22.5 -189.5t72.5 -62.5q96 0 96 252q0 250 -96 250q-50 0 -72.5 -61.5t-22.5 -188.5zM1782 442q0 -229 -89 -344.5t-261 -115.5q-165 0 -255 118.5t-90 341.5q0 457 345 457q169 0 259.5 -118.5t90.5 -338.5z" />
    <glyph glyph-name="ampersand" unicode="&#x26;" horiz-adv-x="1536" 
d="M1536 0h-377l-115 113q-191 -133 -432 -133q-244 0 -387 112t-143 303q0 137 60.5 233.5t207.5 180.5q-75 86 -109 164.5t-34 171.5q0 152 116.5 245t311.5 93q186 0 297.5 -86.5t111.5 -231.5q0 -119 -69 -217.5t-223 -187.5l284 -277q71 117 123 301h318
q-36 -135 -99 -263.5t-143 -227.5zM403 424q0 -86 64.5 -137t165.5 -51q126 0 227 61l-332 330q-58 -44 -91.5 -92t-33.5 -111zM762 1133q0 53 -36 83.5t-93 30.5q-67 0 -105.5 -32t-38.5 -91q0 -88 95 -194q86 48 132 94.5t46 108.5z" />
    <glyph glyph-name="quotesingle" unicode="'" horiz-adv-x="545" 
d="M412 1462l-41 -528h-197l-41 528h279z" />
    <glyph glyph-name="parenleft" unicode="(" horiz-adv-x="694" 
d="M82 561q0 265 77.5 496t223.5 405h250q-141 -193 -213 -424t-72 -475q0 -245 73.5 -473.5t209.5 -413.5h-248q-147 170 -224 397t-77 488z" />
    <glyph glyph-name="parenright" unicode=")" horiz-adv-x="694" 
d="M612 561q0 -263 -77.5 -490t-223.5 -395h-248q135 184 209 412.5t74 474.5q0 244 -72 475t-213 424h250q147 -175 224 -406.5t77 -494.5z" />
    <glyph glyph-name="asterisk" unicode="*" horiz-adv-x="1116" 
d="M688 1556l-41 -368l373 104l33 -252l-340 -24l223 -297l-227 -121l-156 313l-137 -311l-236 119l221 297l-338 26l39 250l365 -104l-41 368h262z" />
    <glyph glyph-name="plus" unicode="+" horiz-adv-x="1169" 
d="M475 612h-387v219h387v390h219v-390h387v-219h-387v-385h-219v385z" />
    <glyph glyph-name="comma" unicode="," horiz-adv-x="594" 
d="M459 215q-52 -202 -176 -479h-220q65 266 101 502h280z" />
    <glyph glyph-name="hyphen" unicode="-" horiz-adv-x="659" 
d="M61 424v250h537v-250h-537z" />
    <glyph glyph-name="period" unicode="." horiz-adv-x="676" 
d="M162 176q0 74 51 125t125 51t125 -51t51 -125t-51 -125t-125 -51t-125 51t-51 125z" />
    <glyph glyph-name="slash" unicode="/" horiz-adv-x="846" 
d="M836 1462l-545 -1462h-277l545 1462h277z" />
    <glyph glyph-name="zero" unicode="0" horiz-adv-x="1169" 
d="M1096 731q0 -383 -125.5 -567t-386.5 -184q-253 0 -381.5 190t-128.5 561q0 387 125 570.5t385 183.5q253 0 382.5 -192t129.5 -562zM381 731q0 -269 46.5 -385.5t156.5 -116.5q108 0 156 118t48 384q0 269 -48.5 386.5t-155.5 117.5q-109 0 -156 -117.5t-47 -386.5z" />
    <glyph glyph-name="one" unicode="1" horiz-adv-x="1169" 
d="M846 0h-309v846l3 139l5 152q-77 -77 -107 -101l-168 -135l-149 186l471 375h254v-1462z" />
    <glyph glyph-name="two" unicode="2" horiz-adv-x="1169" 
d="M1104 0h-1022v215l367 371q163 167 213 231.5t72 119.5t22 114q0 88 -48.5 131t-129.5 43q-85 0 -165 -39t-167 -111l-168 199q108 92 179 130t155 58.5t188 20.5q137 0 242 -50t163 -140t58 -206q0 -101 -35.5 -189.5t-110 -181.5t-262.5 -265l-188 -177v-14h637v-260z
" />
    <glyph glyph-name="three" unicode="3" horiz-adv-x="1169" 
d="M1047 1135q0 -137 -83 -233t-233 -132v-6q177 -22 268 -107.5t91 -230.5q0 -211 -153 -328.5t-437 -117.5q-238 0 -422 79v263q85 -43 187 -70t202 -27q153 0 226 52t73 167q0 103 -84 146t-268 43h-111v237h113q170 0 248.5 44.5t78.5 152.5q0 166 -208 166
q-72 0 -146.5 -24t-165.5 -83l-143 213q200 144 477 144q227 0 358.5 -92t131.5 -256z" />
    <glyph glyph-name="four" unicode="4" horiz-adv-x="1169" 
d="M1137 303h-176v-303h-302v303h-624v215l641 944h285v-919h176v-240zM659 543v248q0 62 5 180t8 137h-8q-37 -82 -89 -160l-268 -405h352z" />
    <glyph glyph-name="five" unicode="5" horiz-adv-x="1169" 
d="M614 934q212 0 337.5 -119t125.5 -326q0 -245 -151 -377t-432 -132q-244 0 -394 79v267q79 -42 184 -68.5t199 -26.5q283 0 283 232q0 221 -293 221q-53 0 -117 -10.5t-104 -22.5l-123 66l55 745h793v-262h-522l-27 -287l35 7q61 14 151 14z" />
    <glyph glyph-name="six" unicode="6" horiz-adv-x="1169" 
d="M72 621q0 434 183.5 646t549.5 212q125 0 196 -15v-247q-89 20 -176 20q-159 0 -259.5 -48t-150.5 -142t-59 -267h13q99 170 317 170q196 0 307 -123t111 -340q0 -234 -132 -370.5t-366 -136.5q-162 0 -282.5 75t-186 219t-65.5 347zM600 227q99 0 152 66.5t53 189.5
q0 107 -49.5 168.5t-149.5 61.5q-94 0 -160.5 -61t-66.5 -142q0 -119 62.5 -201t158.5 -82z" />
    <glyph glyph-name="seven" unicode="7" horiz-adv-x="1169" 
d="M227 0l549 1200h-721v260h1049v-194l-553 -1266h-324z" />
    <glyph glyph-name="eight" unicode="8" horiz-adv-x="1169" 
d="M586 1481q210 0 338.5 -95.5t128.5 -257.5q0 -112 -62 -199.5t-200 -156.5q164 -88 235.5 -183.5t71.5 -209.5q0 -180 -141 -289.5t-371 -109.5q-240 0 -377 102t-137 289q0 125 66.5 222t213.5 171q-125 79 -180 169t-55 197q0 157 130 254t339 97zM358 389
q0 -86 60 -134t164 -48q115 0 172 49.5t57 130.5q0 67 -56.5 125.5t-183.5 124.5q-213 -98 -213 -248zM584 1255q-79 0 -127.5 -40.5t-48.5 -108.5q0 -60 38.5 -107.5t139.5 -97.5q98 46 137 94t39 111q0 69 -50 109t-128 40z" />
    <glyph glyph-name="nine" unicode="9" horiz-adv-x="1169" 
d="M1098 838q0 -432 -182 -645t-551 -213q-130 0 -197 14v248q84 -21 176 -21q155 0 255 45.5t153 143t61 268.5h-12q-58 -94 -134 -132t-190 -38q-191 0 -301 122.5t-110 340.5q0 235 133.5 371.5t363.5 136.5q162 0 283.5 -76t186.5 -220.5t65 -344.5zM569 1231
q-96 0 -150 -66t-54 -190q0 -106 49 -168t149 -62q94 0 161 61.5t67 141.5q0 119 -62.5 201t-159.5 82z" />
    <glyph glyph-name="colon" unicode=":" horiz-adv-x="676" 
d="M162 838.5q0 73.5 51.5 125t125 51.5t124.5 -51.5t51 -125t-51 -124.5t-124.5 -51t-125 51t-51.5 124.5zM162 176q0 74 51.5 125t125 51t124.5 -51t51 -125t-51 -125t-124.5 -51t-125 51t-51.5 125z" />
    <glyph glyph-name="semicolon" unicode=";" horiz-adv-x="594" 
d="M444 238l15 -23q-52 -202 -176 -479h-220q65 266 101 502h280zM117 969q0 84 45 127t131 43q83 0 128.5 -44t45.5 -126q0 -81 -46.5 -125.5t-127.5 -44.5q-84 0 -130 44t-46 126z" />
    <glyph glyph-name="less" unicode="&#x3c;" horiz-adv-x="1169" 
d="M1081 203l-993 438v143l993 496v-240l-684 -317l684 -281v-239z" />
    <glyph glyph-name="equal" unicode="=" horiz-adv-x="1169" 
d="M88 805v219h993v-219h-993zM88 418v219h993v-219h-993z" />
    <glyph glyph-name="greater" unicode="&#x3e;" horiz-adv-x="1169" 
d="M88 442l684 281l-684 317v240l993 -496v-143l-993 -438v239z" />
    <glyph glyph-name="question" unicode="?" horiz-adv-x="977" 
d="M276 485v74q0 96 41 167t150 151q105 75 138.5 122t33.5 105q0 65 -48 99t-134 34q-150 0 -342 -98l-109 219q223 125 473 125q206 0 327.5 -99t121.5 -264q0 -110 -50 -190t-190 -180q-96 -71 -121.5 -108t-25.5 -97v-60h-265zM244 143q0 84 45 127t131 43
q83 0 128.5 -44t45.5 -126q0 -79 -46 -124.5t-128 -45.5q-84 0 -130 44.5t-46 125.5z" />
    <glyph glyph-name="at" unicode="@" horiz-adv-x="1837" 
d="M1735 752q0 -144 -46 -263.5t-130 -187.5t-195 -68q-74 0 -131 35.5t-82 93.5h-16q-108 -129 -275 -129q-177 0 -279 106.5t-102 291.5q0 211 134 340t350 129q86 0 189.5 -16.5t170.5 -39.5l-23 -489q0 -139 76 -139q64 0 102 93.5t38 244.5q0 161 -67 284.5
t-188.5 188.5t-277.5 65q-202 0 -351 -83t-228.5 -239.5t-79.5 -361.5q0 -276 147.5 -423.5t427.5 -147.5q106 0 233 23.5t250 68.5v-192q-214 -91 -475 -91q-380 0 -592.5 200t-212.5 556q0 247 108.5 448.5t309 316t461.5 114.5q220 0 393 -90t267 -256t94 -383zM711 627
q0 -211 172 -211q90 0 137 63.5t57 206.5l13 221q-51 11 -115 11q-125 0 -194.5 -78t-69.5 -213z" />
    <glyph glyph-name="A" unicode="A" horiz-adv-x="1413" 
d="M1079 0l-106 348h-533l-106 -348h-334l516 1468h379l518 -1468h-334zM899 608q-147 473 -165.5 535t-26.5 98q-33 -128 -189 -633h381z" />
    <glyph glyph-name="B" unicode="B" horiz-adv-x="1376" 
d="M184 1462h455q311 0 451.5 -88.5t140.5 -281.5q0 -131 -61.5 -215t-163.5 -101v-10q139 -31 200.5 -116t61.5 -226q0 -200 -144.5 -312t-392.5 -112h-547v1462zM494 883h180q126 0 182.5 39t56.5 129q0 84 -61.5 120.5t-194.5 36.5h-163v-325zM494 637v-381h202
q128 0 189 49t61 150q0 182 -260 182h-192z" />
    <glyph glyph-name="C" unicode="C" horiz-adv-x="1305" 
d="M805 1225q-175 0 -271 -131.5t-96 -366.5q0 -489 367 -489q154 0 373 77v-260q-180 -75 -402 -75q-319 0 -488 193.5t-169 555.5q0 228 83 399.5t238.5 263t364.5 91.5q213 0 428 -103l-100 -252q-82 39 -165 68t-163 29z" />
    <glyph glyph-name="D" unicode="D" horiz-adv-x="1516" 
d="M1397 745q0 -361 -205.5 -553t-593.5 -192h-414v1462h459q358 0 556 -189t198 -528zM1075 737q0 471 -416 471h-165v-952h133q448 0 448 481z" />
    <glyph glyph-name="E" unicode="E" horiz-adv-x="1147" 
d="M1026 0h-842v1462h842v-254h-532v-321h495v-254h-495v-377h532v-256z" />
    <glyph glyph-name="F" unicode="F" horiz-adv-x="1124" 
d="M489 0h-305v1462h838v-254h-533v-377h496v-253h-496v-578z" />
    <glyph glyph-name="G" unicode="G" horiz-adv-x="1483" 
d="M739 821h580v-758q-141 -46 -265.5 -64.5t-254.5 -18.5q-331 0 -505.5 194.5t-174.5 558.5q0 354 202.5 552t561.5 198q225 0 434 -90l-103 -248q-160 80 -333 80q-201 0 -322 -135t-121 -363q0 -238 97.5 -363.5t283.5 -125.5q97 0 197 20v305h-277v258z" />
    <glyph glyph-name="H" unicode="H" horiz-adv-x="1567" 
d="M1382 0h-309v631h-579v-631h-310v1462h310v-573h579v573h309v-1462z" />
    <glyph glyph-name="I" unicode="I" horiz-adv-x="678" 
d="M184 0v1462h310v-1462h-310z" />
    <glyph glyph-name="J" unicode="J" horiz-adv-x="678" 
d="M31 -430q-105 0 -183 22v258q80 -20 146 -20q102 0 146 63.5t44 198.5v1370h310v-1368q0 -256 -117 -390t-346 -134z" />
    <glyph glyph-name="K" unicode="K" horiz-adv-x="1360" 
d="M1360 0h-352l-383 616l-131 -94v-522h-310v1462h310v-669l122 172l396 497h344l-510 -647z" />
    <glyph glyph-name="L" unicode="L" horiz-adv-x="1157" 
d="M184 0v1462h310v-1206h593v-256h-903z" />
    <glyph glyph-name="M" unicode="M" horiz-adv-x="1931" 
d="M803 0l-352 1147h-9q19 -350 19 -467v-680h-277v1462h422l346 -1118h6l367 1118h422v-1462h-289v692q0 49 1.5 113t13.5 340h-9l-377 -1145h-284z" />
    <glyph glyph-name="N" unicode="N" horiz-adv-x="1665" 
d="M1481 0h-394l-636 1106h-9q19 -293 19 -418v-688h-277v1462h391l635 -1095h7q-15 285 -15 403v692h279v-1462z" />
    <glyph glyph-name="O" unicode="O" horiz-adv-x="1630" 
d="M1511 733q0 -363 -180 -558t-516 -195t-516 195t-180 560t180.5 557.5t517.5 192.5t515.5 -194t178.5 -558zM444 733q0 -245 93 -369t278 -124q371 0 371 493q0 494 -369 494q-185 0 -279 -124.5t-94 -369.5z" />
    <glyph glyph-name="P" unicode="P" horiz-adv-x="1286" 
d="M494 774h102q143 0 214 56.5t71 164.5q0 109 -59.5 161t-186.5 52h-141v-434zM1194 1006q0 -236 -147.5 -361t-419.5 -125h-133v-520h-310v1462h467q266 0 404.5 -114.5t138.5 -341.5z" />
    <glyph glyph-name="Q" unicode="Q" horiz-adv-x="1630" 
d="M1511 733q0 -258 -91.5 -432.5t-268.5 -255.5l352 -393h-397l-268 328h-23q-336 0 -516 195t-180 560t180.5 557.5t517.5 192.5t515.5 -194t178.5 -558zM444 733q0 -245 93 -369t278 -124q371 0 371 493q0 494 -369 494q-185 0 -279 -124.5t-94 -369.5z" />
    <glyph glyph-name="R" unicode="R" horiz-adv-x="1352" 
d="M494 813h100q147 0 217 49t70 154q0 104 -71.5 148t-221.5 44h-94v-395zM494 561v-561h-310v1462h426q298 0 441 -108.5t143 -329.5q0 -129 -71 -229.5t-201 -157.5q330 -493 430 -637h-344l-349 561h-165z" />
    <glyph glyph-name="S" unicode="S" horiz-adv-x="1128" 
d="M1047 406q0 -198 -142.5 -312t-396.5 -114q-234 0 -414 88v288q148 -66 250.5 -93t187.5 -27q102 0 156.5 39t54.5 116q0 43 -24 76.5t-70.5 64.5t-189.5 99q-134 63 -201 121t-107 135t-40 180q0 194 131.5 305t363.5 111q114 0 217.5 -27t216.5 -76l-100 -241
q-117 48 -193.5 67t-150.5 19q-88 0 -135 -41t-47 -107q0 -41 19 -71.5t60.5 -59t196.5 -102.5q205 -98 281 -196.5t76 -241.5z" />
    <glyph glyph-name="T" unicode="T" horiz-adv-x="1186" 
d="M748 0h-310v1204h-397v258h1104v-258h-397v-1204z" />
    <glyph glyph-name="U" unicode="U" horiz-adv-x="1548" 
d="M1374 1462v-946q0 -162 -72.5 -284t-209.5 -187t-324 -65q-282 0 -438 144.5t-156 395.5v942h309v-895q0 -169 68 -248t225 -79q152 0 220.5 79.5t68.5 249.5v893h309z" />
    <glyph glyph-name="V" unicode="V" horiz-adv-x="1331" 
d="M1018 1462h313l-497 -1462h-338l-496 1462h313l275 -870q23 -77 47.5 -179.5t30.5 -142.5q11 92 75 322z" />
    <glyph glyph-name="W" unicode="W" horiz-adv-x="1980" 
d="M1608 0h-353l-198 768q-11 41 -37.5 169.5t-30.5 172.5q-6 -54 -30 -173.5t-37 -170.5l-197 -766h-352l-373 1462h305l187 -798q49 -221 71 -383q6 57 27.5 176.5t40.5 185.5l213 819h293l213 -819q14 -55 35 -168t32 -194q10 78 32 194.5t40 188.5l186 798h305z" />
    <glyph glyph-name="X" unicode="X" horiz-adv-x="1366" 
d="M1366 0h-354l-340 553l-340 -553h-332l485 754l-454 708h342l315 -526l309 526h334l-459 -725z" />
    <glyph glyph-name="Y" unicode="Y" horiz-adv-x="1278" 
d="M639 860l305 602h334l-485 -893v-569h-308v559l-485 903h336z" />
    <glyph glyph-name="Z" unicode="Z" horiz-adv-x="1186" 
d="M1137 0h-1088v201l701 1005h-682v256h1050v-200l-700 -1006h719v-256z" />
    <glyph glyph-name="bracketleft" unicode="[" horiz-adv-x="678" 
d="M627 -324h-484v1786h484v-211h-224v-1364h224v-211z" />
    <glyph glyph-name="backslash" unicode="\" horiz-adv-x="846" 
d="M289 1462l545 -1462h-277l-545 1462h277z" />
    <glyph glyph-name="bracketright" unicode="]" horiz-adv-x="678" 
d="M51 -113h223v1364h-223v211h484v-1786h-484v211z" />
    <glyph glyph-name="asciicircum" unicode="^" horiz-adv-x="1090" 
d="M8 520l438 950h144l495 -950h-239l-322 643l-280 -643h-236z" />
    <glyph glyph-name="underscore" unicode="_" horiz-adv-x="842" 
d="M846 -324h-850v140h850v-140z" />
    <glyph glyph-name="grave" unicode="`" horiz-adv-x="1243" 
d="M707 1241q-63 44 -185 142.5t-190 164.5v21h342q63 -101 235 -301v-27h-202z" />
    <glyph glyph-name="a" unicode="a" horiz-adv-x="1237" 
d="M870 0l-59 152h-8q-77 -97 -158.5 -134.5t-212.5 -37.5q-161 0 -253.5 92t-92.5 262q0 178 124.5 262.5t375.5 93.5l194 6v49q0 170 -174 170q-134 0 -315 -81l-101 206q193 101 428 101q225 0 345 -98t120 -298v-745h-213zM780 518l-118 -4q-133 -4 -198 -48t-65 -134
q0 -129 148 -129q106 0 169.5 61t63.5 162v92z" />
    <glyph glyph-name="b" unicode="b" horiz-adv-x="1296" 
d="M782 1139q198 0 310 -154.5t112 -423.5q0 -277 -115.5 -429t-314.5 -152q-197 0 -309 143h-21l-51 -123h-233v1556h305v-362q0 -69 -12 -221h12q107 166 317 166zM684 895q-113 0 -165 -69.5t-54 -229.5v-33q0 -180 53.5 -258t169.5 -78q94 0 149.5 86.5t55.5 251.5
t-56 247.5t-153 82.5z" />
    <glyph glyph-name="c" unicode="c" horiz-adv-x="1053" 
d="M614 -20q-522 0 -522 573q0 285 142 435.5t407 150.5q194 0 348 -76l-90 -236q-72 29 -134 47.5t-124 18.5q-238 0 -238 -338q0 -328 238 -328q88 0 163 23.5t150 73.5v-261q-74 -47 -149.5 -65t-190.5 -18z" />
    <glyph glyph-name="d" unicode="d" horiz-adv-x="1296" 
d="M514 -20q-197 0 -309.5 153t-112.5 424q0 275 114.5 428.5t315.5 153.5q211 0 322 -164h10q-23 125 -23 223v358h306v-1556h-234l-59 145h-13q-104 -165 -317 -165zM621 223q117 0 171.5 68t59.5 231v33q0 180 -55.5 258t-180.5 78q-102 0 -158.5 -86.5t-56.5 -251.5
t57 -247.5t163 -82.5z" />
    <glyph glyph-name="e" unicode="e" horiz-adv-x="1210" 
d="M623 922q-97 0 -152 -61.5t-63 -174.5h428q-2 113 -59 174.5t-154 61.5zM666 -20q-270 0 -422 149t-152 422q0 281 140.5 434.5t388.5 153.5q237 0 369 -135t132 -373v-148h-721q5 -130 77 -203t202 -73q101 0 191 21t188 67v-236q-80 -40 -171 -59.5t-222 -19.5z" />
    <glyph glyph-name="f" unicode="f" horiz-adv-x="793" 
d="M778 889h-264v-889h-305v889h-168v147l168 82v82q0 191 94 279t301 88q158 0 281 -47l-78 -224q-92 29 -170 29q-65 0 -94 -38.5t-29 -98.5v-70h264v-229z" />
    <glyph glyph-name="g" unicode="g" horiz-adv-x="1157" 
d="M1133 1118v-155l-175 -45q48 -75 48 -168q0 -180 -125.5 -280.5t-348.5 -100.5l-55 3l-45 5q-47 -36 -47 -80q0 -66 168 -66h190q184 0 280.5 -79t96.5 -232q0 -196 -163.5 -304t-469.5 -108q-234 0 -357.5 81.5t-123.5 228.5q0 101 63 169t185 97q-47 20 -82 65.5
t-35 96.5q0 64 37 106.5t107 83.5q-88 38 -139.5 122t-51.5 198q0 183 119 283t340 100q47 0 111.5 -8.5t82.5 -12.5h390zM270 -158q0 -63 60.5 -99t169.5 -36q164 0 257 45t93 123q0 63 -55 87t-170 24h-158q-84 0 -140.5 -39.5t-56.5 -104.5zM381 752q0 -91 41.5 -144
t126.5 -53q86 0 126 53t40 144q0 202 -166 202q-168 0 -168 -202z" />
    <glyph glyph-name="h" unicode="h" horiz-adv-x="1346" 
d="M1192 0h-305v653q0 242 -180 242q-128 0 -185 -87t-57 -282v-526h-305v1556h305v-317q0 -37 -7 -174l-7 -90h16q102 164 324 164q197 0 299 -106t102 -304v-729z" />
    <glyph glyph-name="i" unicode="i" horiz-adv-x="625" 
d="M147 1407q0 149 166 149t166 -149q0 -71 -41.5 -110.5t-124.5 -39.5q-166 0 -166 150zM465 0h-305v1118h305v-1118z" />
    <glyph glyph-name="j" unicode="j" horiz-adv-x="625" 
d="M70 -492q-117 0 -201 25v240q70 -19 143 -19q77 0 112.5 43t35.5 127v1194h305v-1239q0 -178 -103 -274.5t-292 -96.5zM147 1407q0 149 166 149t166 -149q0 -71 -41.5 -110.5t-124.5 -39.5q-166 0 -166 150z" />
    <glyph glyph-name="k" unicode="k" horiz-adv-x="1270" 
d="M453 608l133 170l313 340h344l-444 -485l471 -633h-352l-322 453l-131 -105v-348h-305v1556h305v-694l-16 -254h4z" />
    <glyph glyph-name="l" unicode="l" horiz-adv-x="625" 
d="M465 0h-305v1556h305v-1556z" />
    <glyph glyph-name="m" unicode="m" horiz-adv-x="2011" 
d="M1161 0h-305v653q0 121 -40.5 181.5t-127.5 60.5q-117 0 -170 -86t-53 -283v-526h-305v1118h233l41 -143h17q45 77 130 120.5t195 43.5q251 0 340 -164h27q45 78 132.5 121t197.5 43q190 0 287.5 -97.5t97.5 -312.5v-729h-306v653q0 121 -40.5 181.5t-127.5 60.5
q-112 0 -167.5 -80t-55.5 -254v-561z" />
    <glyph glyph-name="n" unicode="n" horiz-adv-x="1346" 
d="M1192 0h-305v653q0 121 -43 181.5t-137 60.5q-128 0 -185 -85.5t-57 -283.5v-526h-305v1118h233l41 -143h17q51 81 140.5 122.5t203.5 41.5q195 0 296 -105.5t101 -304.5v-729z" />
    <glyph glyph-name="o" unicode="o" horiz-adv-x="1268" 
d="M403 561q0 -166 54.5 -251t177.5 -85q122 0 175.5 84.5t53.5 251.5q0 166 -54 249t-177 83q-122 0 -176 -82.5t-54 -249.5zM1176 561q0 -273 -144 -427t-401 -154q-161 0 -284 70.5t-189 202.5t-66 308q0 274 143 426t402 152q161 0 284 -70t189 -201t66 -307z" />
    <glyph glyph-name="p" unicode="p" horiz-adv-x="1296" 
d="M774 -20q-197 0 -309 143h-16q16 -140 16 -162v-453h-305v1610h248l43 -145h14q107 166 317 166q198 0 310 -153t112 -425q0 -179 -52.5 -311t-149.5 -201t-228 -69zM684 895q-113 0 -165 -69.5t-54 -229.5v-33q0 -180 53.5 -258t169.5 -78q205 0 205 338
q0 165 -50.5 247.5t-158.5 82.5z" />
    <glyph glyph-name="q" unicode="q" horiz-adv-x="1296" 
d="M623 219q116 0 170 66.5t59 232.5v37q0 180 -55.5 258t-178.5 78q-215 0 -215 -338q0 -168 53.5 -251t166.5 -83zM514 -20q-198 0 -310 152.5t-112 424.5q0 274 114.5 428t313.5 154q106 0 185 -40t139 -124h8l27 143h258v-1610h-306v469q0 61 13 168h-13
q-49 -81 -130 -123t-187 -42z" />
    <glyph glyph-name="r" unicode="r" horiz-adv-x="930" 
d="M784 1139q62 0 103 -9l-23 -286q-37 10 -90 10q-146 0 -227.5 -75t-81.5 -210v-569h-305v1118h231l45 -188h15q52 94 140.5 151.5t192.5 57.5z" />
    <glyph glyph-name="s" unicode="s" horiz-adv-x="1018" 
d="M940 332q0 -172 -119.5 -262t-357.5 -90q-122 0 -208 16.5t-161 48.5v252q85 -40 191.5 -67t187.5 -27q166 0 166 96q0 36 -22 58.5t-76 51t-144 66.5q-129 54 -189.5 100t-88 105.5t-27.5 146.5q0 149 115.5 230.5t327.5 81.5q202 0 393 -88l-92 -220q-84 36 -157 59
t-149 23q-135 0 -135 -73q0 -41 43.5 -71t190.5 -89q131 -53 192 -99t90 -106t29 -143z" />
    <glyph glyph-name="t" unicode="t" horiz-adv-x="889" 
d="M631 223q80 0 192 35v-227q-114 -51 -280 -51q-183 0 -266.5 92.5t-83.5 277.5v539h-146v129l168 102l88 236h195v-238h313v-229h-313v-539q0 -65 36.5 -96t96.5 -31z" />
    <glyph glyph-name="u" unicode="u" horiz-adv-x="1346" 
d="M952 0l-41 143h-16q-49 -78 -139 -120.5t-205 -42.5q-197 0 -297 105.5t-100 303.5v729h305v-653q0 -121 43 -181.5t137 -60.5q128 0 185 85.5t57 283.5v526h305v-1118h-234z" />
    <glyph glyph-name="v" unicode="v" horiz-adv-x="1165" 
d="M426 0l-426 1118h319l216 -637q36 -121 45 -229h6q5 96 45 229l215 637h319l-426 -1118h-313z" />
    <glyph glyph-name="w" unicode="w" horiz-adv-x="1753" 
d="M1079 0l-86 391l-116 494h-7l-204 -885h-328l-318 1118h304l129 -495q31 -133 63 -367h6q4 76 35 241l16 85l138 536h336l131 -536q4 -22 12.5 -65t16.5 -91.5t14.5 -95t7.5 -74.5h6q9 72 32 197.5t33 169.5l134 495h299l-322 -1118h-332z" />
    <glyph glyph-name="x" unicode="x" horiz-adv-x="1184" 
d="M389 571l-360 547h346l217 -356l219 356h346l-364 -547l381 -571h-347l-235 383l-236 -383h-346z" />
    <glyph glyph-name="y" unicode="y" horiz-adv-x="1165" 
d="M0 1118h334l211 -629q27 -82 37 -194h6q11 103 43 194l207 629h327l-473 -1261q-65 -175 -185.5 -262t-281.5 -87q-79 0 -155 17v242q55 -13 120 -13q81 0 141.5 49.5t94.5 149.5l18 55z" />
    <glyph glyph-name="z" unicode="z" horiz-adv-x="999" 
d="M938 0h-883v180l518 705h-487v233h834v-198l-504 -687h522v-233z" />
    <glyph glyph-name="braceleft" unicode="{" horiz-adv-x="807" 
d="M287 270q0 87 -65.5 133t-190.5 46v239q126 0 191 44t65 126v8v318q0 153 97 215.5t341 62.5v-225q-99 -3 -136.5 -38t-37.5 -103v-299q-6 -188 -234 -222v-12q234 -35 234 -212v-9v-299q0 -68 37 -103t137 -38v-226q-244 0 -341 62.5t-97 216.5v315z" />
    <glyph glyph-name="bar" unicode="|" horiz-adv-x="1128" 
d="M455 1550h219v-2015h-219v2015z" />
    <glyph glyph-name="braceright" unicode="}" horiz-adv-x="807" 
d="M520 -45q0 -112 -41 -169t-135.5 -83.5t-261.5 -26.5v226q99 2 136.5 36t37.5 105v299v11q0 86 59 139.5t174 70.5v12q-227 34 -233 222v299q0 70 -37 104t-137 37v225q167 0 262 -26.5t135.5 -84t40.5 -167.5v-318v-10q0 -84 61.5 -126t194.5 -42v-239
q-125 0 -190.5 -41t-65.5 -138v-315z" />
    <glyph glyph-name="asciitilde" unicode="~" horiz-adv-x="1169" 
d="M322 672q-55 0 -117.5 -33.5t-116.5 -87.5v231q103 109 256 109q73 0 137.5 -16t139.5 -48q129 -55 227 -55q53 0 116 32t117 89v-231q-101 -109 -256 -109q-66 0 -126 13t-150 50q-131 56 -227 56z" />
    <glyph glyph-name="uni00A0" unicode="&#xa0;" horiz-adv-x="560" 
 />
    <glyph glyph-name="exclamdown" unicode="&#xa1;" horiz-adv-x="586" 
d="M168 606h244l51 -975h-346zM467 948q0 -84 -45 -127t-131 -43q-83 0 -128.5 44t-45.5 126q0 81 46.5 125.5t127.5 44.5q84 0 130 -44t46 -126z" />
    <glyph glyph-name="cent" unicode="&#xa2;" horiz-adv-x="1169" 
d="M563 176q-420 59 -420 565q0 261 104.5 403t315.5 173v166h178v-158q166 -9 299 -74l-90 -235q-72 29 -134 47t-124 18q-121 0 -179 -83.5t-58 -254.5q0 -327 237 -327q82 0 148 15.5t166 60.5v-254q-127 -61 -265 -70v-188h-178v196z" />
    <glyph glyph-name="sterling" unicode="&#xa3;" horiz-adv-x="1169" 
d="M700 1483q195 0 390 -82l-93 -230q-157 64 -272 64q-78 0 -120 -44.5t-42 -127.5v-193h375v-219h-375v-143q0 -170 -151 -248h718v-260h-1048v248q103 44 141.5 101t38.5 157v145h-178v219h178v195q0 201 114.5 309.5t323.5 108.5z" />
    <glyph glyph-name="currency" unicode="&#xa4;" horiz-adv-x="1169" 
d="M188 723q0 102 54 197l-129 127l147 147l127 -127q91 53 197 53q105 0 196 -55l127 129l150 -143l-129 -129q53 -89 53 -199q0 -107 -53 -199l125 -125l-146 -145l-127 125q-95 -51 -196 -51q-115 0 -199 51l-125 -123l-145 145l127 125q-54 93 -54 197zM395 723
q0 -77 54.5 -132.5t134.5 -55.5q81 0 136.5 55t55.5 133q0 80 -56.5 135t-135.5 55q-78 0 -133.5 -56t-55.5 -134z" />
    <glyph glyph-name="yen" unicode="&#xa5;" horiz-adv-x="1169" 
d="M584 860l264 602h313l-383 -747h195v-178h-246v-138h246v-178h-246v-221h-287v221h-247v178h247v138h-247v178h190l-377 747h316z" />
    <glyph glyph-name="brokenbar" unicode="&#xa6;" horiz-adv-x="1128" 
d="M455 1550h219v-815h-219v815zM455 350h219v-815h-219v815z" />
    <glyph glyph-name="section" unicode="&#xa7;" horiz-adv-x="995" 
d="M121 805q0 79 36 144.5t97 105.5q-133 84 -133 233q0 131 111.5 210t293.5 79q170 0 363 -84l-82 -190q-68 32 -138.5 57.5t-148.5 25.5q-81 0 -118 -23t-37 -71q0 -49 49.5 -86t163.5 -82q163 -64 240 -148.5t77 -193.5q0 -177 -125 -260q62 -40 93.5 -92.5t31.5 -126.5
q0 -148 -119.5 -235.5t-320.5 -87.5q-203 0 -349 79v207q81 -41 180 -69.5t169 -28.5q194 0 194 117q0 39 -18.5 63t-63.5 49.5t-125 59.5q-183 74 -252 152.5t-69 195.5zM344 827q0 -67 65 -119t181 -98q78 57 78 146q0 68 -50.5 115t-183.5 96q-37 -14 -63.5 -53.5
t-26.5 -86.5z" />
    <glyph glyph-name="dieresis" unicode="&#xa8;" horiz-adv-x="1243" 
d="M279 1405q0 65 37.5 100t101.5 35q66 0 103.5 -37t37.5 -98q0 -60 -38 -96.5t-103 -36.5q-64 0 -101.5 35t-37.5 98zM682 1405q0 70 40.5 102.5t100.5 32.5q65 0 103.5 -36t38.5 -99q0 -61 -39 -97t-103 -36q-60 0 -100.5 32.5t-40.5 100.5z" />
    <glyph glyph-name="copyright" unicode="&#xa9;" horiz-adv-x="1704" 
d="M895 1010q-97 0 -150 -74t-53 -205q0 -280 203 -280q57 0 123 15t123 44v-191q-120 -57 -252 -57q-204 0 -316 125t-112 346q0 220 110.5 342.5t309.5 122.5q149 0 305 -78l-74 -168q-113 58 -217 58zM100 731q0 200 100 375t275 276t377 101q200 0 375 -100t276 -275
t101 -377q0 -197 -97 -370t-272 -277t-383 -104q-207 0 -382 103.5t-272.5 276.5t-97.5 371zM242 731q0 -164 82 -305.5t224 -223t304 -81.5q164 0 305.5 82t223 224t81.5 304q0 164 -82 305.5t-224 223t-304 81.5q-164 0 -305.5 -82t-223 -224t-81.5 -304z" />
    <glyph glyph-name="ordfeminine" unicode="&#xaa;" horiz-adv-x="784" 
d="M561 764l-31 110q-43 -58 -105 -90t-136 -32q-117 0 -179.5 58.5t-62.5 164.5q0 109 82.5 163.5t267.5 63.5l99 4q0 117 -127 117q-81 0 -217 -61l-66 135q66 32 145.5 57t178.5 25q137 0 211.5 -71t74.5 -202v-442h-135zM252 977q0 -38 23 -56t55 -18q77 0 121.5 41.5
t44.5 106.5v36l-99 -6q-145 -10 -145 -104z" />
    <glyph glyph-name="guillemotleft" unicode="&#xab;" horiz-adv-x="1236" 
d="M881 -10q-305 420 -304 498q0 80 304 499h245l-50 -72q-240 -346 -241 -427q0 -80 241 -426l50 -72h-245zM391 -10q-305 420 -304 498q0 80 304 499h245l-50 -72q-240 -346 -241 -427q0 -80 241 -426l50 -72h-245z" />
    <glyph glyph-name="logicalnot" unicode="&#xac;" horiz-adv-x="1169" 
d="M1081 248h-219v364h-774v219h993v-583z" />
    <glyph glyph-name="uni00AD" unicode="&#xad;" horiz-adv-x="659" 
d="M61 424v250h537v-250h-537z" />
    <glyph glyph-name="registered" unicode="&#xae;" horiz-adv-x="1704" 
d="M1157 905q0 -170 -143 -233l237 -400h-254l-178 338h-47v-338h-229v916h264q181 0 265.5 -70t84.5 -213zM772 778h31q66 0 94.5 28.5t28.5 94.5q0 65 -28 92t-97 27h-29v-242zM100 731q0 200 100 375t275 276t377 101q200 0 375 -100t276 -275t101 -377q0 -197 -97 -370
t-272 -277t-383 -104q-207 0 -382 103.5t-272.5 276.5t-97.5 371zM242 731q0 -164 82 -305.5t224 -223t304 -81.5q164 0 305.5 82t223 224t81.5 304q0 164 -82 305.5t-224 223t-304 81.5q-164 0 -305.5 -82t-223 -224t-81.5 -304z" />
    <glyph glyph-name="overscore" unicode="&#xaf;" horiz-adv-x="1024" 
d="M1030 1556h-1036v201h1036v-201z" />
    <glyph glyph-name="degree" unicode="&#xb0;" horiz-adv-x="877" 
d="M92 1137q0 92 46 172t126 127t174 47q92 0 172.5 -46t127 -127t46.5 -173q0 -93 -46.5 -173.5t-126.5 -125.5t-173 -45q-145 0 -245.5 99.5t-100.5 244.5zM283 1137q0 -64 44.5 -109t110.5 -45t111 46t45 108q0 63 -45.5 110t-110.5 47q-64 0 -109.5 -46t-45.5 -111z" />
    <glyph glyph-name="plusminus" unicode="&#xb1;" horiz-adv-x="1169" 
d="M475 674h-387v219h387v389h219v-389h387v-219h-387v-385h-219v385zM88 0v219h993v-219h-993z" />
    <glyph glyph-name="twosuperior" unicode="&#xb2;" horiz-adv-x="776" 
d="M702 586h-647v168l224 219q102 100 130.5 144.5t28.5 94.5q0 38 -24 58t-64 20q-81 0 -180 -88l-123 152q147 129 336 129q137 0 216 -66.5t79 -183.5q0 -85 -47 -160t-176 -192l-105 -95h352v-200z" />
    <glyph glyph-name="threesuperior" unicode="&#xb3;" horiz-adv-x="776" 
d="M666 1249q0 -143 -170 -198v-13q94 -20 146 -75t52 -134q0 -121 -88 -190.5t-274 -69.5q-143 0 -273 70v190q148 -90 271 -90q143 0 143 107q0 53 -44 79.5t-122 26.5h-112v160h92q83 0 123.5 26t40.5 83q0 38 -25 63t-76 25q-47 0 -89 -19t-99 -59l-101 141
q62 47 137.5 78t178.5 31q127 0 208 -64t81 -168z" />
    <glyph glyph-name="acute" unicode="&#xb4;" horiz-adv-x="1243" 
d="M332 1241v27q172 200 235 301h342v-21q-52 -52 -177.5 -154.5t-196.5 -152.5h-203z" />
    <glyph glyph-name="mu" unicode="&#xb5;" horiz-adv-x="1352" 
d="M465 465q0 -121 44 -181.5t138 -60.5q126 0 183 86.5t57 282.5v526h305v-1118h-231l-43 150h-15q-42 -85 -102 -127.5t-148 -42.5q-62 0 -114 23t-84 67l5 -85l5 -157v-320h-305v1610h305v-653z" />
    <glyph glyph-name="paragraph" unicode="&#xb6;" horiz-adv-x="1341" 
d="M1167 -260h-161v1616h-166v-1616h-162v819q-62 -18 -146 -18q-216 0 -317.5 125t-101.5 376q0 260 109 387t341 127h604v-1816z" />
    <glyph glyph-name="periodcentered" unicode="&#xb7;" horiz-adv-x="584" 
d="M117 723q0 84 45 127t131 43q83 0 128.5 -44t45.5 -126q0 -81 -46.5 -125.5t-127.5 -44.5q-84 0 -130 44t-46 126z" />
    <glyph glyph-name="cedilla" unicode="&#xb8;" horiz-adv-x="420" 
d="M418 -250q0 -128 -75.5 -185t-233.5 -57q-78 0 -146 21v168q27 -7 72.5 -14t70.5 -7q72 0 72 62q0 83 -166 108l78 154h193l-27 -61q74 -24 118 -74.5t44 -114.5z" />
    <glyph glyph-name="onesuperior" unicode="&#xb9;" horiz-adv-x="776" 
d="M584 586h-238v446l3 112l5 95q-27 -36 -75 -78l-78 -61l-109 127l301 235h191v-876z" />
    <glyph glyph-name="ordmasculine" unicode="&#xba;" horiz-adv-x="795" 
d="M737 1116q0 -171 -91.5 -267.5t-250.5 -96.5q-153 0 -245.5 98.5t-92.5 265.5q0 169 89.5 266t252.5 97q152 0 245 -98.5t93 -264.5zM260 1116q0 -100 32.5 -150.5t104.5 -50.5t103.5 50.5t31.5 150.5t-31.5 149.5t-103.5 49.5t-104.5 -49.5t-32.5 -149.5z" />
    <glyph glyph-name="guillemotright" unicode="&#xbb;" horiz-adv-x="1236" 
d="M356 -10h-245l50 72q241 346 241 426q-1 81 -241 427l-50 72h245q304 -419 304 -499q1 -78 -304 -498zM846 -10h-245l50 72q241 346 241 426q-1 81 -241 427l-50 72h245q304 -419 304 -499q1 -78 -304 -498z" />
    <glyph glyph-name="onequarter" unicode="&#xbc;" horiz-adv-x="1804" 
d="M538 586h-238v446l3 112l5 95q-27 -36 -75 -78l-78 -61l-109 127l301 235h191v-876zM1370 1462l-811 -1462h-239l811 1462h239zM1682 152h-125v-151h-238v151h-383v154l385 577h236v-563h125v-168zM1319 320v164q0 86 6 184q-9 -26 -35.5 -80t-41.5 -77l-127 -191h198z
" />
    <glyph glyph-name="onehalf" unicode="&#xbd;" horiz-adv-x="1804" 
d="M538 586h-238v446l3 112l5 95q-27 -36 -75 -78l-78 -61l-109 127l301 235h191v-876zM1370 1462l-811 -1462h-239l811 1462h239zM1716 1h-647v168l224 219q102 100 130.5 144.5t28.5 94.5q0 38 -24 58t-64 20q-81 0 -180 -88l-123 152q147 129 336 129q137 0 216 -66.5
t79 -183.5q0 -85 -47 -160t-176 -192l-105 -95h352v-200z" />
    <glyph glyph-name="threequarters" unicode="&#xbe;" horiz-adv-x="1804" 
d="M697 1249q0 -143 -170 -198v-13q94 -20 146 -75t52 -134q0 -121 -88 -190.5t-274 -69.5q-143 0 -273 70v190q148 -90 271 -90q143 0 143 107q0 53 -44 79.5t-122 26.5h-112v160h92q83 0 123.5 26t40.5 83q0 38 -25 63t-76 25q-47 0 -89 -19t-99 -59l-101 141
q62 47 137.5 78t178.5 31q127 0 208 -64t81 -168zM1441 1462l-811 -1462h-239l811 1462h239zM1712 152h-125v-151h-238v151h-383v154l385 577h236v-563h125v-168zM1349 320v164q0 86 6 184q-9 -26 -35.5 -80t-41.5 -77l-127 -191h198z" />
    <glyph glyph-name="questiondown" unicode="&#xbf;" horiz-adv-x="977" 
d="M713 606v-74q0 -98 -44.5 -169t-152.5 -148q-109 -78 -137.5 -122t-28.5 -107q0 -57 43.5 -94t132.5 -37q79 0 169 29t186 71l102 -221q-98 -56 -221.5 -90.5t-229.5 -34.5q-220 0 -345.5 96.5t-125.5 265.5q0 108 48.5 187t191.5 184q95 70 121.5 107t26.5 98v59h264z
M745 948q0 -84 -45 -127t-131 -43q-83 0 -128.5 44t-45.5 126q0 81 46.5 125.5t127.5 44.5q84 0 130 -44t46 -126z" />
    <glyph glyph-name="uni02BC" unicode="&#x2bc;" horiz-adv-x="444" 
d="M406 1462l14 -22q-50 -197 -176 -479h-219q69 296 100 501h281z" />
    <glyph glyph-name="circumflex" unicode="&#x2c6;" horiz-adv-x="1243" 
d="M852 1241q-157 93 -234 176q-78 -81 -229 -176h-203v27q189 189 256 301h357q31 -52 107.5 -141.5t148.5 -159.5v-27h-203z" />
    <glyph glyph-name="caron" unicode="&#x2c7;" horiz-adv-x="1243" 
d="M1055 1569v-27q-84 -84 -154.5 -167.5t-101.5 -133.5h-357q-29 47 -83 112.5t-173 188.5v27h203q147 -93 229 -176q84 87 234 176h203z" />
    <glyph glyph-name="macron" unicode="&#x2c9;" horiz-adv-x="1243" 
d="M283 1452h678v-211h-678v211z" />
    <glyph glyph-name="breve" unicode="&#x2d8;" horiz-adv-x="1243" 
d="M1014 1579q-12 -154 -122 -246t-276 -92q-174 0 -277.5 91t-111.5 247h170q4 -47 27.5 -74t66 -39t127.5 -12q206 0 222 125h174z" />
    <glyph glyph-name="dotaccent" unicode="&#x2d9;" horiz-adv-x="625" 
d="M147 1407q0 149 166 149t166 -149q0 -71 -41.5 -110.5t-124.5 -39.5q-166 0 -166 150z" />
    <glyph glyph-name="ring" unicode="&#x2da;" horiz-adv-x="1182" 
d="M842 1479q0 -108 -71 -174t-183 -66t-180 64t-68 174q0 108 67.5 172.5t180.5 64.5q110 0 182 -66t72 -169zM684 1477q0 45 -27 70.5t-69 25.5t-69 -25.5t-27 -70.5t24 -71t72 -26q42 0 69 26t27 71z" />
    <glyph glyph-name="ogonek" unicode="&#x2db;" horiz-adv-x="422" 
d="M221 -227q0 -42 22.5 -62t57.5 -20q55 0 115 18v-178q-82 -23 -156 -23q-113 0 -181.5 63.5t-68.5 166.5q0 67 38 126t142 136h179q-70 -66 -109 -120.5t-39 -106.5z" />
    <glyph glyph-name="tilde" unicode="&#x2dc;" horiz-adv-x="1243" 
d="M457 1346q-31 0 -59.5 -26.5t-41.5 -80.5h-149q11 145 82.5 227t189.5 82q41 0 80.5 -16.5t78 -36t75.5 -35.5t73 -16q31 0 59.5 26t41.5 80h149q-11 -145 -83.5 -227t-188.5 -82q-41 0 -80.5 16.5t-78 36t-75.5 36t-73 16.5z" />
    <glyph glyph-name="hungarumlaut" unicode="&#x2dd;" horiz-adv-x="1204" 
d="M156 1241v27q62 85 117.5 172.5t76.5 128.5h301v-21q-32 -53 -146 -153t-188 -154h-161zM553 1241v27q139 192 195 301h301v-21q-25 -43 -125.5 -134.5t-208.5 -172.5h-162z" />
    <glyph glyph-name="uni02F3" unicode="&#x2f3;" horiz-adv-x="682" 
d="M590 -360q0 -108 -71 -174t-183 -66t-180 64t-68 174q0 108 67.5 172.5t180.5 64.5q110 0 182 -66t72 -169zM432 -362q0 45 -27 70.5t-69 25.5t-69 -25.5t-27 -70.5t24 -71t72 -26q42 0 69 26t27 71z" />
    <glyph glyph-name="hook" unicode="&#x309;" 
d="M-352 1487q0 -156 -162 -197l-10 -71h-174l-23 147q75 12 102 37.5t27 62.5q0 32 -21 49t-55 17q-65 0 -139 -23v168q30 10 82.5 16.5t93.5 6.5q140 0 209.5 -55.5t69.5 -157.5z" />
    <glyph glyph-name="uni030F" unicode="&#x30f;" 
d="M-442 1241q-62 49 -171 150.5t-143 156.5v21h301q33 -72 83 -158.5t91 -142.5v-27h-161zM-840 1241q-73 57 -177.5 157t-135.5 150v21h301q33 -72 83 -158.5t91 -142.5v-27h-162z" />
    <glyph glyph-name="dotbelow" unicode="&#x323;" 
d="M-807 -281q0 150 166 150t166 -150q0 -71 -42 -110t-124 -39q-166 0 -166 149z" />
    <glyph glyph-name="tonos" unicode="&#x384;" horiz-adv-x="1182" 
d="M471 1272q18 54 44.5 164t37.5 194h283v-24q-78 -186 -187 -365h-178v31z" />
    <glyph glyph-name="afii57388" unicode="&#x60c;" horiz-adv-x="748" 
d="M362 348q101 -15 136 -72q30 -48 30 -96q0 -174 -168 -176q-200 -2 -179 240q23 277 319 458q48 30 68 5q18 -26 -12 -49q-139 -104 -182 -232q-13 -37 -12 -78z" />
    <glyph glyph-name="uni0615" unicode="&#x615;" 
d="M696 2136h81q191 0 257 74q27 30 27 69q0 77 -72 77q-3 0 -6 -1q-53 -1 -129 -63t-143 -139zM1161 2191q-68 -175 -434 -175h-313l-63 120h144v671h121v-599l19 26q195 260 364 258q184 -3 184 -192q0 -52 -22 -109z" />
    <glyph glyph-name="uni061B" unicode="&#x61b;" horiz-adv-x="748" 
d="M182 176q0 74 51 125t124.5 51t125 -51t51.5 -125t-51.5 -125t-125 -51t-124.5 51t-51 125zM361 901q101 -16 137 -72q29 -48 30 -96q-1 -174 -169 -176q-200 -2 -179 240q23 272 320 458q48 30 67 4q18 -25 -12 -48q-138 -105 -182 -232q-13 -37 -12 -78z" />
    <glyph glyph-name="uni061F" unicode="&#x61f;" horiz-adv-x="914" 
d="M362 176q0 74 51 125t124.5 51t125 -51t51.5 -125t-51.5 -125t-125 -51t-124.5 51t-51 125zM731 982q-26 208 -236 208q-123 1 -169 -71q-27 -40 -27 -92q1 -66 134 -176l48 -39q143 -118 143 -247v-9q0 -22 -41 -22h-78q-50 0 -50 21v11q0 35 -168 164l-84 64
q-152 117 -153 272q0 149 89 251q117 135 314 135q217 0 331 -160q68 -96 68 -229q0 -47 -3 -81h-118z" />
    <glyph glyph-name="uni0621" unicode="&#x621;" horiz-adv-x="891" 
d="M688 530q-100 50 -188 44q-104 -6 -163 -86q-12 -16 -11 -32q2 -36 69 -82q66 -44 89 -55q42 2 141 27l102 26q5 1 10 3q44 12 50 6q14 -15 10 -34q-3 -20 -4 -25l-17 -116l-686 -189l76 206l87 24l-12 13q-118 121 -56 310q46 142 184 192q54 19 110 20q150 2 253 -99
q-9 -50 -44 -153z" />
    <glyph glyph-name="uni0627" unicode="&#x627;" horiz-adv-x="464" 
d="M159 -5q0 412 -16 749q-13 272 -58 552l188 130q49 35 56 31q8 -4 9 -49q15 -467 15 -625q0 -644 -44 -733q-34 -67 -134 -65h-16v10z" />
    <glyph glyph-name="uni0628" unicode="&#x628;" horiz-adv-x="1788" 
d="M931 -167l164 -164l-164 -164l-164 164zM867 291q526 0 609 78q28 27 20 65q-12 62 -82 225l138 179q13 16 27 16q15 1 31 -27q82 -144 82 -348q0 -117 -51 -205q-157 -274 -791 -274q-361 0 -543 100q-210 116 -211 349q0 188 86 356l111 -35q-31 -111 -32 -196
q0 -72 37 -128q103 -155 569 -155z" />
    <glyph glyph-name="uni0629" unicode="&#x629;" horiz-adv-x="877" 
d="M252 1360l156 -156l-156 -156l-157 156zM575 1360l156 -156l-156 -156l-156 156zM367 590q-113 -151 -113 -226q0 -28 15 -45q33 -38 168 -38q195 0 195 105q0 66 -94 123q-52 31 -138 68q-12 5 -33 13zM795 380q0 -158 -88 -259q-101 -115 -261 -115q-180 0 -272 100
q-82 89 -82 251q0 216 218 489q23 29 52 29q11 0 23 -4q256 -93 364 -307q46 -90 46 -184z" />
    <glyph glyph-name="uni062A" unicode="&#x62a;" horiz-adv-x="1788" 
d="M716 1208l156 -156l-156 -156l-157 156zM1039 1208l156 -156l-156 -156l-156 156zM867 291q526 0 609 78q28 27 20 65q-12 62 -82 225l138 179q13 16 27 16q15 1 31 -27q82 -144 82 -348q0 -117 -51 -205q-157 -274 -791 -274q-361 0 -543 100q-210 116 -211 349
q0 188 86 356l111 -35q-31 -111 -32 -196q0 -72 37 -128q103 -155 569 -155z" />
    <glyph glyph-name="uni062B" unicode="&#x62b;" horiz-adv-x="1788" 
d="M866 962l-148 -149l-148 149l148 148zM902 962l148 148l148 -148l-148 -149zM884 1351l148 -148l-148 -148l-149 148zM867 291q526 0 609 78q28 27 20 65q-12 62 -82 225l138 179q13 16 27 16q15 1 31 -27q82 -144 82 -348q0 -117 -51 -205q-157 -274 -791 -274
q-361 0 -543 100q-210 116 -211 349q0 188 86 356l111 -35q-31 -111 -32 -196q0 -72 37 -128q103 -155 569 -155z" />
    <glyph glyph-name="uni062C" unicode="&#x62c;" horiz-adv-x="1296" 
d="M778 124l164 -164l-164 -164l-164 164zM730 -699q-315 0 -473 148q-140 132 -140 396q0 500 582 705q-4 0 -99 22q-149 34 -219 34q-98 0 -198 -119l-106 55l7 19q106 304 305 304q96 0 587 -147q93 -28 237 -31q18 0 13 -16l-96 -255q-372 -50 -573 -169
q-284 -168 -284 -380q0 -305 452 -305q185 0 306 15q86 11 123 16q58 7 31 -43l-77 -139q-50 -90 -156 -101q-84 -9 -222 -9z" />
    <glyph glyph-name="uni062D" unicode="&#x62d;" horiz-adv-x="1296" 
d="M730 -699q-315 0 -473 148q-140 132 -140 396q0 500 582 705q-4 0 -99 22q-149 34 -219 34q-98 0 -198 -119l-106 55l7 19q106 304 305 304q96 0 587 -147q93 -28 237 -31q18 0 13 -16l-96 -255q-372 -50 -573 -169q-284 -168 -284 -380q0 -305 452 -305q185 0 306 15
q86 11 123 16q58 7 31 -43l-77 -139q-50 -90 -156 -101q-84 -9 -222 -9z" />
    <glyph glyph-name="uni062E" unicode="&#x62e;" horiz-adv-x="1296" 
d="M603 1330l164 -164l-164 -164l-164 164zM730 -699q-315 0 -473 148q-140 132 -140 396q0 500 582 705q-4 0 -99 22q-149 34 -219 34q-98 0 -198 -119l-106 55l7 19q106 304 305 304q96 0 587 -147q93 -28 237 -31q18 0 13 -16l-96 -255q-372 -50 -573 -169
q-284 -168 -284 -380q0 -305 452 -305q185 0 306 15q86 11 123 16q58 7 31 -43l-77 -139q-50 -90 -156 -101q-84 -9 -222 -9z" />
    <glyph glyph-name="uni062F" unicode="&#x62f;" horiz-adv-x="1020" 
d="M425 0q-336 0 -338 299q0 46 23 141l124 -13l1 -28q4 -103 207 -102q319 0 318 84q0 8 -3 17q-61 148 -420 392l95 235q9 21 25 23q12 1 37 -19q426 -320 426 -639q0 -390 -495 -390z" />
    <glyph glyph-name="uni0630" unicode="&#x630;" horiz-adv-x="1020" 
d="M435 1527l164 -164l-164 -164l-164 164zM425 0q-336 0 -338 299q0 46 23 141l124 -13l1 -28q4 -103 207 -102q319 0 318 84q0 8 -3 17q-61 148 -420 392l95 235q9 21 25 23q12 1 37 -19q426 -320 426 -639q0 -390 -495 -390z" />
    <glyph glyph-name="uni0631" unicode="&#x631;" horiz-adv-x="752" 
d="M627 -185q-107 -220 -303 -321q-62 -32 -106 -36q-46 -4 -133 50q-110 68 -115 100q-1 10 77 40q411 157 467 372q8 31 6 53q-14 114 -171 311l171 235q3 4 7 4q5 0 10 -6q87 -99 128 -228q37 -116 37 -257q0 -165 -75 -317z" />
    <glyph glyph-name="uni0632" unicode="&#x632;" horiz-adv-x="752" 
d="M417 1152l164 -164l-164 -164l-164 164zM627 -185q-107 -220 -303 -321q-62 -32 -106 -36q-46 -4 -133 50q-110 68 -115 100q-1 10 77 40q411 157 467 372q8 31 6 53q-14 114 -171 311l171 235q3 4 7 4q5 0 10 -6q87 -99 128 -228q37 -116 37 -257q0 -165 -75 -317z" />
    <glyph glyph-name="uni0633" unicode="&#x633;" horiz-adv-x="2349" 
d="M1950 -1q-178 1 -258 153q-98 -153 -233 -152q-82 0 -157 47q-11 -316 -211 -464q-160 -118 -412 -118q-301 0 -444 154q-135 146 -135 358q0 220 100 441l118 -39q-52 -171 -52 -294q0 -135 62 -212q104 -128 348 -128q308 0 424 181q44 69 21 143q-36 121 -122 271
l139 209q19 29 40 -11l21 -39q49 -95 105 -146q63 -56 134 -58q171 -3 180 140l11 158h133l10 -152q10 -146 164 -147q116 0 138 83q7 24 -3 65q-8 34 -78 173l136 175q22 29 29 30q6 1 25 -30q90 -150 90 -335q0 -196 -109 -338q-91 -118 -214 -118z" />
    <glyph glyph-name="uni0634" unicode="&#x634;" horiz-adv-x="2349" 
d="M1631 1012l-148 -149l-148 149l148 148zM1667 1012l148 148l148 -148l-148 -149zM1649 1401l148 -148l-148 -148l-149 148zM1950 -1q-178 1 -258 153q-98 -153 -233 -152q-82 0 -157 47q-11 -316 -211 -464q-160 -118 -412 -118q-301 0 -444 154q-135 146 -135 358
q0 220 100 441l118 -39q-52 -171 -52 -294q0 -135 62 -212q104 -128 348 -128q308 0 424 181q44 69 21 143q-36 121 -122 271l139 209q19 29 40 -11l21 -39q49 -95 105 -146q63 -56 134 -58q171 -3 180 140l11 158h133l10 -152q10 -146 164 -147q116 0 138 83q7 24 -3 65
q-8 34 -78 173l136 175q22 29 29 30q6 1 25 -30q90 -150 90 -335q0 -196 -109 -338q-91 -118 -214 -118z" />
    <glyph glyph-name="uni0635" unicode="&#x635;" horiz-adv-x="2603" 
d="M1582 2q-177 0 -280 42q-11 -313 -211 -461q-160 -118 -414 -118q-299 0 -442 154q-135 146 -135 358q0 220 100 441l118 -39q-52 -171 -52 -294q0 -135 62 -212q104 -128 350 -128q310 0 422 171q45 69 21 153q-35 121 -123 271l140 210q19 28 38 -10l27 -52
q94 -185 225 -191h17q69 96 198 237q281 308 531 308q215 -1 304 -167q37 -69 37 -178q0 -123 -70 -235q-164 -260 -629 -260h-234zM1607 296h300q334 0 382 45q30 27 30 67q0 12 -2 24q-25 138 -213 138q-222 0 -497 -274z" />
    <glyph glyph-name="uni0636" unicode="&#x636;" horiz-adv-x="2603" 
d="M2068 1372l164 -164l-164 -164l-164 164zM1582 2q-177 0 -280 42q-11 -313 -211 -461q-160 -118 -414 -118q-299 0 -442 154q-135 146 -135 358q0 220 100 441l118 -39q-52 -171 -52 -294q0 -135 62 -212q104 -128 350 -128q310 0 422 171q45 69 21 153q-35 121 -123 271
l140 210q19 28 38 -10l27 -52q94 -185 225 -191h17q69 96 198 237q281 308 531 308q215 -1 304 -167q37 -69 37 -178q0 -123 -70 -235q-164 -260 -629 -260h-234zM1607 296h300q334 0 382 45q30 27 30 67q0 12 -2 24q-25 138 -213 138q-222 0 -497 -274z" />
    <glyph glyph-name="uni0637" unicode="&#x637;" horiz-adv-x="1570" 
d="M583 296h300q334 0 383 45q29 27 29 67q0 12 -2 24q-24 138 -212 138q-223 0 -498 -274zM635 531q287 311 515 311q217 -1 304 -167q37 -69 37 -177q0 -123 -70 -236q-165 -262 -628 -262h-235l-296 -1q-167 171 -192 209q-55 86 38 86h342q-2 280 -26 692
q-13 223 -32 312l185 128q45 32 50 28q8 -5 8 -67v-856z" />
    <glyph glyph-name="uni0638" unicode="&#x638;" horiz-adv-x="1570" 
d="M1106 1370l164 -164l-164 -164l-164 164zM583 296h300q334 0 383 45q29 27 29 67q0 12 -2 24q-24 138 -212 138q-223 0 -498 -274zM635 531q287 311 515 311q217 -1 304 -167q37 -69 37 -177q0 -123 -70 -236q-165 -262 -628 -262h-235l-296 -1q-167 171 -192 209
q-55 86 38 86h342q-2 280 -26 692q-13 223 -32 312l185 128q45 32 50 28q8 -5 8 -67v-856z" />
    <glyph glyph-name="uni0639" unicode="&#x639;" horiz-adv-x="1262" 
d="M730 -699q-322 0 -483 151q-138 130 -140 393q-2 329 312 524l-29 32q-102 119 -102 229q1 67 31 143q69 173 242 239q59 23 129 23q188 0 309 -134l-48 -158q-102 49 -226 52q-123 2 -205 -76q-59 -55 -59 -85q-1 -47 92 -113q89 -62 120 -54q195 44 395 51q30 1 36 -11
t0 -35l-63 -231q-388 -5 -581 -102q-198 -99 -197 -272q1 -305 462 -305q165 0 286 15q86 11 123 16q58 7 31 -43l-77 -139q-49 -90 -156 -101q-84 -9 -202 -9zM390 401v0v0z" />
    <glyph glyph-name="uni063A" unicode="&#x63a;" horiz-adv-x="1262" 
d="M675 1505l164 -164l-164 -164l-164 164zM730 -699q-322 0 -483 151q-138 130 -140 393q-2 329 312 524l-29 32q-102 119 -102 229q1 67 31 143q69 173 242 239q59 23 129 23q188 0 309 -134l-48 -158q-102 49 -226 52q-123 2 -205 -76q-59 -55 -59 -85q-1 -47 92 -113
q89 -62 120 -54q195 44 395 51q30 1 36 -11t0 -35l-63 -231q-388 -5 -581 -102q-198 -99 -197 -272q1 -305 462 -305q165 0 286 15q86 11 123 16q58 7 31 -43l-77 -139q-49 -90 -156 -101q-84 -9 -202 -9zM390 401v0v0z" />
    <glyph glyph-name="afii57440" unicode="&#x640;" horiz-adv-x="245" 
d="M-5 0q-55 0 -55 124v73q0 97 55 97h255q25 0 25 -97v-73q0 -124 -25 -124h-255z" />
    <glyph glyph-name="uni0641" unicode="&#x641;" horiz-adv-x="1728" 
d="M1286 1574l164 -164l-164 -164l-164 164zM1008 756q25 165 112 267q74 87 186 87q174 0 265 -215q59 -138 60 -367q2 -308 -154 -420q-152 -108 -575 -108h-82q-331 0 -513 100q-210 116 -211 349q0 188 86 356l111 -35q-31 -111 -32 -196q0 -72 37 -128
q103 -155 539 -155q413 0 510 28q114 32 122 102l2 17q-104 -18 -198 -18q-274 2 -272 249q0 40 7 87zM1463 682q-44 186 -188 185q-77 0 -107 -80q-23 -59 1 -90q26 -35 127 -35q109 0 167 20z" />
    <glyph glyph-name="uni0642" unicode="&#x642;" horiz-adv-x="1390" 
d="M787 1243l156 -156l-156 -156l-157 156zM1110 1243l156 -156l-156 -156l-156 156zM687 -153q352 1 436 171q11 22 14 61q-117 -19 -191 -19q-268 1 -268 264q0 37 10 102q26 168 112 268q74 87 186 87q162 0 254 -215q53 -126 53 -364q1 -201 -56 -337
q-126 -299 -550 -299q-311 0 -454 155q-135 145 -135 358q0 219 100 441l118 -40q-52 -171 -52 -294q0 -135 62 -211q106 -129 361 -128zM1137 353q-44 186 -181 185q-76 0 -108 -80q-11 -28 -11 -50q0 -23 12 -40q26 -35 127 -35q103 0 161 20z" />
    <glyph glyph-name="uni0643" unicode="&#x643;" horiz-adv-x="1878" 
d="M843 292q524 0 657 86q42 27 49 101q8 106 -9 472q-12 242 -28 347l188 128q39 27 43 24q7 -6 7 -62v-669q0 -482 -148 -582q-200 -137 -759 -137q-354 0 -536 100q-210 116 -211 349q0 197 90 373l98 -42q-33 -119 -33 -206q0 -72 37 -128q103 -154 555 -154zM1149 702
q-105 -167 -419 -94q-26 6 -65 18l16 161q118 -42 250 -41q131 2 141 63q6 38 -128 67q-182 39 -177 216q6 186 327 231q39 6 50 -11t3 -36l-39 -111q-121 -12 -181.5 -32.5t-61.5 -57.5q-1 -23 34 -37q35 -13 108 -26q167 -29 171 -192q2 -68 -29 -118z" />
    <glyph glyph-name="uni0644" unicode="&#x644;" horiz-adv-x="1325" 
d="M654 -228q250 0 333 140q36 62 29 183q-10 201 -93 1201l176 125q54 39 62 33t9 -77l25 -1181q8 -369 -109 -518q-147 -187 -435 -187q-283 0 -426 155q-135 146 -135 358q0 219 100 441l118 -39q-52 -172 -52 -295q0 -134 62 -211q105 -128 336 -128z" />
    <glyph glyph-name="uni0645" unicode="&#x645;" horiz-adv-x="1110" 
d="M266 70l15 -507l1 -8q0 -163 -106 -264q-25 -24 -41 -24q-24 0 -25 51l-14 359q-4 105 -4 177q0 155 28 266q43 170 174 218q64 244 148 351q90 113 209 113q161 0 299 -206q41 -60 76 -156q22 -58 12 -124q-8 -54 -42 -121q-66 -128 -131 -159q-16 -7 -44 -2
q-286 49 -469 50q-48 0 -86 -14zM861 308q-15 62 -49 118q-79 136 -184 135q-63 0 -121 -78q-47 -65 -69 -136q167 -11 246 -25q107 -19 124 -21q31 -5 32 -5q23 1 21 12z" />
    <glyph glyph-name="uni0646" unicode="&#x646;" horiz-adv-x="1395" 
d="M671 985l164 -164l-164 -164l-164 164zM999 477l140 209q20 30 47 -13q122 -195 122 -442q0 -349 -217 -512q-159 -118 -410 -118q-303 0 -446 155q-135 146 -135 358q0 219 99 441l119 -39q-52 -171 -52 -294q0 -135 62 -212q104 -128 355 -128q301 0 417 180
q44 70 21 144q-36 121 -122 271z" />
    <glyph glyph-name="uni0647" unicode="&#x647;" horiz-adv-x="877" 
d="M367 590q-113 -151 -113 -226q0 -28 15 -45q33 -38 168 -38q195 0 195 105q0 66 -94 123q-52 31 -138 68q-12 5 -33 13zM795 380q0 -158 -88 -259q-101 -115 -261 -115q-180 0 -272 100q-82 89 -82 251q0 216 218 489q23 29 52 29q11 0 23 -4q256 -93 364 -307
q46 -90 46 -184z" />
    <glyph glyph-name="uni0648" unicode="&#x648;" horiz-adv-x="806" 
d="M346 -506q-62 -32 -106 -36q-46 -4 -133 50q-110 68 -115 100q-1 10 77 40q316 121 422 278q31 47 40 77l-70 -4q-163 -8 -249 38q-125 68 -126 227q0 71 27 167q46 160 134 242q65 61 156 61q176 -1 257 -190q64 -149 64 -341q0 -294 -123 -480q-99 -149 -255 -229z
M555 287q-50 201 -185 201q-88 0 -115 -85q-7 -23 -7 -42q0 -50 66 -69q78 -23 220 -7z" />
    <glyph glyph-name="uni0649" unicode="&#x649;" horiz-adv-x="1474" 
d="M677 -221q356 0 494 181q22 29 -6 34l-188 33q-89 13 -152 28q-83 20 -83 135q0 62 28 159q53 180 164 296q135 140 300 140q82 0 169 -29q-14 -143 -41 -250l-54 6q-36 3 -62 3q-188 -3 -317 -202l-11 -17l259 -49q171 -32 173 -177q0 -39 -10 -86q-46 -225 -208 -351
q-174 -135 -455 -135q-301 0 -444 155q-135 145 -135 358q0 219 100 441l118 -39q-52 -172 -52 -295q0 -135 63 -211q105 -129 350 -128z" />
    <glyph glyph-name="uni064A" unicode="&#x64a;" horiz-adv-x="1474" 
d="M550 -634l156 -156l-156 -156l-157 156zM873 -634l156 -156l-156 -156l-156 156zM677 -221q356 0 494 181q22 29 -6 34l-188 33q-89 13 -152 28q-83 20 -83 135q0 62 28 159q53 180 164 296q135 140 300 140q82 0 169 -29q-14 -143 -41 -250l-54 6q-36 3 -62 3
q-188 -3 -317 -202l-11 -17l259 -49q171 -32 173 -177q0 -39 -10 -86q-46 -225 -208 -351q-174 -135 -455 -135q-301 0 -444 155q-135 145 -135 358q0 219 100 441l118 -39q-52 -172 -52 -295q0 -135 63 -211q105 -129 350 -128z" />
    <glyph glyph-name="uni064B" unicode="&#x64b;" 
d="M355 1118v122l449 184v-122zM355 1365v122l449 184v-122z" />
    <glyph glyph-name="uni064C" unicode="&#x64c;" 
d="M682 1806q-21 0 -37 -4t-26 -14q-20 -17 -20 -56q0 -28 19 -49l6.5 -6.5t8 -6.5t9 -5.5t10 -5.5t11.5 -5t12 -5q16 -6 45 -15l9 -3l12 29q2 4 3.5 8.5l3 9t2.5 8.5q3 13 3 25q0 40 -14 61q-14 23 -42 31l-8 2q-2 0 -3.5 0.5t-3.5 0.5zM341 1577q2 -32 4.5 -57t5.5 -43
t6 -29q16 -51 41 -74q26 -24 63 -23q13 1 26 3t26 6.5t26 11.5q38 18 77 56q23 22 41 46t31 50l8 17l-18 3q-131 28 -175 135q-4 10 -6 22q0 7 -0.5 14.5t-0.5 16.5v9.5t0.5 9l1 9l1 9t1.5 8.5t2.5 8t2.5 8q9 28 24.5 49.5t36.5 35.5q7 5 14.5 9t16 7t17.5 6q26 7 58 7
q16 0 30.5 -1.5t27.5 -5t25 -9t23 -12.5q22 -14 37.5 -34.5t26.5 -48.5q13 -34 13 -78q0 -22 -3.5 -43.5t-10.5 -42.5l-5 -18l18 -1h7t9 -1q9 0 20 -0.5t24 -0.5h10v-102h-11q-6 0 -11.5 0.5t-10.5 0.5h-9q-13 1 -21 2l-72 6l-3 -6q-31 -66 -76 -120q-11 -13 -23 -25.5
t-25 -24.5t-27 -23t-29 -21q-22 -16 -44 -26t-45 -15t-47 -5q-51 0 -88.5 20t-62.5 61q-53 84 -56 243v11h77z" />
    <glyph glyph-name="uni064D" unicode="&#x64d;" 
d="M299 -478v122l449 184v-122zM299 -231v122l449 184v-122z" />
    <glyph glyph-name="uni064E" unicode="&#x64e;" 
d="M281 1294v122l449 184v-122z" />
    <glyph glyph-name="uni064F" unicode="&#x64f;" 
d="M801 1417l-130 8q-136 -180 -375 -193v97q158 7 252 109l14 15q-23 8 -41 15q-118 48 -118 142q-1 97 67 152q37 30 100 30q66 0 118 -51q48 -48 49 -130q-1 -34 -20 -95l84 -3v-96zM619 1532q21 56 21 82q0 76 -70 78q-42 1 -61 -34q-9 -16 -9 -38q1 -25 16 -42
q19 -18 47 -28q25 -8 29 -9q8 -3 27 -9z" />
    <glyph glyph-name="uni0650" unicode="&#x650;" 
d="M324 -338v122l449 184v-122z" />
    <glyph glyph-name="uni0651" unicode="&#x651;" 
d="M343 1631l1 -89q2 -67 77 -64q81 2 82 83v131q36 12 94 18l2 -98q1 -73 85 -73q74 0 71 86l-2 81q78 51 93 61l5 -58q27 -329 -151 -328q-77 0 -130 54q-48 -116 -163 -115q-170 1 -153 262l5 83q64 -25 84 -34z" />
    <glyph glyph-name="uni0652" unicode="&#x652;" 
d="M799 1686q5 5 8.5 9.5t7.5 9.5q6 9 10.5 19.5t6.5 22t2 24.5q0 17 -4 32t-11.5 28t-19.5 25q-17 17 -38.5 25.5t-46.5 8.5q-13 0 -24.5 -2t-22 -6.5t-20.5 -10.5t-18 -15q-17 -17 -25.5 -38.5t-8.5 -46.5q0 -17 3.5 -32t11 -28.5t19.5 -24.5q17 -17 38.5 -25.5t46.5 -8.5
q8 0 16 1t15.5 3t15.5 4q21 9 38 26zM932 1772q0 -23 -3.5 -44.5t-11.5 -40.5q-4 -10 -9 -19t-11 -18q-12 -18 -28 -34q-5 -5 -10.5 -9.5l-11 -9t-11.5 -8.5t-12 -7.5t-12.5 -6.5t-12.5 -6q-20 -8 -41 -12t-43 -4q-16 0 -30 1.5t-28 5.5t-27 9t-25 12q-24 14 -45 35
q-63 64 -63 155.5t63 154.5t155 63q22 0 43 -4t40.5 -11.5t37.5 -19.5t33 -28q5 -4 9 -9t8 -9q8 -10 14 -20q2 -4 4 -7q1 -2 2 -3.5t2 -3.5q2 -4 4 -7q2 -6 4.5 -11.5t4.5 -10.5q1 -3 1.5 -6t1.5 -6q2 -6 3 -12v0l4 -24v0q0 -3 0.5 -5.5t0.5 -4.5v-2.5v-2.5v-2.5v-2.5v-5z
" />
    <glyph glyph-name="uni0653" unicode="&#x653;" 
d="M362 1668q-86 -1 -184 -89q-33 21 -51 45q60 155 97 190q47 46 103 46t167 -14q159 -21 274 8q63 16 70 1q5 -10 -13 -38q-51 -78 -108 -124.5t-355 -24.5z" />
    <glyph glyph-name="uni0654" unicode="&#x654;" 
d="M448 1627l25 168q7 3 63 29l22 10l-22 10q-107 45 -70 192q46 180 221 179q79 0 147 -63l16 -15l-43 -96q-174 55 -237 -30q-11 -15 -1 -32q47 -82 214 -40q51 13 60 7t8 -44l-1 -100q-130 -44 -402 -175z" />
    <glyph glyph-name="uni0655" unicode="&#x655;" 
d="M448 -428l25 168q7 3 63 29l22 10l-22 10q-107 45 -70 192q46 180 221 179q79 0 147 -63l16 -15l-43 -96q-174 55 -237 -30q-11 -15 -1 -32q47 -82 214 -40q51 13 60 7t8 -44l-1 -100q-130 -44 -402 -175z" />
    <glyph glyph-name="uni0657" unicode="&#x657;" 
d="M331 2368l175 -11q72 98 177.5 162t162.5 89.5t83 34.5q51 17 102 22v-126q-129 -8 -297 -139q-34 -26 -64 -58l-22 -23l31 -7q13 -2 63 -29q97 -51 120 -146q4 -18 4 -36q0 -232 -225 -230q-155 1 -207 139q-33 87 4 205l7 22l-23 2q-44 2 -91 3v126zM627 1998
q110 0 110 91q0 76 -163 127l-15 -35q-15 -35 -15 -72q0 -76 60 -105q13 -6 23 -6z" />
    <glyph glyph-name="uni065A" unicode="&#x65a;" horiz-adv-x="1473" 
d="M645 1876l-266 445h163l202 -303l202 303h163l-266 -445h-198z" />
    <glyph glyph-name="afii57392" unicode="&#x660;" horiz-adv-x="897" 
d="M452 845l248 -248l-254 -253l-248 248z" />
    <glyph glyph-name="afii57393" unicode="&#x661;" horiz-adv-x="731" 
d="M529 73q-1 -43 -24 -48q-68 -14 -136 -27q0 718 -244 1232l150 194q25 32 42 -9q239 -573 212 -1342z" />
    <glyph glyph-name="afii57394" unicode="&#x662;" horiz-adv-x="1095" 
d="M487 824q56 -372 42 -751q-1 -43 -24 -48q-86 -19 -136 -27q0 718 -244 1232l150 194q25 31 42 -9q14 -33 64 -169q60 -162 230 -159q195 4 230 297l5 38l153 -20l-2 -28q-21 -562 -377 -569q-64 -1 -133 19z" />
    <glyph glyph-name="afii57395" unicode="&#x663;" horiz-adv-x="1296" 
d="M493 805q49 -344 36 -732q-1 -43 -24 -48q-68 -14 -136 -27q0 718 -244 1232l150 194q26 33 42 -9q13 -34 64 -169q62 -162 169 -161q105 1 121 152l15 143l144 -6l5 -146q5 -154 119 -153q97 0 100 262l1 68l152 -7v-57q0 -537 -272 -538q-122 -1 -198 144
q-56 -155 -244 -142z" />
    <glyph glyph-name="afii57396" unicode="&#x664;" horiz-adv-x="991" 
d="M439 889q130 -79 302 -154q5 -84 10 -169q-348 -150 -348 -205q0 -24 49 -40q94 -30 293 -30q61 0 131 2l-5 -234q-1 -72 -55 -66h-3q-462 19 -601 126q-66 51 -66 125q0 184 310 373q-330 152 -328 298q0 67 60 136q142 164 527 335q48 22 54 0q3 -12 1 -24
q-29 -161 -59 -322q-126 -8 -265 -50q-39 -12 -50 -30q-5 -8 -5 -16q0 -26 48 -55z" />
    <glyph glyph-name="afii57397" unicode="&#x665;" horiz-adv-x="1156" 
d="M554 967q-271 -332 -271 -488q0 -87 57 -135q75 -62 255 -61q149 1 218 55q78 59 78 154q0 164 -337 475zM151 191q-64 107 -64 232q0 262 321 637l21 25l-82 62l143 261q583 -509 583 -945q0 -255 -190 -386q-125 -86 -285 -86q-328 1 -447 200z" />
    <glyph glyph-name="afii57398" unicode="&#x666;" horiz-adv-x="1228" 
d="M1130 184l-163 -199q-123 120 -176 408q-51 286 -58 697v12l-13 -2q-168 -31 -294 -28q-206 3 -256 53q-28 28 -49 279q-3 41 10 42q6 0 30 -9q303 -117 762 -49q6 -957 207 -1204z" />
    <glyph glyph-name="afii57399" unicode="&#x667;" horiz-adv-x="1203" 
d="M980 1422l159 -218q-267 -445 -439 -1207h-164q-138 677 -470 1194l138 231q19 31 39 -4q224 -397 368 -1027q181 717 329 1022q19 39 40 9z" />
    <glyph glyph-name="afii57400" unicode="&#x668;" horiz-adv-x="1204" 
d="M980 -13q-21 -29 -40 10q-148 305 -329 1022q-144 -630 -368 -1027q-20 -35 -39 -5l-138 232q332 517 470 1193h164q172 -761 439 -1206z" />
    <glyph glyph-name="afii57401" unicode="&#x669;" horiz-adv-x="1069" 
d="M625 630q-99 -14 -180 -14q-144 0 -233 59q-116 79 -106 269q6 140 60 270q90 214 278 217q135 2 230 -106q106 -121 113 -414q14 -553 182 -717l-154 -214q-187 192 -190 650zM337 885q42 -14 105 -14q72 0 172 19l-6 64q-19 234 -174 234q-109 0 -145 -149
q-30 -127 48 -154z" />
    <glyph glyph-name="afii57381" unicode="&#x66a;" horiz-adv-x="1154" 
d="M121 1130.5q0 74.5 52 127t127 52.5t127 -52.5t52 -127t-52 -127t-127 -52.5t-127 52.5t-52 127zM667 302q0 75 52.5 127t126.5 52q75 0 127 -52q53 -52 53 -127t-53 -127q-52 -52 -126.5 -52t-126.5 52q-53 52 -53 127zM816 1428l190 -102l-689 -1337l-188 103z" />
    <glyph glyph-name="uni066B" unicode="&#x66b;" horiz-adv-x="908" 
d="M636 661l136 -85l-584 -973l-138 92z" />
    <glyph glyph-name="uni066C" unicode="&#x66c;" horiz-adv-x="559" 
d="M271 -3l-19 2q-72 4 -109 53q-39 53 -26 130q11 64 64 104q52 38 120 29q16 -3 30.5 -8t27.5 -13t25 -19t22 -24q39 -52 34 -151q-13 -262 -286 -437q-38 -25 -58 -10q-3 2 -5.5 5t-3.5 5q-3 6 -3 10q0 6 3 12l2 4t2 3.5t2 3.5q5 6 10 10q75 60 126 147q45 75 42 135v9z
" />
    <glyph glyph-name="afii63167" unicode="&#x66d;" horiz-adv-x="1734" 
d="M189 1176h518l162 493l162 -493h518l-419 -306l160 -492l-421 305l-422 -305l161 492z" />
    <glyph glyph-name="uni066E" unicode="&#x66e;" horiz-adv-x="1788" 
d="M867 291q526 0 609 78q28 27 20 65q-12 62 -82 225l138 179q13 16 27 16q15 1 31 -27q82 -144 82 -348q0 -117 -51 -205q-157 -274 -791 -274q-361 0 -543 100q-210 116 -211 349q0 188 86 356l111 -35q-31 -111 -32 -196q0 -72 37 -128q103 -155 569 -155z" />
    <glyph glyph-name="uni066F" unicode="&#x66f;" horiz-adv-x="1390" 
d="M687 -153q352 1 436 171q11 22 14 61q-117 -19 -191 -19q-268 1 -268 264q0 37 10 102q26 168 112 268q74 87 186 87q162 0 254 -215q53 -126 53 -364q1 -201 -56 -337q-126 -299 -550 -299q-311 0 -454 155q-135 145 -135 358q0 219 100 441l118 -40q-52 -171 -52 -294
q0 -135 62 -211q106 -129 361 -128zM1137 353q-44 186 -181 185q-76 0 -108 -80q-11 -28 -11 -50q0 -23 12 -40q26 -35 127 -35q103 0 161 20z" />
    <glyph glyph-name="uni0670" unicode="&#x670;" 
d="M730 1804l-56 358l140 84v-414z" />
    <glyph glyph-name="uni0674" unicode="&#x674;" horiz-adv-x="802" 
d="M193 1765l25 168q7 3 63 29l22 10l-22 10q-107 45 -70 192q46 180 221 179q79 0 147 -63l16 -15l-43 -96q-174 55 -237 -30q-11 -15 -1 -32q47 -82 214 -40q51 13 60 7t8 -44l-1 -100q-130 -44 -402 -175z" />
    <glyph glyph-name="afii57506" unicode="&#x67e;" horiz-adv-x="1864" 
d="M885 -694l-148 148l148 148l148 -148zM903 -304l148 148l148 -148l-148 -149zM867 -304l-148 -149l-148 149l148 148zM868 291q526 0 609 78q28 27 20 65q-12 62 -82 225l138 179q13 16 27 16q15 1 31 -27q82 -144 82 -348q0 -117 -51 -205q-157 -274 -791 -274
q-361 0 -543 100q-210 116 -211 349q0 188 86 356l111 -35q-31 -111 -32 -196q0 -72 37 -128q103 -155 569 -155z" />
    <glyph glyph-name="afii57507" unicode="&#x686;" horiz-adv-x="1296" 
d="M765.285 -335.338l-140.594 140.593l140.594 140.593l140.592 -140.593zM782.384 35.1436l140.593 140.593l140.593 -140.593l-140.593 -141.543zM748.186 35.1436l-140.593 -141.543l-140.593 141.543l140.593 140.593zM730 -699q-315 0 -473 148q-140 132 -140 396
q0 500 582 705q-4 0 -99 22q-149 34 -219 34q-98 0 -198 -119l-106 55l7 19q106 304 305 304q96 0 587 -147q93 -28 237 -31q18 0 13 -16l-96 -255q-372 -50 -573 -169q-284 -168 -284 -380q0 -305 452 -305q185 0 306 15q86 11 123 16q58 7 31 -43l-77 -139
q-50 -90 -156 -101q-84 -9 -222 -9z" />
    <glyph glyph-name="afii57508" unicode="&#x698;" horiz-adv-x="752" 
d="M381 931l-148 -149l-148 149l148 148zM417 931l148 148l148 -148l-148 -149zM399 1320l148 -148l-148 -148l-149 148zM627 -185q-107 -220 -303 -321q-62 -32 -106 -36q-46 -4 -133 50q-110 68 -115 100q-1 10 77 40q411 157 467 372q8 31 6 53q-14 114 -171 311l171 235
q3 4 7 4q5 0 10 -6q87 -99 128 -228q37 -116 37 -257q0 -165 -75 -317z" />
    <glyph glyph-name="uni06A1" unicode="&#x6a1;" horiz-adv-x="1728" 
d="M1008 756q25 165 112 267q74 87 186 87q174 0 265 -215q59 -138 60 -367q2 -308 -154 -420q-152 -108 -575 -108h-82q-331 0 -513 100q-210 116 -211 349q0 188 86 356l111 -35q-31 -111 -32 -196q0 -72 37 -128q103 -155 539 -155q413 0 510 28q114 32 122 102l2 17
q-104 -18 -198 -18q-274 2 -272 249q0 40 7 87zM1463 682q-44 186 -188 185q-77 0 -107 -80q-23 -59 1 -90q26 -35 127 -35q109 0 167 20z" />
    <glyph glyph-name="uni06A9" unicode="&#x6a9;" horiz-adv-x="1892" 
d="M1605 453q0 -148 -94 -244q-202 -209 -691 -209q-331 0 -513 100q-210 116 -211 349q0 188 86 356l111 -35q-31 -111 -32 -196q0 -72 37 -128q103 -155 539 -155q397 0 573 92q32 17 29 33q-15 99 -510 493l56 275l800 295q40 15 30 -49l-31 -201l-595 -209
q415 -341 416 -567z" />
    <glyph glyph-name="afii57509" unicode="&#x6af;" horiz-adv-x="1892" 
d="M1189 961q369 -288 369 -494q0 -163 -100 -266q-195 -201 -638 -201q-331 0 -513 100q-210 116 -211 349q0 188 86 356l111 -35q-31 -111 -32 -196q0 -72 37 -128q103 -155 529 -155q395 0 555 100q24 15 24 34q0 9 -5 19q-43 84 -472 406l56 275l800 295q41 15 31 -49
l-32 -201zM1828.07 1667.48l-20.415 -115.684l-798.445 -294.88l26.0859 146.306l766.689 289.21q34.0244 12.4756 26.085 -24.9521z" />
    <glyph glyph-name="afii57514" unicode="&#x6ba;" horiz-adv-x="1395" 
d="M999 477l140 209q20 30 47 -13q122 -195 122 -442q0 -349 -217 -512q-159 -118 -410 -118q-303 0 -446 155q-135 146 -135 358q0 219 99 441l119 -39q-52 -171 -52 -294q0 -135 62 -212q104 -128 355 -128q301 0 417 180q44 70 21 144q-36 121 -122 271z" />
    <glyph glyph-name="uni06BE" unicode="&#x6be;" horiz-adv-x="1226" 
d="M-5 0q-55 0 -55 144v33q0 117 55 117h265q-162 68 -120 275q34 169 195 290l16 12l-144 61l68 215l398 -193q322 -155 408 -291q110 -175 9 -404q-78 -176 -147 -180q-17 -1 -35 -1q-155 0 -400 77q-183 -155 -460 -155h-53zM669 388q193 -70 249 -75q44 65 44 122
q0 116 -185 198l-14 6q-2 -151 -94 -251zM516 439q70 51 97 138q18 59 -2 106q-17 40 -69 59q-25 9 -50 9q-81 0 -153 -105q-25 -36 -25 -68q0 -91 202 -139z" />
    <glyph glyph-name="uni06C1" unicode="&#x6c1;" horiz-adv-x="972" 
d="M913 0q-243 0 -298 160q-17 49 -26 189q-3 49 -37 24q-27 -20 -61 -63q-63 -81 -127 -207q-106 -202 -114 -226l-164 81q205 527 343 631q88 67 176 67q190 0 209 -299q2 -34 31 -54q24 -17 81 -18l52 -1q25 0 25 -87v-73q0 -124 -25 -124h-65z" />
    <glyph glyph-name="uni06CA" unicode="&#x6ca;" horiz-adv-x="806" 
d="M240 1208l156 -156l-156 -156l-157 156zM563 1208l156 -156l-156 -156l-156 156zM346 -506q-62 -32 -106 -36q-46 -4 -133 50q-110 68 -115 100q-1 10 77 40q316 121 422 278q31 47 40 77l-70 -4q-163 -8 -249 38q-125 68 -126 227q0 71 27 167q46 160 134 242
q65 61 156 61q176 -1 257 -190q64 -149 64 -341q0 -294 -123 -480q-99 -149 -255 -229zM555 287q-50 201 -185 201q-88 0 -115 -85q-7 -23 -7 -42q0 -50 66 -69q78 -23 220 -7z" />
    <glyph glyph-name="uni06CC" unicode="&#x6cc;" horiz-adv-x="1474" 
d="M677 -221q356 0 494 181q22 29 -6 34l-188 33q-89 13 -152 28q-83 20 -83 135q0 62 28 159q53 180 164 296q135 140 300 140q82 0 169 -29q-14 -143 -41 -250l-54 6q-36 3 -62 3q-188 -3 -317 -202l-11 -17l259 -49q171 -32 173 -177q0 -39 -10 -86q-46 -225 -208 -351
q-174 -135 -455 -135q-301 0 -444 155q-135 145 -135 358q0 219 100 441l118 -39q-52 -172 -52 -295q0 -135 63 -211q105 -129 350 -128z" />
    <glyph glyph-name="afii57534" unicode="&#x6d5;" horiz-adv-x="877" 
d="M367 590q-113 -151 -113 -226q0 -28 15 -45q33 -38 168 -38q195 0 195 105q0 66 -94 123q-52 31 -138 68q-12 5 -33 13zM795 380q0 -158 -88 -259q-101 -115 -261 -115q-180 0 -272 100q-82 89 -82 251q0 216 218 489q23 29 52 29q11 0 23 -4q256 -93 364 -307
q46 -90 46 -184z" />
    <glyph glyph-name="uni06F0" unicode="&#x6f0;" horiz-adv-x="897" 
d="M452 845l248 -248l-254 -253l-248 248z" />
    <glyph glyph-name="uni06F1" unicode="&#x6f1;" horiz-adv-x="731" 
d="M529 73q-1 -43 -24 -48q-68 -14 -136 -27q0 718 -244 1232l150 194q25 32 42 -9q239 -573 212 -1342z" />
    <glyph glyph-name="uni06F2" unicode="&#x6f2;" horiz-adv-x="1095" 
d="M487 824q56 -372 42 -751q-1 -43 -24 -48q-86 -19 -136 -27q0 718 -244 1232l150 194q25 31 42 -9q14 -33 64 -169q60 -162 230 -159q195 4 230 297l5 38l153 -20l-2 -28q-21 -562 -377 -569q-64 -1 -133 19z" />
    <glyph glyph-name="uni06F3" unicode="&#x6f3;" horiz-adv-x="1296" 
d="M493 805q49 -344 36 -732q-1 -43 -24 -48q-68 -14 -136 -27q0 718 -244 1232l150 194q26 33 42 -9q13 -34 64 -169q62 -162 169 -161q105 1 121 152l15 143l144 -6l5 -146q5 -154 119 -153q97 0 100 262l1 68l152 -7v-57q0 -537 -272 -538q-122 -1 -198 144
q-56 -155 -244 -142z" />
    <glyph glyph-name="uni06F4" unicode="&#x6f4;" horiz-adv-x="1190" 
d="M381 1246q54 -142 135 -202q-7 18 -7 48q1 38 14 101q17 82 81 151q82 88 215 88q162 0 265 -126l-49 -113q-89 35 -160 35q-98 0 -161 -67q-48 -51 -49 -126q0 -37 49 -62q52 -27 144 -27q134 0 233 45l19 -186q-143 -95 -312 -95q-179 0 -306 82q51 -333 37 -719
q-1 -43 -24 -48q-86 -19 -136 -27q0 718 -244 1232l150 194q27 34 42 -9z" />
    <glyph glyph-name="uni06F5" unicode="&#x6f5;" horiz-adv-x="1232" 
d="M661 561q67 -281 234 -279q93 1 92 111q-1 196 -402 614q-303 -441 -326 -568q-30 -161 109.5 -159.5t207.5 282.5zM346 9q-255 0 -259 313q-4 291 363 848l-42 49l115 184q14 21 37 -2q587 -607 587 -1021q-1 -371 -248 -370q-179 1 -275 184q-85 -185 -278 -185z" />
    <glyph glyph-name="uni06F6" unicode="&#x6f6;" horiz-adv-x="1041" 
d="M428 641q-298 113 -296 356q0 70 35 153q118 278 367 278q158 0 279 -107l-57 -167q-108 29 -187 29q-158 0 -230 -91q-46 -58 -46 -94q0 -27 15 -49q62 -90 340 -91h4q93 55 267 138q8 4 15 4q20 0 18 -34v-12l-15 -219q-313 -134 -694 -764l-99 103q-13 13 -13 30
q0 16 12 40q119 238 294 494z" />
    <glyph glyph-name="uni06F7" unicode="&#x6f7;" horiz-adv-x="1203" 
d="M980 1422l159 -218q-267 -445 -439 -1207h-164q-138 677 -470 1194l138 231q19 31 39 -4q224 -397 368 -1027q181 717 329 1022q19 39 40 9z" />
    <glyph glyph-name="uni06F8" unicode="&#x6f8;" horiz-adv-x="1204" 
d="M980 -13q-21 -29 -40 10q-148 305 -329 1022q-144 -630 -368 -1027q-20 -35 -39 -5l-138 232q332 517 470 1193h164q172 -761 439 -1206z" />
    <glyph glyph-name="uni06F9" unicode="&#x6f9;" horiz-adv-x="1069" 
d="M625 630q-99 -14 -180 -14q-144 0 -233 59q-116 79 -106 269q6 140 60 270q90 214 278 217q135 2 230 -106q106 -121 113 -414q14 -553 182 -717l-154 -214q-187 192 -190 650zM337 885q42 -14 105 -14q72 0 172 19l-6 64q-19 234 -174 234q-109 0 -145 -149
q-30 -127 48 -154z" />
    <glyph glyph-name="uni2000" unicode="&#x2000;" horiz-adv-x="1024" 
 />
    <glyph glyph-name="uni2001" unicode="&#x2001;" horiz-adv-x="2048" 
 />
    <glyph glyph-name="uni2002" unicode="&#x2002;" horiz-adv-x="1024" 
 />
    <glyph glyph-name="uni2003" unicode="&#x2003;" horiz-adv-x="2048" 
 />
    <glyph glyph-name="uni2004" unicode="&#x2004;" horiz-adv-x="682" 
 />
    <glyph glyph-name="uni2005" unicode="&#x2005;" horiz-adv-x="512" 
 />
    <glyph glyph-name="uni2006" unicode="&#x2006;" horiz-adv-x="342" 
 />
    <glyph glyph-name="uni2007" unicode="&#x2007;" horiz-adv-x="1145" 
 />
    <glyph glyph-name="uni2008" unicode="&#x2008;" horiz-adv-x="584" 
 />
    <glyph glyph-name="uni2009" unicode="&#x2009;" horiz-adv-x="410" 
 />
    <glyph glyph-name="uni200A" unicode="&#x200a;" horiz-adv-x="205" 
 />
    <glyph glyph-name="uni200B" unicode="&#x200b;" 
 />
    <glyph glyph-name="afii61664" unicode="&#x200c;" 
 />
    <glyph glyph-name="afii301" unicode="&#x200d;" 
 />
    <glyph glyph-name="endash" unicode="&#x2013;" horiz-adv-x="1024" 
d="M82 436v230h860v-230h-860z" />
    <glyph glyph-name="emdash" unicode="&#x2014;" horiz-adv-x="2048" 
d="M82 436v230h1884v-230h-1884z" />
    <glyph glyph-name="afii00208" unicode="&#x2015;" horiz-adv-x="2048" 
d="M82 436v230h1884v-230h-1884z" />
    <glyph glyph-name="underscoredbl" unicode="&#x2017;" horiz-adv-x="842" 
d="M846 -463h-850v139h850v-139zM846 -184h-850v139h850v-139z" />
    <glyph glyph-name="quoteleft" unicode="&#x2018;" horiz-adv-x="444" 
d="M39 961l-14 22q22 91 72.5 228.5t103.5 250.5h219q-66 -267 -101 -501h-280z" />
    <glyph glyph-name="quoteright" unicode="&#x2019;" horiz-adv-x="444" 
d="M406 1462l14 -22q-50 -197 -176 -479h-219q69 296 100 501h281z" />
    <glyph glyph-name="quotesinglbase" unicode="&#x201a;" horiz-adv-x="596" 
d="M459 215q-52 -202 -176 -479h-220q65 266 101 502h280z" />
    <glyph glyph-name="quotereversed" unicode="&#x201b;" horiz-adv-x="442" 
d="M319 1462q37 -245 101 -501h-219q-59 127 -107.5 260.5t-68.5 218.5l14 22h280z" />
    <glyph glyph-name="quotedblleft" unicode="&#x201c;" horiz-adv-x="911" 
d="M492 983q22 91 72.5 228.5t103.5 250.5h219q-66 -267 -101 -501h-280zM25 983q22 91 72.5 228.5t103.5 250.5h219q-66 -267 -101 -501h-280z" />
    <glyph glyph-name="quotedblright" unicode="&#x201d;" horiz-adv-x="911" 
d="M420 1440q-50 -197 -176 -479h-219q69 296 100 501h281zM887 1440q-50 -197 -176 -479h-219q69 296 100 501h280z" />
    <glyph glyph-name="quotedblbase" unicode="&#x201e;" horiz-adv-x="1061" 
d="M459 215q-52 -202 -176 -479h-220q65 266 101 502h280zM926 215q-52 -202 -176 -479h-220q65 266 101 502h280z" />
    <glyph glyph-name="dagger" unicode="&#x2020;" horiz-adv-x="1057" 
d="M934 928l-332 30l55 -958h-278l55 958l-311 -30v241l311 -30l-55 417h278l-55 -417l332 30v-241z" />
    <glyph glyph-name="daggerdbl" unicode="&#x2021;" horiz-adv-x="1077" 
d="M623 557l331 31v-242l-331 31l55 -377h-279l56 377l-332 -31v242l332 -31l-47 229l47 213l-332 -30v241l332 -30l-56 376h279l-55 -376l331 30v-241l-331 30l47 -213z" />
    <glyph glyph-name="bullet" unicode="&#x2022;" horiz-adv-x="770" 
d="M98 748q0 154 74 235.5t213 81.5q137 0 212 -82t75 -235q0 -152 -75.5 -235t-211.5 -83q-138 0 -212.5 83t-74.5 235z" />
    <glyph glyph-name="ellipsis" unicode="&#x2026;" horiz-adv-x="1751" 
d="M117 143q0 84 45 127t131 43q83 0 128.5 -44t45.5 -126q0 -79 -46 -124.5t-128 -45.5q-84 0 -130 44.5t-46 125.5zM700 143q0 84 45 127t132 43q83 0 128.5 -44t45.5 -126q0 -79 -46 -124.5t-128 -45.5q-85 0 -131 44.5t-46 125.5zM1284 143q0 84 45 127t131 43
q83 0 128.5 -44t45.5 -126q0 -79 -46 -124.5t-128 -45.5q-84 0 -130 44.5t-46 125.5z" />
    <glyph glyph-name="uni202F" unicode="&#x202f;" horiz-adv-x="148" 
 />
    <glyph glyph-name="perthousand" unicode="&#x2030;" horiz-adv-x="2623" 
d="M315 1024q0 -127 22.5 -189.5t72.5 -62.5q96 0 96 252q0 250 -96 250q-50 0 -72.5 -61.5t-22.5 -188.5zM758 1026q0 -230 -89 -345.5t-261 -115.5q-165 0 -255 118.5t-90 342.5q0 457 345 457q169 0 259.5 -118.5t90.5 -338.5zM1446 1462l-811 -1462h-240l811 1462h240z
M1339 440q0 -127 22.5 -189.5t72.5 -62.5q96 0 96 252q0 250 -96 250q-50 0 -72.5 -61.5t-22.5 -188.5zM1782 442q0 -229 -89 -344.5t-261 -115.5q-165 0 -255 118.5t-90 341.5q0 457 345 457q169 0 259.5 -118.5t90.5 -338.5zM2118 440q0 -127 22 -189.5t72 -62.5
q96 0 96 252q0 250 -96 250q-50 0 -72 -61.5t-22 -188.5zM2560 442q0 -228 -88 -344t-262 -116q-164 0 -254 118.5t-90 341.5q0 457 344 457q169 0 259.5 -118.5t90.5 -338.5zM1845 0z" />
    <glyph glyph-name="minute" unicode="&#x2032;" horiz-adv-x="545" 
d="M412 1462l-41 -528h-197l-41 528h279z" />
    <glyph glyph-name="second" unicode="&#x2033;" horiz-adv-x="967" 
d="M412 1462l-41 -528h-197l-41 528h279zM834 1462l-41 -528h-197l-41 528h279z" />
    <glyph glyph-name="guilsinglleft" unicode="&#x2039;" horiz-adv-x="754" 
d="M82 573l371 455l219 -119l-279 -348l279 -348l-219 -119l-371 453v26z" />
    <glyph glyph-name="guilsinglright" unicode="&#x203a;" horiz-adv-x="754" 
d="M672 547l-371 -453l-219 119l278 348l-278 348l219 119l371 -455v-26z" />
    <glyph glyph-name="exclamdbl" unicode="&#x203c;" horiz-adv-x="1167" 
d="M416 485h-244l-51 977h346zM117 143q0 84 45 127t131 43q83 0 128.5 -44t45.5 -126q0 -79 -46 -124.5t-128 -45.5q-84 0 -130 44.5t-46 125.5zM1000 485h-244l-51 977h346zM701 143q0 84 45 127t131 43q83 0 128.5 -44t45.5 -126q0 -79 -46 -124.5t-128 -45.5
q-84 0 -130 44.5t-46 125.5z" />
    <glyph glyph-name="fraction" unicode="&#x2044;" horiz-adv-x="266" 
d="M657 1462l-811 -1462h-239l811 1462h239z" />
    <glyph glyph-name="zerosuperior" unicode="&#x2070;" horiz-adv-x="776" 
d="M293 1024q0 -127 22.5 -189.5t71.5 -62.5q50 0 73 62t23 190q0 127 -23 188.5t-73 61.5q-49 0 -71.5 -61.5t-22.5 -188.5zM735 1026q0 -461 -350 -461q-164 0 -254 118.5t-90 342.5q0 457 344 457q169 0 259.5 -118.5t90.5 -338.5z" />
    <glyph glyph-name="foursuperior" unicode="&#x2074;" horiz-adv-x="776" 
d="M758 737h-125v-151h-238v151h-383v154l385 577h236v-563h125v-168zM395 905v164q0 86 6 184q-9 -26 -35.5 -80t-41.5 -77l-127 -191h198z" />
    <glyph glyph-name="fivesuperior" unicode="&#x2075;" horiz-adv-x="776" 
d="M397 1151q143 0 230.5 -74.5t87.5 -202.5q0 -145 -95 -225t-278 -80q-158 0 -258 52v192q50 -32 116.5 -53t121.5 -21q172 0 172 131q0 63 -43.5 95t-124.5 32q-63 0 -119 -18l-109 43l37 440h520v-184h-356l-16 -135q56 8 114 8z" />
    <glyph glyph-name="sixsuperior" unicode="&#x2076;" horiz-adv-x="776" 
d="M729 877q0 -144 -87.5 -228t-242.5 -84q-158 0 -256 95.5t-98 252.5q0 418 547 582l67 -162q-175 -53 -266 -119t-117 -153h11q31 43 75.5 66.5t118.5 23.5q116 0 182 -70t66 -204zM385 743q59 0 90 35.5t31 98.5q0 54 -30 88t-87 34q-129 0 -129 -106q0 -66 34 -108
t91 -42z" />
    <glyph glyph-name="sevensuperior" unicode="&#x2077;" horiz-adv-x="776" 
d="M154 586l340 692h-435v184h668v-149l-321 -727h-252z" />
    <glyph glyph-name="eightsuperior" unicode="&#x2078;" horiz-adv-x="776" 
d="M389 1483q141 0 225 -60.5t84 -165.5q0 -63 -33.5 -113t-109.5 -93q75 -42 108 -72.5t50.5 -67t17.5 -80.5q0 -117 -95.5 -191.5t-246.5 -74.5q-161 0 -252.5 70t-91.5 190q0 65 35.5 118t122.5 99q-127 89 -127 215q0 104 87 165t226 61zM270 825q0 -45 29 -73.5
t86 -28.5q59 0 89 28.5t30 73.5q0 81 -133 125q-101 -44 -101 -125zM387 1325q-43 0 -65.5 -23.5t-22.5 -52.5q0 -41 26 -66t64 -46q38 19 63 44t25 68q0 29 -21 52.5t-69 23.5z" />
    <glyph glyph-name="ninesuperior" unicode="&#x2079;" horiz-adv-x="776" 
d="M725 1075q0 -254 -123 -380t-354 -126q-73 0 -127 15v188q49 -22 100 -22q140 0 209.5 56t77.5 187h-8q-71 -98 -197 -98q-122 0 -191 74t-69 205q0 137 91 222t239 85q164 0 258 -106.5t94 -299.5zM385 1303q-53 0 -86 -35.5t-33 -100.5q0 -55 28 -87.5t87 -32.5
q55 0 90 31.5t35 74.5q0 67 -34 108.5t-87 41.5z" />
    <glyph glyph-name="nsuperior" unicode="&#x207f;" horiz-adv-x="866" 
d="M580 764v401q0 76 -30 108t-87 32q-90 0 -126 -48t-36 -161v-332h-199v698h162l27 -84h14q73 101 215 101q258 0 258 -250v-465h-198z" />
    <glyph glyph-name="franc" unicode="&#x20a3;" horiz-adv-x="1169" 
d="M489 440h316v-178h-316v-262h-305v262h-149v178h149v1022h879v-254h-574v-336h537v-254h-537v-178z" />
    <glyph glyph-name="afii08941" unicode="&#x20a4;" horiz-adv-x="1169" 
d="M705 1483q190 0 385 -82l-93 -230q-78 29 -143.5 46.5t-134.5 17.5q-80 0 -118 -43t-38 -129v-113h359v-176h-359v-115h359v-178h-361q-5 -74 -40 -128t-109 -93h718v-260h-1048v248q100 42 137.5 95t42.5 138h-178v178h178v115h-178v176h178v115q0 206 114 312t329 106z
" />
    <glyph glyph-name="peseta" unicode="&#x20a7;" horiz-adv-x="1827" 
d="M473 774h66q139 0 209.5 52t70.5 169q0 109 -63 161t-199 52h-84v-434zM1112 1006q0 -236 -152.5 -361t-433.5 -125h-53v-520h-289v1462h373q272 0 413.5 -114.5t141.5 -341.5zM1608 203q78 0 161 35v-207q-97 -51 -235 -51q-163 0 -238 83t-75 256v318h-146v108l168 103
l88 235h154v-237h272v-209h-272v-307q0 -60 36 -93.5t87 -33.5z" />
    <glyph glyph-name="uni20AB" unicode="&#x20ab;" horiz-adv-x="1329" 
d="M504 -20q-192 0 -302 144t-110 402q0 282 99 416.5t323 134.5q108 0 192.5 -42t137.5 -122h10q-23 131 -23 232v51h-315v199h315v161h306v-161h155v-199h-155v-1196h-248l-64 145h-12q-104 -165 -309 -165zM633 223q110 0 162.5 61.5t56.5 211.5v28q0 176 -50.5 240.5
t-183.5 64.5q-111 0 -152.5 -69t-41.5 -238q0 -149 50 -224t159 -75zM1063 -324h-850v140h850v-140z" />
    <glyph glyph-name="Euro" unicode="&#x20ac;" horiz-adv-x="1169" 
d="M803 1225q-122 0 -201 -70.5t-102 -204.5h403v-176h-418l-2 -35v-47l2 -33h355v-178h-338q51 -243 321 -243q143 0 275 57v-256q-116 -59 -293 -59q-245 0 -403 133t-199 368h-137v178h118q-4 23 -4 62l2 53h-116v176h133q37 242 199 382.5t405 140.5q188 0 352 -82
l-98 -232q-69 31 -129 48.5t-125 17.5z" />
    <glyph glyph-name="afii61248" unicode="&#x2105;" horiz-adv-x="1628" 
d="M1311 1462l-811 -1462h-240l811 1462h240zM1565 344q0 -172 -90.5 -268t-247.5 -96q-149 0 -240.5 98t-91.5 266q0 170 89 266.5t249 96.5q150 0 241 -99.5t91 -263.5zM1098 344q0 -100 31 -150.5t102 -50.5q68 0 98.5 50.5t30.5 150.5t-30.5 149.5t-98.5 49.5
q-71 0 -102 -49.5t-31 -149.5zM420 756q-167 0 -262 92t-95 262q0 178 91 270.5t264 92.5q117 0 217 -50l-55 -155q-102 41 -166 41q-73 0 -109.5 -51t-36.5 -146q0 -190 140 -190q116 0 206 43v-164q-79 -45 -194 -45z" />
    <glyph glyph-name="afii61289" unicode="&#x2113;" horiz-adv-x="1065" 
d="M641 190q60 0 98.5 49.5t44.5 151.5h207q-11 -220 -103 -314.5t-278 -94.5q-183 0 -285 103.5t-102 299.5v127l-182 -49v196q98 26 182 54v411q0 184 94 270.5t291 86.5q163 0 258 -87t95 -237q0 -180 -101.5 -308.5t-343.5 -240.5v-233q0 -185 125 -185zM698 1151
q0 139 -90 139q-53 0 -72.5 -38t-19.5 -101v-328q88 39 135 123t47 205z" />
    <glyph glyph-name="afii61352" unicode="&#x2116;" horiz-adv-x="2105" 
d="M1231 0h-328l-510 1047h-14q24 -257 24 -418v-629h-268v1462h330l506 -1040h18q-24 233 -24 403v637h266v-1462zM1370 0v188h639v-188h-639zM2030 639q0 -171 -92 -268t-250 -97q-154 0 -246 99t-92 266q0 168 90 265t252 97q154 0 246 -99.5t92 -262.5zM1552 639
q0 -100 32.5 -150.5t105.5 -50.5q71 0 103 50.5t32 150.5t-32 149.5t-103 49.5q-73 0 -105.5 -49.5t-32.5 -149.5z" />
    <glyph glyph-name="uni2120" unicode="&#x2120;" horiz-adv-x="1505" 
d="M537 946q0 -100 -69.5 -156.5t-186.5 -56.5q-111 0 -199 43v144q115 -54 203 -54q45 0 68.5 19.5t23.5 54.5q0 27 -17.5 46t-54.5 37q-108 53 -144 83t-55.5 69t-19.5 91q0 93 64 150t178 57q95 0 207 -52l-52 -125q-56 27 -86 35t-69 8q-37 0 -59.5 -16.5t-22.5 -50.5
q0 -31 21 -53t95 -58q105 -51 140 -97.5t35 -117.5zM928 741l-166 529h-6l4 -111v-418h-164v721h248l160 -510l170 510h239v-721h-168v408l4 121h-6l-174 -529h-141z" />
    <glyph glyph-name="trademark" unicode="&#x2122;" horiz-adv-x="1534" 
d="M381 741h-168v572h-197v149h564v-149h-199v-572zM956 741l-165 529h-7l4 -111v-418h-163v721h247l160 -510l170 510h240v-721h-168v408l4 121h-6l-174 -529h-142z" />
    <glyph glyph-name="Omega" unicode="&#x2126;" horiz-adv-x="1610" 
d="M805 1227q-181 0 -279 -110t-98 -310q0 -203 66 -329.5t200 -198.5v-279h-639v260h371q-152 93 -234.5 253.5t-82.5 358.5q0 184 85.5 323.5t243.5 214.5t367 75q319 0 507.5 -167t188.5 -448q0 -198 -83 -356t-238 -254h374v-260h-643v279q139 72 205 201t66 329
q0 199 -98.5 308.5t-278.5 109.5z" />
    <glyph glyph-name="estimated" unicode="&#x212e;" horiz-adv-x="1268" 
d="M633 -35q-157 0 -277.5 73.5t-187 204t-66.5 287.5q0 171 69 298.5t191 197.5t271 70q152 0 273.5 -71t189 -200.5t67.5 -294.5h-827v-356q49 -53 132 -88t165 -35q131 0 222.5 52.5t172.5 181.5l72 -41q-98 -155 -206.5 -217t-260.5 -62zM932 616v277q-50 53 -131.5 86
t-169.5 33q-173 0 -295 -117v-279h596z" />
    <glyph glyph-name="oneeighth" unicode="&#x215b;" horiz-adv-x="1804" 
d="M1347 1462l-811 -1462h-239l811 1462h239zM1368 894q141 0 225 -60.5t84 -165.5q0 -63 -33.5 -113t-109.5 -93q75 -42 108 -72.5t50.5 -67t17.5 -80.5q0 -117 -95.5 -191.5t-246.5 -74.5q-161 0 -252.5 70t-91.5 190q0 65 35.5 118t122.5 99q-127 89 -127 215
q0 104 87 165t226 61zM1249 236q0 -45 29 -73.5t86 -28.5q59 0 89 28.5t30 73.5q0 81 -133 125q-101 -44 -101 -125zM1366 736q-43 0 -65.5 -23.5t-22.5 -52.5q0 -41 26 -66t64 -46q38 19 63 44t25 68q0 29 -21 52.5t-69 23.5zM550 586h-238v446l3 112l5 95q-27 -36 -75 -78
l-78 -61l-109 127l301 235h191v-876z" />
    <glyph glyph-name="threeeighths" unicode="&#x215c;" horiz-adv-x="1804" 
d="M1417 1462l-811 -1462h-239l811 1462h239zM1403 894q141 0 225 -60.5t84 -165.5q0 -63 -33.5 -113t-109.5 -93q75 -42 108 -72.5t50.5 -67t17.5 -80.5q0 -117 -95.5 -191.5t-246.5 -74.5q-161 0 -252.5 70t-91.5 190q0 65 35.5 118t122.5 99q-127 89 -127 215
q0 104 87 165t226 61zM1284 236q0 -45 29 -73.5t86 -28.5q59 0 89 28.5t30 73.5q0 81 -133 125q-101 -44 -101 -125zM1401 736q-43 0 -65.5 -23.5t-22.5 -52.5q0 -41 26 -66t64 -46q38 19 63 44t25 68q0 29 -21 52.5t-69 23.5zM666 1249q0 -143 -170 -198v-13
q94 -20 146 -75t52 -134q0 -121 -88 -190.5t-274 -69.5q-143 0 -273 70v190q148 -90 271 -90q143 0 143 107q0 53 -44 79.5t-122 26.5h-112v160h92q83 0 123.5 26t40.5 83q0 38 -25 63t-76 25q-47 0 -89 -19t-99 -59l-101 141q62 47 137.5 78t178.5 31q127 0 208 -64
t81 -168z" />
    <glyph glyph-name="fiveeighths" unicode="&#x215d;" horiz-adv-x="1804" 
d="M1417 1462l-811 -1462h-239l811 1462h239zM1403 894q141 0 225 -60.5t84 -165.5q0 -63 -33.5 -113t-109.5 -93q75 -42 108 -72.5t50.5 -67t17.5 -80.5q0 -117 -95.5 -191.5t-246.5 -74.5q-161 0 -252.5 70t-91.5 190q0 65 35.5 118t122.5 99q-127 89 -127 215
q0 104 87 165t226 61zM1284 236q0 -45 29 -73.5t86 -28.5q59 0 89 28.5t30 73.5q0 81 -133 125q-101 -44 -101 -125zM1401 736q-43 0 -65.5 -23.5t-22.5 -52.5q0 -41 26 -66t64 -46q38 19 63 44t25 68q0 29 -21 52.5t-69 23.5zM403 1151q143 0 230.5 -74.5t87.5 -202.5
q0 -145 -95 -225t-278 -80q-158 0 -258 52v192q50 -32 116.5 -53t121.5 -21q172 0 172 131q0 63 -43.5 95t-124.5 32q-63 0 -119 -18l-109 43l37 440h520v-184h-356l-16 -135q56 8 114 8z" />
    <glyph glyph-name="seveneighths" unicode="&#x215e;" horiz-adv-x="1804" 
d="M1327 1462l-811 -1462h-239l811 1462h239zM1347 894q141 0 225 -60.5t84 -165.5q0 -63 -33.5 -113t-109.5 -93q75 -42 108 -72.5t50.5 -67t17.5 -80.5q0 -117 -95.5 -191.5t-246.5 -74.5q-161 0 -252.5 70t-91.5 190q0 65 35.5 118t122.5 99q-127 89 -127 215
q0 104 87 165t226 61zM1228 236q0 -45 29 -73.5t86 -28.5q59 0 89 28.5t30 73.5q0 81 -133 125q-101 -44 -101 -125zM1345 736q-43 0 -65.5 -23.5t-22.5 -52.5q0 -41 26 -66t64 -46q38 19 63 44t25 68q0 29 -21 52.5t-69 23.5zM162 586l340 692h-435v184h668v-149l-321 -727
h-252z" />
    <glyph glyph-name="partialdiff" unicode="&#x2202;" horiz-adv-x="1190" 
d="M1122 920q0 -260 -86.5 -484t-232.5 -340t-334 -116q-199 0 -304.5 106t-105.5 313q0 174 74.5 329t199 232.5t283.5 77.5q105 0 189 -41q-23 236 -201 236q-54 0 -130.5 -27t-162.5 -84v271q170 90 336 90q234 0 354.5 -145t120.5 -418zM481 223q103 0 187 138t116 346
q-14 52 -53 78t-92 26q-70 0 -127.5 -54t-94 -162t-36.5 -220q0 -152 100 -152z" />
    <glyph glyph-name="Delta" unicode="&#x2206;" horiz-adv-x="1348" 
d="M57 178l443 1290h350l440 -1292v-176h-1233v178zM674 1214q-2 -15 -12.5 -58.5t-30.5 -112.5t-258 -785h602l-252 768l-11 39q-36 129 -38 149z" />
    <glyph glyph-name="product" unicode="&#x220f;" horiz-adv-x="1518" 
d="M1034 -457v1661h-551v-1661h-317v1919h1186v-1919h-318z" />
    <glyph glyph-name="summation" unicode="&#x2211;" horiz-adv-x="1292" 
d="M41 -457v170l575 834l-559 749v166h1166v-252h-756l494 -657l-519 -756h840v-254h-1241z" />
    <glyph glyph-name="minus" unicode="&#x2212;" horiz-adv-x="1169" 
d="M88 612v219h993v-219h-993z" />
    <glyph glyph-name="radical" unicode="&#x221a;" horiz-adv-x="1124" 
d="M664 -14h-183l-268 737h-176v213h325l205 -567l490 1388h219z" />
    <glyph glyph-name="infinity" unicode="&#x221e;" horiz-adv-x="1448" 
d="M1335 717q0 -142 -91 -240t-226 -98q-176 0 -299 176q-59 -77 -132.5 -123.5t-152.5 -46.5q-141 0 -231 92t-90 246q0 144 90.5 240t230.5 96q176 0 291 -174q125 170 293 170q140 0 228.5 -92.5t88.5 -245.5zM444 588q88 0 166 135q-38 68 -78 101.5t-90 33.5
q-56 0 -90.5 -38.5t-34.5 -98.5t34.5 -96.5t92.5 -36.5zM1004 852q-87 0 -168 -133q80 -137 170 -137q56 0 90 40t34 97q0 58 -35 95.5t-91 37.5z" />
    <glyph glyph-name="integral" unicode="&#x222b;" horiz-adv-x="844" 
d="M686 1300q-51 0 -81 -36t-30 -101v-1276q0 -187 -98 -283t-282 -96q-109 0 -195 41v254q91 -39 158 -39q110 0 110 142v1272q0 185 97 281.5t284 96.5q109 0 195 -40v-254q-89 38 -158 38z" />
    <glyph glyph-name="approxequal" unicode="&#x2248;" horiz-adv-x="1169" 
d="M322 869q-55 0 -117.5 -33.5t-116.5 -87.5v231q103 109 256 109q73 0 137.5 -16t139.5 -48q129 -55 227 -55q53 0 116 32t117 89v-231q-101 -109 -256 -109q-66 0 -126 13t-150 50q-131 56 -227 56zM322 470q-55 0 -117.5 -33.5t-116.5 -87.5v231q103 109 256 109
q73 0 137.5 -16t139.5 -48q129 -55 227 -55q53 0 116 32t117 89v-231q-101 -109 -256 -109q-66 0 -126 13t-150 50q-131 56 -227 56z" />
    <glyph glyph-name="notequal" unicode="&#x2260;" horiz-adv-x="1169" 
d="M561 418l-127 -275l-201 84l89 191h-234v219h336l80 170h-416v217h516l131 281l201 -86l-92 -195h237v-217h-338l-79 -170h417v-219h-520z" />
    <glyph glyph-name="lessequal" unicode="&#x2264;" horiz-adv-x="1169" 
d="M86 0v219h993v-219h-993zM1081 264l-993 438v144l993 495v-239l-684 -318l684 -280v-240z" />
    <glyph glyph-name="greaterequal" unicode="&#x2265;" horiz-adv-x="1169" 
d="M88 0v219h993v-219h-993zM88 504l684 280l-684 318v239l993 -495v-144l-993 -438v240z" />
    <glyph glyph-name="null" unicode="&#x2400;" 
 />
    <glyph glyph-name="lozenge" unicode="&#x25ca;" horiz-adv-x="1194" 
d="M1104 735l-451 -735h-114l-451 735l451 738h114zM840 735l-244 410l-244 -410l244 -409z" />
    <glyph glyph-name="uniFD3E" unicode="&#xfd3e;" horiz-adv-x="1480" 
d="M772 725q-69 0 -69 -64q0 -42 39 -58q11 -5 24 -5q64 0 64 74q0 23 -21.5 38t-36.5 15zM864 832q99 -57 99 -183q0 -69 -57.5 -126.5t-139 -57.5t-139 57.5t-57.5 139t57.5 139t125 57.5t111.5 -26zM721 197q54 -241 216 -413l42 -44l-24 56q-88 200 -122 399
q-5 34 19 58l42 41q19 20 47 20h180v711h-180q-28 0 -47 20l-45 44q-24 25 -19 58q40 245 138 461l25 54l-42 -42q-177 -179 -241 -486q-4 -21 -18 -35l-54 -54q-19 -20 -47 -20h-181v-180q0 -28 -20 -48l-127 -127l127 -128q20 -20 20 -47v-181h181q28 0 47 -20l65 -65
q14 -14 18 -32zM595 149l-32 32h-220q-23 -1 -45 19q-21 18 -21 47v220l-156 156q-47 46 0 94l156 155v220q-1 24 19 45q19 22 47 22h220l20 20q120 593 614 736q47 14 67 -33q10 -25 0 -78q-71 -64 -108 -127t-54 -99q-95 -195 -135 -419h221q35 -1 51 -24q16 -24 16 -43
v-845q-1 -23 -19 -45q-19 -21 -48 -21h-217q82 -422 287 -588q66 -53 -56 -117q-480 141 -607 673z" />
    <glyph glyph-name="uniFD3F" unicode="&#xfd3f;" horiz-adv-x="1480" 
d="M707 725q-14 0 -35.5 -15t-21.5 -38q0 -74 63 -74q13 0 24 5q39 16 39 58q0 64 -69 64zM615 832q44 26 111.5 26t125 -57.5t57.5 -139t-57.5 -139t-138.5 -57.5t-139 57.5t-58 126.5q0 126 99 183zM759 197q4 18 17 32l65 65q20 20 48 20h180v181q0 27 20 47l128 128
l-128 127q-19 20 -20 48v180h-180q-29 0 -48 20l-54 54q-14 14 -18 35q-63 307 -241 486l-41 42l24 -54q98 -216 138 -461q6 -33 -19 -58l-44 -44q-20 -20 -47 -20h-181v-711h181q27 0 47 -20l41 -41q25 -24 19 -58q-34 -199 -121 -399l-25 -56l42 44q162 172 217 413z
M884 149q-127 -532 -607 -673q-121 64 -56 117q206 166 287 588h-217q-29 0 -47 21q-19 22 -19 45v845q0 19 15 43q16 23 51 24h221q-40 224 -134 419q-18 36 -54 99q-37 63 -109 127q-9 53 1 78q20 47 66 33q494 -143 614 -736l20 -20h220q28 0 48 -22q19 -21 19 -45v-220
l155 -155q47 -48 0 -94l-155 -156v-220q0 -29 -22 -47q-22 -20 -45 -19h-220z" />
    <glyph glyph-name="uniFE73" unicode="&#xfe73;" horiz-adv-x="895" 
d="M461 564q0 -13 1 -25.5t4 -25.5q5 -24 16 -48q22 -47 64 -90q43 -43 109 -64.5t154 -21.5h101v-259h-194q-228 0 -371 143.5t-143 369.5v48h259v-27z" />
    <glyph glyph-name="uniFEFF" unicode="&#xfeff;" 
 />
    <glyph glyph-name="uniFFFC" unicode="&#xfffc;" horiz-adv-x="2048" 
d="M84 1214v304h303v-111h-192v-193h-111zM1681 1407v111h304v-304h-109v193h-195zM84 -383v303h111v-194h192v-109h-303zM1681 -383v109h195v194h109v-303h-304zM1290 -383v109h273v-109h-273zM508 -383v109h270v-109h-270zM508 1407v111h270v-111h-270zM1985 39h-109v270
h109v-270zM1985 823h-109v271h109v-271zM899 -383v109h272v-109h-272zM195 39h-111v270h111v-270zM899 1407v111h272v-111h-272zM1290 1407v111h273v-111h-273zM195 430h-111v272h111v-272zM195 823h-111v271h111v-271zM1985 430h-109v272h109v-272zM864 629
q0 -145 -67.5 -223t-194.5 -78t-194.5 78t-67.5 223q0 146 67.5 223.5t194.5 77.5q126 0 194 -77t68 -224zM467 629q0 -197 135 -197t135 197q0 196 -135 196t-135 -196zM948 922h172q109 0 165 -33.5t56 -116.5q0 -49 -23 -83t-67 -42v-4q59 -13 83 -47t24 -90
q0 -81 -54.5 -125.5t-148.5 -44.5h-207v586zM1071 690h66q46 0 64 17t18 49q0 34 -21 48.5t-68 14.5h-59v-129zM1071 592v-154h74q49 0 67.5 21.5t18.5 58.5q0 74 -90 74h-70zM1491 330q-52 0 -80 10v102q43 -8 68 -8q86 0 86 86v402h125v-398q0 -95 -52.5 -144.5
t-146.5 -49.5z" />
    <glyph glyph-name="uniFFFD" unicode="&#xfffd;" horiz-adv-x="2048" 
d="M1022 1556l940 -938l-940 -937l-938 937zM1087 367v47q0 50 22 82.5t87 81.5q103 82 139.5 145t36.5 151q0 135 -93.5 212t-258.5 77q-79 0 -172 -28t-164 -70l82 -178q160 80 250 80q63 0 94 -29t31 -76q0 -53 -24.5 -90.5t-96.5 -91.5q-84 -68 -113.5 -124t-29.5 -130
v-59h210zM850 92q0 -63 35.5 -99t105.5 -36q66 0 102.5 36.5t36.5 98.5q0 64 -36 100.5t-103 36.5q-72 0 -106.5 -36t-34.5 -101z" />
    <glyph glyph-name="arabic_dot" horiz-adv-x="233" 
d="M116 291l164 -164l-164 -164l-164 164z" />
    <glyph glyph-name="arabic_2dots" horiz-adv-x="602" 
d="M139 278l156 -156l-156 -156l-157 156zM462 278l156 -156l-156 -156l-156 156z" />
    <glyph glyph-name="arabic_3dots" horiz-adv-x="581" 
d="M273 98l-148 -149l-148 149l148 148zM309 98l148 148l148 -148l-148 -149zM291 487l148 -148l-148 -148l-149 148z" />
    <glyph glyph-name="arabic_3dots_a" horiz-adv-x="628" 
d="M314 -253l-148 148l148 148l148 -148zM332 137l148 148l148 -148l-148 -149zM296 137l-148 -149l-148 149l148 148z" />
    <glyph glyph-name="arabic_gaf_bar" horiz-adv-x="788" 
d="M731 2046l-18 -102l-704 -260l23 129l676 255q30 11 23 -22z" />
    <glyph glyph-name="NameMe.303" horiz-adv-x="612" 
d="M-5 0q-55 0 -55 144v33q0 117 55 117h32q202 0 243 64q20 31 14 199q-5 149 -56 652l183 138q48 37 54 34q5 -2 6 -52l13 -786q3 -203 -58 -328q-106 -215 -405 -215h-26z" />
    <glyph glyph-name="NameMe.304" horiz-adv-x="651" 
d="M656 0h-49q-209 0 -293 159q-95 -159 -294 -159h-25q-55 0 -55 144v33q0 117 55 117h31q113 0 162 44q60 54 54 271q-3 142 -23 462l167 122q41 29 47 27q8 -2 8 -54v-534q0 -236 33 -284q37 -54 144 -54h38q25 0 25 -97v-73q0 -124 -25 -124z" />
    <glyph glyph-name="NameMe.305" horiz-adv-x="464" 
d="M160.816 -5.5q0 370.785 -15.6797 674.072q-12.7393 244.791 -56.8379 496.78l184.236 116.995q48.0186 31.499 54.8789 27.8994q7.83984 -3.60059 8.81934 -44.0986q14.7002 -420.283 14.7002 -562.478q0 -579.576 -43.1191 -659.673
q-33.3203 -60.2979 -131.318 -58.4971h-15.6797v8.99902z" />
    <glyph glyph-name="NameMe.306" horiz-adv-x="541" 
d="M546 0h-42q-157 0 -237 64q-122 97 -120 465v84q2 326 -55 542l180 135q38 29 43 27q6 -2 8 -45q12 -233 15 -443l3 -189q3 -235 39 -291q36 -55 140 -55h26q25 0 25 -117v-53q0 -124 -25 -124z" />
    <glyph glyph-name="NameMe.65567" horiz-adv-x="678" 
d="M116 -17q58 -28 134 -27q147 1 207 71q10 11 -2 16q-41 16 -94 34q-128 43 -83 161q62 160 185 210q78 32 184 -1q-5 -57 -28 -151l-27 3q-117 9 -178 -75l107 -35q73 -25 72.5 -110t-49.5 -150q-95 -124 -295 -124q-106 0 -206 41l53 147z" />
    <glyph glyph-name="NameMe.65541" horiz-adv-x="576" 
d="M300 373q0 82 -83 276l136 176q23 30 30 30t25 -30q87 -151 88 -353q0 -201 -90 -316q-121 -156 -321 -156h-90q-55 0 -55 144v33q0 117 55 117h104q163 0 194 45q7 11 7 34z" />
    <glyph glyph-name="NameMe.65542" horiz-adv-x="688" 
d="M693 0h-21q-199 0 -299 159q-104 -159 -294 -159h-84q-55 0 -55 144v33q0 117 55 117h79q211 0 224 148l15 172h143l16 -169q14 -151 201 -151h20q25 0 25 -97v-73q0 -124 -25 -124z" />
    <glyph glyph-name="afii57509.ref1" horiz-adv-x="2048" 
d="M1189 961q369 -288 369 -494q0 -163 -100 -266q-195 -201 -638 -201q-331 0 -513 100q-210 116 -211 349q0 188 86 356l111 -35q-31 -111 -32 -196q0 -72 37 -128q103 -155 529 -155q395 0 555 100q24 15 24 34q0 9 -5 19q-43 84 -472 406l56 275l800 295q41 15 31 -49
l-32 -201z" />
    <glyph glyph-name="uni20AB.ref1" horiz-adv-x="2048" 
d="M504 -20q-192 0 -302 144t-110 402q0 282 99 416.5t323 134.5q108 0 192.5 -42t137.5 -122h10q-23 131 -23 232v51h-315v199h315v161h306v-161h155v-199h-155v-1196h-248l-64 145h-12q-104 -165 -309 -165zM633 223q110 0 162.5 61.5t56.5 211.5v28q0 176 -50.5 240.5
t-183.5 64.5q-111 0 -152.5 -69t-41.5 -238q0 -149 50 -224t159 -75z" />
    <glyph glyph-name="uniFB93.ref1" horiz-adv-x="2048" 
d="M1189 961q160 -146 436 -412q263 -255 403 -255h12q25 0 25 -97v-73q0 -124 -25 -124h-12q-252 0 -489 315q-41 -109 -191 -200q-189 -115 -528 -115q-331 0 -513 100q-210 116 -211 349q0 188 86 356l111 -35q-31 -111 -32 -196q0 -72 37 -128q103 -155 529 -155
q395 0 555 100q24 15 24 34q0 9 -5 19q-43 84 -472 406l56 275l800 295q41 15 31 -49l-32 -201z" />
    <glyph glyph-name="uniFB94.ref1" horiz-adv-x="2048" 
d="M511 444q-61 120 -482 436l56 275l800 295q41 15 31 -49l-32 -201l-595 -209q377 -295 377 -547q0 -177 -118 -299q-140 -145 -449 -145h-104q-55 0 -55 144v33q0 117 55 117h101q373 0 413 92q14 34 2 58z" />
    <glyph glyph-name="uniFB95.ref1" horiz-adv-x="2048" 
d="M29 850l56 275l800 295q41 15 31 -49l-32 -201l-595 -209q99 -90 436 -412q266 -255 403 -255h12q25 0 25 -97v-73q0 -124 -25 -124h-12q-262 0 -499 315q-5 -78 -91 -170q-136 -145 -439 -145h-104q-55 0 -55 144v33q0 117 55 117h101q364 0 403 92q14 34 2 58
q-43 84 -472 406z" />
    </font>
</defs>
</svg>
