<?xml version="1.0" standalone="no"?>
<!DOCTYPE svg PUBLIC "-//W3C//DTD SVG 1.1//EN" "http://www.w3.org/Graphics/SVG/1.1/DTD/svg11.dtd" >
<svg xmlns="http://www.w3.org/2000/svg" xmlns:xlink="http://www.w3.org/1999/xlink" version="1.1">
<metadata>
Created by FontForge 20170731 at Sat Jun 30 23:14:12 2018
 By Aleksey,,,
Copyright (c) 2003 by Bitstream, Inc. All Rights Reserved.
DejaVu changes are in public domain
Copyright (c) 2015 by Saber Rastikerdar. All Rights Reserved.
Non-Arabic(Latin) glyphs and data are imported from Roboto font under the Apache License, Version 2.0.
</metadata>
<defs>
<font id="Shabnam-Light" horiz-adv-x="0" >
  <font-face 
    font-family="Shabnam"
    font-weight="300"
    font-stretch="normal"
    units-per-em="2048"
    panose-1="2 11 6 3 3 8 4 2 2 4"
    ascent="1638"
    descent="-410"
    x-height="1052"
    cap-height="1441"
    bbox="-945 -851.755 3063 2195"
    underline-thickness="100"
    underline-position="-700"
    unicode-range="U+0002-FFFD"
  />
<missing-glyph horiz-adv-x="507" 
 />
    <glyph glyph-name="uni0622" unicode="&#x627;&#x653;" horiz-adv-x="527" 
d="M219 1124.76h136v-1108.15h-136v1108.15zM177 1466h367l1 -128h-358q-110 0 -165 -73l-4 -4l-78 90l2 3q37 56 95.5 84t139.5 28z" />
    <glyph glyph-name="uni0623" unicode="&#x627;&#x654;" horiz-adv-x="469" 
d="M189 1124.76h136v-1108.15h-136v1108.15zM22 1341l102 24l16 4l5 1l-4 2l-15 9q-72 45 -72 141q0 115 96 169q13 7 27 13q3 1 6.5 2.5t7 2.5l7 2t7.5 2t7.5 1.5t7.5 1.5t8 1.5t8 0.5q7 1 15.5 1.5t16.5 0.5q74 0 133 -35v-95q-12 6 -24.5 10t-26 6.5t-28 4t-29.5 1.5
q-61 -1 -93 -25t-33 -71q0 -26 10.5 -47t32 -36t52.5 -24l2 -1h1h1l162 27v-103l-406 -91v100z" />
    <glyph glyph-name="afii57412" unicode="&#x648;&#x654;" horiz-adv-x="877" 
d="M219 926l102 24l16 4l5 1l-4 2l-15 9q-72 45 -72 141q0 115 96 169q13 7 27 13q3 1 6.5 2.5t7 2.5l7 2t7.5 2t7.5 1.5t7.5 1.5t8 1.5t8 0.5q7 1 15.5 1.5t16.5 0.5q74 0 133 -35v-95q-12 6 -24.5 10t-26 6.5t-28 4t-29.5 1.5q-61 -1 -93 -25t-33 -71q0 -26 10.5 -47
t32 -36t52.5 -24l2 -1h1h1l162 27v-103l-406 -91v100zM628 15h-17h-160q-169 0 -251 80.5t-82 252.5q1 214 121 300q82 59 206 61q138 1 231 -83q92 -85 92 -271v-357q0 -444 -553 -443h-59v149h53q418 -1 419 294v17zM255 336q0 -80 50 -125t145 -45h162h17l-1 183
q0 220 -182 219q-191 0 -191 -232z" />
    <glyph glyph-name="uni0625" unicode="&#x627;&#x655;" horiz-adv-x="469" 
d="M28 -509l102 24l16 4l5 1l-4 2l-15 9q-72 45 -72 141q0 115 96 169q13 7 27 13q3 1 6.5 2.5t7 2.5l7 2t7.5 2t7.5 1.5t7.5 1.5t8 1.5t8 0.5q7 1 15.5 1.5t16.5 0.5q74 0 133 -35v-95q-12 6 -24.5 10t-26 6.5t-28 4t-29.5 1.5q-61 -1 -93 -25t-33 -71q0 -26 10.5 -47
t32 -36t52.5 -24l2 -1h1h1l162 27v-103l-406 -91v100zM175 1319h136v-1303h-136v1303z" />
    <glyph glyph-name="afii57414" unicode="&#x64a;&#x654;" horiz-adv-x="1446" 
d="M295 862l102 24l16 4l5 1l-4 2l-15 9q-72 45 -72 141q0 115 96 169q13 7 27 13q3 1 6.5 2.5t7 2.5l7 2t7.5 2t7.5 1.5t7.5 1.5t8 1.5t8 0.5q7 1 15.5 1.5t16.5 0.5q74 0 133 -35v-95q-12 6 -24.5 10t-26 6.5t-28 4t-29.5 1.5q-61 -1 -93 -25t-33 -71q0 -26 10.5 -47
t32 -36t52.5 -24l2 -1h1h1l162 27v-103l-406 -91v100zM1061 214q137 0 202 -50.5t65 -154.5v-29q0 -208 -136.5 -311t-416.5 -103h-84q-484 0 -559 380q-15 73 -15 158v396h145v-395q0 -192 109 -290t322 -98h91q98 0 172.5 15t125.5 45t77.5 76.5t26.5 108.5v12
q0 80 -91 93q-17 3 -35 3h-161q-81 0 -118.5 36.5t-37.5 113.5v65q0 78 11.5 142t34 114t55.5 87q50 56 126 84.5t179 28.5h179l1 -155h-222q-106 0 -161.5 -75t-57.5 -219l-2 -60v-2v-16h15h2h158z" />
    <glyph glyph-name="fi" unicode="fi" horiz-adv-x="1074" 
d="M352 30h-150v939h-171v113h171v109q0 89 26 158q14 34 32.5 62.5t40.5 51.5q46 46 111 70q66 24 149 24q66 0 130 -17q62 -16 128 -39l-25 -126q-14 5 -28.5 10t-30 9.5t-32.5 9.5q-60 16 -129 16q-28 0 -53 -3.5t-46 -10.5t-39 -18t-31 -26q-27 -29 -40 -72t-13 -99
v-109h205v-113h-205v-939zM913 1067v-1052h-156v1052h156z" />
    <glyph glyph-name="uniFDF2" unicode="&#x627;&#xfedf;&#xfee0;&#xfeea;" horiz-adv-x="2852" arabic-form="isolated" 
d="M1792 15h-44q-80 0 -148.5 33t-126.5 101l-2 1l-11 14l-12 -14l-1 -2q-103 -133 -268 -133h-95q-19 0 -28.5 16t-9.5 55v11q0 38 11 54q9 14 27 14h93q108 0 163 69.5t55 202.5v672h136v-673q0 -26 2 -49.5t6.5 -45t11.5 -40.5t16 -35.5t21 -30.5q28 -35 71 -52.5
t99 -17.5h34q10 -13 10 -68v-11q0 -58 -10 -71zM1794 15q-19 0 -28.5 16t-9.5 55v11q0 38 11 54q9 14 27 14h102q102 0 155.5 52.5t53.5 153.5v948h137v-952q0 -178 -85.5 -265t-261.5 -87h-101zM1411 1574v353h66v-353h-66zM1332 1195q-134 0 -135 151v119h67l1 -120
q0 -66 67 -67q75 0 76 98l2 132h66l2 -124q1 -67 80 -67q62 0 63 100l2 131h70l-1 -130q-3 -182 -133 -182q-38 0 -64.5 11.5t-42.5 33.5l-2 4l-1 -5q-22 -85 -117 -85zM1089 15h-45q-120 0 -193 44t-104 133l-4 12l-13 -2q-20 -4 -41.5 -7t-44 -5t-46 -3.5t-47.5 -2.5
t-49 -1q-200 0 -296 63.5t-96 190.5q0 303 490 379l16 3l-3 15l-10 50l139 26l95 -545q17 -98 72.5 -149t145.5 -51h35q10 -10 10 -66v-11q0 -61 -11 -73zM704 363l-55 296l-3 14l-14 -2q-385 -49 -385 -221q0 -123 242 -122q108 0 203 17l14 3zM2538 1319h136v-1303h-136
v1303z" />
    <glyph glyph-name="uniFE70" unicode="&#x20;&#x64b;" horiz-adv-x="642" arabic-form="isolated" 
d="M110 1053v97l392 160v-97zM110 1260v97l392 160v-97z" />
    <glyph glyph-name="uniFE72" unicode="&#x20;&#x64c;" horiz-adv-x="642" arabic-form="isolated" 
d="M420 1471l8 20q5 10 7 21t2 22q0 35 -19 51q-18 15 -40 15q-23 0 -36 -10q-10 -8 -15 -19.5t-5 -25.5q0 -40 46 -59q9 -3 19 -6.5t21 -7.5l9 -3h2zM337 1323q17 16 30 33.5t23 36.5l6 12l1 2l-3 1l-13 3q-9 1 -17 3.5t-14.5 5.5t-13.5 6q-17 10 -30.5 20t-24 21.5
t-17.5 23.5t-10.5 25.5t-3.5 28.5q0 68 55 109q20 15 70 15q57 0 88 -30q43 -42 43 -105q0 -31 -9 -62l-4 -13l-1 -2h2l14 -1q16 -1 28 -1h21v-70q-16 0 -26.5 0.5t-17.5 1.5l-52 5h-1l-1 -1l-3 -7q-21 -51 -84 -116q-34 -35 -70.5 -52.5t-73.5 -17.5q-106 0 -134 124
q-2 9 -4 19.5t-3.5 21.5t-2.5 23t-1.5 25t-0.5 26h52q0 -22 1.5 -39.5t4 -32t5.5 -26.5q23 -72 83 -71q26 0 53.5 13.5t55.5 41.5z" />
    <glyph glyph-name="uniFE74" unicode="&#x20;&#x64d;" horiz-adv-x="642" arabic-form="isolated" 
d="M115 -437v97l392 160v-97zM115 -230v97l392 160v-97z" />
    <glyph glyph-name="uniFE76" unicode="&#x20;&#x64e;" horiz-adv-x="642" arabic-form="isolated" 
d="M81 1285v97l392 160v-97z" />
    <glyph glyph-name="uniFE78" unicode="&#x20;&#x64f;" horiz-adv-x="642" arabic-form="isolated" 
d="M338 1441q-86 36 -86 118q0 68 54 109q21 15 70 15q58 0 89 -30q43 -42 43 -105q0 -25 -12 -62l-3 -12l-1 -3h2l14 -1q14 -1 30 -1q9 0 20 -1v-69q-11 0 -22 0.5t-22 1.5q-25 1 -49 4l-6 1h-1l-1 -1l-3 -5q-12 -17 -26 -32t-31 -28t-36 -25q-159 -98 -278 -103v69
q128 5 245 96q20 16 37 34l13 13l2 3h-3q-17 4 -39 14zM421 1484l9 21q9 20 9 43q0 18 -5 30.5t-15 20.5q-18 15 -39 15q-24 0 -37 -10q-20 -16 -20 -45q0 -40 46 -59q18 -7 41 -14l9 -3h1z" />
    <glyph glyph-name="uniFE7A" unicode="&#x20;&#x650;" horiz-adv-x="642" arabic-form="isolated" 
d="M125 -309v97l392 160v-97z" />
    <glyph glyph-name="uniFE7C" unicode="&#x20;&#x651;" horiz-adv-x="642" arabic-form="isolated" 
d="M210 1334q-134 0 -135 151v119h67l1 -120q0 -66 67 -67q75 0 76 98l2 132h66l2 -124q1 -67 80 -67q62 0 63 100l2 131h70l-1 -130q-3 -182 -133 -182q-38 0 -64.5 11.5t-42.5 33.5l-2 4l-1 -5q-22 -85 -117 -85z" />
    <glyph glyph-name="uniFE7E" unicode="&#x20;&#x652;" horiz-adv-x="642" arabic-form="isolated" 
d="M438 1382q0 42 -28.5 70.5t-70.5 28.5q-6 0 -12 -0.5t-11.5 -1.5t-10.5 -3l-10 -4q-2 -1 -4.5 -2.5t-5.5 -2.5q-4 -3 -8.5 -6.5t-8.5 -7.5q-14 -15 -21 -32q-4 -9 -5.5 -18.5t-1.5 -20.5q0 -42 28.5 -70.5t70.5 -28.5q21 0 38 7l4 2l4 2l4 2t3.5 2t3.5 2.5t3.5 2.5
t3.5 2.5t3.5 3l3.5 3.5q14 14 21 32q4 9 5.5 18.5t1.5 19.5zM516 1382q0 -74 -51 -125q-26 -26 -57.5 -39t-68.5 -13q-9 0 -18 1t-17.5 2.5t-16.5 3.5q-3 1 -5.5 2t-5.5 2t-5 2q-8 3 -15.5 7t-14.5 9t-14 10.5t-13 12.5q-26 25 -38.5 56.5t-12.5 68.5q0 13 1 25q0 2 0.5 5
l1 6t1.5 6t1 5q2 6 3.5 11.5t3.5 10.5q5 10 10.5 20t12.5 19t16 18q51 51 125 51q15 0 29 -2t27 -6t25 -10.5t23 -14.5t22 -18q25 -26 38 -57q3 -8 5.5 -16t4 -16.5t2.5 -17.5t1 -19z" />
    <glyph glyph-name="uniFEF5" unicode="&#xfedf;&#xfe82;" horiz-adv-x="1133" arabic-form="isolated" 
d="M172 1565h367l1 -128h-358q-110 0 -165 -73l-4 -4l-78 90l2 3q37 56 95.5 84t139.5 28zM174 1270h136v-974h-136v974zM987 392q0 -191 -90.5 -284t-276.5 -93h-447v150h454q110 0 166.5 62.5t56.5 182.5v909h137v-927z" />
    <glyph glyph-name="uniFEF6" unicode="&#xfee0;&#xfe82;" horiz-adv-x="1243" arabic-form="final" 
d="M1246 15h-23q-63 0 -117 15t-98 44.5t-79 74.5l-2 2l-12 15l-12 -15l-1 -2q-103 -134 -265 -134h-464v150h447q114 0 172 76.5t58 222.5v856h136v-857q0 -146 60 -222t179 -76h22q9 -13 9 -68v-11q0 -20 -1.5 -35.5t-4.5 -25.5q-1 -7 -4 -10zM174 1270h136v-974h-136v974
zM172 1565h367l1 -128h-358q-110 0 -165 -73l-4 -4l-78 90l2 3q37 56 95.5 84t139.5 28z" />
    <glyph glyph-name="uniFEF7" unicode="&#xfedf;&#xfe84;" horiz-adv-x="1133" arabic-form="isolated" 
d="M24 1439l102 24l16 4l5 1l-4 2l-15 9q-72 45 -72 141q0 115 96 169q13 7 27 13q3 1 6.5 2.5t7 2.5l7 2t7.5 2t7.5 1.5t7.5 1.5t8 1.5t8 0.5q7 1 15.5 1.5t16.5 0.5q74 0 133 -35v-95q-12 6 -24.5 10t-26 6.5t-28 4t-29.5 1.5q-61 -1 -93 -25t-33 -71q0 -26 10.5 -47
t32 -36t52.5 -24l2 -1h1h1l162 27v-103l-406 -91v100zM174 1270h136v-974h-136v974zM987 392q0 -191 -90.5 -284t-276.5 -93h-447v150h454q110 0 166.5 62.5t56.5 182.5v909h137v-927z" />
    <glyph glyph-name="uniFEF8" unicode="&#xfee0;&#xfe84;" horiz-adv-x="1243" arabic-form="final" 
d="M1246 15h-23q-63 0 -117 15t-98 44.5t-79 74.5l-2 2l-12 15l-12 -15l-1 -2q-103 -134 -265 -134h-464v150h447q114 0 172 76.5t58 222.5v856h136v-857q0 -146 60 -222t179 -76h22q9 -13 9 -68v-11q0 -20 -1.5 -35.5t-4.5 -25.5q-1 -7 -4 -10zM174 1270h136v-974h-136v974
zM24 1439l102 24l16 4l5 1l-4 2l-15 9q-72 45 -72 141q0 115 96 169q13 7 27 13q3 1 6.5 2.5t7 2.5l7 2t7.5 2t7.5 1.5t7.5 1.5t8 1.5t8 0.5q7 1 15.5 1.5t16.5 0.5q74 0 133 -35v-95q-12 6 -24.5 10t-26 6.5t-28 4t-29.5 1.5q-61 -1 -93 -25t-33 -71q0 -26 10.5 -47t32 -36
t52.5 -24l2 -1h1h1l162 27v-103l-406 -91v100z" />
    <glyph glyph-name="uniFEF9" unicode="&#xfedf;&#xfe88;" horiz-adv-x="1133" arabic-form="isolated" 
d="M174 1270h136v-974h-136v974zM987 392q0 -191 -90.5 -284t-276.5 -93h-447v150h454q110 0 166.5 62.5t56.5 182.5v909h137v-927zM49 -485l102 24l16 4l5 1l-4 2l-15 9q-72 45 -72 141q0 115 96 169q13 7 27 13q3 1 6.5 2.5t7 2.5l7 2t7.5 2t7.5 1.5t7.5 1.5t8 1.5t8 0.5
q7 1 15.5 1.5t16.5 0.5q74 0 133 -35v-95q-12 6 -24.5 10t-26 6.5t-28 4t-29.5 1.5q-61 -1 -93 -25t-33 -71q0 -26 10.5 -47t32 -36t52.5 -24l2 -1h1h1l162 27v-103l-406 -91v100z" />
    <glyph glyph-name="uniFEFA" unicode="&#xfee0;&#xfe88;" horiz-adv-x="1243" arabic-form="final" 
d="M49 -485l102 24l16 4l5 1l-4 2l-15 9q-72 45 -72 141q0 115 96 169q13 7 27 13q3 1 6.5 2.5t7 2.5l7 2t7.5 2t7.5 1.5t7.5 1.5t8 1.5t8 0.5q7 1 15.5 1.5t16.5 0.5q74 0 133 -35v-95q-12 6 -24.5 10t-26 6.5t-28 4t-29.5 1.5q-61 -1 -93 -25t-33 -71q0 -26 10.5 -47
t32 -36t52.5 -24l2 -1h1h1l162 27v-103l-406 -91v100zM1246 15h-23q-63 0 -117 15t-98 44.5t-79 74.5l-2 2l-12 15l-12 -15l-1 -2q-103 -134 -265 -134h-464v150h447q114 0 172 76.5t58 222.5v856h136v-857q0 -146 60 -222t179 -76h22q9 -13 9 -68v-11q0 -20 -1.5 -35.5
t-4.5 -25.5q-1 -7 -4 -10zM174 1270h136v-974h-136v974z" />
    <glyph glyph-name="uniFEFB" unicode="&#xfedf;&#xfe8e;" horiz-adv-x="1133" arabic-form="isolated" 
d="M174 1270h136v-974h-136v974zM987 392q0 -191 -90.5 -284t-276.5 -93h-447v150h454q110 0 166.5 62.5t56.5 182.5v909h137v-927z" />
    <glyph glyph-name="uniFEFC" unicode="&#xfee0;&#xfe8e;" horiz-adv-x="1243" arabic-form="final" 
d="M1246 15h-23q-63 0 -117 15t-98 44.5t-79 74.5l-2 2l-12 15l-12 -15l-1 -2q-103 -134 -265 -134h-464v150h447q114 0 172 76.5t58 222.5v856h136v-857q0 -146 60 -222t179 -76h22q9 -13 9 -68v-11q0 -20 -1.5 -35.5t-4.5 -25.5q-1 -7 -4 -10zM174 1270h136v-974h-136v974
z" />
    <glyph glyph-name="uni0651064B" unicode="&#x64b;&#x651;" 
d="M367 1078v97l392 160v-97zM367 1285v97l392 160v-97zM467 707q-134 0 -135 151v119h67l1 -120q0 -66 67 -67q75 0 76 98l2 132h66l2 -124q1 -67 80 -67q62 0 63 100l2 131h70l-1 -130q-3 -182 -133 -182q-38 0 -64.5 11.5t-42.5 33.5l-2 4l-1 -5q-22 -85 -117 -85z" />
    <glyph glyph-name="uni0651064C" unicode="&#x64c;&#x651;" 
d="M666 1412l8 20q5 10 7 21t2 22q0 35 -19 51q-18 15 -40 15q-23 0 -36 -10q-10 -8 -15 -19.5t-5 -25.5q0 -40 46 -59q9 -3 19 -6.5t21 -7.5l9 -3h2zM583 1264q17 16 30 33.5t23 36.5l6 12l1 2l-3 1l-13 3q-9 1 -17 3.5t-14.5 5.5t-13.5 6q-17 10 -30.5 20t-24 21.5
t-17.5 23.5t-10.5 25.5t-3.5 28.5q0 68 55 109q20 15 70 15q57 0 88 -30q43 -42 43 -105q0 -31 -9 -62l-4 -13l-1 -2h2l14 -1q16 -1 28 -1h21v-70q-16 0 -26.5 0.5t-17.5 1.5l-52 5h-1l-1 -1l-3 -7q-21 -51 -84 -116q-34 -35 -70.5 -52.5t-73.5 -17.5q-106 0 -134 124
q-2 9 -4 19.5t-3.5 21.5t-2.5 23t-1.5 25t-0.5 26h52q0 -22 1.5 -39.5t4 -32t5.5 -26.5q23 -72 83 -71q26 0 53.5 13.5t55.5 41.5zM456 711q-134 0 -135 151v119h67l1 -120q0 -66 67 -67q75 0 76 98l2 132h66l2 -124q1 -67 80 -67q62 0 63 100l2 131h70l-1 -130
q-3 -182 -133 -182q-38 0 -64.5 11.5t-42.5 33.5l-2 4l-1 -5q-22 -85 -117 -85z" />
    <glyph glyph-name="uni064B0651" unicode="&#x64d;&#x651;" 
d="M422 1263q-134 0 -135 151v119h67l1 -120q0 -66 67 -67q75 0 76 98l2 132h66l2 -124q1 -67 80 -67q62 0 63 100l2 131h70l-1 -130q-3 -182 -133 -182q-38 0 -64.5 11.5t-42.5 33.5l-2 4l-1 -5q-22 -85 -117 -85zM322 734v97l392 160v-97zM322 941v97l392 160v-97z" />
    <glyph glyph-name="uni0651064E" unicode="&#x64e;&#x651;" 
d="M343 1276v97l392 160v-97zM472 884q-134 0 -135 151v119h67l1 -120q0 -66 67 -67q75 0 76 98l2 132h66l2 -124q1 -67 80 -67q62 0 63 100l2 131h70l-1 -130q-3 -182 -133 -182q-38 0 -64.5 11.5t-42.5 33.5l-2 4l-1 -5q-22 -85 -117 -85z" />
    <glyph glyph-name="uni0651064F" unicode="&#x64f;&#x651;" 
d="M585 1359q-86 36 -86 118q0 68 54 109q21 15 70 15q58 0 89 -30q43 -42 43 -105q0 -25 -12 -62l-3 -12l-1 -3h2l14 -1q14 -1 30 -1q9 0 20 -1v-69q-11 0 -22 0.5t-22 1.5q-25 1 -49 4l-6 1h-1l-1 -1l-3 -5q-12 -17 -26 -32t-31 -28t-36 -25q-159 -98 -278 -103v69
q128 5 245 96q20 16 37 34l13 13l2 3h-3q-17 4 -39 14zM668 1402l9 21q9 20 9 43q0 18 -5 30.5t-15 20.5q-18 15 -39 15q-24 0 -37 -10q-20 -16 -20 -45q0 -40 46 -59q18 -7 41 -14l9 -3h1zM457 741q-134 0 -135 151v119h67l1 -120q0 -66 67 -67q75 0 76 98l2 132h66l2 -124
q1 -67 80 -67q62 0 63 100l2 131h70l-1 -130q-3 -182 -133 -182q-38 0 -64.5 11.5t-42.5 33.5l-2 4l-1 -5q-22 -85 -117 -85z" />
    <glyph glyph-name="uni064E0651" unicode="&#x650;&#x651;" 
d="M458 1232q-134 0 -135 151v119h67l1 -120q0 -66 67 -67q75 0 76 98l2 132h66l2 -124q1 -67 80 -67q62 0 63 100l2 131h70l-1 -130q-3 -182 -133 -182q-38 0 -64.5 11.5t-42.5 33.5l-2 4l-1 -5q-22 -85 -117 -85zM393 936v97l392 160v-97z" />
    <glyph glyph-name="uni0654064E" unicode="&#x64e;&#x654;" 
d="M367 1655v97l392 160v-97zM400 1218l102 24l16 4l5 1l-4 2l-15 9q-72 45 -72 141q0 115 96 169q13 7 27 13q3 1 6.5 2.5t7 2.5l7 2t7.5 2t7.5 1.5t7.5 1.5t8 1.5t8 0.5q7 1 15.5 1.5t16.5 0.5q74 0 133 -35v-95q-12 6 -24.5 10t-26 6.5t-28 4t-29.5 1.5q-61 -1 -93 -25
t-33 -71q0 -26 10.5 -47t32 -36t52.5 -24l2 -1h1h1l162 27v-103l-406 -91v100z" />
    <glyph glyph-name="uni0654064F" unicode="&#x64f;&#x654;" 
d="M580 1714q-86 36 -86 118q0 68 54 109q21 15 70 15q58 0 89 -30q43 -42 43 -105q0 -25 -12 -62l-3 -12l-1 -3h2l14 -1q14 -1 30 -1q9 0 20 -1v-69q-11 0 -22 0.5t-22 1.5q-25 1 -49 4l-6 1h-1l-1 -1l-3 -5q-12 -17 -26 -32t-31 -28t-36 -25q-159 -98 -278 -103v69
q128 5 245 96q20 16 37 34l13 13l2 3h-3q-17 4 -39 14zM663 1757l9 21q9 20 9 43q0 18 -5 30.5t-15 20.5q-18 15 -39 15q-24 0 -37 -10q-20 -16 -20 -45q0 -40 46 -59q18 -7 41 -14l9 -3h1zM409 1062l102 24l16 4l5 1l-4 2l-15 9q-72 45 -72 141q0 115 96 169q13 7 27 13
q3 1 6.5 2.5t7 2.5l7 2t7.5 2t7.5 1.5t7.5 1.5t8 1.5t8 0.5q7 1 15.5 1.5t16.5 0.5q74 0 133 -35v-95q-12 6 -24.5 10t-26 6.5t-28 4t-29.5 1.5q-61 -1 -93 -25t-33 -71q0 -26 10.5 -47t32 -36t52.5 -24l2 -1h1h1l162 27v-103l-406 -91v100z" />
    <glyph glyph-name="uni066E.fina" unicode="&#x66e;" horiz-adv-x="2050" 
d="M537 165h814q143 0 217 59.5t74 175.5v217h147v-219q0 -57 16 -101t47.5 -73t78.5 -44t108 -15h16q9 -13 9 -68v-11q0 -58 -10 -71h-17q-106 0 -180 35.5t-118 107.5l-2 2l-14 22l-12 -22l-2 -3q-38 -70 -128 -106t-232 -36h-815q-211 0 -314 105.5t-103 321.5v186h145
v-185q0 -91 31 -153t92.5 -93.5t151.5 -31.5z" />
    <glyph glyph-name="uni066F.fina" unicode="&#x66f;" horiz-adv-x="1476" 
d="M1314 358l1 -176v-2l1 -15h14h2h149q9 -13 9 -68v-11q0 -21 -2 -37q-1 -15 -4 -24q-2 -7 -4 -10h-147h-2h-15v-15v-2v-64q0 -186 -129 -277q-132 -94 -398 -94h-98q-288 1 -430 135t-143 404v325l145 1v-325q0 -192 109 -289t321 -96l95 1q389 2 387 218v64v2v15h-15h-2
h-161q-169 0 -251 80.5t-82 246.5q1 60 10.5 110.5t28 90.5t45.5 71q85 95 248 95q48 1 90 -9q20 -4 39 -11t36 -16q35 -18 63 -45q43 -43 66 -111.5t24 -161.5zM801 346q0 -89 50 -135t145 -46h162h2h15v15v2v170q-1 107 -47 163.5t-136 55.5q-94 0 -142.5 -57.5
t-48.5 -167.5z" />
    <glyph glyph-name="uni06A1.init" unicode="&#x6a1;" horiz-adv-x="870" 
d="M-5 15q-19 0 -28.5 16t-9.5 55v11q0 38 11 54q9 14 27 14h280q345 0 345 163v23v2v17l-17 -2h-2q-26 -3 -51 -4.5t-49.5 -2.5t-48.5 -2q-87 0 -151.5 17t-106.5 50q-83 66 -83 200q0 164 83 250q29 30 65 49.5t80.5 29.5t96.5 10q108 0 178 -34t104.5 -103t34.5 -174
v-319q0 -160 -118 -240t-362 -80h-278zM620 657q0 83 -47 125q-16 15 -36.5 24.5t-45 14t-53.5 3.5q-103 0 -150 -59q-11 -13 -18.5 -27.5t-13 -30.5t-8 -33.5t-2.5 -36.5q0 -68 55.5 -101.5t158.5 -32.5q74 0 145 10h2l13 2v13v2v127z" />
    <glyph glyph-name="uni06A1.medi" unicode="&#x6a1;" horiz-adv-x="1022" 
d="M1026 15h-135q-66 0 -127 9t-116 26t-105 43l-7 4l-8 -3q-169 -79 -348 -79h-185q-19 0 -28.5 16t-9.5 55v11q0 26 5 41.5t13 21t20 5.5h292h5h36l-26 26l-3 3q-99 98 -99 237q0 147 99 243q100 97 240 97t240 -97q48 -47 72 -107t24 -136q1 -71 -23.5 -130t-72.5 -107
l-4 -3l-26 -26h36h5h236q9 -13 9 -68v-11q0 -58 -9 -71zM337 430q0 -27 6.5 -51.5t19.5 -46.5t33 -41q58 -57 141 -57q28 0 53 6.5t47 19t42 31.5q59 58 59 139t-59 139q-20 19 -42 31.5t-47 19t-53 6.5q-41 0 -76.5 -14.5t-65.5 -42.5q-28 -29 -43 -64t-15 -75z" />
    <glyph glyph-name="uni06A1.fina" unicode="&#x6a1;" horiz-adv-x="2044" 
d="M1359 430q0 -81 58.5 -138.5t142.5 -57.5q82 0 141 57q59 58 59 139q0 40 -14.5 75t-44.5 64q-7 7 -14.5 13t-16 11.5t-17 10t-17.5 8.5q-35 14 -76 14q-21 0 -40 -3.5t-37 -10.5q-12 -5 -23.5 -11.5t-21.5 -14.5t-20 -17.5t-18 -19.5t-14.5 -21t-11.5 -23
q-3 -7 -5.5 -14t-4 -14.5l-3 -15t-2 -15.5t-0.5 -16zM1548 93q-19 -13 -42 -23.5t-49 -19.5q-52 -17 -115 -26q-65 -9 -141 -9h-667q-211 0 -314 105.5t-103 321.5v186h145v-185q0 -137 70 -207.5t206 -70.5h772h4h37l-26 26l-4 3q-49 49 -73.5 108t-24.5 129q-1 147 98 243
q34 33 71.5 54.5t79.5 32t89 10.5q140 0 240 -97q32 -31 53.5 -68t32 -80.5t11.5 -93.5q0 -143 -97 -238l-4 -3l-26 -26h37h5h235q10 -13 10 -68v-11q0 -58 -10 -71h-134q-200 0 -348 78l-1 1l-8 4l-8 -5h-1z" />
    <glyph glyph-name="uni06CA.fina" unicode="&#x6ca;" horiz-adv-x="933" 
d="M482 1055l91 91q27 27 48 6l98 -98q24 -24 -3 -51l-91 -91q-25 -25 -49 -1l-98 98q-10 10 -9 21.5t13 24.5zM135 1055l91 91q27 27 48 6l98 -98q24 -24 -3 -51l-91 -91q-25 -25 -49 -1l-98 98q-20 21 4 46zM768 355v-173v-2v-15h15h2h152q4 -5 6 -23q3 -21 3 -45v-11
q0 -41 -5 -61q-3 -10 -5 -10h-150h-2h-15v-15v-2q-8 -444 -554 -443h-59v149h53q418 -1 419 294v2v15h-15h-2h-160q-169 0 -251 81q-82 80 -82 246q1 178 84 272q85 95 248 96q143 0 227 -82q45 -43 67 -111q23 -69 24 -162zM255 343q0 -87 50 -132.5t145 -45.5h162h2h15v15
v2l-1 167q0 107 -46 163.5t-136 55.5q-95 0 -144 -58q-47 -57 -47 -167z" />
    <glyph glyph-name="uniFB56" unicode="&#x67e;" horiz-adv-x="1901" arabic-form="isolated" 
d="M538 165h836q130 0 197.5 71t67.5 207v182h144v-179q0 -218 -103 -324.5t-313 -106.5h-832q-211 0 -314 105.5t-103 321.5v186h145v-185q0 -91 31 -153t92.5 -93.5t151.5 -31.5zM1008 -315q-22 23 -4 42l98 98q22 21 45 -1l91 -91q25 -25 3 -47l-98 -98
q-10 -10 -20.5 -8.5t-23.5 14.5zM661 -315q-22 23 -4 42l98 98q11 11 22 10.5t23 -11.5l91 -91q25 -25 3 -47l-98 -98q-19 -19 -44 6zM834 -601q-22 23 -3 42l97 98q22 21 45 -1l91 -91q25 -25 3 -47l-98 -98q-6 -6 -13 -7.5t-14.5 2t-16.5 11.5z" />
    <glyph glyph-name="uniFB57" unicode="&#x67e;" horiz-adv-x="2050" arabic-form="final" 
d="M1008 -315q-22 23 -4 42l98 98q22 21 45 -1l91 -91q25 -25 3 -47l-98 -98q-10 -10 -20.5 -8.5t-23.5 14.5zM661 -315q-22 23 -4 42l98 98q11 11 22 10.5t23 -11.5l91 -91q25 -25 3 -47l-98 -98q-19 -19 -44 6zM834 -601q-22 23 -3 42l97 98q22 21 45 -1l91 -91
q25 -25 3 -47l-98 -98q-6 -6 -13 -7.5t-14.5 2t-16.5 11.5zM537 165h814q143 0 217 59.5t74 175.5v217h147v-219q0 -57 16 -101t47.5 -73t78.5 -44t108 -15h16q9 -13 9 -68v-11q0 -58 -10 -71h-17q-106 0 -180 35.5t-118 107.5l-2 2l-14 22l-12 -22l-2 -3q-38 -70 -128 -106
t-232 -36h-815q-211 0 -314 105.5t-103 321.5v186h145v-185q0 -91 31 -153t92.5 -93.5t151.5 -31.5z" />
    <glyph glyph-name="uniFB58" unicode="&#x67e;" horiz-adv-x="717" arabic-form="initial" 
d="M360 -315q-22 23 -4 42l98 98q22 21 45 -1l91 -91q25 -25 3 -47l-98 -98q-10 -10 -20.5 -8.5t-23.5 14.5zM13 -315q-22 23 -4 42l98 98q11 11 22 10.5t23 -11.5l91 -91q25 -25 3 -47l-98 -98q-19 -19 -44 6zM186 -601q-22 23 -3 42l97 98q22 21 45 -1l91 -91
q25 -25 3 -47l-98 -98q-6 -6 -13 -7.5t-14.5 2t-16.5 11.5zM-5 15q-18 0 -28 15q-10 17 -10 56v11q0 19 2.5 32.5t7.5 20.5q9 15 28 15h233q217 0 217 208v279h144v-279q0 -358 -360 -358h-234z" />
    <glyph glyph-name="uniFB59" unicode="&#x67e;" horiz-adv-x="857" arabic-form="medial" 
d="M360 -315q-22 23 -4 42l98 98q22 21 45 -1l91 -91q25 -25 3 -47l-98 -98q-10 -10 -20.5 -8.5t-23.5 14.5zM13 -315q-22 23 -4 42l98 98q11 11 22 10.5t23 -11.5l91 -91q25 -25 3 -47l-98 -98q-19 -19 -44 6zM186 -601q-22 23 -3 42l97 98q22 21 45 -1l91 -91
q25 -25 3 -47l-98 -98q-6 -6 -13 -7.5t-14.5 2t-16.5 11.5zM861 15h-20q-219 0 -306 135l-1 2l-2 -2q-102 -135 -356 -135h-181q-19 0 -28 15q-10 17 -10 56v11q0 38 10 53q9 15 28 15h186q271 0 271 210v243h146v-243q0 -70 27 -116.5t81 -70t134 -23.5h21q4 -6 6.5 -23
t2.5 -45v-11q0 -58 -9 -71z" />
    <glyph glyph-name="uniFB7A" unicode="&#x686;" horiz-adv-x="1319" arabic-form="isolated" 
d="M841.234 -43.7217q-20.2393 21.1602 -3.67969 38.6396l90.1582 90.1582q20.2393 19.3193 41.3994 -0.919922l83.7178 -83.7188q23 -22.999 2.76074 -43.2393l-90.1582 -90.1582q-9.2002 -9.19922 -18.8604 -7.81934q-9.65918 1.37988 -21.6191 13.3398zM522 -43.7217
q-20.2393 21.1602 -3.67969 38.6396l90.1582 90.1582q10.1201 10.1201 20.2402 9.66016q10.1191 -0.459961 21.1592 -10.5801l83.7188 -83.7188q22.999 -22.999 2.75977 -43.2393l-90.1582 -90.1582q-17.4795 -17.4795 -40.4795 5.52051zM681.157 -306.837
q-20.2393 21.1602 -2.75977 38.6396l89.2383 90.1582q20.2393 19.3193 41.3994 -0.919922l83.7188 -83.7188q22.999 -22.999 2.75977 -43.2393l-90.1582 -90.1582q-5.52051 -5.51953 -11.96 -6.89941q-6.44043 -1.37988 -13.3398 1.83984t-15.1797 10.5801zM1074 337
q-397 -56 -609 -188q-206 -128 -206 -329q-1 -39 6 -74.5t21 -66t35 -57.5q62 -79 184 -118q121 -38 299 -38h397v-146h-409q-192 1 -327 39q-135 37 -212 111q-139 134 -136 344q6 513 810 634l42 7h6l-5 3l-38 22l-118 68q-278 160 -507 -22l-60 -48l-96 107l50 42
q304 261 637 68l189 -111q48 -27 91 -46q21 -9 41.5 -16t40.5 -11v-157q-63 -8 -126 -17z" />
    <glyph glyph-name="uniFB7B" unicode="&#x686;" horiz-adv-x="1359" arabic-form="final" 
d="M771.234 -63.7217q-20.2393 21.1602 -3.67969 38.6396l90.1582 90.1582q20.2393 19.3193 41.3994 -0.919922l83.7178 -83.7188q23 -22.999 2.76074 -43.2393l-90.1582 -90.1582q-9.2002 -9.19922 -18.8604 -7.81934q-9.65918 1.37988 -21.6191 13.3398zM452 -63.7217
q-20.2393 21.1602 -3.67969 38.6396l90.1582 90.1582q10.1201 10.1201 20.2402 9.66016q10.1191 -0.459961 21.1592 -10.5801l83.7188 -83.7188q22.999 -22.999 2.75977 -43.2393l-90.1582 -90.1582q-17.4795 -17.4795 -40.4795 5.52051zM611.157 -326.837
q-20.2393 21.1602 -2.75977 38.6396l89.2383 90.1582q20.2393 19.3193 41.3994 -0.919922l83.7188 -83.7188q22.999 -22.999 2.75977 -43.2393l-90.1582 -90.1582q-5.52051 -5.51953 -11.96 -6.89941q-6.44043 -1.37988 -13.3398 1.83984t-15.1797 10.5801zM932 480l-118 68
q-278 160 -507 -22l-60 -48l-96 107l50 42q304 261 637 68l189 -111q94 -54 173 -73v-153q-70 -7 -125 -18l-12 -2l-2 -1v-1v-13q0 -40 16.5 -69.5t49.5 -49.5t79.5 -29.5t106.5 -9.5h50q9 -12 9 -68v-11q0 -29 -2.5 -47t-7.5 -24h-50q-86 0 -151.5 17t-111.5 50
q-91 67 -108 203l-2 15v2h-2l-16 -2q-661 -102 -662 -480q-1 -39 6 -74.5t21 -66t35 -57.5q62 -79 184 -118q121 -38 299 -38h397v-146h-409q-192 1 -327 39q-135 37 -212 111q-139 134 -136 344q6 513 810 634l42 7h6l-5 3z" />
    <glyph glyph-name="uniFB7C" unicode="&#x686;" horiz-adv-x="1282" arabic-form="initial" 
d="M601 -315q-22 23 -4 42l98 98q22 21 45 -1l91 -91q25 -25 3 -47l-98 -98q-10 -10 -20.5 -8.5t-23.5 14.5zM254 -315q-22 23 -4 42l98 98q11 11 22 10.5t23 -11.5l91 -91q25 -25 3 -47l-98 -98q-19 -19 -44 6zM427 -601q-22 23 -3 42l97 98q22 21 45 -1l91 -91
q25 -25 3 -47l-98 -98q-6 -6 -13 -7.5t-14.5 2t-16.5 11.5zM-5 15q-19 0 -28.5 16t-9.5 55v11q0 38 11 54q9 14 27 14h305q213 0 393 94l278 145l3 2l24 12l-23 14l-3 2l-190 110q-277 160 -508 -23l-60 -48l-95 107l49 42q306 258 638 67l188 -109q48 -27 91 -45.5
t82 -28.5v-158l-400 -217q-107 -58 -223 -87t-242 -29h-307z" />
    <glyph glyph-name="uniFB7D" unicode="&#x686;" horiz-adv-x="1329" arabic-form="medial" 
d="M601 -315q-22 23 -4 42l98 98q22 21 45 -1l91 -91q25 -25 3 -47l-98 -98q-10 -10 -20.5 -8.5t-23.5 14.5zM254 -315q-22 23 -4 42l98 98q11 11 22 10.5t23 -11.5l91 -91q25 -25 3 -47l-98 -98q-19 -19 -44 6zM427 -601q-22 23 -3 42l97 98q22 21 45 -1l91 -91
q25 -25 3 -47l-98 -98q-6 -6 -13 -7.5t-14.5 2t-16.5 11.5zM884 195l-117 -64q-107 -58 -223 -87t-242 -29h-307q-19 0 -28.5 16t-9.5 55v11q0 38 11 54q9 14 27 14h305q213 0 393 94l278 145l3 2l24 12l-23 14l-3 2l-190 110q-277 160 -508 -23l-60 -48l-95 107l49 42
q306 258 638 67l188 -109q94 -54 173 -73v-159l-146 -79l-2 -1l-18 -9l14 -15l2 -2q38 -38 87 -57.5t109 -19.5h120q3 -5 6 -23t3 -45v-11q0 -41 -6 -61q-1 -7 -4 -10h-116q-209 0 -309 173l-1 2l-8 13l-12 -7z" />
    <glyph glyph-name="uniFB8A" unicode="&#x698;" horiz-adv-x="824" arabic-form="isolated" 
d="M530 968l91 91q13 13 24 14t20 -8l98 -98q7 -8 9 -15.5t-1 -15t-11 -16.5l-91 -91q-23 -23 -45 -1l-97 98q-7 6 -9 12.5t1 14t11 15.5zM183 968l91 91q25 25 44 6l98 -98q20 -23 -3 -47l-91 -91q-23 -23 -45 -1l-97 98q-19 19 3 42zM416 967zM356 1254l91 91q26 26 44 6
v0l98 -98q22 -22 -3 -47l-91 -91q-12 -11 -23 -11.5t-22 10.5l-97 98q-5 5 -7.5 10t-2 10t3.5 10.5t9 11.5zM94 -299q403 -1 403 370v519l144 1v-523q0 -510 -545 -514l-57 -1v148h55z" />
    <glyph glyph-name="uniFB8B" unicode="&#x698;" horiz-adv-x="883" arabic-form="final" 
d="M530 968l91 91q13 13 24 14t20 -8l98 -98q7 -8 9 -15.5t-1 -15t-11 -16.5l-91 -91q-23 -23 -45 -1l-97 98q-7 6 -9 12.5t1 14t11 15.5zM183 968l91 91q25 25 44 6l98 -98q20 -23 -3 -47l-91 -91q-23 -23 -45 -1l-97 98q-19 19 3 42zM416 967zM356 1254l91 91q26 26 44 6
v0l98 -98q22 -22 -3 -47l-91 -91q-12 -11 -23 -11.5t-22 10.5l-97 98q-5 5 -7.5 10t-2 10t3.5 10.5t9 11.5zM896 86q0 -58 -10 -71h-14q-155 0 -229 96v-45q0 -259 -135 -386q-135 -128 -413 -127h-56v149h52q408 1 408 367v521l143 1v-208q0 -128 82 -181q57 -37 148 -37
h15q9 -12 9 -68v-11z" />
    <glyph glyph-name="uniFB8E" unicode="&#x6a9;" horiz-adv-x="1855" arabic-form="isolated" 
d="M537 165h723q265 0 265 149q0 61 -115 193l-321 365q-44 51 -43 126q1 109 106 144l605 199v-149l-558 -182l-3 -1l-21 -7l15 -17l2 -2l310 -354q158 -181 160 -321q0 -73 -23.5 -127.5t-73 -91.5t-125.5 -55.5t-179 -18.5h-1h-1h-725q-211 0 -314 105.5t-103 321.5v186
h145v-185q0 -69 17.5 -121t52 -86.5t86 -52.5t119.5 -18z" />
    <glyph glyph-name="uniFB8F" unicode="&#x6a9;" horiz-adv-x="2022" arabic-form="final" 
d="M1259 15h-725q-211 0 -314 105.5t-103 321.5v186h145v-185q0 -68 17 -120t52 -87q69 -71 206 -71l724 -1q260 0 264 150q1 22 -12.5 51t-38.5 63t-64 79l-321 366q-43 50 -43 126q1 55 27 90.5t79 52.5l605 199v-148l-557 -182l-3 -1l-22 -7l15 -17l2 -3l567 -658
q136 -157 245 -160h23q4 -5 7 -23t3 -45v-11q0 -57 -10 -71h-13q-195 0 -338 196l-2 3l-18 23l-9 -27l-1 -4q-32 -94 -127.5 -142t-259.5 -49z" />
    <glyph glyph-name="uniFB90" unicode="&#x6a9;" horiz-adv-x="918" arabic-form="initial" 
d="M-5 15q-19 0 -28.5 16t-9.5 55v11q0 38 11 54q9 14 27 14h328q264 0 265 149q0 61 -116 193l-320 365q-44 50 -43 126q1 109 106 144l605 199v-149l-558 -182l-3 -1l-21 -7l14 -17l2 -2l307 -355q81 -94 122 -174t41 -146q2 -147 -97 -220t-306 -73h-326z" />
    <glyph glyph-name="uniFB91" unicode="&#x6a9;" horiz-adv-x="1086" arabic-form="medial" 
d="M824 325q137 -158 242 -160h24q9 -13 9 -68v-11q0 -29 -3 -48t-6 -23h-14q-48 0 -93.5 12t-88 36t-81.5 61t-75 86l-2 3l-17 24l-9 -28l-2 -4q-63 -190 -387 -190h-326q-19 0 -28.5 16t-9.5 55v11q0 38 11 54q9 14 27 14h328q264 0 265 149q0 61 -116 193l-320 365
q-44 50 -43 126q1 109 106 144l605 199v-149l-558 -182l-3 -1l-22 -7l15 -17l2 -2z" />
    <glyph glyph-name="uniFB92" unicode="&#x6af;" horiz-adv-x="1855" arabic-form="isolated" 
d="M1747.06 1492.67l-602.38 -208.64v99.5049l602.38 209.71v-100.575zM537 165h723q265 0 265 149q0 61 -115 193l-321 365q-44 51 -43 126q1 109 106 144l605 199v-149l-558 -182l-3 -1l-21 -7l15 -17l2 -2l310 -354q158 -181 160 -321q0 -73 -23.5 -127.5t-73 -91.5
t-125.5 -55.5t-179 -18.5h-1h-1h-725q-211 0 -314 105.5t-103 321.5v186h145v-185q0 -69 17.5 -121t52 -86.5t86 -52.5t119.5 -18z" />
    <glyph glyph-name="uniFB93" unicode="&#x6af;" horiz-adv-x="2022" arabic-form="final" 
d="M1747.06 1492.67l-602.38 -208.64v99.5049l602.38 209.71v-100.575zM1259 15h-725q-211 0 -314 105.5t-103 321.5v186h145v-185q0 -68 17 -120t52 -87q69 -71 206 -71l724 -1q260 0 264 150q1 22 -12.5 51t-38.5 63t-64 79l-321 366q-43 50 -43 126q1 55 27 90.5t79 52.5
l605 199v-148l-557 -182l-3 -1l-22 -7l15 -17l2 -3l567 -658q136 -157 245 -160h23q4 -5 7 -23t3 -45v-11q0 -57 -10 -71h-13q-195 0 -338 196l-2 3l-18 23l-9 -27l-1 -4q-32 -94 -127.5 -142t-259.5 -49z" />
    <glyph glyph-name="uniFB94" unicode="&#x6af;" horiz-adv-x="918" arabic-form="initial" 
d="M-5 15q-19 0 -28.5 16t-9.5 55v11q0 38 11 54q9 14 27 14h328q264 0 265 149q0 61 -116 193l-320 365q-44 50 -43 126q1 109 106 144l605 199v-149l-558 -182l-3 -1l-21 -7l14 -17l2 -2l307 -355q81 -94 122 -174t41 -146q2 -147 -97 -220t-306 -73h-326z
M792.059 1492.67l-602.38 -208.64v99.5049l602.38 209.71v-100.575z" />
    <glyph glyph-name="uniFB95" unicode="&#x6af;" horiz-adv-x="1086" arabic-form="medial" 
d="M760 1461zM792.059 1492.67l-602.38 -208.64v99.5049l602.38 209.71v-100.575zM824 325q137 -158 242 -160h24q9 -13 9 -68v-11q0 -29 -3 -48t-6 -23h-14q-48 0 -93.5 12t-88 36t-81.5 61t-75 86l-2 3l-17 24l-9 -28l-2 -4q-63 -190 -387 -190h-326q-19 0 -28.5 16
t-9.5 55v11q0 38 11 54q9 14 27 14h328q264 0 265 149q0 61 -116 193l-320 365q-44 50 -43 126q1 109 106 144l605 199v-149l-558 -182l-3 -1l-22 -7l15 -17l2 -2z" />
    <glyph glyph-name="uniFB9E" unicode="&#x6ba;" horiz-adv-x="1442" arabic-form="isolated" 
d="M1313 52q-6 -245 -145 -367q-35 -30 -78.5 -52.5t-96 -38t-113.5 -23t-131 -7.5h-55q-290 0 -433 133q-143 134 -143 404v326h147v-325q0 -191 109 -289t322 -98h51q213 0 322 83q110 84 110 248v570h146z" />
    <glyph glyph-name="uniFB9F" unicode="&#x6ba;" horiz-adv-x="1590" arabic-form="final" 
d="M1593 15h-36q-162 0 -241 91l-3 5v-6v-25v-28q0 -246 -140 -367q-139 -121 -424 -121h-55q-486 0 -562 381q-14 69 -14 156v326h147v-325q0 -191 109 -289t322 -98h51q213 0 322 83q110 84 110 248v570h146v-199q0 -124 61 -188q62 -64 180 -64h28q1 -2 3 -8
q0 -2 0.5 -4.5t1.5 -5.5t1.5 -6.5t0.5 -7.5q1 -5 1.5 -11t0.5 -12v-13v-11q0 -58 -10 -71z" />
    <glyph glyph-name="uniFBA5.fina" unicode="&#x6c0;" horiz-adv-x="1084" arabic-form="final" 
d="M347 1122q36 -13 104 -13h52q223 -1 223 95v6q-1 49 -66 49h-92q-48 0 -71.5 22t-23.5 69v38q0 127 128 172q46 16 110 16h108l1 -100h-133q-117 -1 -119 -84l-1 -31v-8h8h86q80 0 119 -30.5t39 -92.5v-16q0 -204 -321 -204h-48q-40 0 -72 4t-55 11zM1088 15h-45
q-120 0 -193 44t-104 133l-4 12l-13 -2q-20 -4 -41.5 -7t-44 -5t-46 -3.5t-47.5 -2.5t-49 -1q-200 0 -296 63.5t-96 190.5q0 303 490 379l16 3l-3 15l-10 50l139 26l95 -545q17 -98 72.5 -149t145.5 -51h35q10 -10 10 -66v-11q0 -61 -11 -73zM703 363l-55 296l-3 14l-14 -2
q-385 -49 -385 -221q0 -123 242 -122q108 0 203 17l14 3z" />
    <glyph glyph-name="uniFBAC" unicode="&#x6be;" horiz-adv-x="1301" arabic-form="initial" 
d="M-5 15q-38 0 -38 71v11q0 68 38 68h269h51h7l-6 4l-43 27q-113 72 -113 225q0 118 59 210q100 154 267 154q87 0 150 -36l12 -7l1 -1l1 2l8 11l78 114q444 -360 443 -608q0 -85 -30 -149t-91 -106q-65 -46 -152 -46q-226 0 -438 111l-5 3l-1 1l-1 -1l-6 -1
q-189 -57 -385 -57h-75zM487 229q172 124 173 280q0 87 -77 126q-33 16 -70 16q-42 0 -74 -14q-43 -19 -73 -54q-15 -18 -27 -39.5t-21 -46.5q-14 -42 -14 -79q0 -64 36 -105q44 -48 130 -86l8 -3l1 -1l1 1zM627 159q146 -60 254 -60q56 0 89 29q69 60 69 131
q0 133 -255 374l-42 39l-8 8l5 -10q45 -87 45 -211q0 -173 -182 -287l-3 -2l3 -1z" />
    <glyph glyph-name="uniFBAD" unicode="&#x6be;" horiz-adv-x="941" arabic-form="medial" 
d="M945 15h-195h-4h-30l18 -24l3 -3q16 -22 28.5 -46t20.5 -49t12 -52t4 -55q0 -59 -12 -102.5t-35 -73.5q-7 -9 -15 -16.5t-17 -14.5t-19 -12.5t-21 -10.5q-46 -18 -109 -18q-176 0 -272 148q-78 120 -98 314v1l-1 14h-14h-2h-192q-19 0 -28.5 16t-9.5 55v11q0 38 11 54
q9 14 27 14h192h2h14l1 14v2q25 312 125 459q86 126 215 127q52 0 97 -22q46 -22 86 -67q77 -86 77 -245q0 -149 -66 -241l-2 -3l-17 -24h29h4h193q10 -13 10 -68v-11q0 -41 -6 -61q-2 -7 -4 -10zM333 -3q3 -34 8.5 -65t12.5 -58q15 -55 38 -95q60 -103 168 -103
q57 0 87.5 33.5t30.5 95.5q0 104 -58 158q-57 53 -168 53h-103h-2h-16l1 -16zM677 407q0 63 -14 109q-15 47 -45 76q-17 17 -37.5 25.5t-44.5 8.5q-36 0 -67 -27q-15 -13 -28 -31t-25 -42q-59 -118 -83 -342l-1 -2l-1 -17h16h3l118 1q103 1 156 62.5t53 178.5z" />
    <glyph glyph-name="uniFBE8" unicode="&#x649;" horiz-adv-x="707" arabic-form="initial" 
d="M-5 15q-18 0 -28 15q-10 17 -10 56v11q0 19 2.5 32.5t7.5 20.5q9 15 28 15h233q217 0 217 208v279h144v-279q0 -358 -360 -358h-234z" />
    <glyph glyph-name="uniFBE9" unicode="&#x649;" horiz-adv-x="857" arabic-form="medial" 
d="M861 15h-20q-219 0 -306 135l-1 2l-2 -2q-102 -135 -356 -135h-181q-19 0 -28 15q-10 17 -10 56v11q0 38 10 53q9 15 28 15h186q271 0 271 210v243h146v-243q0 -70 27 -116.5t81 -70t134 -23.5h21q4 -6 6.5 -23t2.5 -45v-11q0 -58 -9 -71z" />
    <glyph glyph-name="uniFBFC" unicode="&#x6cc;" horiz-adv-x="1446" arabic-form="isolated" 
d="M1061 214q137 0 202 -50.5t65 -154.5v-29q0 -208 -136.5 -311t-416.5 -103h-84q-484 0 -559 380q-15 73 -15 158v396h145v-395q0 -192 109 -290t322 -98h91q98 0 172.5 15t125.5 45t77.5 76.5t26.5 108.5v12q0 80 -91 93q-17 3 -35 3h-161q-81 0 -118.5 36.5t-37.5 113.5
v65q0 78 11.5 142t34 114t55.5 87q50 56 126 84.5t179 28.5h179l1 -155h-222q-106 0 -161.5 -75t-57.5 -219l-2 -60v-2v-16h15h2h158z" />
    <glyph glyph-name="uniFBFD" unicode="&#x6cc;" horiz-adv-x="1433" arabic-form="final" 
d="M1436 15h-100h-15h-2v-2v-15l-1 -77q-3 -178 -135 -268q-132 -89 -402 -89h-89q-290 0 -432 133q-142 132 -143 401v327l145 -1v-324q0 -191 108.5 -288.5t318.5 -97.5h96q391 0 391 214v70v15v2h-2h-15h-251q-18 0 -33 18t-26 59q-7 25 -8.5 43t-0.5 24q1 4 2 6h595
q9 -12 9 -68v-11q0 -29 -2.5 -47t-7.5 -24z" />
    <glyph glyph-name="uniFBFE" unicode="&#x6cc;" horiz-adv-x="717" arabic-form="initial" 
d="M355 -310l91 91q27 27 48 6l98 -98q24 -24 -3 -51l-91 -91q-25 -25 -49 -1l-98 98q-10 10 -9 21.5t13 24.5zM8 -310l91 91q27 27 48 6l98 -98q24 -24 -3 -51l-91 -91q-25 -25 -49 -1l-98 98q-20 21 4 46zM-5 15q-18 0 -28 15q-10 17 -10 56v11q0 19 2.5 32.5t7.5 20.5
q9 15 28 15h233q217 0 217 208v279h144v-279q0 -358 -360 -358h-234z" />
    <glyph glyph-name="uniFBFF" unicode="&#x6cc;" horiz-adv-x="857" arabic-form="medial" 
d="M367 -310l91 91q27 27 48 6l98 -98q24 -24 -3 -51l-91 -91q-25 -25 -49 -1l-98 98q-10 10 -9 21.5t13 24.5zM20 -310l91 91q27 27 48 6l98 -98q24 -24 -3 -51l-91 -91q-25 -25 -49 -1l-98 98q-20 21 4 46zM861 15h-20q-219 0 -306 135l-1 2l-2 -2q-102 -135 -356 -135
h-181q-19 0 -28 15q-10 17 -10 56v11q0 38 10 53q9 15 28 15h186q271 0 271 210v243h146v-243q0 -70 27 -116.5t81 -70t134 -23.5h21q4 -6 6.5 -23t2.5 -45v-11q0 -58 -9 -71z" />
    <glyph glyph-name="uniFDFC" unicode="&#xfdfc;" horiz-adv-x="3254" arabic-form="isolated" 
d="M2083 -258l91 91q27 27 48 6l98 -98q24 -24 -3 -51l-91 -91q-25 -25 -49 -1l-98 98q-10 10 -9 21.5t13 24.5zM1736 -258l91 91q27 27 48 6l98 -98q24 -24 -3 -51l-91 -91q-25 -25 -49 -1l-98 98q-20 21 4 46zM283 102q0 -189 96.5 -286t284.5 -97h53q172 0 259.5 93
t87.5 274v1232h135l-1 -1236q0 -130 -30 -226.5t-91 -160.5t-152.5 -95.5t-214.5 -31.5h-46q-439 0 -511 369q-15 75 -15 164v326h145v-325zM1895 15h-74q-105 0 -173.5 39t-103 119t-34.5 202v943h139v-944q0 -101 44.5 -155t130.5 -54h72q9 -13 9 -68v-11q0 -42 -6 -61
q-1 -7 -4 -10zM1891 15q-18 0 -28 15q-10 17 -10 56v11q0 19 2.5 32.5t7.5 20.5q9 15 28 15h233q217 0 217 208v279h144v-279q0 -358 -360 -358h-234zM2516 -299q403 -1 403 370v519l144 1v-523q0 -510 -545 -514l-57 -1v148h55z" />
    <glyph glyph-name="uniFE71" unicode="&#xfe71;" horiz-adv-x="642" arabic-form="medial" 
d="M654 165q9 -12 9 -68v-11q0 -59 -10 -71h-258q-19 0 -28 15q-5 8 -7.5 22t-2.5 34v11q0 19 2.5 32.5t7.5 20.5q9 15 28 15h259zM444 165q9 -12 9 -68v-11q0 -59 -10 -71h-258q-19 0 -28 15q-5 8 -7.5 22t-2.5 34v11q0 19 2.5 32.5t7.5 20.5q9 15 28 15h259zM254 165
q9 -12 9 -68v-11q0 -59 -10 -71h-258q-19 0 -28 15q-5 8 -7.5 22t-2.5 34v11q0 19 2.5 32.5t7.5 20.5q9 15 28 15h259zM110 1053v97l392 160v-97zM110 1260v97l392 160v-97z" />
    <glyph glyph-name="uniFE77" unicode="&#xfe77;" horiz-adv-x="642" arabic-form="medial" 
d="M654 165q9 -12 9 -68v-11q0 -59 -10 -71h-258q-19 0 -28 15q-5 8 -7.5 22t-2.5 34v11q0 19 2.5 32.5t7.5 20.5q9 15 28 15h259zM444 165q9 -12 9 -68v-11q0 -59 -10 -71h-258q-19 0 -28 15q-5 8 -7.5 22t-2.5 34v11q0 19 2.5 32.5t7.5 20.5q9 15 28 15h259zM81 1285v97
l392 160v-97zM254 165q9 -12 9 -68v-11q0 -59 -10 -71h-258q-19 0 -28 15q-5 8 -7.5 22t-2.5 34v11q0 19 2.5 32.5t7.5 20.5q9 15 28 15h259z" />
    <glyph glyph-name="uniFE79" unicode="&#xfe79;" horiz-adv-x="642" arabic-form="medial" 
d="M654 165q9 -12 9 -68v-11q0 -59 -10 -71h-258q-19 0 -28 15q-5 8 -7.5 22t-2.5 34v11q0 19 2.5 32.5t7.5 20.5q9 15 28 15h259zM444 165q9 -12 9 -68v-11q0 -59 -10 -71h-258q-19 0 -28 15q-5 8 -7.5 22t-2.5 34v11q0 19 2.5 32.5t7.5 20.5q9 15 28 15h259zM254 165
q9 -12 9 -68v-11q0 -59 -10 -71h-258q-19 0 -28 15q-5 8 -7.5 22t-2.5 34v11q0 19 2.5 32.5t7.5 20.5q9 15 28 15h259zM338 1441q-86 36 -86 118q0 68 54 109q21 15 70 15q58 0 89 -30q43 -42 43 -105q0 -25 -12 -62l-3 -12l-1 -3h2l14 -1q14 -1 30 -1q9 0 20 -1v-69
q-11 0 -22 0.5t-22 1.5q-25 1 -49 4l-6 1h-1l-1 -1l-3 -5q-12 -17 -26 -32t-31 -28t-36 -25q-159 -98 -278 -103v69q128 5 245 96q20 16 37 34l13 13l2 3h-3q-17 4 -39 14zM421 1484l9 21q9 20 9 43q0 18 -5 30.5t-15 20.5q-18 15 -39 15q-24 0 -37 -10q-20 -16 -20 -45
q0 -40 46 -59q18 -7 41 -14l9 -3h1z" />
    <glyph glyph-name="uniFE7B" unicode="&#xfe7b;" horiz-adv-x="642" arabic-form="medial" 
d="M654 165q9 -12 9 -68v-11q0 -59 -10 -71h-258q-19 0 -28 15q-5 8 -7.5 22t-2.5 34v11q0 19 2.5 32.5t7.5 20.5q9 15 28 15h259zM444 165q9 -12 9 -68v-11q0 -59 -10 -71h-258q-19 0 -28 15q-5 8 -7.5 22t-2.5 34v11q0 19 2.5 32.5t7.5 20.5q9 15 28 15h259zM254 165
q9 -12 9 -68v-11q0 -59 -10 -71h-258q-19 0 -28 15q-5 8 -7.5 22t-2.5 34v11q0 19 2.5 32.5t7.5 20.5q9 15 28 15h259zM125 -309v97l392 160v-97z" />
    <glyph glyph-name="uniFE7D" unicode="&#xfe7d;" horiz-adv-x="642" arabic-form="medial" 
d="M654 165q9 -12 9 -68v-11q0 -59 -10 -71h-258q-19 0 -28 15q-5 8 -7.5 22t-2.5 34v11q0 19 2.5 32.5t7.5 20.5q9 15 28 15h259zM444 165q9 -12 9 -68v-11q0 -59 -10 -71h-258q-19 0 -28 15q-5 8 -7.5 22t-2.5 34v11q0 19 2.5 32.5t7.5 20.5q9 15 28 15h259zM254 165
q9 -12 9 -68v-11q0 -59 -10 -71h-258q-19 0 -28 15q-5 8 -7.5 22t-2.5 34v11q0 19 2.5 32.5t7.5 20.5q9 15 28 15h259zM210 1334q-134 0 -135 151v119h67l1 -120q0 -66 67 -67q75 0 76 98l2 132h66l2 -124q1 -67 80 -67q62 0 63 100l2 131h70l-1 -130q-3 -182 -133 -182
q-38 0 -64.5 11.5t-42.5 33.5l-2 4l-1 -5q-22 -85 -117 -85z" />
    <glyph glyph-name="uniFE7F" unicode="&#xfe7f;" horiz-adv-x="642" arabic-form="medial" 
d="M654 165q9 -12 9 -68v-11q0 -59 -10 -71h-258q-19 0 -28 15q-5 8 -7.5 22t-2.5 34v11q0 19 2.5 32.5t7.5 20.5q9 15 28 15h259zM444 165q9 -12 9 -68v-11q0 -59 -10 -71h-258q-19 0 -28 15q-5 8 -7.5 22t-2.5 34v11q0 19 2.5 32.5t7.5 20.5q9 15 28 15h259zM254 165
q9 -12 9 -68v-11q0 -59 -10 -71h-258q-19 0 -28 15q-5 8 -7.5 22t-2.5 34v11q0 19 2.5 32.5t7.5 20.5q9 15 28 15h259zM438 1382q0 42 -28.5 70.5t-70.5 28.5q-6 0 -12 -0.5t-11.5 -1.5t-10.5 -3l-10 -4q-2 -1 -4.5 -2.5t-5.5 -2.5q-4 -3 -8.5 -6.5t-8.5 -7.5
q-14 -15 -21 -32q-4 -9 -5.5 -18.5t-1.5 -20.5q0 -42 28.5 -70.5t70.5 -28.5q21 0 38 7l4 2l4 2l4 2t3.5 2t3.5 2.5t3.5 2.5t3.5 2.5t3.5 3l3.5 3.5q14 14 21 32q4 9 5.5 18.5t1.5 19.5zM516 1382q0 -74 -51 -125q-26 -26 -57.5 -39t-68.5 -13q-9 0 -18 1t-17.5 2.5
t-16.5 3.5q-3 1 -5.5 2t-5.5 2t-5 2q-8 3 -15.5 7t-14.5 9t-14 10.5t-13 12.5q-26 25 -38.5 56.5t-12.5 68.5q0 13 1 25q0 2 0.5 5l1 6t1.5 6t1 5q2 6 3.5 11.5t3.5 10.5q5 10 10.5 20t12.5 19t16 18q51 51 125 51q15 0 29 -2t27 -6t25 -10.5t23 -14.5t22 -18q25 -26 38 -57
q3 -8 5.5 -16t4 -16.5t2.5 -17.5t1 -19z" />
    <glyph glyph-name="uniFE80" unicode="&#x621;" horiz-adv-x="807" arabic-form="isolated" 
d="M445 685q-16 0 -31 -1.5t-29 -4.5t-27 -7q-39 -14 -69 -42q-49 -47 -49 -126q0 -146 182 -192q35 -9 76 -9q71 0 160 43l37 -124l-519 -198l-47 112l196 69l46 16l6 2l-6 2l-48 12q-109 28 -162 96.5t-52 180.5q0 20 2 39.5t6 37.5t10 34.5t14.5 32t18.5 29.5t22.5 27
t27 24t30.5 22q41 25 90 37.5t106 13.5q80 0 144 -28v-118q-33 10 -66 15q-34 5 -69 5z" />
    <glyph glyph-name="uniFE81" unicode="&#x622;" horiz-adv-x="527" arabic-form="isolated" 
d="M219 1124.76h136v-1108.15h-136v1108.15zM177 1466h367l1 -128h-358q-110 0 -165 -73l-4 -4l-78 90l2 3q37 56 95.5 84t139.5 28z" />
    <glyph glyph-name="uniFE82" unicode="&#x622;" horiz-adv-x="571" arabic-form="final" 
d="M177 1466h367l1 -128h-358q-110 0 -165 -73l-4 -4l-78 90l2 3q37 56 95.5 84t139.5 28zM561 15h-74q-105 0 -173.5 39t-103 119t-34.5 202v743h139v-744q0 -101 44.5 -155t130.5 -54h72q9 -13 9 -68v-11q0 -42 -6 -61q-1 -7 -4 -10z" />
    <glyph glyph-name="uniFE83" unicode="&#x623;" horiz-adv-x="469" arabic-form="isolated" 
d="M189 1124.76h136v-1108.15h-136v1108.15zM22 1341l102 24l16 4l5 1l-4 2l-15 9q-72 45 -72 141q0 115 96 169q13 7 27 13q3 1 6.5 2.5t7 2.5l7 2t7.5 2t7.5 1.5t7.5 1.5t8 1.5t8 0.5q7 1 15.5 1.5t16.5 0.5q74 0 133 -35v-95q-12 6 -24.5 10t-26 6.5t-28 4t-29.5 1.5
q-61 -1 -93 -25t-33 -71q0 -26 10.5 -47t32 -36t52.5 -24l2 -1h1h1l162 27v-103l-406 -91v100z" />
    <glyph glyph-name="uniFE84" unicode="&#x623;" horiz-adv-x="571" arabic-form="final" 
d="M22 1341l102 24l16 4l5 1l-4 2l-15 9q-72 45 -72 141q0 115 96 169q13 7 27 13q3 1 6.5 2.5t7 2.5l7 2t7.5 2t7.5 1.5t7.5 1.5t8 1.5t8 0.5q7 1 15.5 1.5t16.5 0.5q74 0 133 -35v-95q-12 6 -24.5 10t-26 6.5t-28 4t-29.5 1.5q-61 -1 -93 -25t-33 -71q0 -26 10.5 -47
t32 -36t52.5 -24l2 -1h1h1l162 27v-103l-406 -91v100zM561 15h-74q-105 0 -173.5 39t-103 119t-34.5 202v743h139v-744q0 -101 44.5 -155t130.5 -54h72q9 -13 9 -68v-11q0 -42 -6 -61q-1 -7 -4 -10z" />
    <glyph glyph-name="uniFE85" unicode="&#x624;" horiz-adv-x="877" arabic-form="isolated" 
d="M219 926l102 24l16 4l5 1l-4 2l-15 9q-72 45 -72 141q0 115 96 169q13 7 27 13q3 1 6.5 2.5t7 2.5l7 2t7.5 2t7.5 1.5t7.5 1.5t8 1.5t8 0.5q7 1 15.5 1.5t16.5 0.5q74 0 133 -35v-95q-12 6 -24.5 10t-26 6.5t-28 4t-29.5 1.5q-61 -1 -93 -25t-33 -71q0 -26 10.5 -47
t32 -36t52.5 -24l2 -1h1h1l162 27v-103l-406 -91v100zM628 15h-17h-160q-169 0 -251 80.5t-82 252.5q1 214 121 300q82 59 206 61q138 1 231 -83q92 -85 92 -271v-357q0 -444 -553 -443h-59v149h53q418 -1 419 294v17zM255 336q0 -80 50 -125t145 -45h162h17l-1 183
q0 220 -182 219q-191 0 -191 -232z" />
    <glyph glyph-name="uniFE86" unicode="&#x624;" horiz-adv-x="933" arabic-form="final" 
d="M768 355v-173v-2v-15h15h2h152q4 -5 6 -23q3 -21 3 -45v-11q0 -41 -5 -61q-3 -10 -5 -10h-150h-2h-15v-15v-2q-8 -444 -554 -443h-59v149h53q418 -1 419 294v2v15h-15h-2h-160q-169 0 -251 81q-82 80 -82 246q1 178 84 272q85 95 248 96q143 0 227 -82q45 -43 67 -111
q23 -69 24 -162zM255 343q0 -87 50 -132.5t145 -45.5h162h2h15v15v2l-1 167q0 107 -46 163.5t-136 55.5q-95 0 -144 -58q-47 -57 -47 -167zM218 926l102 24l16 4l5 1l-4 2l-15 9q-72 45 -72 141q0 115 96 169q13 7 27 13q3 1 6.5 2.5t7 2.5l7 2t7.5 2t7.5 1.5t7.5 1.5t8 1.5
t8 0.5q7 1 15.5 1.5t16.5 0.5q74 0 133 -35v-95q-12 6 -24.5 10t-26 6.5t-28 4t-29.5 1.5q-61 -1 -93 -25t-33 -71q0 -26 10.5 -47t32 -36t52.5 -24l2 -1h1h1l162 27v-103l-406 -91v100z" />
    <glyph glyph-name="uniFE87" unicode="&#x625;" horiz-adv-x="469" arabic-form="isolated" 
d="M32 -494l102 24l16 4l5 1l-4 2l-15 9q-72 45 -72 141q0 115 96 169q13 7 27 13q3 1 6.5 2.5t7 2.5l7 2t7.5 2t7.5 1.5t7.5 1.5t8 1.5t8 0.5q7 1 15.5 1.5t16.5 0.5q74 0 133 -35v-95q-12 6 -24.5 10t-26 6.5t-28 4t-29.5 1.5q-61 -1 -93 -25t-33 -71q0 -26 10.5 -47
t32 -36t52.5 -24l2 -1h1h1l162 27v-103l-406 -91v100zM175 1319h136v-1303h-136v1303z" />
    <glyph glyph-name="uniFE88" unicode="&#x625;" horiz-adv-x="557" arabic-form="final" 
d="M112 -494l102 24l16 4l5 1l-4 2l-15 9q-72 45 -72 141q0 115 96 169q13 7 27 13q3 1 6.5 2.5t7 2.5l7 2t7.5 2t7.5 1.5t7.5 1.5t8 1.5t8 0.5q7 1 15.5 1.5t16.5 0.5q74 0 133 -35v-95q-12 6 -24.5 10t-26 6.5t-28 4t-29.5 1.5q-61 -1 -93 -25t-33 -71q0 -26 10.5 -47
t32 -36t52.5 -24l2 -1h1h1l162 27v-103l-406 -91v100zM561 15h-74q-105 0 -173.5 39t-103 119t-34.5 202v943h139v-944q0 -101 44.5 -155t130.5 -54h72q9 -13 9 -68v-11q0 -42 -6 -61q-1 -7 -4 -10z" />
    <glyph glyph-name="uniFE89" unicode="&#x626;" horiz-adv-x="1446" arabic-form="isolated" 
d="M268 804l102 24l16 4l5 1l-4 2l-15 9q-72 45 -72 141q0 115 96 169q13 7 27 13q3 1 6.5 2.5t7 2.5l7 2t7.5 2t7.5 1.5t7.5 1.5t8 1.5t8 0.5q7 1 15.5 1.5t16.5 0.5q74 0 133 -35v-95q-12 6 -24.5 10t-26 6.5t-28 4t-29.5 1.5q-61 -1 -93 -25t-33 -71q0 -26 10.5 -47
t32 -36t52.5 -24l2 -1h1h1l162 27v-103l-406 -91v100zM1061 214q137 0 202 -50.5t65 -154.5v-29q0 -208 -136.5 -311t-416.5 -103h-84q-484 0 -559 380q-15 73 -15 158v396h145v-395q0 -192 109 -290t322 -98h91q98 0 172.5 15t125.5 45t77.5 76.5t26.5 108.5v12
q0 80 -91 93q-17 3 -35 3h-161q-81 0 -118.5 36.5t-37.5 113.5v65q0 78 11.5 142t34 114t55.5 87q50 56 126 84.5t179 28.5h179l1 -155h-222q-106 0 -161.5 -75t-57.5 -219l-2 -60v-2v-16h15h2h158z" />
    <glyph glyph-name="uniFE8A" unicode="&#x626;" horiz-adv-x="1433" arabic-form="final" 
d="M1436 15h-100h-15h-2v-2v-15l-1 -77q-3 -178 -135 -268q-132 -89 -402 -89h-89q-290 0 -432 133q-142 132 -143 401v327l145 -1v-324q0 -191 108.5 -288.5t318.5 -97.5h96q391 0 391 214v70v15v2h-2h-15h-251q-18 0 -33 18t-26 59q-7 25 -8.5 43t-0.5 24q1 4 2 6h595
q9 -12 9 -68v-11q0 -29 -2.5 -47t-7.5 -24zM453 470l102 24l16 4l5 1l-4 2l-15 9q-72 45 -72 141q0 115 96 169q13 7 27 13q3 1 6.5 2.5t7 2.5l7 2t7.5 2t7.5 1.5t7.5 1.5t8 1.5t8 0.5q7 1 15.5 1.5t16.5 0.5q74 0 133 -35v-95q-12 6 -24.5 10t-26 6.5t-28 4t-29.5 1.5
q-61 -1 -93 -25t-33 -71q0 -26 10.5 -47t32 -36t52.5 -24l2 -1h1h1l162 27v-103l-406 -91v100z" />
    <glyph glyph-name="uniFE8B" unicode="&#x626;" horiz-adv-x="707" arabic-form="initial" 
d="M-5 15q-18 0 -28 15q-10 17 -10 56v11q0 19 2.5 32.5t7.5 20.5q9 15 28 15h233q217 0 217 208v279h144v-279q0 -358 -360 -358h-234zM179 891l102 24l16 4l5 1l-4 2l-15 9q-72 45 -72 141q0 115 96 169q13 7 27 13q3 1 6.5 2.5t7 2.5l7 2t7.5 2t7.5 1.5t7.5 1.5t8 1.5
t8 0.5q7 1 15.5 1.5t16.5 0.5q74 0 133 -35v-95q-12 6 -24.5 10t-26 6.5t-28 4t-29.5 1.5q-61 -1 -93 -25t-33 -71q0 -26 10.5 -47t32 -36t52.5 -24l2 -1h1h1l162 27v-103l-406 -91v100z" />
    <glyph glyph-name="uniFE8C" unicode="&#x626;" horiz-adv-x="857" arabic-form="medial" 
d="M861 15h-20q-219 0 -306 135l-1 2l-2 -2q-102 -135 -356 -135h-181q-19 0 -28 15q-10 17 -10 56v11q0 38 10 53q9 15 28 15h186q271 0 271 210v243h146v-243q0 -70 27 -116.5t81 -70t134 -23.5h21q4 -6 6.5 -23t2.5 -45v-11q0 -58 -9 -71zM220 859l102 24l16 4l5 1l-4 2
l-15 9q-72 45 -72 141q0 115 96 169q13 7 27 13q3 1 6.5 2.5t7 2.5l7 2t7.5 2t7.5 1.5t7.5 1.5t8 1.5t8 0.5q7 1 15.5 1.5t16.5 0.5q74 0 133 -35v-95q-12 6 -24.5 10t-26 6.5t-28 4t-29.5 1.5q-61 -1 -93 -25t-33 -71q0 -26 10.5 -47t32 -36t52.5 -24l2 -1h1h1l162 27v-103
l-406 -91v100z" />
    <glyph glyph-name="uniFE8D" unicode="&#x627;" horiz-adv-x="469" arabic-form="isolated" 
d="M175 1319h136v-1303h-136v1303z" />
    <glyph glyph-name="uniFE8E" unicode="&#x627;" horiz-adv-x="557" arabic-form="final" 
d="M561 15h-74q-105 0 -173.5 39t-103 119t-34.5 202v943h139v-944q0 -101 44.5 -155t130.5 -54h72q9 -13 9 -68v-11q0 -42 -6 -61q-1 -7 -4 -10z" />
    <glyph glyph-name="uniFE8F" unicode="&#x628;" horiz-adv-x="1901" arabic-form="isolated" 
d="M537 165h836q130 0 197.5 71t67.5 207v182h144v-179q0 -218 -103 -324.5t-313 -106.5h-832q-211 0 -314 105.5t-103 321.5v186h145v-185q0 -91 31 -153t92.5 -93.5t151.5 -31.5zM831 -308l91 91q29 29 52 6l98 -98q26 -26 -3 -55l-91 -91q-27 -27 -53 -1l-98 98
q-23 23 4 50z" />
    <glyph glyph-name="uniFE90" unicode="&#x628;" horiz-adv-x="2050" arabic-form="final" 
d="M831 -308l91 91q29 29 52 6l98 -98q26 -26 -3 -55l-91 -91q-27 -27 -53 -1l-98 98q-23 23 4 50zM537 165h814q143 0 217 59.5t74 175.5v217h147v-219q0 -57 16 -101t47.5 -73t78.5 -44t108 -15h16q9 -13 9 -68v-11q0 -58 -10 -71h-17q-106 0 -180 35.5t-118 107.5l-2 2
l-14 22l-12 -22l-2 -3q-38 -70 -128 -106t-232 -36h-815q-211 0 -314 105.5t-103 321.5v186h145v-185q0 -91 31 -153t92.5 -93.5t151.5 -31.5z" />
    <glyph glyph-name="uniFE91" unicode="&#x628;" horiz-adv-x="677" arabic-form="initial" 
d="M-5 15q-19 0 -28.5 16t-9.5 55v11q0 38 9.5 53t28.5 15h203q106 0 161.5 53t55.5 155v279h144v-279q0 -181 -89.5 -269.5t-272.5 -88.5h-202zM119 -308l91 91q29 29 52 6l98 -98q26 -26 -3 -55l-91 -91q-27 -27 -53 -1l-98 98q-23 23 4 50z" />
    <glyph glyph-name="uniFE92" unicode="&#x628;" horiz-adv-x="827" arabic-form="medial" 
d="M831 15h-20q-210 0 -296 129l-11 18l-13 -17q-100 -130 -345 -130h-151q-19 0 -28.5 16t-9.5 55v11q0 38 11 54q9 14 27 14h156q132 0 201.5 53t69.5 157v243h146v-243q0 -103 62 -156.5t180 -53.5h21q9 -13 9 -68v-11q0 -57 -9 -71zM179 -308l91 91q29 29 52 6l98 -98
q26 -26 -3 -55l-91 -91q-27 -27 -53 -1l-98 98q-23 23 4 50z" />
    <glyph glyph-name="uniFE93" unicode="&#x629;" horiz-adv-x="924" arabic-form="isolated" 
d="M519 1212l91 91q27 27 48 6l98 -98q24 -24 -3 -51l-91 -91q-25 -25 -49 -1l-98 98q-10 10 -9 21.5t13 24.5zM172 1212l91 91q27 27 48 6l98 -98q24 -24 -3 -51l-91 -91q-25 -25 -49 -1l-98 98q-20 21 4 46zM447 636q-64 -54 -106 -105t-64 -102t-22 -100q0 -83 56 -125
t161 -42q65 0 110 19t68.5 57.5t23.5 94.5q0 137 -206 303l-1 1l-10 8l-9 -8zM118 312q0 207 232 417l1 1l12 11l-12 12l-1 1l-27 25l85 99q405 -294 404 -551q0 -158 -84 -234.5t-258 -76.5q-179 0 -265.5 73.5t-86.5 222.5z" />
    <glyph glyph-name="uniFE94" unicode="&#x629;" horiz-adv-x="1084" arabic-form="final" 
d="M629 1223l91 91q27 27 48 6l98 -98q24 -24 -3 -51l-91 -91q-25 -25 -49 -1l-98 98q-10 10 -9 21.5t13 24.5zM282 1223l91 91q27 27 48 6l98 -98q24 -24 -3 -51l-91 -91q-25 -25 -49 -1l-98 98q-20 21 4 46zM1088 15h-45q-120 0 -193 44t-104 133l-4 12l-13 -2
q-20 -4 -41.5 -7t-44 -5t-46 -3.5t-47.5 -2.5t-49 -1q-200 0 -296 63.5t-96 190.5q0 303 490 379l16 3l-3 15l-10 50l139 26l95 -545q17 -98 72.5 -149t145.5 -51h35q10 -10 10 -66v-11q0 -61 -11 -73zM703 363l-55 296l-3 14l-14 -2q-385 -49 -385 -221q0 -123 242 -122
q108 0 203 17l14 3z" />
    <glyph glyph-name="uniFE95" unicode="&#x62a;" horiz-adv-x="1901" arabic-form="isolated" 
d="M537 165h836q130 0 197.5 71t67.5 207v182h144v-179q0 -218 -103 -324.5t-313 -106.5h-832q-211 0 -314 105.5t-103 321.5v186h145v-185q0 -91 31 -153t92.5 -93.5t151.5 -31.5zM1006 918l91 91q27 27 48 6l98 -98q24 -24 -3 -51l-91 -91q-25 -25 -49 -1l-98 98
q-10 10 -9 21.5t13 24.5zM659 918l91 91q27 27 48 6l98 -98q24 -24 -3 -51l-91 -91q-25 -25 -49 -1l-98 98q-20 21 4 46z" />
    <glyph glyph-name="uniFE96" unicode="&#x62a;" horiz-adv-x="2050" arabic-form="final" 
d="M1006 918l91 91q27 27 48 6l98 -98q24 -24 -3 -51l-91 -91q-25 -25 -49 -1l-98 98q-10 10 -9 21.5t13 24.5zM659 918l91 91q27 27 48 6l98 -98q24 -24 -3 -51l-91 -91q-25 -25 -49 -1l-98 98q-20 21 4 46zM537 165h814q143 0 217 59.5t74 175.5v217h147v-219
q0 -57 16 -101t47.5 -73t78.5 -44t108 -15h16q9 -13 9 -68v-11q0 -58 -10 -71h-17q-106 0 -180 35.5t-118 107.5l-2 2l-14 22l-12 -22l-2 -3q-38 -70 -128 -106t-232 -36h-815q-211 0 -314 105.5t-103 321.5v186h145v-185q0 -91 31 -153t92.5 -93.5t151.5 -31.5z" />
    <glyph glyph-name="uniFE97" unicode="&#x62a;" horiz-adv-x="696" arabic-form="initial" 
d="M-5 15q-18 0 -28 15q-10 17 -10 56v11q0 19 2.5 32.5t7.5 20.5q9 15 28 15h233q217 0 217 208v279h144v-279q0 -358 -360 -358h-234zM412 1060l91 91q27 27 48 6l98 -98q24 -24 -3 -51l-91 -91q-25 -25 -49 -1l-98 98q-10 10 -9 21.5t13 24.5zM65 1060l91 91q27 27 48 6
l98 -98q24 -24 -3 -51l-91 -91q-25 -25 -49 -1l-98 98q-20 21 4 46z" />
    <glyph glyph-name="uniFE98" unicode="&#x62a;" horiz-adv-x="857" arabic-form="medial" 
d="M432 1060l91 91q27 27 48 6l98 -98q24 -24 -3 -51l-91 -91q-25 -25 -49 -1l-98 98q-10 10 -9 21.5t13 24.5zM85 1060l91 91q27 27 48 6l98 -98q24 -24 -3 -51l-91 -91q-25 -25 -49 -1l-98 98q-20 21 4 46zM861 15h-20q-219 0 -306 135l-1 2l-2 -2q-102 -135 -356 -135
h-181q-19 0 -28 15q-10 17 -10 56v11q0 38 10 53q9 15 28 15h186q271 0 271 210v243h146v-243q0 -70 27 -116.5t81 -70t134 -23.5h21q4 -6 6.5 -23t2.5 -45v-11q0 -58 -9 -71z" />
    <glyph glyph-name="uniFE99" unicode="&#x62b;" horiz-adv-x="1901" arabic-form="isolated" 
d="M537 165h836q130 0 197.5 71t67.5 207v182h144v-179q0 -218 -103 -324.5t-313 -106.5h-832q-211 0 -314 105.5t-103 321.5v186h145v-185q0 -91 31 -153t92.5 -93.5t151.5 -31.5zM1008 835l91 91q13 13 24 14t20 -8l98 -98q7 -8 9 -15.5t-1 -15t-11 -16.5l-91 -91
q-23 -23 -45 -1l-97 98q-7 6 -9 12.5t1 14t11 15.5zM661 835l91 91q25 25 44 6l98 -98q20 -23 -3 -47l-91 -91q-23 -23 -45 -1l-97 98q-19 19 3 42zM894 834zM834 1121l91 91q26 26 44 6v0l98 -98q22 -22 -3 -47l-91 -91q-12 -11 -23 -11.5t-22 10.5l-97 98q-5 5 -7.5 10
t-2 10t3.5 10.5t9 11.5z" />
    <glyph glyph-name="uniFE9A" unicode="&#x62b;" horiz-adv-x="2050" arabic-form="final" 
d="M1008 835l91 91q13 13 24 14t20 -8l98 -98q7 -8 9 -15.5t-1 -15t-11 -16.5l-91 -91q-23 -23 -45 -1l-97 98q-7 6 -9 12.5t1 14t11 15.5zM661 835l91 91q25 25 44 6l98 -98q20 -23 -3 -47l-91 -91q-23 -23 -45 -1l-97 98q-19 19 3 42zM894 834zM834 1121l91 91q26 26 44 6
v0l98 -98q22 -22 -3 -47l-91 -91q-12 -11 -23 -11.5t-22 10.5l-97 98q-5 5 -7.5 10t-2 10t3.5 10.5t9 11.5zM537 165h814q143 0 217 59.5t74 175.5v217h147v-219q0 -57 16 -101t47.5 -73t78.5 -44t108 -15h16q9 -13 9 -68v-11q0 -58 -10 -71h-17q-106 0 -180 35.5
t-118 107.5l-2 2l-14 22l-12 -22l-2 -3q-38 -70 -128 -106t-232 -36h-815q-211 0 -314 105.5t-103 321.5v186h145v-185q0 -91 31 -153t92.5 -93.5t151.5 -31.5z" />
    <glyph glyph-name="uniFE9B" unicode="&#x62b;" horiz-adv-x="722" arabic-form="initial" 
d="M-5 15q-18 0 -28 15q-10 17 -10 56v11q0 19 2.5 32.5t7.5 20.5q9 15 28 15h233q217 0 217 208v279h144v-279q0 -358 -360 -358h-234zM424 1015l91 91q13 13 24 14t20 -8l98 -98q7 -8 9 -15.5t-1 -15t-11 -16.5l-91 -91q-23 -23 -45 -1l-97 98q-7 6 -9 12.5t1 14t11 15.5z
M77 1015l91 91q25 25 44 6l98 -98q20 -23 -3 -47l-91 -91q-23 -23 -45 -1l-97 98q-19 19 3 42zM310 1014zM250 1301l91 91q26 26 44 6v0l98 -98q22 -22 -3 -47l-91 -91q-12 -11 -23 -11.5t-22 10.5l-97 98q-5 5 -7.5 10t-2 10t3.5 10.5t9 11.5z" />
    <glyph glyph-name="uniFE9C" unicode="&#x62b;" horiz-adv-x="857" arabic-form="medial" 
d="M436 1000l91 91q13 13 24 14t20 -8l98 -98q7 -8 9 -15.5t-1 -15t-11 -16.5l-91 -91q-23 -23 -45 -1l-97 98q-7 6 -9 12.5t1 14t11 15.5zM89 1000l91 91q25 25 44 6l98 -98q20 -23 -3 -47l-91 -91q-23 -23 -45 -1l-97 98q-19 19 3 42zM322 999zM262 1286l91 91q26 26 44 6
v0l98 -98q22 -22 -3 -47l-91 -91q-12 -11 -23 -11.5t-22 10.5l-97 98q-5 5 -7.5 10t-2 10t3.5 10.5t9 11.5zM861 15h-20q-219 0 -306 135l-1 2l-2 -2q-102 -135 -356 -135h-181q-19 0 -28 15q-10 17 -10 56v11q0 38 10 53q9 15 28 15h186q271 0 271 210v243h146v-243
q0 -70 27 -116.5t81 -70t134 -23.5h21q4 -6 6.5 -23t2.5 -45v-11q0 -58 -9 -71z" />
    <glyph glyph-name="uniFE9D" unicode="&#x62c;" horiz-adv-x="1319" arabic-form="isolated" 
d="M685 -98l91 91q29 29 52 6l98 -98q26 -26 -3 -55l-91 -91q-27 -27 -53 -1l-98 98q-23 23 4 50zM1074 337q-397 -56 -609 -188q-206 -128 -206 -329q-1 -39 6 -74.5t21 -66t35 -57.5q62 -79 184 -118q121 -38 299 -38h397v-146h-409q-192 1 -327 39q-135 37 -212 111
q-139 134 -136 344q6 513 810 634l42 7h6l-5 3l-38 22l-118 68q-278 160 -507 -22l-60 -48l-96 107l50 42q304 261 637 68l189 -111q48 -27 91 -46q21 -9 41.5 -16t40.5 -11v-157q-63 -8 -126 -17z" />
    <glyph glyph-name="uniFE9E" unicode="&#x62c;" horiz-adv-x="1359" arabic-form="final" 
d="M605 -128l91 91q29 29 52 6l98 -98q26 -26 -3 -55l-91 -91q-27 -27 -53 -1l-98 98q-23 23 4 50zM932 480l-118 68q-278 160 -507 -22l-60 -48l-96 107l50 42q304 261 637 68l189 -111q94 -54 173 -73v-153q-70 -7 -125 -18l-12 -2l-2 -1v-1v-13q0 -40 16.5 -69.5
t49.5 -49.5t79.5 -29.5t106.5 -9.5h50q9 -12 9 -68v-11q0 -29 -2.5 -47t-7.5 -24h-50q-86 0 -151.5 17t-111.5 50q-91 67 -108 203l-2 15v2h-2l-16 -2q-661 -102 -662 -480q-1 -39 6 -74.5t21 -66t35 -57.5q62 -79 184 -118q121 -38 299 -38h397v-146h-409q-192 1 -327 39
q-135 37 -212 111q-139 134 -136 344q6 513 810 634l42 7h6l-5 3z" />
    <glyph glyph-name="uniFE9F" unicode="&#x62c;" horiz-adv-x="1282" arabic-form="initial" 
d="M383 -308l91 91q29 29 52 6l98 -98q26 -26 -3 -55l-91 -91q-27 -27 -53 -1l-98 98q-23 23 4 50zM-5 15q-19 0 -28.5 16t-9.5 55v11q0 38 11 54q9 14 27 14h305q213 0 393 94l278 145l3 2l24 12l-23 14l-3 2l-190 110q-277 160 -508 -23l-60 -48l-95 107l49 42
q306 258 638 67l188 -109q48 -27 91 -45.5t82 -28.5v-158l-400 -217q-107 -58 -223 -87t-242 -29h-307z" />
    <glyph glyph-name="uniFEA0" unicode="&#x62c;" horiz-adv-x="1329" arabic-form="medial" 
d="M383 -308l91 91q29 29 52 6l98 -98q26 -26 -3 -55l-91 -91q-27 -27 -53 -1l-98 98q-23 23 4 50zM884 195l-117 -64q-107 -58 -223 -87t-242 -29h-307q-19 0 -28.5 16t-9.5 55v11q0 38 11 54q9 14 27 14h305q213 0 393 94l278 145l3 2l24 12l-23 14l-3 2l-190 110
q-277 160 -508 -23l-60 -48l-95 107l49 42q306 258 638 67l188 -109q94 -54 173 -73v-159l-146 -79l-2 -1l-18 -9l14 -15l2 -2q38 -38 87 -57.5t109 -19.5h120q3 -5 6 -23t3 -45v-11q0 -41 -6 -61q-1 -7 -4 -10h-116q-209 0 -309 173l-1 2l-8 13l-12 -7z" />
    <glyph glyph-name="uniFEA1" unicode="&#x62d;" horiz-adv-x="1319" arabic-form="isolated" 
d="M1074 337q-397 -56 -609 -188q-206 -128 -206 -329q-1 -39 6 -74.5t21 -66t35 -57.5q62 -79 184 -118q121 -38 299 -38h397v-146h-409q-192 1 -327 39q-135 37 -212 111q-139 134 -136 344q6 513 810 634l42 7h6l-5 3l-38 22l-118 68q-278 160 -507 -22l-60 -48l-96 107
l50 42q304 261 637 68l189 -111q48 -27 91 -46q21 -9 41.5 -16t40.5 -11v-157q-63 -8 -126 -17z" />
    <glyph glyph-name="uniFEA2" unicode="&#x62d;" horiz-adv-x="1359" arabic-form="final" 
d="M932 480l-118 68q-278 160 -507 -22l-60 -48l-96 107l50 42q304 261 637 68l189 -111q94 -54 173 -73v-153q-70 -7 -125 -18l-12 -2l-2 -1v-1v-13q0 -40 16.5 -69.5t49.5 -49.5t79.5 -29.5t106.5 -9.5h50q9 -12 9 -68v-11q0 -29 -2.5 -47t-7.5 -24h-50q-86 0 -151.5 17
t-111.5 50q-91 67 -108 203l-2 15v2h-2l-16 -2q-661 -102 -662 -480q-1 -39 6 -74.5t21 -66t35 -57.5q62 -79 184 -118q121 -38 299 -38h397v-146h-409q-192 1 -327 39q-135 37 -212 111q-139 134 -136 344q6 513 810 634l42 7h6l-5 3z" />
    <glyph glyph-name="uniFEA3" unicode="&#x62d;" horiz-adv-x="1282" arabic-form="initial" 
d="M-5 15q-19 0 -28.5 16t-9.5 55v11q0 38 11 54q9 14 27 14h305q213 0 393 94l278 145l3 2l24 12l-23 14l-3 2l-190 110q-277 160 -508 -23l-60 -48l-95 107l49 42q306 258 638 67l188 -109q48 -27 91 -45.5t82 -28.5v-158l-400 -217q-107 -58 -223 -87t-242 -29h-307z" />
    <glyph glyph-name="uniFEA4" unicode="&#x62d;" horiz-adv-x="1329" arabic-form="medial" 
d="M884 195l-117 -64q-107 -58 -223 -87t-242 -29h-307q-19 0 -28.5 16t-9.5 55v11q0 38 11 54q9 14 27 14h305q213 0 393 94l278 145l3 2l24 12l-23 14l-3 2l-190 110q-277 160 -508 -23l-60 -48l-95 107l49 42q306 258 638 67l188 -109q94 -54 173 -73v-159l-146 -79
l-2 -1l-18 -9l14 -15l2 -2q38 -38 87 -57.5t109 -19.5h120q3 -5 6 -23t3 -45v-11q0 -41 -6 -61q-1 -7 -4 -10h-116q-209 0 -309 173l-1 2l-8 13l-12 -7z" />
    <glyph glyph-name="uniFEA5" unicode="&#x62e;" horiz-adv-x="1319" arabic-form="isolated" 
d="M466 1173l91 91q29 29 52 6l98 -98q26 -26 -3 -55l-91 -91q-27 -27 -53 -1l-98 98q-23 23 4 50zM1074 337q-397 -56 -609 -188q-206 -128 -206 -329q-1 -39 6 -74.5t21 -66t35 -57.5q62 -79 184 -118q121 -38 299 -38h397v-146h-409q-192 1 -327 39q-135 37 -212 111
q-139 134 -136 344q6 513 810 634l42 7h6l-5 3l-38 22l-118 68q-278 160 -507 -22l-60 -48l-96 107l50 42q304 261 637 68l189 -111q48 -27 91 -46q21 -9 41.5 -16t40.5 -11v-157q-63 -8 -126 -17z" />
    <glyph glyph-name="uniFEA6" unicode="&#x62e;" horiz-adv-x="1359" arabic-form="final" 
d="M466 1173l91 91q29 29 52 6l98 -98q26 -26 -3 -55l-91 -91q-27 -27 -53 -1l-98 98q-23 23 4 50zM932 480l-118 68q-278 160 -507 -22l-60 -48l-96 107l50 42q304 261 637 68l189 -111q94 -54 173 -73v-153q-70 -7 -125 -18l-12 -2l-2 -1v-1v-13q0 -40 16.5 -69.5
t49.5 -49.5t79.5 -29.5t106.5 -9.5h50q9 -12 9 -68v-11q0 -29 -2.5 -47t-7.5 -24h-50q-86 0 -151.5 17t-111.5 50q-91 67 -108 203l-2 15v2h-2l-16 -2q-661 -102 -662 -480q-1 -39 6 -74.5t21 -66t35 -57.5q62 -79 184 -118q121 -38 299 -38h397v-146h-409q-192 1 -327 39
q-135 37 -212 111q-139 134 -136 344q6 513 810 634l42 7h6l-5 3z" />
    <glyph glyph-name="uniFEA7" unicode="&#x62e;" horiz-adv-x="1282" arabic-form="initial" 
d="M435 1173l91 91q29 29 52 6l98 -98q26 -26 -3 -55l-91 -91q-27 -27 -53 -1l-98 98q-23 23 4 50zM-5 15q-19 0 -28.5 16t-9.5 55v11q0 38 11 54q9 14 27 14h305q213 0 393 94l278 145l3 2l24 12l-23 14l-3 2l-190 110q-277 160 -508 -23l-60 -48l-95 107l49 42
q306 258 638 67l188 -109q48 -27 91 -45.5t82 -28.5v-158l-400 -217q-107 -58 -223 -87t-242 -29h-307z" />
    <glyph glyph-name="uniFEA8" unicode="&#x62e;" horiz-adv-x="1329" arabic-form="medial" 
d="M435 1173l91 91q29 29 52 6l98 -98q26 -26 -3 -55l-91 -91q-27 -27 -53 -1l-98 98q-23 23 4 50zM884 195l-117 -64q-107 -58 -223 -87t-242 -29h-307q-19 0 -28.5 16t-9.5 55v11q0 38 11 54q9 14 27 14h305q213 0 393 94l278 145l3 2l24 12l-23 14l-3 2l-190 110
q-277 160 -508 -23l-60 -48l-95 107l49 42q306 258 638 67l188 -109q94 -54 173 -73v-159l-146 -79l-2 -1l-18 -9l14 -15l2 -2q38 -38 87 -57.5t109 -19.5h120q3 -5 6 -23t3 -45v-11q0 -41 -6 -61q-1 -7 -4 -10h-116q-209 0 -309 173l-1 2l-8 13l-12 -7z" />
    <glyph glyph-name="uniFEA9" unicode="&#x62f;" horiz-adv-x="979" arabic-form="isolated" 
d="M467 15h-349v150h350q277 0 278 142q-1 74 -106 196l-265 306l100 113l288 -335q130 -151 129 -292q0 -140 -104.5 -210t-320.5 -70z" />
    <glyph glyph-name="uniFEAA" unicode="&#x62f;" horiz-adv-x="1204" arabic-form="final" 
d="M1207 15h-14q-89 0 -166.5 41t-144.5 125l-16 20l-2 3l-2 -3l-9 -25q-61 -161 -370 -161h-364v150h351q18 0 36 1q242 8 238 140q-1 15 -5.5 32.5t-13.5 36.5t-21.5 39.5t-29 42.5t-37.5 46l-264 306l102 112l525 -632q51 -62 101.5 -93t98.5 -31h8q4 -6 6.5 -23t2.5 -45
v-11q0 -29 -2.5 -47t-7.5 -24z" />
    <glyph glyph-name="uniFEAB" unicode="&#x630;" horiz-adv-x="1011" arabic-form="isolated" 
d="M261 1286l91 91q29 29 52 6l98 -98q26 -26 -3 -55l-91 -91q-27 -27 -53 -1l-98 98q-23 23 4 50zM468 15h-349v150h350q277 0 278 142q-1 74 -106 196l-265 306l100 113l288 -335q130 -151 129 -292q0 -140 -104.5 -210t-320.5 -70z" />
    <glyph glyph-name="uniFEAC" unicode="&#x630;" horiz-adv-x="1204" arabic-form="final" 
d="M261 1286l91 91q29 29 52 6l98 -98q26 -26 -3 -55l-91 -91q-27 -27 -53 -1l-98 98q-23 23 4 50zM1207 15h-14q-89 0 -166.5 41t-144.5 125l-16 20l-2 3l-2 -3l-9 -25q-61 -161 -370 -161h-364v150h351q18 0 36 1q242 8 238 140q-1 15 -5.5 32.5t-13.5 36.5t-21.5 39.5
t-29 42.5t-37.5 46l-264 306l102 112l525 -632q51 -62 101.5 -93t98.5 -31h8q4 -6 6.5 -23t2.5 -45v-11q0 -29 -2.5 -47t-7.5 -24z" />
    <glyph glyph-name="uniFEAD" unicode="&#x631;" horiz-adv-x="755" arabic-form="isolated" 
d="M94 -299q403 -1 403 370v519l144 1v-523q0 -510 -545 -514l-57 -1v148h55z" />
    <glyph glyph-name="uniFEAE" unicode="&#x631;" horiz-adv-x="883" arabic-form="final" 
d="M896 86q0 -58 -10 -71h-14q-155 0 -229 96v-45q0 -259 -135 -386q-135 -128 -413 -127h-56v149h52q408 1 408 367v521l143 1v-208q0 -128 82 -181q57 -37 148 -37h15q9 -12 9 -68v-11z" />
    <glyph glyph-name="uniFEAF" unicode="&#x632;" horiz-adv-x="755" arabic-form="isolated" 
d="M405 1048l91 91q29 29 52 6l98 -98q26 -26 -3 -55l-91 -91q-27 -27 -53 -1l-98 98q-23 23 4 50zM94 -299q403 -1 403 370v519l144 1v-523q0 -510 -545 -514l-57 -1v148h55z" />
    <glyph glyph-name="uniFEB0" unicode="&#x632;" horiz-adv-x="883" arabic-form="final" 
d="M411 1048l91 91q29 29 52 6l98 -98q26 -26 -3 -55l-91 -91q-27 -27 -53 -1l-98 98q-23 23 4 50zM896 86q0 -58 -10 -71h-14q-155 0 -229 96v-45q0 -259 -135 -386q-135 -128 -413 -127h-56v149h52q408 1 408 367v521l143 1v-208q0 -128 82 -181q57 -37 148 -37h15
q9 -12 9 -68v-11z" />
    <glyph glyph-name="uniFEB1" unicode="&#x633;" horiz-adv-x="2484" arabic-form="isolated" 
d="M1534 14q-128 1 -218 95l-3 3v-5v-27v-28q0 -123 -35 -214.5t-105 -152.5q-139 -121 -424 -121h-55q-290 0 -433 133q-71 67 -107 168t-36 236v326h147v-325q0 -191 109 -289t322 -98h51q213 0 322 83q110 84 110 248v570h146v-219q0 -233 208 -233q184 0 185 208v246
h146l1 -244q0 -104 48 -156.5t142 -53.5q167 -2 167 206v280h145v-288q0 -59 -8.5 -108t-25.5 -87.5t-43 -67.5q-77 -85 -234 -85q-180 0 -256 148l-2 4l-2 -4q-70 -150 -262 -148z" />
    <glyph glyph-name="uniFEB2" unicode="&#x633;" horiz-adv-x="2632" arabic-form="final" 
d="M1865 374q1 -208 183 -210q180 -2 180 209l-1 246h144l1 -244q1 -105 60.5 -157.5t177.5 -52.5h26l2 -5l3 -13q1 -3 1.5 -6t1 -7t0.5 -9q0 -6 0.5 -11.5t0.5 -9v-5.5v-2v-11q0 -58 -9 -71h-19q-43 0 -81.5 5.5t-72 17t-62 28.5t-52 40t-42.5 51l-2 3l-1 -3
q-66 -142 -248 -143q-181 0 -256 148l-2 4l-1 -4q-71 -150 -263 -148q-128 1 -218 95l-3 3v-5v-27v-28q0 -123 -35 -214.5t-105 -152.5q-139 -121 -424 -121h-55q-290 0 -433 133q-71 67 -107 168t-36 236v326h147v-325q0 -191 109 -289t322 -98h51q213 0 322 83
q110 84 110 248v570h146v-219q0 -76 23.5 -128t69.5 -78t116 -27q36 0 65.5 8t51.5 24.5t37 41.5t22 58.5t8 75.5v246h146z" />
    <glyph glyph-name="uniFEB3" unicode="&#x633;" horiz-adv-x="1643" arabic-form="initial" 
d="M1023 375q1 -104 49.5 -156.5t144.5 -53.5q83 -1 122 53q41 58 41 153v280h145v-288q0 -177 -74 -263q-75 -85 -226 -85q-190 0 -267 146l-1 3l-2 -3q-68 -146 -273 -146q-187 0 -263 143l-1 3l-2 -3q-87 -143 -327 -143h-94q-19 0 -28 15q-10 17 -10 56v11q0 38 10 53
q9 15 28 15h95q120 0 183.5 53t63.5 156v245h147v-247q1 -206 198 -207q194 -1 194 208l1 246h145z" />
    <glyph glyph-name="uniFEB4" unicode="&#x633;" horiz-adv-x="1791" arabic-form="medial" 
d="M1531 375q1 -210 238 -210h26q10 -12 10 -68v-11q0 -57 -10 -71h-18q-109 0 -186.5 35.5t-123.5 106.5l-2 4l-2 -4q-63 -142 -254 -142q-176 0 -251 144l-1 4l-2 -4q-76 -144 -273 -144q-187 0 -263 144l-1 3l-2 -3q-87 -144 -327 -144h-94q-19 0 -28 15q-10 17 -10 56
v11q0 38 10 53q9 15 28 15h95q246 0 247 209v245h147v-247q1 -205 198 -207q194 -2 195 209v245h147v-247q1 -206 185 -207q178 -1 178 208v246h143z" />
    <glyph glyph-name="uniFEB5" unicode="&#x634;" horiz-adv-x="2484" arabic-form="isolated" 
d="M1808 1008l91 91q13 13 24 14t20 -8l98 -98q7 -8 9 -15.5t-1 -15t-11 -16.5l-91 -91q-23 -23 -45 -1l-97 98q-7 6 -9 12.5t1 14t11 15.5zM1461 1008l91 91q25 25 44 6l98 -98q20 -23 -3 -47l-91 -91q-23 -23 -45 -1l-97 98q-19 19 3 42zM1694 1007zM1634 1294l91 91
q26 26 44 6v0l98 -98q22 -22 -3 -47l-91 -91q-12 -11 -23 -11.5t-22 10.5l-97 98q-5 5 -7.5 10t-2 10t3.5 10.5t9 11.5zM1534 14q-128 1 -218 95l-3 3v-5v-27v-28q0 -123 -35 -214.5t-105 -152.5q-139 -121 -424 -121h-55q-290 0 -433 133q-71 67 -107 168t-36 236v326h147
v-325q0 -191 109 -289t322 -98h51q213 0 322 83q110 84 110 248v570h146v-219q0 -233 208 -233q184 0 185 208v246h146l1 -244q0 -104 48 -156.5t142 -53.5q167 -2 167 206v280h145v-288q0 -59 -8.5 -108t-25.5 -87.5t-43 -67.5q-77 -85 -234 -85q-180 0 -256 148l-2 4
l-2 -4q-70 -150 -262 -148z" />
    <glyph glyph-name="uniFEB6" unicode="&#x634;" horiz-adv-x="2632" arabic-form="final" 
d="M1808 1008l91 91q13 13 24 14t20 -8l98 -98q7 -8 9 -15.5t-1 -15t-11 -16.5l-91 -91q-23 -23 -45 -1l-97 98q-7 6 -9 12.5t1 14t11 15.5zM1461 1008l91 91q25 25 44 6l98 -98q20 -23 -3 -47l-91 -91q-23 -23 -45 -1l-97 98q-19 19 3 42zM1694 1007zM1634 1294l91 91
q26 26 44 6v0l98 -98q22 -22 -3 -47l-91 -91q-12 -11 -23 -11.5t-22 10.5l-97 98q-5 5 -7.5 10t-2 10t3.5 10.5t9 11.5zM1865 374q1 -208 183 -210q180 -2 180 209l-1 246h144l1 -244q1 -105 60.5 -157.5t177.5 -52.5h26l2 -5l3 -13q1 -3 1.5 -6t1 -7t0.5 -9q0 -6 0.5 -11.5
t0.5 -9v-5.5v-2v-11q0 -58 -9 -71h-19q-43 0 -81.5 5.5t-72 17t-62 28.5t-52 40t-42.5 51l-2 3l-1 -3q-66 -142 -248 -143q-181 0 -256 148l-2 4l-1 -4q-71 -150 -263 -148q-128 1 -218 95l-3 3v-5v-27v-28q0 -123 -35 -214.5t-105 -152.5q-139 -121 -424 -121h-55
q-290 0 -433 133q-71 67 -107 168t-36 236v326h147v-325q0 -191 109 -289t322 -98h51q213 0 322 83q110 84 110 248v570h146v-219q0 -76 23.5 -128t69.5 -78t116 -27q36 0 65.5 8t51.5 24.5t37 41.5t22 58.5t8 75.5v246h146z" />
    <glyph glyph-name="uniFEB7" unicode="&#x634;" horiz-adv-x="1643" arabic-form="initial" 
d="M979 1008l91 91q13 13 24 14t20 -8l98 -98q7 -8 9 -15.5t-1 -15t-11 -16.5l-91 -91q-23 -23 -45 -1l-97 98q-7 6 -9 12.5t1 14t11 15.5zM632 1008l91 91q25 25 44 6l98 -98q20 -23 -3 -47l-91 -91q-23 -23 -45 -1l-97 98q-19 19 3 42zM865 1007zM805 1294l91 91
q26 26 44 6v0l98 -98q22 -22 -3 -47l-91 -91q-12 -11 -23 -11.5t-22 10.5l-97 98q-5 5 -7.5 10t-2 10t3.5 10.5t9 11.5zM1023 375q1 -104 49.5 -156.5t144.5 -53.5q83 -1 122 53q41 58 41 153v280h145v-288q0 -177 -74 -263q-75 -85 -226 -85q-190 0 -267 146l-1 3l-2 -3
q-68 -146 -273 -146q-187 0 -263 143l-1 3l-2 -3q-87 -143 -327 -143h-94q-19 0 -28 15q-10 17 -10 56v11q0 38 10 53q9 15 28 15h95q120 0 183.5 53t63.5 156v245h147v-247q1 -206 198 -207q194 -1 194 208l1 246h145z" />
    <glyph glyph-name="uniFEB8" unicode="&#x634;" horiz-adv-x="1791" arabic-form="medial" 
d="M979 1008l91 91q13 13 24 14t20 -8l98 -98q7 -8 9 -15.5t-1 -15t-11 -16.5l-91 -91q-23 -23 -45 -1l-97 98q-7 6 -9 12.5t1 14t11 15.5zM632 1008l91 91q25 25 44 6l98 -98q20 -23 -3 -47l-91 -91q-23 -23 -45 -1l-97 98q-19 19 3 42zM865 1007zM805 1294l91 91
q26 26 44 6v0l98 -98q22 -22 -3 -47l-91 -91q-12 -11 -23 -11.5t-22 10.5l-97 98q-5 5 -7.5 10t-2 10t3.5 10.5t9 11.5zM1531 375q1 -210 238 -210h26q10 -12 10 -68v-11q0 -57 -10 -71h-18q-109 0 -186.5 35.5t-123.5 106.5l-2 4l-2 -4q-63 -142 -254 -142q-176 0 -251 144
l-1 4l-2 -4q-76 -144 -273 -144q-187 0 -263 144l-1 3l-2 -3q-87 -144 -327 -144h-94q-19 0 -28 15q-10 17 -10 56v11q0 38 10 53q9 15 28 15h95q246 0 247 209v245h147v-247q1 -205 198 -207q194 -2 195 209v245h147v-247q1 -206 185 -207q178 -1 178 208v246h143z" />
    <glyph glyph-name="uniFEB9" unicode="&#x635;" horiz-adv-x="2515" arabic-form="isolated" 
d="M1325 417q0 -95 26.5 -152.5t82.5 -71.5l1 -1l13 -3l5 12l1 2q226 557 564 557q198 0 299 -135q81 -106 81 -258q-1 -170 -128 -269q-108 -83 -309 -83h-340q-77 0 -134.5 9.5t-93.5 27.5t-53 43l-27 41v-49v-35q0 -246 -139.5 -367t-424.5 -121h-55q-486 0 -562 380
q-14 72 -14 157v326h147v-325q0 -191 109 -289t322 -98h51q213 0 322.5 83.5t109.5 248.5v569h146v-199zM2241 425q-8 36 -23 65t-35.5 51t-47 36.5t-58.5 22t-70 7.5q-27 0 -53.5 -7t-52.5 -20.5t-51.5 -33.5t-50.5 -46.5t-49.5 -59.5t-48.5 -72t-47.5 -84.5t-47.5 -96.5
l-9 -21h23h3h358q154 0 217 56q50 44 50 125q0 47 -7 78z" />
    <glyph glyph-name="uniFEBA" unicode="&#x635;" horiz-adv-x="2583" arabic-form="final" 
d="M1961 15h-345q-225 0 -272 74l-4 6l-27 43v-51v-7v-28q0 -246 -139.5 -367t-424.5 -121h-55q-486 0 -562 380q-14 72 -14 157v326h147v-325q0 -191 109 -289t322 -98h51q213 0 322.5 83.5t109.5 248.5v569h146v-199q0 -197 109 -224l2 -1l12 -3l5 12l1 2q226 557 564 557
q200 0 299 -135q80 -108 81 -270q0 -61 -20 -114v-1l-3 -9l6 -6l1 -1q27 -30 74 -45q23 -7 50.5 -10.5t59.5 -3.5h22q9 -13 9 -71v-11q0 -40 -5 -58q-2 -7 -5 -10h-27q-94 0 -161 21t-107 63l-1 1l-10 10l-10 -8l-2 -1q-109 -86 -308 -86zM2007 607q-12 0 -24 -1.5t-23.5 -4
t-23.5 -6.5t-23.5 -9.5t-23 -12t-23 -14.5t-22.5 -17t-22.5 -19.5t-22.5 -22.5q-98 -104 -191 -310l-2 -3l-9 -21h23h3h358q155 0 217 53q50 44 50 125q0 47 -7 79q-20 91 -79.5 137.5t-154.5 46.5z" />
    <glyph glyph-name="uniFEBB" unicode="&#x635;" horiz-adv-x="1645" arabic-form="initial" 
d="M1400 98q-110 -83 -309 -83h-340q-292 0 -367 127l-2 3l-13 22l-13 -21l-1 -3q-79 -128 -297 -128h-63q-19 0 -28.5 16t-9.5 55v11q0 38 11 54q9 14 27 14h56q115 0 174.5 56t59.5 165v232h143l1 -236q0 -91 35 -140.5t104 -49.5h1h10l4 9l1 2q226 557 564 557
q198 0 299 -135q40 -53 60 -117t21 -141q1 -170 -128 -269zM1371 425q-21 90 -80.5 136t-153.5 46q-211 0 -399 -418l-2 -3l-9 -21h23h3h358q152 0 217 57q50 44 50 125q0 47 -7 78z" />
    <glyph glyph-name="uniFEBC" unicode="&#x635;" horiz-adv-x="1713" arabic-form="medial" 
d="M1091 15h-340q-292 0 -367 127l-2 3l-13 22l-13 -21l-1 -3q-80 -128 -297 -128h-63q-19 0 -28.5 16t-9.5 55v11q0 38 11 54q9 14 27 14h56q115 0 174.5 56t59.5 165v232h143l1 -236q0 -60 15.5 -102.5t46.5 -65t77 -22.5h1h10l4 9l1 2q225 558 563 557q199 0 300 -135
q79 -107 81 -270q0 -61 -20 -114v-1l-3 -9l6 -6l1 -1q27 -30 73.5 -44.5t110.5 -14.5h21q4 -5 7 -23.5t3 -47.5v-11q0 -56 -9 -68h-28q-94 0 -161 21t-107 63l-2 1l-9 10l-11 -8l-1 -1q-109 -86 -308 -86zM1137 607q-107 2 -206.5 -103.5t-193.5 -315.5l-1 -2l-9 -22l23 1h3
l358 1q51 0 91.5 5.5t72.5 17.5t53 30q17 15 28 34t16.5 42t5.5 49q0 23 -1.5 42.5t-5.5 36.5q-20 90 -79.5 136.5t-154.5 47.5z" />
    <glyph glyph-name="uniFEBD" unicode="&#x636;" horiz-adv-x="2515" arabic-form="isolated" 
d="M1820 1168l91 91q29 29 52 6l98 -98q26 -26 -3 -55l-91 -91q-27 -27 -53 -1l-98 98q-23 23 4 50zM1325 417q0 -95 26.5 -152.5t82.5 -71.5l1 -1l13 -3l5 12l1 2q226 557 564 557q198 0 299 -135q81 -106 81 -258q-1 -170 -128 -269q-108 -83 -309 -83h-340
q-77 0 -134.5 9.5t-93.5 27.5t-53 43l-27 41v-49v-35q0 -246 -139.5 -367t-424.5 -121h-55q-486 0 -562 380q-14 72 -14 157v326h147v-325q0 -191 109 -289t322 -98h51q213 0 322.5 83.5t109.5 248.5v569h146v-199zM2241 425q-8 36 -23 65t-35.5 51t-47 36.5t-58.5 22
t-70 7.5q-27 0 -53.5 -7t-52.5 -20.5t-51.5 -33.5t-50.5 -46.5t-49.5 -59.5t-48.5 -72t-47.5 -84.5t-47.5 -96.5l-9 -21h23h3h358q154 0 217 56q50 44 50 125q0 47 -7 78z" />
    <glyph glyph-name="uniFEBE" unicode="&#x636;" horiz-adv-x="2583" arabic-form="final" 
d="M1820 1168l91 91q29 29 52 6l98 -98q26 -26 -3 -55l-91 -91q-27 -27 -53 -1l-98 98q-23 23 4 50zM1961 15h-345q-225 0 -272 74l-4 6l-27 43v-51v-7v-28q0 -246 -139.5 -367t-424.5 -121h-55q-486 0 -562 380q-14 72 -14 157v326h147v-325q0 -191 109 -289t322 -98h51
q213 0 322.5 83.5t109.5 248.5v569h146v-199q0 -197 109 -224l2 -1l12 -3l5 12l1 2q226 557 564 557q200 0 299 -135q80 -108 81 -270q0 -61 -20 -114v-1l-3 -9l6 -6l1 -1q27 -30 74 -45q23 -7 50.5 -10.5t59.5 -3.5h22q9 -13 9 -71v-11q0 -40 -5 -58q-2 -7 -5 -10h-27
q-94 0 -161 21t-107 63l-1 1l-10 10l-10 -8l-2 -1q-109 -86 -308 -86zM2007 607q-12 0 -24 -1.5t-23.5 -4t-23.5 -6.5t-23.5 -9.5t-23 -12t-23 -14.5t-22.5 -17t-22.5 -19.5t-22.5 -22.5q-98 -104 -191 -310l-2 -3l-9 -21h23h3h358q155 0 217 53q50 44 50 125q0 47 -7 79
q-20 91 -79.5 137.5t-154.5 46.5z" />
    <glyph glyph-name="uniFEBF" unicode="&#x636;" horiz-adv-x="1645" arabic-form="initial" 
d="M945 1167l91 91q29 29 52 6l98 -98q26 -26 -3 -55l-91 -91q-27 -27 -53 -1l-98 98q-23 23 4 50zM1400 98q-110 -83 -309 -83h-340q-292 0 -367 127l-2 3l-13 22l-13 -21l-1 -3q-79 -128 -297 -128h-63q-19 0 -28.5 16t-9.5 55v11q0 38 11 54q9 14 27 14h56
q115 0 174.5 56t59.5 165v232h143l1 -236q0 -91 35 -140.5t104 -49.5h1h10l4 9l1 2q226 557 564 557q198 0 299 -135q40 -53 60 -117t21 -141q1 -170 -128 -269zM1371 425q-21 90 -80.5 136t-153.5 46q-211 0 -399 -418l-2 -3l-9 -21h23h3h358q152 0 217 57q50 44 50 125
q0 47 -7 78z" />
    <glyph glyph-name="uniFEC0" unicode="&#x636;" horiz-adv-x="1713" arabic-form="medial" 
d="M945 1167l91 91q29 29 52 6l98 -98q26 -26 -3 -55l-91 -91q-27 -27 -53 -1l-98 98q-23 23 4 50zM1091 15h-340q-292 0 -367 127l-2 3l-13 22l-13 -21l-1 -3q-80 -128 -297 -128h-63q-19 0 -28.5 16t-9.5 55v11q0 38 11 54q9 14 27 14h56q115 0 174.5 56t59.5 165v232h143
l1 -236q0 -60 15.5 -102.5t46.5 -65t77 -22.5h1h10l4 9l1 2q225 558 563 557q199 0 300 -135q79 -107 81 -270q0 -61 -20 -114v-1l-3 -9l6 -6l1 -1q27 -30 73.5 -44.5t110.5 -14.5h21q4 -5 7 -23.5t3 -47.5v-11q0 -56 -9 -68h-28q-94 0 -161 21t-107 63l-2 1l-9 10l-11 -8
l-1 -1q-109 -86 -308 -86zM1137 607q-107 2 -206.5 -103.5t-193.5 -315.5l-1 -2l-9 -22l23 1h3l358 1q51 0 91.5 5.5t72.5 17.5t53 30q17 15 28 34t16.5 42t5.5 49q0 23 -1.5 42.5t-5.5 36.5q-20 90 -79.5 136.5t-154.5 47.5z" />
    <glyph glyph-name="uniFEC1" unicode="&#x637;" horiz-adv-x="1369" arabic-form="isolated" 
d="M815 15h-696v150h164h1h11l4 10v2q14 39 107 215l2 4v4v920h136v-689v-5v-36l26 25l3 4q143 141 299 141q194 0 299 -136q80 -102 80 -257q1 -85 -31 -152t-97 -117q-109 -83 -308 -83zM861 607q-212 0 -400 -417l-1 -3l-10 -21h24h3h358q156 0 217 56q48 44 50 125
q0 23 -2 42.5t-5 36.5q-21 89 -80.5 135t-153.5 46z" />
    <glyph glyph-name="uniFEC2" unicode="&#x637;" horiz-adv-x="1437" arabic-form="final" 
d="M815 15h-696v150h164h1h10l4 9v1q37 80 108 214l2 4v4v923h136v-689v-5v-36l26 25l3 4q143 141 299 141q198 0 299 -135q79 -107 81 -271q0 -15 -1.5 -29.5t-3.5 -28.5t-6 -28t-9 -27v-1l-3 -9l6 -7h1q18 -21 45.5 -34t61.5 -19t77 -6h22q9 -13 9 -71v-11q0 -55 -9 -68
h-28q-94 0 -161 21t-107 63l-2 1l-9 10l-11 -9l-1 -1q-110 -85 -308 -85zM861 607q-212 0 -400 -417l-1 -3l-10 -21h24h3h358q155 0 217 53q50 44 50 125q0 23 -1.5 42.5t-5.5 35.5q-21 92 -80.5 138.5t-153.5 46.5z" />
    <glyph glyph-name="uniFEC3" unicode="&#x637;" horiz-adv-x="1166" arabic-form="initial" 
d="M613 15h-618q-19 0 -28.5 16t-9.5 55v11q0 38 11 54q9 14 27 14h86h1h11l3 10l1 1q10 31 107 213l2 4v4v923h136v-689v-5v-36l25 25l4 4q72 71 146.5 106t152.5 35q196 0 299 -135q80 -104 80 -261q0 -171 -128 -267q-109 -82 -308 -82zM659 607q-212 0 -400 -417l-1 -3
l-10 -21h23h3h359q154 0 217 53q49 43 49 125q1 47 -6 79q-21 90 -80.5 137t-153.5 47z" />
    <glyph glyph-name="uniFEC4" unicode="&#x637;" horiz-adv-x="1234" arabic-form="medial" 
d="M613 15h-618q-19 0 -28.5 16t-9.5 55v11q0 38 9.5 53t28.5 15h86h1h10l4 9v1q16 35 43 88.5t65 125.5l2 4v4v923h136v-689v-5v-36l25 26l4 3q143 141 298 141q101 0 175 -34q38 -17 69 -42t56 -59q78 -105 80 -271q1 -52 -14 -97q-4 -12 -5 -16v-1l-4 -9l7 -6l1 -1
q53 -59 184 -59h21q10 -13 10 -71v-11q0 -27 -3 -45.5t-6 -22.5h-28q-94 0 -161 21t-108 63l-1 1l-9 10l-11 -8l-1 -1q-109 -86 -308 -86zM659 607q-212 0 -400 -417l-1 -3l-10 -21h23h3h359q31 0 57.5 2t50 6t43.5 10.5t36.5 15t29.5 19.5q25 22 37.5 54t12.5 71
q0 47 -7 79q-14 60 -45 101t-78.5 62t-110.5 21z" />
    <glyph glyph-name="uniFEC5" unicode="&#x638;" horiz-adv-x="1369" arabic-form="isolated" 
d="M776 1167l91 91q29 29 52 6l98 -98q26 -26 -3 -55l-91 -91q-27 -27 -53 -1l-98 98q-23 23 4 50zM815 15h-696v150h164h1h11l4 10v2q14 39 107 215l2 4v4v920h136v-689v-5v-36l26 25l3 4q143 141 299 141q194 0 299 -136q80 -102 80 -257q1 -85 -31 -152t-97 -117
q-109 -83 -308 -83zM861 607q-212 0 -400 -417l-1 -3l-10 -21h24h3h358q156 0 217 56q48 44 50 125q0 23 -2 42.5t-5 36.5q-21 89 -80.5 135t-153.5 46z" />
    <glyph glyph-name="uniFEC6" unicode="&#x638;" horiz-adv-x="1437" arabic-form="final" 
d="M776 1167l91 91q29 29 52 6l98 -98q26 -26 -3 -55l-91 -91q-27 -27 -53 -1l-98 98q-23 23 4 50zM815 15h-696v150h164h1h10l4 9v1q37 80 108 214l2 4v4v923h136v-689v-5v-36l26 25l3 4q143 141 299 141q198 0 299 -135q79 -107 81 -271q0 -15 -1.5 -29.5t-3.5 -28.5
t-6 -28t-9 -27v-1l-3 -9l6 -7h1q18 -21 45.5 -34t61.5 -19t77 -6h22q9 -13 9 -71v-11q0 -55 -9 -68h-28q-94 0 -161 21t-107 63l-2 1l-9 10l-11 -9l-1 -1q-110 -85 -308 -85zM861 607q-212 0 -400 -417l-1 -3l-10 -21h24h3h358q155 0 217 53q50 44 50 125q0 23 -1.5 42.5
t-5.5 35.5q-21 92 -80.5 138.5t-153.5 46.5z" />
    <glyph glyph-name="uniFEC7" unicode="&#x638;" horiz-adv-x="1166" arabic-form="initial" 
d="M570 1167l91 91q29 29 52 6l98 -98q26 -26 -3 -55l-91 -91q-27 -27 -53 -1l-98 98q-23 23 4 50zM613 15h-618q-19 0 -28.5 16t-9.5 55v11q0 38 11 54q9 14 27 14h86h1h11l3 10l1 1q10 31 107 213l2 4v4v923h136v-689v-5v-36l25 25l4 4q72 71 146.5 106t152.5 35
q196 0 299 -135q80 -104 80 -261q0 -171 -128 -267q-109 -82 -308 -82zM659 607q-212 0 -400 -417l-1 -3l-10 -21h23h3h359q154 0 217 53q49 43 49 125q1 47 -6 79q-21 90 -80.5 137t-153.5 47z" />
    <glyph glyph-name="uniFEC8" unicode="&#x638;" horiz-adv-x="1234" arabic-form="medial" 
d="M570 1167l91 91q29 29 52 6l98 -98q26 -26 -3 -55l-91 -91q-27 -27 -53 -1l-98 98q-23 23 4 50zM613 15h-618q-19 0 -28.5 16t-9.5 55v11q0 38 9.5 53t28.5 15h86h1h10l4 9v1q16 35 43 88.5t65 125.5l2 4v4v923h136v-689v-5v-36l25 26l4 3q143 141 298 141q101 0 175 -34
q38 -17 69 -42t56 -59q78 -105 80 -271q1 -52 -14 -97q-4 -12 -5 -16v-1l-4 -9l7 -6l1 -1q53 -59 184 -59h21q10 -13 10 -71v-11q0 -27 -3 -45.5t-6 -22.5h-28q-94 0 -161 21t-108 63l-1 1l-9 10l-11 -8l-1 -1q-109 -86 -308 -86zM659 607q-212 0 -400 -417l-1 -3l-10 -21
h23h3h359q31 0 57.5 2t50 6t43.5 10.5t36.5 15t29.5 19.5q25 22 37.5 54t12.5 71q0 47 -7 79q-14 60 -45 101t-78.5 62t-110.5 21z" />
    <glyph glyph-name="uniFEC9" unicode="&#x639;" horiz-adv-x="1249" arabic-form="isolated" 
d="M117 -178q5 343 386 476l24 8l4 1l-3 3l-19 17q-126 109 -126 246q1 166 105 272q105 108 275 108q173 0 288 -136l-58 -107q-50 44 -106 66q-56 23 -120 22q-12 0 -24.5 -1t-24 -2.5t-22.5 -4.5t-21 -7q-21 -7 -40 -18.5t-35 -26.5l-16 -16t-15 -18q-20 -27 -30 -59.5
t-11 -69.5q0 -15 2 -28.5t6 -27t10.5 -26.5t14.5 -25.5t18 -24.5t22 -24t26.5 -23t30.5 -22t34 -21l4 -2h1h5q109 8 239 8h153v-151h-169q-668 -1 -666 -388q0 -178 139 -266t406 -88h327v-146h-339q-192 1 -327 39q-135 37 -212 111q-139 134 -136 352z" />
    <glyph glyph-name="uniFECA" unicode="&#x639;" horiz-adv-x="1237" arabic-form="final" 
d="M117 -186q2 155 97 265q96 110 287 176l3 1l28 10l-24 17l-3 2q-128 91 -191 164t-62 122q1 36 15 66.5t42.5 56.5t71.5 47q85 40 294 40q272 0 362 -82q36 -33 53 -66q17 -32 17 -64q1 -163 -301 -312l-4 -1l-24 -12l23 -14l3 -2q51 -32 136.5 -47.5t208.5 -15.5h92
q9 -13 9 -68v-11q0 -41 -6 -61q-2 -7 -4 -10h-102q-277 0 -479 147h-1l-6 5l-7 -2l-1 -1q-381 -119 -385 -343v-9q0 -174 138.5 -260t406.5 -86h307v-146h-319q-384 2 -539 150q-139 134 -136 344zM954 540q-1 29 -20.5 49.5t-57 33t-87.5 18.5t-117 6q-80 0 -134 -9.5
t-85.5 -32t-31.5 -59.5q0 -19 23 -42t80 -68q39 -32 66 -53t43 -33q17 -13 23 -16l7 -4l7 3q66 28 112.5 51t74.5 41q98 63 97 115z" />
    <glyph glyph-name="uniFECB" unicode="&#x639;" horiz-adv-x="1002" arabic-form="initial" 
d="M-5 15q-19 0 -28.5 16t-9.5 55v11q0 38 11 54q9 14 27 14h284h5h40l-30 26l-4 4q-127 110 -127 256q1 165 106 273q105 107 275 107q182 0 299 -136l-59 -107q-51 45 -109.5 67t-125.5 22q-127 0 -198 -94q-43 -57 -43 -131q0 -103 100 -183q89 -72 146 -73q14 0 34 2.5
t45.5 8t58.5 13.5l193 46v-150q-342 -101 -600 -101h-290z" />
    <glyph glyph-name="uniFECC" unicode="&#x639;" horiz-adv-x="1154" arabic-form="medial" 
d="M1157 15h-98q-139 0 -250 30q-55 14 -103 36t-89 52l-1 1l-9 6l-9 -7l-1 -1q-144 -117 -561 -117h-41q-19 0 -28.5 16t-9.5 55v11q0 38 11 54q9 14 27 14h40q336 0 429 47l3 2l26 13l-26 13l-3 2q-298 160 -295 305q2 48 34 88q33 41 99 73q45 21 117.5 32t172.5 11
q197 0 306 -45q60 -25 90 -65q30 -38 30 -92q2 -143 -279 -313l-4 -3l-28 -17l32 -10l4 -1q123 -40 322 -40h93q9 -13 9 -68v-11q0 -21 -2 -37q-1 -15 -4 -24q0 -3 -1 -5l-1.5 -3t-1.5 -2zM858 515q-1 54 -67.5 77.5t-191.5 24.5q-125 0 -189 -23q-34 -12 -53 -33t-19 -49
q0 -12 7.5 -23.5t21.5 -25.5q5 -5 11 -10t13 -10.5t15 -11.5t17 -12.5t19 -13.5q136 -92 160 -102l6 -2l4 1q20 5 148 101q51 39 75 64t23 48z" />
    <glyph glyph-name="uniFECD" unicode="&#x63a;" horiz-adv-x="1249" arabic-form="isolated" 
d="M623 1325l91 91q29 29 52 6l98 -98q26 -26 -3 -55l-91 -91q-27 -27 -53 -1l-98 98q-23 23 4 50zM117 -178q5 343 386 476l24 8l4 1l-3 3l-19 17q-126 109 -126 246q1 166 105 272q105 108 275 108q173 0 288 -136l-58 -107q-50 44 -106 66q-56 23 -120 22q-12 0 -24.5 -1
t-24 -2.5t-22.5 -4.5t-21 -7q-21 -7 -40 -18.5t-35 -26.5l-16 -16t-15 -18q-20 -27 -30 -59.5t-11 -69.5q0 -15 2 -28.5t6 -27t10.5 -26.5t14.5 -25.5t18 -24.5t22 -24t26.5 -23t30.5 -22t34 -21l4 -2h1h5q109 8 239 8h153v-151h-169q-668 -1 -666 -388q0 -178 139 -266
t406 -88h327v-146h-339q-192 1 -327 39q-135 37 -212 111q-139 134 -136 352z" />
    <glyph glyph-name="uniFECE" unicode="&#x63a;" horiz-adv-x="1237" arabic-form="final" 
d="M556 1178l91 91q29 29 52 6l98 -98q26 -26 -3 -55l-91 -91q-27 -27 -53 -1l-98 98q-23 23 4 50zM117 -186q2 155 97 265q96 110 287 176l3 1l28 10l-24 17l-3 2q-128 91 -191 164t-62 122q1 36 15 66.5t42.5 56.5t71.5 47q85 40 294 40q272 0 362 -82q36 -33 53 -66
q17 -32 17 -64q1 -163 -301 -312l-4 -1l-24 -12l23 -14l3 -2q51 -32 136.5 -47.5t208.5 -15.5h92q9 -13 9 -68v-11q0 -41 -6 -61q-2 -7 -4 -10h-102q-277 0 -479 147h-1l-6 5l-7 -2l-1 -1q-381 -119 -385 -343v-9q0 -174 138.5 -260t406.5 -86h307v-146h-319
q-384 2 -539 150q-139 134 -136 344zM954 540q-1 29 -20.5 49.5t-57 33t-87.5 18.5t-117 6q-80 0 -134 -9.5t-85.5 -32t-31.5 -59.5q0 -19 23 -42t80 -68q39 -32 66 -53t43 -33q17 -13 23 -16l7 -4l7 3q66 28 112.5 51t74.5 41q98 63 97 115z" />
    <glyph glyph-name="uniFECF" unicode="&#x63a;" horiz-adv-x="1002" arabic-form="initial" 
d="M413 1231l91 91q29 29 52 6l98 -98q26 -26 -3 -55l-91 -91q-27 -27 -53 -1l-98 98q-23 23 4 50zM-5 15q-19 0 -28.5 16t-9.5 55v11q0 38 11 54q9 14 27 14h284h5h40l-30 26l-4 4q-127 110 -127 256q1 165 106 273q105 107 275 107q182 0 299 -136l-59 -107
q-51 45 -109.5 67t-125.5 22q-127 0 -198 -94q-43 -57 -43 -131q0 -103 100 -183q89 -72 146 -73q14 0 34 2.5t45.5 8t58.5 13.5l193 46v-150q-342 -101 -600 -101h-290z" />
    <glyph glyph-name="uniFED0" unicode="&#x63a;" horiz-adv-x="1154" arabic-form="medial" 
d="M463 1173l91 91q29 29 52 6l98 -98q26 -26 -3 -55l-91 -91q-27 -27 -53 -1l-98 98q-23 23 4 50zM1157 15h-98q-139 0 -250 30q-55 14 -103 36t-89 52l-1 1l-9 6l-9 -7l-1 -1q-144 -117 -561 -117h-41q-19 0 -28.5 16t-9.5 55v11q0 38 11 54q9 14 27 14h40q336 0 429 47
l3 2l26 13l-26 13l-3 2q-298 160 -295 305q2 48 34 88q33 41 99 73q45 21 117.5 32t172.5 11q197 0 306 -45q60 -25 90 -65q30 -38 30 -92q2 -143 -279 -313l-4 -3l-28 -17l32 -10l4 -1q123 -40 322 -40h93q9 -13 9 -68v-11q0 -21 -2 -37q-1 -15 -4 -24q0 -3 -1 -5l-1.5 -3
t-1.5 -2zM858 515q-1 54 -67.5 77.5t-191.5 24.5q-125 0 -189 -23q-34 -12 -53 -33t-19 -49q0 -12 7.5 -23.5t21.5 -25.5q5 -5 11 -10t13 -10.5t15 -11.5t17 -12.5t19 -13.5q136 -92 160 -102l6 -2l4 1q20 5 148 101q51 39 75 64t23 48z" />
    <glyph glyph-name="uniFED1" unicode="&#x641;" horiz-adv-x="1886" arabic-form="isolated" 
d="M1324 1339l91 91q29 29 52 6l98 -98q26 -26 -3 -55l-91 -91q-27 -27 -53 -1l-98 98q-23 23 4 50zM1288 15h-754q-211 0 -314 105.5t-103 321.5v186h145v-185q0 -91 31 -153t92.5 -93.5t151.5 -31.5h754q345 0 345 163v23v2v17l-17 -2h-2q-39 -4 -76.5 -6t-72.5 -3
q-174 0 -257.5 66.5t-83.5 200.5q0 21 1.5 40.5t4 37.5t6.5 35t9 33q21 61 62 104q43 44 103.5 66.5t138.5 22.5q108 0 178 -34t104.5 -103t34.5 -174v-319q0 -106 -51.5 -177t-158.5 -107t-271 -36zM1636 657q0 82 -47 125t-135 42h-11t-10.5 -0.5t-10.5 -1l-10 -1
t-10 -1.5t-9.5 -2t-9 -2.5l-9 -3t-8.5 -2.5q-19 -7 -34.5 -18.5t-27.5 -26.5q-11 -13 -19 -27.5t-13 -30.5t-7.5 -33.5t-2.5 -36.5q0 -46 26 -76t73 -44.5t115 -13.5q74 0 145 10h2l13 2v13v2v127z" />
    <glyph glyph-name="uniFED2" unicode="&#x641;" horiz-adv-x="2044" arabic-form="final" 
d="M1423 1146l91 91q29 29 52 6l98 -98q26 -26 -3 -55l-91 -91q-27 -27 -53 -1l-98 98q-23 23 4 50zM1359 430q0 -81 58.5 -138.5t142.5 -57.5q82 0 141 57q59 58 59 139q0 40 -14.5 75t-44.5 64q-7 7 -14.5 13t-16 11.5t-17 10t-17.5 8.5q-35 14 -76 14q-21 0 -40 -3.5
t-37 -10.5q-12 -5 -23.5 -11.5t-21.5 -14.5t-20 -17.5t-18 -19.5t-14.5 -21t-11.5 -23q-3 -7 -5.5 -14t-4 -14.5l-3 -15t-2 -15.5t-0.5 -16zM1548 93q-19 -13 -42 -23.5t-49 -19.5q-52 -17 -115 -26q-65 -9 -141 -9h-667q-211 0 -314 105.5t-103 321.5v186h145v-185
q0 -137 70 -207.5t206 -70.5h772h4h37l-26 26l-4 3q-49 49 -73.5 108t-24.5 129q-1 147 98 243q34 33 71.5 54.5t79.5 32t89 10.5q140 0 240 -97q32 -31 53.5 -68t32 -80.5t11.5 -93.5q0 -143 -97 -238l-4 -3l-26 -26h37h5h235q10 -13 10 -68v-11q0 -58 -10 -71h-134
q-200 0 -348 78l-1 1l-8 4l-8 -5h-1z" />
    <glyph glyph-name="uniFED3" unicode="&#x641;" horiz-adv-x="870" arabic-form="initial" 
d="M-5 15q-19 0 -28.5 16t-9.5 55v11q0 38 11 54q9 14 27 14h280q345 0 345 163v23v2v17l-17 -2h-2q-26 -3 -51 -4.5t-49.5 -2.5t-48.5 -2q-87 0 -151.5 17t-106.5 50q-83 66 -83 200q0 164 83 250q29 30 65 49.5t80.5 29.5t96.5 10q108 0 178 -34t104.5 -103t34.5 -174
v-319q0 -160 -118 -240t-362 -80h-278zM620 657q0 83 -47 125q-16 15 -36.5 24.5t-45 14t-53.5 3.5q-103 0 -150 -59q-11 -13 -18.5 -27.5t-13 -30.5t-8 -33.5t-2.5 -36.5q0 -68 55.5 -101.5t158.5 -32.5q74 0 145 10h2l13 2v13v2v127zM315 1338l91 91q29 29 52 6l98 -98
q26 -26 -3 -55l-91 -91q-27 -27 -53 -1l-98 98q-23 23 4 50z" />
    <glyph glyph-name="uniFED4" unicode="&#x641;" horiz-adv-x="1022" arabic-form="medial" 
d="M409 1146l91 91q29 29 52 6l98 -98q26 -26 -3 -55l-91 -91q-27 -27 -53 -1l-98 98q-23 23 4 50zM1026 15h-135q-66 0 -127 9t-116 26t-105 43l-7 4l-8 -3q-169 -79 -348 -79h-185q-19 0 -28.5 16t-9.5 55v11q0 26 5 41.5t13 21t20 5.5h292h5h36l-26 26l-3 3
q-99 98 -99 237q0 147 99 243q100 97 240 97t240 -97q48 -47 72 -107t24 -136q1 -71 -23.5 -130t-72.5 -107l-4 -3l-26 -26h36h5h236q9 -13 9 -68v-11q0 -58 -9 -71zM337 430q0 -27 6.5 -51.5t19.5 -46.5t33 -41q58 -57 141 -57q28 0 53 6.5t47 19t42 31.5q59 58 59 139
t-59 139q-20 19 -42 31.5t-47 19t-53 6.5q-41 0 -76.5 -14.5t-65.5 -42.5q-28 -29 -43 -64t-15 -75z" />
    <glyph glyph-name="uniFED5" unicode="&#x642;" horiz-adv-x="1434" arabic-form="isolated" 
d="M1032 1058l91 91q27 27 48 6l98 -98q24 -24 -3 -51l-91 -91q-25 -25 -49 -1l-98 98q-10 10 -9 21.5t13 24.5zM685 1058l91 91q27 27 48 6l98 -98q24 -24 -3 -51l-91 -91q-25 -25 -49 -1l-98 98q-20 21 4 46zM1314 358l2 -425q1 -185 -129 -277.5t-398 -92.5h-98
q-288 1 -430 135t-143 404v325l145 1v-325q0 -192 109 -289t321 -96l95 1q389 2 387 218v64v2v15h-15h-2h-161q-169 0 -251 80.5t-82 246.5q1 60 10.5 110.5t28 90.5t45.5 71q42 47 104 71t144 24q143 1 228 -81q44 -43 66.5 -111t23.5 -162zM801 346q0 -88 50 -134t145 -46
h162h2h15v15v2v169q-1 107 -47 163.5t-136 55.5q-94 0 -142.5 -57.5t-48.5 -167.5z" />
    <glyph glyph-name="uniFED6" unicode="&#x642;" horiz-adv-x="1476" arabic-form="final" 
d="M1032 1058l91 91q27 27 48 6l98 -98q24 -24 -3 -51l-91 -91q-25 -25 -49 -1l-98 98q-10 10 -9 21.5t13 24.5zM685 1058l91 91q27 27 48 6l98 -98q24 -24 -3 -51l-91 -91q-25 -25 -49 -1l-98 98q-20 21 4 46zM1314 358l1 -176v-2l1 -15h14h2h149q9 -13 9 -68v-11
q0 -21 -2 -37q-1 -15 -4 -24q-2 -7 -4 -10h-147h-2h-15v-15v-2v-64q0 -186 -129 -277q-132 -94 -398 -94h-98q-288 1 -430 135t-143 404v325l145 1v-325q0 -192 109 -289t321 -96l95 1q389 2 387 218v64v2v15h-15h-2h-161q-169 0 -251 80.5t-82 246.5q1 60 10.5 110.5
t28 90.5t45.5 71q85 95 248 95q48 1 90 -9q20 -4 39 -11t36 -16q35 -18 63 -45q43 -43 66 -111.5t24 -161.5zM801 346q0 -89 50 -135t145 -46h162h2h15v15v2v170q-1 107 -47 163.5t-136 55.5q-94 0 -142.5 -57.5t-48.5 -167.5z" />
    <glyph glyph-name="uniFED7" unicode="&#x642;" horiz-adv-x="870" arabic-form="initial" 
d="M-5 15q-19 0 -28.5 16t-9.5 55v11q0 38 11 54q9 14 27 14h280q345 0 345 163v23v2v17l-17 -2h-2q-26 -3 -51 -4.5t-49.5 -2.5t-48.5 -2q-87 0 -151.5 17t-106.5 50q-83 66 -83 200q0 164 83 250q29 30 65 49.5t80.5 29.5t96.5 10q108 0 178 -34t104.5 -103t34.5 -174
v-319q0 -160 -118 -240t-362 -80h-278zM620 657q0 83 -47 125q-16 15 -36.5 24.5t-45 14t-53.5 3.5q-103 0 -150 -59q-11 -13 -18.5 -27.5t-13 -30.5t-8 -33.5t-2.5 -36.5q0 -68 55.5 -101.5t158.5 -32.5q74 0 145 10h2l13 2v13v2v127zM485 1305l91 91q27 27 48 6l98 -98
q24 -24 -3 -51l-91 -91q-25 -25 -49 -1l-98 98q-10 10 -9 21.5t13 24.5zM138 1305l91 91q27 27 48 6l98 -98q24 -24 -3 -51l-91 -91q-25 -25 -49 -1l-98 98q-20 21 4 46z" />
    <glyph glyph-name="uniFED8" unicode="&#x642;" horiz-adv-x="1022" arabic-form="medial" 
d="M1026 15h-135q-66 0 -127 9t-116 26t-105 43l-7 4l-8 -3q-169 -79 -348 -79h-185q-19 0 -28.5 16t-9.5 55v11q0 26 5 41.5t13 21t20 5.5h292h5h36l-26 26l-3 3q-99 98 -99 237q0 147 99 243q100 97 240 97t240 -97q48 -47 72 -107t24 -136q1 -71 -23.5 -130t-72.5 -107
l-4 -3l-26 -26h36h5h236q9 -13 9 -68v-11q0 -58 -9 -71zM337 430q0 -27 6.5 -51.5t19.5 -46.5t33 -41q58 -57 141 -57q28 0 53 6.5t47 19t42 31.5q59 58 59 139t-59 139q-20 19 -42 31.5t-47 19t-53 6.5q-41 0 -76.5 -14.5t-65.5 -42.5q-28 -29 -43 -64t-15 -75zM579 1145
l91 91q27 27 48 6l98 -98q24 -24 -3 -51l-91 -91q-25 -25 -49 -1l-98 98q-10 10 -9 21.5t13 24.5zM232 1145l91 91q27 27 48 6l98 -98q24 -24 -3 -51l-91 -91q-25 -25 -49 -1l-98 98q-20 21 4 46z" />
    <glyph glyph-name="uniFED9" unicode="&#x643;" horiz-adv-x="1889" arabic-form="isolated" 
d="M701 725q33 -4 66 -6.5t66 -2.5q7 0 14.5 0.5l15 1t14.5 1.5l14 2t14 2.5t14 3.5q21 5 40 12q13 5 24 10.5t20.5 11.5t17.5 13t14 14.5t10.5 15.5t6.5 17t2 19q0 17 -7.5 31.5t-21.5 24.5q-27 19 -76 27q-84 14 -116 55q-50 65 -28 133t94 107q10 5 21.5 10.5t24.5 9.5
t27 8t29 7.5t31 6t33.5 4.5t36.5 3l11 1v-66l-10 -1q-111 -9 -169 -39q-62 -33 -62 -91q0 -30 17 -51t48 -31q15 -5 35.5 -9t46.5 -8q6 -1 11.5 -2t11.5 -3q10 -3 19.5 -7.5t17.5 -10.5q4 -2 8 -5.5t8 -7.5q29 -27 29 -77q0 -52 -21 -85q-107 -170 -404 -123l-9 1v74z
M538 165h814q120 0 181 72.5t61 210.5v870h137v-873q0 -145 -42.5 -240.5t-127.5 -142.5t-214 -47h-812q-211 0 -314.5 105.5t-103.5 321.5v196h145v-195q0 -91 31 -153t92.5 -93.5t152.5 -31.5z" />
    <glyph glyph-name="uniFEDA" unicode="&#x643;" horiz-adv-x="1969" arabic-form="final" 
d="M701 725q33 -4 66 -6.5t66 -2.5q7 0 14.5 0.5l15 1t14.5 1.5l14 2t14 2.5t14 3.5q21 5 40 12q13 5 24 10.5t20.5 11.5t17.5 13t14 14.5t10.5 15.5t6.5 17t2 19q0 17 -7.5 31.5t-21.5 24.5q-27 19 -76 27q-84 14 -116 55q-50 65 -28 133t94 107q10 5 21.5 10.5t24.5 9.5
t27 8t29 7.5t31 6t33.5 4.5t36.5 3l11 1v-66l-10 -1q-111 -9 -169 -39q-62 -33 -62 -91q0 -30 17 -51t48 -31q15 -5 35.5 -9t46.5 -8q6 -1 11.5 -2t11.5 -3q10 -3 19.5 -7.5t17.5 -10.5q4 -2 8 -5.5t8 -7.5q29 -27 29 -77q0 -52 -21 -85q-107 -170 -404 -123l-9 1v74z
M1658 154q-80 -139 -311 -139h-812q-211 0 -314.5 105.5t-103.5 321.5v196h145v-195q0 -91 31 -153t92.5 -93.5t152.5 -31.5h814q120 0 181 72.5t61 210.5v870h137v-873q0 -87 24 -147.5t72.5 -94t119.5 -36.5l26 -1q2 -3 4 -11q6 -17 6 -59v-11q0 -58 -10 -71h-30
q-170 0 -255 141l-2 3l-13 21l-13 -22z" />
    <glyph glyph-name="uniFEDB" unicode="&#x643;" horiz-adv-x="918" arabic-form="initial" 
d="M-5 15q-19 0 -28.5 16t-9.5 55v11q0 38 11 54q9 14 27 14h328q264 0 265 149q0 61 -116 193l-320 365q-44 50 -43 126q1 109 106 144l605 199v-149l-558 -182l-3 -1l-21 -7l14 -17l2 -2l307 -355q81 -94 122 -174t41 -146q2 -147 -97 -220t-306 -73h-326z" />
    <glyph glyph-name="uniFEDC" unicode="&#x643;" horiz-adv-x="1086" arabic-form="medial" 
d="M824 325q137 -158 242 -160h24q9 -13 9 -68v-11q0 -29 -3 -48t-6 -23h-14q-48 0 -93.5 12t-88 36t-81.5 61t-75 86l-2 3l-17 24l-9 -28l-2 -4q-63 -190 -387 -190h-326q-19 0 -28.5 16t-9.5 55v11q0 38 11 54q9 14 27 14h328q264 0 265 149q0 61 -116 193l-320 365
q-44 50 -43 126q1 109 106 144l605 199v-149l-558 -182l-3 -1l-22 -7l15 -17l2 -2z" />
    <glyph glyph-name="uniFEDD" unicode="&#x644;" horiz-adv-x="1337" arabic-form="isolated" 
d="M263 102q0 -189 96.5 -286t284.5 -97h53q172 0 259.5 93t87.5 274v1232h135l-1 -1236q0 -130 -30 -226.5t-91 -160.5t-152.5 -95.5t-214.5 -31.5h-46q-439 0 -511 369q-15 75 -15 164v326h145v-325z" />
    <glyph glyph-name="uniFEDE" unicode="&#x644;" horiz-adv-x="1437" arabic-form="final" 
d="M1044 86l-1 1232h135v-886q0 -131 60 -199t176 -68h27q9 -13 9 -68v-11v-10v-10q-1 -5 -1 -9t-1 -8q0 -8 -1 -14t-3 -10v-1q-1 -3 -1 -4q-1 -3 -2 -3q0 -1 -1 -2h-9h-10q-180 0 -243 94v-23v-6l-1 -28q-2 -163 -57 -270q-54 -107 -161 -161q-107 -53 -269 -53h-46
q-440 0 -511 369q-15 73 -15 164v326h145v-325q0 -189 96 -286q97 -97 285 -97h53q172 0 260 93q88 92 87 274z" />
    <glyph glyph-name="uniFEDF" unicode="&#x644;" horiz-adv-x="600" arabic-form="initial" 
d="M-5 15q-19 0 -28.5 16t-9.5 55v11q0 38 11 54q9 14 27 14h102q102 0 155.5 52.5t53.5 153.5v948h137v-952q0 -178 -85.5 -265t-261.5 -87h-101z" />
    <glyph glyph-name="uniFEE0" unicode="&#x644;" horiz-adv-x="699" arabic-form="medial" 
d="M703 15h-44q-84 0 -152.5 31t-122.5 93l-2 1l-11 14l-12 -14l-1 -2q-95 -123 -268 -123h-95q-19 0 -28.5 16t-9.5 55v11q0 38 11 54q9 14 27 14h93q106 0 162 51.5t56 150.5v952h136v-953q0 -99 58 -150t169 -51h34q10 -13 10 -68v-11q0 -58 -10 -71z" />
    <glyph glyph-name="uniFEE1" unicode="&#x645;" horiz-adv-x="1310" arabic-form="isolated" 
d="M843 584h-157h-2h-15v-15v-2v-199q0 -79 22 -133t67 -82.5t111 -28.5q90 0 135.5 63t45.5 181v42q0 86 -53.5 130t-153.5 44zM858 726q170 0 252.5 -78t82.5 -237v-44q0 -189 -80.5 -281t-243.5 -91q-173 0 -258 91.5t-85 279.5v186v2v17l-17 -2h-2q-62 -6 -109.5 -36
t-78.5 -82t-46 -124.5t-15 -167.5v-640h-140v633v6q-1 287 115 427.5t350 140.5h275z" />
    <glyph glyph-name="uniFEE2" unicode="&#x645;" horiz-adv-x="1390" arabic-form="final" 
d="M843 584h-157h-15h-2v-2v-15v-199q0 -59 12.5 -104.5t37.5 -76.5t62.5 -47t87.5 -16q45 0 79 16t57 47q45 63 45 181v42q0 86 -53.5 130t-153.5 44zM1120 96q-40 -51 -102.5 -76.5t-148.5 -24.5q-174 0 -258.5 91.5t-84.5 279.5v186v16v3l-2 -1l-17 -1
q-249 -25 -249 -410v-640h-140v633v6q0 192 51 318q52 126 155 188t259 62h275q114 0 188 -35q37 -17 64.5 -43t46 -61t27.5 -79t9 -97v-44q0 -32 4 -59.5t13 -49.5q19 -45 55 -69q19 -12 41.5 -18t49.5 -6h38q9 -12 9 -68v-11q0 -29 -2.5 -47t-7.5 -24h-33q-71 0 -125 20
q-26 11 -48.5 26t-40.5 35l-12 14l-2 1l-1 -1z" />
    <glyph glyph-name="uniFEE3" unicode="&#x645;" horiz-adv-x="990" arabic-form="initial" 
d="M-5 15q-19 0 -28 15q-10 17 -10 56v11q0 38 10 53q9 15 28 15h70q153 0 153 95q0 215 36 302q75 184 294 184q164 0 244 -94q81 -95 80 -289q0 -184 -79 -273q-40 -45 -99.5 -67t-140.5 -22q-164 1 -266 101l-2 2l-1 -2q-61 -87 -217 -87h-72zM551 598q-12 0 -23 -1
t-22 -3t-20.5 -5t-18.5 -7t-18 -10q-13 -8 -24.5 -19.5t-21 -25t-16.5 -29.5q-11 -25 -16.5 -55t-5.5 -65q-2 -75 19 -126q20 -52 62.5 -79.5t105.5 -27.5q30 0 54 6.5t44 19.5t35 33q44 60 44 173q0 53 -11 94t-33.5 69.5t-56 43t-77.5 14.5z" />
    <glyph glyph-name="uniFEE4" unicode="&#x645;" horiz-adv-x="1048" arabic-form="medial" 
d="M1052 15h-27q-158 0 -208 85l-2 3l-2 -3q-69 -99 -260 -99q-202 1 -269 96l-1 2l-2 -2q-58 -82 -224 -82h-62q-19 0 -28 15q-10 17 -10 56v11q0 38 10 53q9 15 28 15h60q163 0 163 95q0 216 36 302q38 92 111.5 138t182.5 46q117 0 190 -48t102 -144q24 -80 27 -288
q1 -25 11 -44.5t31 -31.5q13 -8 29.5 -14t37 -8.5t43.5 -2.5h33q9 -12 9 -68v-11q0 -29 -2.5 -47t-6.5 -24zM552 598q-46 0 -81.5 -15t-58.5 -44q-48 -59 -47 -170q0 -108 48.5 -166t141.5 -58q87 -1 131 58t44 170q0 54 -11 96t-34 71q-45 58 -133 58z" />
    <glyph glyph-name="uniFEE5" unicode="&#x646;" horiz-adv-x="1442" arabic-form="isolated" 
d="M587 683l91 91q29 29 52 6l98 -98q26 -26 -3 -55l-91 -91q-27 -27 -53 -1l-98 98q-23 23 4 50zM1313 52q-6 -245 -145 -367q-35 -30 -78.5 -52.5t-96 -38t-113.5 -23t-131 -7.5h-55q-290 0 -433 133q-143 134 -143 404v326h147v-325q0 -191 109 -289t322 -98h51
q213 0 322 83q110 84 110 248v570h146z" />
    <glyph glyph-name="uniFEE6" unicode="&#x646;" horiz-adv-x="1590" arabic-form="final" 
d="M1593 15h-36q-162 0 -241 91l-3 5v-6v-25v-28q0 -246 -140 -367q-139 -121 -424 -121h-55q-486 0 -562 381q-14 69 -14 156v326h147v-325q0 -191 109 -289t322 -98h51q213 0 322 83q110 84 110 248v570h146v-199q0 -124 61 -188q62 -64 180 -64h28q1 -2 3 -8
q0 -2 0.5 -4.5t1.5 -5.5t1.5 -6.5t0.5 -7.5q1 -5 1.5 -11t0.5 -12v-13v-11q0 -58 -10 -71zM581.671 646.113l97.3652 97.3652q31.0283 31.0293 55.6377 6.41992l104.854 -104.854q27.8184 -27.8184 -3.20996 -58.8467l-97.3652 -97.3652q-28.8887 -28.8887 -56.707 -1.07031
l-104.854 104.854q-24.6094 24.6094 4.2793 53.4971z" />
    <glyph glyph-name="uniFEE7" unicode="&#x646;" horiz-adv-x="677" arabic-form="initial" 
d="M-5 15q-19 0 -28.5 16t-9.5 55v11q0 38 9.5 53t28.5 15h203q106 0 161.5 53t55.5 155v279h144v-279q0 -181 -89.5 -269.5t-272.5 -88.5h-202zM286 1063l91 91q29 29 52 6l98 -98q26 -26 -3 -55l-91 -91q-27 -27 -53 -1l-98 98q-23 23 4 50z" />
    <glyph glyph-name="uniFEE8" unicode="&#x646;" horiz-adv-x="827" arabic-form="medial" 
d="M831 15h-20q-210 0 -296 129l-11 18l-13 -17q-100 -130 -345 -130h-151q-19 0 -28.5 16t-9.5 55v11q0 38 11 54q9 14 27 14h156q132 0 201.5 53t69.5 157v243h146v-243q0 -103 62 -156.5t180 -53.5h21q9 -13 9 -68v-11q0 -57 -9 -71zM286 1063l91 91q29 29 52 6l98 -98
q26 -26 -3 -55l-91 -91q-27 -27 -53 -1l-98 98q-23 23 4 50z" />
    <glyph glyph-name="uniFEE9" unicode="&#x647;" horiz-adv-x="924" arabic-form="isolated" 
d="M447 636q-64 -54 -106 -105t-64 -102t-22 -100q0 -83 56 -125t161 -42q65 0 110 19t68.5 57.5t23.5 94.5q0 137 -206 303l-1 1l-10 8l-9 -8zM118 312q0 207 232 417l1 1l12 11l-12 12l-1 1l-27 25l85 99q405 -294 404 -551q0 -158 -84 -234.5t-258 -76.5
q-179 0 -265.5 73.5t-86.5 222.5z" />
    <glyph glyph-name="uniFEEA" unicode="&#x647;" horiz-adv-x="1084" arabic-form="final" 
d="M1088 15h-45q-120 0 -193 44t-104 133l-4 12l-13 -2q-20 -4 -41.5 -7t-44 -5t-46 -3.5t-47.5 -2.5t-49 -1q-200 0 -296 63.5t-96 190.5q0 303 490 379l16 3l-3 15l-10 50l139 26l95 -545q17 -98 72.5 -149t145.5 -51h35q10 -10 10 -66v-11q0 -61 -11 -73zM703 363
l-55 296l-3 14l-14 -2q-385 -49 -385 -221q0 -123 242 -122q108 0 203 17l14 3z" />
    <glyph glyph-name="uniFEEB" unicode="&#x647;" horiz-adv-x="1301" arabic-form="initial" 
d="M-5 15q-38 0 -38 71v11q0 68 38 68h269h51h7l-6 4l-43 27q-113 72 -113 225q0 118 59 210q100 154 267 154q87 0 150 -36l12 -7l1 -1l1 2l8 11l78 114q444 -360 443 -608q0 -85 -30 -149t-91 -106q-65 -46 -152 -46q-226 0 -438 111l-5 3l-1 1l-1 -1l-6 -1
q-189 -57 -385 -57h-75zM487 229q172 124 173 280q0 87 -77 126q-33 16 -70 16q-42 0 -74 -14q-43 -19 -73 -54q-15 -18 -27 -39.5t-21 -46.5q-14 -42 -14 -79q0 -64 36 -105q44 -48 130 -86l8 -3l1 -1l1 1zM627 159q146 -60 254 -60q56 0 89 29q69 60 69 131
q0 133 -255 374l-42 39l-8 8l5 -10q45 -87 45 -211q0 -173 -182 -287l-3 -2l3 -1z" />
    <glyph glyph-name="uniFEEC" unicode="&#x647;" horiz-adv-x="941" arabic-form="medial" 
d="M945 15h-195h-4h-30l18 -24l3 -3q16 -22 28.5 -46t20.5 -49t12 -52t4 -55q0 -59 -12 -102.5t-35 -73.5q-7 -9 -15 -16.5t-17 -14.5t-19 -12.5t-21 -10.5q-46 -18 -109 -18q-176 0 -272 148q-78 120 -98 314v1l-1 14h-14h-2h-192q-19 0 -28.5 16t-9.5 55v11q0 38 11 54
q9 14 27 14h192h2h14l1 14v2q25 312 125 459q86 126 215 127q52 0 97 -22q46 -22 86 -67q77 -86 77 -245q0 -149 -66 -241l-2 -3l-17 -24h29h4h193q10 -13 10 -68v-11q0 -41 -6 -61q-2 -7 -4 -10zM333 -3q3 -34 8.5 -65t12.5 -58q15 -55 38 -95q60 -103 168 -103
q57 0 87.5 33.5t30.5 95.5q0 104 -58 158q-57 53 -168 53h-103h-2h-16l1 -16zM677 407q0 63 -14 109q-15 47 -45 76q-17 17 -37.5 25.5t-44.5 8.5q-36 0 -67 -27q-15 -13 -28 -31t-25 -42q-59 -118 -83 -342l-1 -2l-1 -17h16h3l118 1q103 1 156 62.5t53 178.5z" />
    <glyph glyph-name="uniFEED" unicode="&#x648;" horiz-adv-x="877" arabic-form="isolated" 
d="M628 15h-17h-160q-169 0 -251 80.5t-82 252.5q1 214 121 300q82 59 206 61q138 1 231 -83q92 -85 92 -271v-357q0 -444 -553 -443h-59v149h53q418 -1 419 294v17zM255 336q0 -80 50 -125t145 -45h162h17l-1 183q0 220 -182 219q-191 0 -191 -232z" />
    <glyph glyph-name="uniFEEE" unicode="&#x648;" horiz-adv-x="933" arabic-form="final" 
d="M768 355v-173v-2v-15h15h2h152q4 -5 6 -23q3 -21 3 -45v-11q0 -41 -5 -61q-3 -10 -5 -10h-150h-2h-15v-15v-2q-8 -444 -554 -443h-59v149h53q418 -1 419 294v2v15h-15h-2h-160q-169 0 -251 81q-82 80 -82 246q1 178 84 272q85 95 248 96q143 0 227 -82q45 -43 67 -111
q23 -69 24 -162zM255 343q0 -87 50 -132.5t145 -45.5h162h2h15v15v2l-1 167q0 107 -46 163.5t-136 55.5q-95 0 -144 -58q-47 -57 -47 -167z" />
    <glyph glyph-name="uniFEEF" unicode="&#x649;" horiz-adv-x="1446" arabic-form="isolated" 
d="M1061 214q137 0 202 -50.5t65 -154.5v-29q0 -208 -136.5 -311t-416.5 -103h-84q-484 0 -559 380q-15 73 -15 158v396h145v-395q0 -192 109 -290t322 -98h91q98 0 172.5 15t125.5 45t77.5 76.5t26.5 108.5v12q0 80 -91 93q-17 3 -35 3h-161q-81 0 -118.5 36.5t-37.5 113.5
v65q0 78 11.5 142t34 114t55.5 87q50 56 126 84.5t179 28.5h179l1 -155h-222q-106 0 -161.5 -75t-57.5 -219l-2 -60v-2v-16h15h2h158z" />
    <glyph glyph-name="uniFEF0" unicode="&#x649;" horiz-adv-x="1433" arabic-form="final" 
d="M1436 15h-100h-15h-2v-2v-15l-1 -77q-3 -178 -135 -268q-132 -89 -402 -89h-89q-290 0 -432 133q-142 132 -143 401v327l145 -1v-324q0 -191 108.5 -288.5t318.5 -97.5h96q391 0 391 214v70v15v2h-2h-15h-251q-18 0 -33 18t-26 59q-7 25 -8.5 43t-0.5 24q1 4 2 6h595
q9 -12 9 -68v-11q0 -29 -2.5 -47t-7.5 -24z" />
    <glyph glyph-name="uniFEF1" unicode="&#x64a;" horiz-adv-x="1446" arabic-form="isolated" 
d="M790 -678l91 91q27 27 48 6l98 -98q24 -24 -3 -51l-91 -91q-25 -25 -49 -1l-98 98q-10 10 -9 21.5t13 24.5zM443 -678l91 91q27 27 48 6l98 -98q24 -24 -3 -51l-91 -91q-25 -25 -49 -1l-98 98q-20 21 4 46zM1061 214q137 0 202 -50.5t65 -154.5v-29q0 -208 -136.5 -311
t-416.5 -103h-84q-484 0 -559 380q-15 73 -15 158v396h145v-395q0 -192 109 -290t322 -98h91q98 0 172.5 15t125.5 45t77.5 76.5t26.5 108.5v12q0 80 -91 93q-17 3 -35 3h-161q-81 0 -118.5 36.5t-37.5 113.5v65q0 78 11.5 142t34 114t55.5 87q50 56 126 84.5t179 28.5h179
l1 -155h-222q-106 0 -161.5 -75t-57.5 -219l-2 -60v-2v-16h15h2h158z" />
    <glyph glyph-name="uniFEF2" unicode="&#x64a;" horiz-adv-x="1433" arabic-form="final" 
d="M819 -696l91 91q27 27 48 6l98 -98q24 -24 -3 -51l-91 -91q-25 -25 -49 -1l-98 98q-10 10 -9 21.5t13 24.5zM472 -696l91 91q27 27 48 6l98 -98q24 -24 -3 -51l-91 -91q-25 -25 -49 -1l-98 98q-20 21 4 46zM1436 15h-100h-15h-2v-2v-15l-1 -77q-3 -178 -135 -268
q-132 -89 -402 -89h-89q-290 0 -432 133q-142 132 -143 401v327l145 -1v-324q0 -191 108.5 -288.5t318.5 -97.5h96q391 0 391 214v70v15v2h-2h-15h-251q-18 0 -33 18t-26 59q-7 25 -8.5 43t-0.5 24q1 4 2 6h595q9 -12 9 -68v-11q0 -29 -2.5 -47t-7.5 -24z" />
    <glyph glyph-name="uniFEF3" unicode="&#x64a;" horiz-adv-x="717" arabic-form="initial" 
d="M355 -310l91 91q27 27 48 6l98 -98q24 -24 -3 -51l-91 -91q-25 -25 -49 -1l-98 98q-10 10 -9 21.5t13 24.5zM8 -310l91 91q27 27 48 6l98 -98q24 -24 -3 -51l-91 -91q-25 -25 -49 -1l-98 98q-20 21 4 46zM-5 15q-18 0 -28 15q-10 17 -10 56v11q0 19 2.5 32.5t7.5 20.5
q9 15 28 15h233q217 0 217 208v279h144v-279q0 -358 -360 -358h-234z" />
    <glyph glyph-name="uniFEF4" unicode="&#x64a;" horiz-adv-x="857" arabic-form="medial" 
d="M367 -310l91 91q27 27 48 6l98 -98q24 -24 -3 -51l-91 -91q-25 -25 -49 -1l-98 98q-10 10 -9 21.5t13 24.5zM20 -310l91 91q27 27 48 6l98 -98q24 -24 -3 -51l-91 -91q-25 -25 -49 -1l-98 98q-20 21 4 46zM861 15h-20q-219 0 -306 135l-1 2l-2 -2q-102 -135 -356 -135
h-181q-19 0 -28 15q-10 17 -10 56v11q0 38 10 53q9 15 28 15h186q271 0 271 210v243h146v-243q0 -70 27 -116.5t81 -70t134 -23.5h21q4 -6 6.5 -23t2.5 -45v-11q0 -58 -9 -71z" />
    <glyph glyph-name=".notdef" horiz-adv-x="507" 
 />
    <glyph glyph-name=".null" 
 />
    <glyph glyph-name="nonmarkingreturn" unicode="&#xd;" horiz-adv-x="507" 
 />
    <glyph glyph-name="uni0002" 
 />
    <glyph glyph-name="uni0009" unicode="&#x9;" 
 />
    <glyph glyph-name="space" unicode=" " horiz-adv-x="560" 
 />
    <glyph glyph-name="exclam" unicode="!" horiz-adv-x="568" 
d="M168 130q0 10 1.5 19t4 17t6.5 15.5t9 15t12 13.5q33 33 80 34q49 -1 82 -34t33 -80q0 -8 -1 -15t-3 -14.5t-4.5 -14t-6 -12.5t-8.5 -12l-10 -12q-33 -33 -81 -33t-81 33q-17 17 -25 37t-8 43zM194 1336h168l-21 -898h-125z" />
    <glyph glyph-name="quotedbl" unicode="&#x22;" horiz-adv-x="655" 
d="M262 1401l-29 -344h-82l1 333v131h110v-120zM532 1401l-29 -344h-82l1 341v123h110v-120z" />
    <glyph glyph-name="numbersign" unicode="#" horiz-adv-x="1275" 
d="M734 425h-294l-80 -410h-113l80 410h-242v107h262l75 384h-261v109h282l82 416h113l-82 -416h294l82 416h114l-82 -416h207v-109h-228l-75 -384h228v-107h-248l-80 -410h-114zM460 532h294l75 384h-294z" />
    <glyph glyph-name="dollar" unicode="$" horiz-adv-x="1090" 
d="M806 271q20 47 20 104q0 48 -16 89q-16 40 -52 76q-9 8 -19 17q-10 8 -20.5 16t-22 15.5t-24.5 14.5q-25 15 -56 28.5t-68 26.5q-87 29 -156 67q-34 19 -65 41t-57 47q-17 16 -31 34.5t-25.5 38.5t-20.5 42q-14 32 -20.5 70t-6.5 81q0 80 24 146t68.5 114.5t107.5 78.5
q59 30 133 40l13 2v217h110v-218l12 -2q75 -11 136 -45q63 -34 108 -90q86 -110 90 -299h-154q-2 61 -17 112q-17 59 -50 102q-32 44 -78 68.5t-105 24.5q-12 0 -23.5 -0.5t-22 -2t-21 -4t-20 -5t-18.5 -6.5q-46 -18 -76 -51t-46 -79q-6 -15 -9.5 -31.5t-5 -33.5t-1.5 -35
q0 -51 15 -92t48 -76q32 -33 85 -63q52 -29 130 -56q44 -16 83 -33t75 -36q37 -19 67.5 -40.5t55 -46t43.5 -52.5t32 -61q26 -64 26 -149q0 -84 -26 -151q-26 -66 -74.5 -113.5t-116.5 -76.5q-67 -29 -146 -38l-13 -1v-190h-109v190l-13 1q-69 7 -134 34q-35 13 -65.5 32.5
t-56.5 45.5q-53 51 -85 129q-5 12 -9 25t-7.5 27t-6.5 28.5t-4.5 30t-3 31.5t-1.5 33h155q2 -78 26 -132q13 -30 30.5 -53.5t39.5 -41.5q13 -11 27 -20.5t29.5 -16.5t31.5 -12q48 -13 96 -13q64 0 114 17q51 18 88 50q38 33 59 79z" />
    <glyph glyph-name="percent" unicode="%" horiz-adv-x="1440" 
d="M105 1099v77q0 59 20 111q19 52 55.5 90.5t89 61.5t117.5 23q32 0 60.5 -5.5t54.5 -17.5q16 -7 31.5 -16.5t28.5 -20.5t25 -24q34 -39 53 -91q9 -26 14 -53.5t5 -57.5v-77q0 -58 -19 -110q-9 -26 -22 -48.5t-30.5 -41.5t-39 -34.5t-46.5 -26.5q-50 -23 -114 -23
q-21 0 -41 3q-21 2 -40 7t-37 13q-52 23 -89 61q-19 19 -33 41.5t-23.5 48.5t-14.5 53.5t-5 56.5zM213 1176v-77q0 -12 1 -24.5t3.5 -24t6.5 -22.5q11 -35 32 -62q22 -28 56 -44.5t76 -16.5t74 17q8 4 15.5 8.5t14 10t12.5 11.5t11 13q10 14 17.5 29.5t12.5 32.5q3 9 4.5 18
l3 18t2 18t0.5 18v77q0 37 -10 72q-11 35 -31 62q-21 28 -53 44q-17 9 -35.5 13t-38.5 4q-44 0 -77 -16.5t-54 -44.5q-22 -27 -32 -62q-11 -35 -11 -72zM796 279v78q0 10 0.5 19.5t1.5 19t3 18.5l4 18t4.5 18t5.5 18q5 13 10.5 25t12.5 23.5t14.5 22t16.5 19.5
q35 38 85.5 61t113.5 23q22 0 42 -3q21 -2 40 -7t37 -13q52 -23 89 -61q18 -19 32 -41.5t23 -48.5q20 -53 20 -111v-78q0 -59 -20 -111q-9 -26 -23 -48.5t-32 -41.5q-37 -38 -89 -61t-116.5 -23t-115 23t-86.5 61q-18 19 -31.5 41.5t-22.5 48.5q-19 52 -19 111zM900 357v-78
q0 -19 2.5 -37t7.5 -35q11 -35 32 -62q21 -28 53 -44q17 -9 35.5 -13t39.5 -4q14 0 27 2t25.5 5.5t23.5 9.5q33 16 54 44q22 27 32 62t10 72v78q0 37 -11 72q-10 35 -32 62q-21 27 -55 43q-17 9 -36 13t-39.5 4t-39 -4t-34.5 -13q-16 -8 -29.5 -19t-24 -24t-18 -29
t-13.5 -33q-10 -35 -10 -72zM1093 1243l-669 -1112l-76 50l668 1112z" />
    <glyph glyph-name="ampersand" unicode="&#x26;" horiz-adv-x="1273" 
d="M116 391q0 63 20 114q19 51 55 97q37 46 88 88q51 43 113 87l13 9l-10 13q-37 44 -67 85q-29 40 -50 80q-21 39 -32 78t-11 80t6.5 77.5t18.5 68.5q25 62 70.5 105t109.5 65q32 12 68 17.5t76 5.5q39 0 73.5 -6t65 -18t56.5 -28t48 -36q42 -40 65 -93q6 -13 10 -26.5
t7 -27.5t4.5 -28.5t1.5 -29.5q0 -25 -3.5 -48t-10.5 -44q-14 -41 -38 -78q-7 -9 -13.5 -18t-14 -18t-16 -17t-17.5 -16q-18 -17 -37.5 -33.5t-40.5 -32.5l-123 -90l349 -417l10 20q33 63 52 137q16 68 18 144h137q-2 -115 -29 -212q-4 -13 -8 -25.5t-9 -25t-10 -24.5
t-10.5 -23.5t-12 -23t-13 -22.5t-13.5 -22t-15 -21l-7 -10l195 -233h-183l-102 121l-12 -10q-37 -33 -80.5 -57.5t-91 -40.5t-97 -24.5t-97.5 -8.5q-106 0 -192 30q-84 29 -143 82q-20 17 -36 36.5t-29.5 41.5t-24.5 46q-31 73 -31 160zM572 116q37 0 74 7.5t73 22.5
q9 4 17.5 8t17.5 8.5t17 9.5t16.5 10.5t16.5 11.5l16 12t16 12.5t15 13.5l11 10l-374 446l-53 -39q-55 -41 -88 -80q-16 -19 -28.5 -37t-20.5 -35q-17 -34 -22 -62q-5 -27 -5 -44q0 -28 4.5 -54.5t13.5 -51.5q10 -25 24 -47t33 -41q38 -38 95 -60q56 -21 131 -21zM390 1128
q0 -59 34 -122q32 -60 87 -127l9 -11l117 82l20 14t19 14t17 15q26 22 44 47q19 26 28 57q4 16 6.5 33.5t2.5 37.5q0 33 -13 64q-12 31 -37 54q-25 24 -60 38q-12 5 -25 8.5t-27 5t-29 1.5q-12 0 -23 -1t-21.5 -3t-20 -5.5t-18.5 -7.5q-36 -17 -61 -46q-6 -8 -11.5 -16
t-10 -16t-8.5 -17t-7 -19q-6 -19 -9 -39t-3 -41z" />
    <glyph glyph-name="quotesingle" unicode="'" horiz-adv-x="357" 
d="M238 1425l-20 -353h-100l1 337v112h119v-96z" />
    <glyph glyph-name="parenleft" unicode="(" horiz-adv-x="700" 
d="M148 591q0 48 2.5 94t7.5 90t13 86q11 63 26.5 121.5t34.5 111.5q38 107 88 195q25 44 50.5 82.5t52.5 72.5q18 22 36 42t36 38t35 34q44 39 84 63l30 -95q-29 -22 -57.5 -52t-56.5 -68q-62 -80 -113 -198q-12 -29 -23.5 -60.5t-22 -65.5t-19.5 -70t-17 -74
q-32 -153 -32 -345v-14q0 -192 32 -345q32 -154 82 -271q51 -118 112 -200q58 -77 115 -125l-29 -86q-7 4 -13.5 8.5t-13.5 9.5l-14 10t-14 11t-14.5 12t-14.5 12q-54 47 -108 114.5t-103.5 154.5t-87.5 194t-61 232.5t-23 270.5v10z" />
    <glyph glyph-name="parenright" unicode=")" horiz-adv-x="712" 
d="M552 581q0 -145 -23 -270.5t-61 -232.5q-19 -53 -41 -101.5t-46.5 -92t-50.5 -82t-53 -72.5q-54 -68 -108 -115q-44 -39 -84 -63l-29 86q56 45 114 121q62 82 112 201t82 273t32 346v14q0 96 -8.5 182.5t-25.5 164.5t-38 146.5t-47 127.5q-52 119 -113 200
q-56 76 -108 121l29 86q40 -24 84 -63q54 -47 108 -114q13 -17 26.5 -35t26 -37.5t25.5 -40t25 -42.5q50 -88 88 -195q19 -53 34.5 -111.5t26.5 -121.5q23 -126 23 -270v-10z" />
    <glyph glyph-name="asterisk" unicode="*" horiz-adv-x="882" 
d="M355 991l-308 92l37 121l308 -114l-10 351h123l-11 -356l303 112l37 -122l-313 -93l202 -276l-99 -75l-190 294l-184 -288l-100 73z" />
    <glyph glyph-name="plus" unicode="+" horiz-adv-x="1161" 
d="M655 766h406v-145h-406v-460h-156v460h-406v145h406v425h156v-425z" />
    <glyph glyph-name="comma" unicode="," horiz-adv-x="402" 
d="M293 71q0 -22 -3 -44.5t-8 -46.5q-12 -48 -33 -94q-11 -23 -24.5 -45.5t-28.5 -43.5q-28 -38 -63 -68l-83 57q42 62 66 126q26 72 26 156v136h151v-133z" />
    <glyph glyph-name="hyphen" unicode="-" horiz-adv-x="565" 
d="M510 558h-458v121h458v-121z" />
    <glyph glyph-name="period" unicode="." horiz-adv-x="572" 
d="M173 127.5q0 23.5 8 43.5q4 10 10.5 19t14.5 17q33 33 81 34q9 0 18.5 -1.5t17.5 -4t16 -6.5t15.5 -9.5t13.5 -12.5q33 -33 33 -80q0 -23 -8 -43t-24.5 -36.5t-36.5 -25t-44 -8.5q-12 0 -23.5 2t-21.5 6q-20 9 -36.5 25.5t-25 36.5t-8.5 43.5z" />
    <glyph glyph-name="slash" unicode="/" horiz-adv-x="844" 
d="M167 -110h-127l596 1551h126z" />
    <glyph glyph-name="zero" unicode="0" horiz-adv-x="1090" 
d="M974 843v-222q0 -177 -32 -298q-31 -119 -88 -192q-29 -36 -63.5 -62t-73.5 -42q-76 -32 -171 -32t-171 32q-80 32 -137 104q-58 73 -91 192q-32 121 -32 298v222q0 59 3.5 112t10.5 99t18 85q32 118 90 190q57 70 137 101q76 31 170 31q32 0 61.5 -3.5t57 -10.5
t53.5 -17q80 -31 137 -101q58 -72 89 -190q32 -119 32 -296zM819 592v282q0 125 -18 212q-2 11 -4.5 21.5t-5.5 20.5t-6 19.5t-6.5 18.5t-7 17.5t-7.5 16.5t-8.5 16t-8.5 15q-36 57 -88 83q-50 25 -115 25q-64 0 -114 -25q-52 -26 -87 -83q-36 -56 -55 -145
q-18 -87 -18 -212v-282q0 -124 18 -213q19 -90 56 -148q36 -60 87 -87q51 -28 115 -28q33 0 62 7t54 21q26 14 47 36t39 51q12 20 22 43t18 49.5t14 56.5q8 44 12.5 97t4.5 115z" />
    <glyph glyph-name="one" unicode="1" horiz-adv-x="1120" 
d="M699 1448v-1433h-156v1239l-373 -137v137l518 194h11z" />
    <glyph glyph-name="two" unicode="2" horiz-adv-x="1090" 
d="M1015 136v-121h-894v112l456 526q62 73 103 130q21 28 37.5 54t28.5 50q25 49 35.5 91t10.5 86q0 57 -18 107q-17 50 -49 87t-78.5 59t-106.5 22q-18 0 -35 -1.5t-32.5 -4.5t-30 -7t-28.5 -10q-26 -12 -48.5 -28t-41.5 -37q-10 -10 -18.5 -21.5t-15.5 -24t-13 -25.5
t-10 -28q-17 -50 -19 -110h-155q2 81 29 154q30 79 87.5 137.5t142.5 93.5q81 34 188 34q94 0 168 -27q37 -14 68 -33q33 -19 60 -43.5t48 -54t35 -64.5q29 -69 29 -153q0 -62 -21 -124q-22 -64 -58 -127q-37 -64 -86 -126q-47 -63 -98 -124l-390 -449h720z" />
    <glyph glyph-name="three" unicode="3" horiz-adv-x="1090" 
d="M386 682v121h108q69 0 121 20q27 10 49 24t40 32q18 17 32.5 38.5t24.5 45.5q19 48 19 105q0 131 -67 201q-63 70 -188 70q-57 0 -104 -18q-48 -19 -82 -54q-37 -34 -57 -84q-18 -43 -20 -94h-155q3 73 31 136q30 70 87 122.5t135 82.5q37 16 78 23.5t87 7.5
q89 0 162 -26q76 -25 131 -75q28 -24 49.5 -55t36.5 -68t23 -80t8 -93q0 -13 -1.5 -26.5t-4.5 -27t-7 -28.5q-3 -8 -6 -16.5t-6.5 -17t-8 -17l-9 -17t-9.5 -16.5q-13 -20 -30.5 -39.5t-38.5 -37.5q-8 -7 -17 -14t-18.5 -13t-19.5 -12t-21 -11t-23 -10l-35 -16l36 -12
q70 -22 116 -58q23 -18 41.5 -38t32.5 -42q28 -44 39 -92q12 -50 12 -97q0 -99 -34 -175.5t-93 -128.5q-30 -26 -65 -45.5t-74 -33.5q-38 -14 -79.5 -21t-85.5 -7q-86 0 -162 26q-19 6 -37 14q-19 8 -37 17.5t-34.5 20.5t-31.5 23q-30 25 -54 55.5t-41 66.5q-32 66 -35 151
h156q2 -51 20 -94q20 -50 59 -85q12 -12 25.5 -22.5t28.5 -18.5t32 -14q49 -19 110.5 -19t110.5 17q25 9 46.5 22.5t40.5 31.5q39 36 59 91q10 27 15 58t5 66q0 71 -23 124q-24 53 -67 88q-40 35 -96 51q-27 9 -57.5 13t-64.5 4h-108z" />
    <glyph glyph-name="four" unicode="4" horiz-adv-x="1090" 
d="M842 1441v-967h202v-121h-202v-338h-150v338h-639v90l623 998h166zM645 1171l-424 -697h471v787z" />
    <glyph glyph-name="five" unicode="5" horiz-adv-x="1090" 
d="M334 708l-128 33l71 700h687v-141h-558l-48 -440l26 15q18 11 41 21.5t50 20.5q18 6 38.5 10.5t42.5 6.5t47 2q89 0 161 -33q77 -33 131 -94q54 -62 83 -149q15 -44 22 -93t7 -103q0 -51 -7 -98.5t-20 -90.5q-28 -85 -83 -148q-55 -62 -138 -97q-77 -35 -182 -35
q-40 0 -77.5 6t-72.5 18q-73 23 -132 72q-29 24 -53 54t-43 67q-35 67 -45 156h145q10 -61 33 -107t59 -78q72 -67 186 -67q64 0 113 24q25 13 46.5 30.5t39.5 39.5q38 46 57 110t19 142q0 70 -19 132q-20 61 -59 107q-19 23 -41.5 41t-48.5 32q-14 6 -28 11t-29 8.5t-31 5
t-33 1.5q-45 0 -78 -7q-32 -7 -59 -19q-5 -3 -10 -5.5t-10 -5.5t-10.5 -6.5t-10.5 -7t-9 -7.5q-7 -5 -14 -10.5t-14 -11.5z" />
    <glyph glyph-name="six" unicode="6" horiz-adv-x="1089" 
d="M784 1442h2v-127h-2q-129 0 -217.5 -41.5t-146.5 -109.5q-28 -35 -51 -74q-23 -40 -39 -84t-26 -89.5t-14 -92.5l-4 -46l30 35q58 66 129 97q72 30 156 30q97 0 168 -40q38 -20 69.5 -46t55.5 -59q16 -21 30 -45t24.5 -49.5t18.5 -53.5q24 -84 24 -172q0 -51 -7 -98.5
t-21 -91.5t-35 -82t-48 -70q-55 -64 -136 -101q-75 -37 -175 -37q-105 0 -183 47q-85 48 -141 124q-29 39 -50 82.5t-36 92.5q-28 98 -28 197v87q0 101 12 202q13 100 43 191q15 45 35.5 87t45.5 81t56.5 72.5t67.5 62.5q70 56 166 89q97 32 227 32zM687 786q-49 30 -115 30
q-16 0 -31.5 -2t-30.5 -5.5t-29 -8.5q-44 -17 -80 -45q-38 -28 -67 -66q-30 -39 -46 -83l-1 -2v-71q0 -100 24 -177q12 -38 28.5 -70.5t37.5 -59.5q7 -10 15.5 -19.5t17 -18.5t17.5 -16.5t18.5 -14t19.5 -11.5q17 -10 34 -16t34.5 -9t35.5 -3q63 0 112 26t84 73
q37 47 55 111q19 63 19 138q0 67 -17 129q-6 21 -13.5 40.5t-17 37.5t-21.5 34q-34 49 -83 79z" />
    <glyph glyph-name="seven" unicode="7" horiz-adv-x="1090" 
d="M1001 1441v-86l-575 -1340h-154l571 1304h-766v122h924z" />
    <glyph glyph-name="eight" unicode="8" horiz-adv-x="1090" 
d="M913 1240q31 -72 31 -164q0 -35 -6 -67t-18.5 -61.5t-30.5 -57t-41 -50.5t-50 -42.5t-59 -35.5l-27 -14l28 -13q18 -8 35 -17t33 -19t30 -22q22 -17 41 -36.5t34 -41.5q31 -44 48 -95.5t17 -110.5q0 -97 -34 -171q-12 -24 -26 -46.5t-31 -41.5t-37 -36q-60 -51 -140 -77
q-38 -13 -79.5 -19.5t-85.5 -6.5t-85.5 6.5t-79.5 19.5q-81 26 -140 77q-60 50 -94 124t-34 171q0 59 16.5 110.5t46.5 96.5q15 22 33.5 41.5t39.5 36.5q44 35 98 58l28 13l-27 14q-47 24 -84 55.5t-63 72.5q-54 81 -54 185q0 92 31 164q30 71 85 120t128 75
q36 13 74.5 19.5t80.5 6.5t80.5 -6.5t73.5 -19.5q73 -26 129 -75q55 -49 85 -120zM820.5 355q2.5 20 2.5 42q0 64 -22 118q-21 53 -60 92q-8 8 -16 15t-16.5 13.5t-17.5 12t-18.5 10.5t-19.5 9q-25 11 -52.5 16t-57.5 5q-12 0 -23.5 -1t-23 -2.5t-22.5 -4t-21 -6t-20 -7.5
q-17 -7 -32 -16t-28.5 -20t-26 -24t-23.5 -27.5t-20 -31t-16 -34.5q-20 -53 -20 -117q0 -66 20 -117q20 -53 59 -89q36 -37 87 -56q49 -19 112 -19q62 0 112 19t86 56q39 36 59 88q7 18 11.5 37t7 39zM771 966q18 48 18 107q0 57 -18 105q-19 49 -53 85q-32 36 -76 56
t-97 20t-97 -19q-44 -18 -76 -53q-34 -35 -53 -84q-18 -49 -18 -110q0 -59 18 -107q10 -25 23 -46t29 -38q32 -35 76 -53q44 -19 98 -19q27 0 51.5 4.5t46.5 14t41 23t35 30.5q33 35 52 84z" />
    <glyph glyph-name="nine" unicode="9" horiz-adv-x="1090" 
d="M305 140h3q144 0 236 42q93 42 148 112q57 70 81 161q23 89 27 184l2 44l-28 -33q-57 -67 -129 -108q-71 -40 -157 -40q-96 0 -167 41q-76 41 -124 106q-49 67 -73 151q-24 85 -24 172q0 51 7 99t21 92q28 90 83 156q18 22 39 41t45.5 34.5t51.5 28.5q75 38 175 38
q111 0 190 -49q14 -8 27 -17t25.5 -18.5t24 -20.5t22.5 -22.5t21 -24t19 -25.5q27 -41 47 -87t32 -97q26 -104 26 -213v-67v-26.5t-0.5 -27.5t-1 -27.5t-1.5 -27t-2 -27.5t-2 -27.5t-2 -27.5q-10 -96 -36 -186t-72 -168q-16 -26 -34.5 -49.5t-40 -45t-46.5 -41.5
q-24 -19 -50 -35.5t-56 -30.5t-64 -25q-100 -34 -240 -34h-3v126zM401 656q49 -31 115 -31q46 0 88.5 16t78.5 44q18 14 34 30q18 17 33 35q5 7 10 13.5t9.5 13t8.5 13.5t8 13.5t7.5 14t6.5 14.5l1 3v77q0 101 -24 180q-8 26 -17.5 49.5t-21 44.5t-24.5 39t-27 33.5t-29 28
t-32 21.5q-24 15 -50 22t-54 7q-12 0 -24 -1t-23.5 -3.5t-22.5 -5.5t-21.5 -7.5t-20.5 -10.5q-49 -27 -84 -75q-37 -48 -55 -113q-10 -32 -14.5 -67t-4.5 -72q0 -13 0.5 -26.5t2 -26.5t3.5 -26t4.5 -26t5.5 -25q17 -64 51 -114q34 -51 82 -82z" />
    <glyph glyph-name="colon" unicode=":" horiz-adv-x="579" 
d="M175 832q0 47 33 80t81 34q24 0 44 -8.5t37 -25.5q33 -33 33 -80q0 -23 -8 -43t-25 -36.5t-36.5 -25t-43.5 -8.5q-25 0 -45 8.5t-37 24.5l-10 12t-8.5 12t-6.5 13q-8 20 -8 43zM175 127.5q0 23.5 8 43.5q4 10 10.5 19t14.5 17q33 33 81 34q9 0 18.5 -1.5t17.5 -4t16 -6.5
t15.5 -9.5t13.5 -12.5q33 -33 33 -80q0 -23 -8 -43t-25 -36.5t-36.5 -25t-43.5 -8.5q-13 0 -24 2t-21 6q-20 9 -37 25.5t-25 36.5t-8 43.5z" />
    <glyph glyph-name="semicolon" unicode=";" horiz-adv-x="433" 
d="M140 1010.5q0 23.5 8 43.5q4 10 10.5 19t14.5 17q33 33 81 34q9 0 18.5 -1.5t17.5 -4t16 -6.5t15.5 -9.5t13.5 -12.5q33 -33 33 -80q0 -23 -8 -43t-24.5 -36.5t-36.5 -25t-44 -8.5q-12 0 -23.5 2t-21.5 6q-20 9 -36.5 25.5t-25 36.5t-8.5 43.5zM305 71q0 -22 -3 -44.5
t-8 -46.5q-12 -48 -33 -94q-11 -23 -24.5 -45.5t-28.5 -43.5q-28 -38 -63 -68l-83 57q42 62 66 126q26 72 26 156v136h151v-133z" />
    <glyph glyph-name="less" unicode="&#x3c;" horiz-adv-x="1041" 
d="M224 644l651 -263v-163l-788 366v126l788 365v-163z" />
    <glyph glyph-name="equal" unicode="=" horiz-adv-x="1124" 
d="M971 829h-804v131h804v-131zM971 414h-804v130h804v-130z" />
    <glyph glyph-name="greater" unicode="&#x3e;" horiz-adv-x="1070" 
d="M836 650l-687 269v157l824 -365v-126l-824 -366v159z" />
    <glyph glyph-name="question" unicode="?" horiz-adv-x="967" 
d="M372 425q2 61 10 105q8 49 27.5 89.5t50.5 78.5q32 39 80 88q34 34 65 66q16 16 30.5 33t26.5 34q24 35 39 76t15 95q0 111 -59 175t-171 64q-46 0 -89 -12q-21 -6 -40.5 -16t-36.5 -23t-30.5 -30t-23.5 -37q-18 -35 -21 -81h-155q4 73 32 131q30 64 83 108q52 45 124 68
q72 24 157 24q47 0 88.5 -6.5t77 -19t65.5 -31t55 -41.5q48 -47 73 -115q13 -34 19.5 -72t6.5 -80v-13.5t-0.5 -12.5t-1 -12.5t-1.5 -12.5l-2 -12l-2 -12t-2.5 -12t-3.5 -12t-3.5 -11.5t-3.5 -11.5q-4 -11 -8.5 -22.5t-10 -22.5l-11 -22t-12 -21.5t-13.5 -20.5
q-17 -26 -37 -51t-42 -48q-45 -47 -92 -92q-29 -27 -48.5 -57.5t-29.5 -64.5q-9 -29 -14 -61.5t-6 -65.5h-155zM364 93q0 39 24 65q23 26 70 26t71 -26q12 -13 18 -29t6 -36q0 -39 -24 -64q-23 -25 -70.5 -25t-71.5 25q-23 25 -23 64z" />
    <glyph glyph-name="at" unicode="@" horiz-adv-x="1839" 
d="M1720 503q-3 -60 -14 -122t-31 -119q-21 -56 -52 -105t-74 -85q-14 -12 -29.5 -22t-33 -19t-35.5 -15q-56 -21 -125 -21q-89 0 -145.5 41t-80.5 116l-9 31l-18 -27q-52 -82 -118 -122q-66 -39 -136 -39t-121 29q-51 31 -84 84q-33 54 -45 132q-13 79 -4 176
q12 130 51 234q39 103 97 176q28 36 60 63.5t67 46.5q17 9 34.5 16.5t35.5 12t36 7t36 2.5q52 0 92 -8t72.5 -22t59.5 -32q25 -17 49 -36l-51 -546q-6 -75 4 -123q11 -49 33 -76q11 -14 24 -24t28 -15q28 -9 54 -9q21 0 41 4t38.5 11.5t35.5 18.5q50 33 84 91q34 56 53 132
q9 38 14.5 78.5t7.5 82.5q2 47 1.5 92t-3.5 87.5t-9 82t-14 77.5q-35 151 -116 256q-81 106 -211 162q-128 56 -305 56q-160 0 -290 -61t-223 -172q-31 -37 -57.5 -78.5t-48.5 -88t-39.5 -97.5t-30 -106t-20 -113t-10.5 -119q-9 -190 30 -341q20 -76 50.5 -140.5
t72.5 -118.5q83 -107 209 -165q126 -57 289 -57q22 0 45 1.5t46 4.5q47 5 91 16t84 25l20 8t19 8.5l17 8.5l28 -86q-15 -9 -31.5 -17t-35.5 -14q-44 -17 -93 -28q-24 -6 -49 -10t-50 -6.5t-48.5 -4t-46.5 -1.5q-62 0 -120 7t-111 21t-102 35q-145 63 -243 182
q-98 118 -147 288q-48 170 -39 382q9 203 72 375t172 298q108 125 258.5 195.5t335.5 70.5q189 0 333 -64q145 -64 240 -182t142 -287q46 -170 37 -380zM694 418q-3 -29 -3.5 -55t1 -50t5.5 -45.5t10.5 -40.5t14.5 -35q45 -84 142 -84q15 0 29.5 3t30 9t30.5 15.5t29 21.5
q29 25 55 64q14 20 25.5 43t21.5 51l1 2v3v4l1 2l47 515l-9 4q-13 7 -27.5 12.5t-30.5 9.5q-32 9 -69 9q-58 0 -110 -30q-51 -30 -91 -89q-40 -57 -66 -143q-27 -84 -37 -196z" />
    <glyph glyph-name="A" unicode="A" horiz-adv-x="1276" 
d="M1071 15l-137 380h-606l-134 -380h-166l533 1426h141l533 -1426h-164zM631 1263l-257 -740h516z" />
    <glyph glyph-name="B" unicode="B" horiz-adv-x="1215" 
d="M647 15h-478v1426h447q52 0 98 -5.5t86 -16.5t75 -28q36 -17 65 -39q59 -46 90 -115q15 -35 23 -77t8 -92q0 -49 -13.5 -91.5t-41.5 -80.5q-19 -25 -41.5 -46t-50.5 -38.5t-60 -31.5l-37 -17l39 -11q15 -5 28.5 -10t26.5 -11t25.5 -12.5t23.5 -14.5q45 -32 76 -75
q16 -21 27.5 -45t20.5 -51q16 -54 16 -113q0 -99 -33 -174q-11 -26 -25 -48.5t-31.5 -42t-37.5 -36.5q-30 -26 -66.5 -45.5t-78.5 -32.5q-81 -26 -181 -26zM656 696h-325v-554h316q67 0 119 19q18 7 33.5 15t30 18t26.5 22q40 36 60 88q21 51 21 114q0 31 -4 59.5t-13 54.5
q-3 10 -7.5 20t-9.5 19t-10.5 17.5t-12.5 16.5l-14 16q-35 36 -88 56q-52 19 -122 19zM331 1313v-493h291q15 0 29.5 1t28 3t26.5 5t26 8q25 8 46.5 20t39.5 28q13 11 23 23.5t19.5 26.5t16.5 29q10 24 15.5 50t5.5 55q0 127 -74 186q-69 58 -208 58h-285z" />
    <glyph glyph-name="C" unicode="C" horiz-adv-x="1273" 
d="M1015 432h163q-13 -91 -47 -171q-38 -85 -103 -148q-33 -31 -73 -55q-40 -25 -85 -42q-91 -36 -212 -36q-120 0 -217 48q-98 47 -170 135q-73 88 -112 212q-40 124 -40 277v149q0 154 40 279q40 124 114 212q37 44 82 78q43 34 93 58q100 48 226 48q114 0 202 -35
q89 -35 153 -97q13 -13 25 -26.5t22.5 -27.5t20 -29.5t18.5 -32t16 -33.5q35 -81 47 -177h-163q-11 70 -33 127q-24 64 -66 109q-20 23 -45.5 40.5t-54.5 29.5q-60 24 -142 24q-96 0 -169 -40t-122 -112q-50 -72 -76 -173q-25 -99 -25 -219v-152q0 -37 2.5 -72.5t7.5 -70
t13 -66.5q23 -99 70 -174q7 -12 15.5 -24t17.5 -22.5t18.5 -20.5t20 -19t21.5 -17t23 -15q35 -22 77 -33t90 -11q44 0 82 5.5t69 17.5q13 4 24.5 9.5t22.5 12t21 13.5t19.5 15t17.5 17q43 44 67 107q22 57 34 128z" />
    <glyph glyph-name="D" unicode="D" horiz-adv-x="1283" 
d="M540 15h-371v1426h388q66 0 126.5 -11.5t114.5 -35.5q109 -47 191 -133q82 -87 127 -211q46 -125 46 -280v-86q0 -155 -46 -280q-22 -62 -54.5 -114.5t-73.5 -95.5q-83 -86 -195 -133q-113 -46 -253 -46zM557 1313h-226v-1171h209q113 0 199 39t143 110q59 72 90 172
q30 99 30 221v89q0 127 -31 227q-15 50 -38 93q-22 42 -50.5 77t-63.5 62t-76 45q-82 36 -186 36z" />
    <glyph glyph-name="E" unicode="E" horiz-adv-x="1104" 
d="M932 815v-127h-601v-546h703v-127h-865v1426h855v-128h-693v-498h601z" />
    <glyph glyph-name="F" unicode="F" horiz-adv-x="1072" 
d="M912 785v-127h-581v-643h-162v1426h842v-128h-680v-528h581z" />
    <glyph glyph-name="G" unicode="G" horiz-adv-x="1335" 
d="M1184 710v-525q-10 -14 -23.5 -29.5t-30.5 -32.5q-35 -36 -94 -67q-58 -32 -142 -54q-82 -22 -197 -22q-124 0 -227 46.5t-181 134.5q-40 44 -70.5 98t-52.5 118q-44 129 -44 293v116q0 164 38 293q37 127 110 216q72 88 174 134q50 24 108 35.5t124 11.5q116 0 203 -33
q44 -16 81 -38q39 -23 71 -51.5t57.5 -63t43.5 -73.5q35 -73 49 -158h-162q-11 54 -33 103q-24 55 -67 96q-20 21 -45.5 37.5t-54.5 28.5q-60 24 -142 24q-101 0 -174 -40q-24 -13 -46 -30t-40.5 -38t-34.5 -45q-49 -73 -73 -176t-24 -231v-118q0 -66 7.5 -125t23.5 -110
q30 -105 85 -178q54 -73 129.5 -111.5t167.5 -38.5q75 0 128 11q27 6 49.5 12.5t40.5 15.5q39 17 63 37t40 37l4 5v359h-324v126h485z" />
    <glyph glyph-name="H" unicode="H" horiz-adv-x="1400" 
d="M1228 1441v-1426h-163v673h-734v-673h-162v1426h162v-626h734v626h163z" />
    <glyph glyph-name="I" unicode="I" horiz-adv-x="527" 
d="M345 1441v-1426h-162v1426h162z" />
    <glyph glyph-name="J" unicode="J" horiz-adv-x="1070" 
d="M749 410v1016h163v-1016q0 -35 -4 -67.5t-11 -62t-18 -56.5q-33 -80 -92 -134t-139 -82q-38 -14 -79.5 -21t-86.5 -7q-91 0 -167 25q-80 24 -138 75q-59 50 -91 126q-31 71 -33 166h162q1 -16 2.5 -30.5t4 -28.5t6 -26.5t8.5 -24.5q21 -53 59 -87q35 -35 83 -52
q47 -16 104 -16q7 0 13.5 0.5t13.5 1t13.5 1.5l13 2t12.5 2.5t12.5 3.5t12.5 4l12 4q24 10 45 24.5t38 33.5q39 39 60 96q21 56 21 130z" />
    <glyph glyph-name="K" unicode="K" horiz-adv-x="1224" 
d="M1017 15l-497 685l-189 -202v-483h-162v1426h162v-744l639 744h192l-541 -627l589 -799h-193z" />
    <glyph glyph-name="L" unicode="L" horiz-adv-x="1042" 
d="M332 1441v-1299h660v-127h-823v1426h163z" />
    <glyph glyph-name="M" unicode="M" horiz-adv-x="1728" 
d="M169 1441h223l471 -1213l471 1213h224v-1426h-162v552l20 695l-492 -1247h-123l-492 1244l22 -692v-552h-162v1426z" />
    <glyph glyph-name="N" unicode="N" horiz-adv-x="1400" 
d="M1228 1441v-1426h-170l-726 1157v-1157h-163v1426h170l728 -1162v1162h161z" />
    <glyph glyph-name="O" unicode="O" horiz-adv-x="1348" 
d="M1229 774v-94q0 -165 -41 -295q-20 -65 -48.5 -119.5t-66.5 -100.5q-73 -90 -174 -137q-100 -48 -224 -48q-40 0 -78 5.5t-73.5 16t-68.5 26.5q-101 47 -177 137q-25 31 -46.5 65t-39.5 73t-32 82q-21 65 -31.5 138.5t-10.5 156.5v94q0 164 42 295q42 130 117 221
q25 30 53.5 55t58.5 46t64 37q100 48 220 48q124 0 225 -48q50 -24 93 -59q45 -34 82 -79.5t66 -100.5t49 -120q41 -131 41 -295zM1068 680v96q0 68 -6.5 128t-20.5 112t-34 96.5t-45 81t-56 64t-68 46t-78 28t-87 9.5q-88 0 -160.5 -37.5t-124.5 -110.5q-52 -72 -80 -177
q-29 -104 -29 -240v-96q0 -137 29 -241q29 -105 82 -178q51 -73 124 -111q24 -12 50 -20.5t54 -12.5t57 -4q93 0 165 37q73 38 124 111t78 178q26 105 26 241z" />
    <glyph glyph-name="P" unicode="P" horiz-adv-x="1232" 
d="M675 585h-344v-570h-162v1426h506q23 0 45 -1.5t42.5 -4t40.5 -6t38.5 -9t35.5 -11.5q44 -16 82.5 -38.5t69.5 -51.5q62 -57 95 -135q32 -79 32 -173q0 -102 -32 -182q-33 -79 -94 -133q-62 -54 -152 -82q-88 -29 -203 -29zM331 1313v-601h344q27 0 51.5 2.5t47 7
t42.5 12.5q30 11 54.5 26.5t44.5 35.5q41 40 60 95q10 27 14.5 56.5t4.5 61.5q0 19 -2 38.5t-6.5 38t-10.5 36.5q-9 28 -24 52.5t-36 45.5q-38 43 -98 68t-142 25h-344z" />
    <glyph glyph-name="Q" unicode="Q" horiz-adv-x="1348" 
d="M1221 775v-94q0 -212 -66 -364q-32 -76 -78 -135t-105 -102l-15 -12l261 -209l-109 -100l-295 240l-7 -1q-66 -18 -141 -18q-40 0 -78 5.5t-73.5 16t-68.5 26.5q-101 47 -177 137q-25 31 -46.5 65t-39.5 73t-32 82q-21 65 -31.5 138.5t-10.5 156.5v94q0 164 42 295
q42 130 117 221q38 45 83 79q43 35 93 59q100 48 220 48q124 0 225 -48q50 -24 93 -59q45 -34 82.5 -79t66.5 -100t49 -121q41 -130 41 -294zM1059 680v96q0 68 -6.5 128t-20.5 112q-7 26 -15 50t-18 46.5t-22 42.5q-11 20 -23 38q-51 73 -124 111q-18 9 -38 16t-40.5 11.5
t-42.5 7t-45 2.5q-44 0 -84 -9.5t-76 -27.5q-72 -38 -124 -111q-52 -72 -80 -177q-29 -104 -29 -240v-96q0 -137 29 -241q29 -105 81 -178q51 -73 124 -111q24 -12 50 -20.5t54 -12.5t57 -4q93 0 165 37q73 38 124 111t78 178q26 105 26 241z" />
    <glyph glyph-name="R" unicode="R" horiz-adv-x="1201" 
d="M983 15l-302 589h-350v-589h-163v1426h455q114 0 200.5 -27t150.5 -81q127 -108 127 -315q0 -66 -17.5 -123t-53.5 -105q-71 -98 -193 -146l-15 -6l339 -623h-178zM331 1313v-582h297q38 0 71.5 5.5t62.5 16.5q58 23 97 62q39 38 58 91q21 52 21 112q0 22 -2 42.5
t-6.5 40t-10.5 37.5q-19 54 -58 93.5t-99 60.5q-30 11 -64.5 16t-74.5 5h-292z" />
    <glyph glyph-name="S" unicode="S" horiz-adv-x="1155" 
d="M828 174q87 68 87 185q0 13 -1 26t-3 25t-5.5 23.5t-7.5 22.5q-17 44 -59 79q-20 18 -46 34t-59 31q-64 30 -162 61q-25 7 -49 15.5t-47 17.5t-44.5 18.5t-41.5 19.5q-82 39 -142 91q-59 50 -91 115q-31 64 -31 147q0 21 2 41.5t6.5 39.5t10.5 37.5t15 36.5q34 71 96 123
q63 53 147 83t187 30q114 0 202 -36q91 -36 154 -95t96 -136q15 -35 23 -71.5t9 -72.5h-163q-2 55 -20 103q-20 55 -63 96q-20 20 -45 35.5t-54.5 26.5t-64 16.5t-74.5 5.5q-25 0 -47.5 -2t-43.5 -6.5t-40 -10.5q-28 -10 -51.5 -23t-41.5 -31q-38 -34 -57 -82
q-19 -46 -19 -102q0 -50 21 -93q10 -21 26 -40q15 -19 36 -36q13 -12 29 -22.5t34.5 -20.5t39.5 -20q61 -28 147 -53q39 -12 74 -25t66.5 -26t59.5 -28q87 -42 144 -96q28 -26 49 -55.5t34.5 -62.5t20.5 -70.5t7 -79.5q0 -87 -35 -157q-17 -36 -41.5 -66t-56.5 -55
q-64 -50 -153 -78q-86 -27 -192 -27q-62 0 -124 12q-31 6 -61 15.5t-58 21.5q-58 24 -109 60q-17 12 -32.5 25.5t-29.5 28t-26.5 30t-23 32.5t-19.5 35t-16 38q-19 52 -21 114h163q3 -70 31 -121q5 -8 9.5 -15.5t10 -15t11 -14t12 -13t12.5 -13t13 -12t14 -10.5
q49 -37 112 -54t132 -17q148 0 228 67z" />
    <glyph glyph-name="T" unicode="T" horiz-adv-x="1162" 
d="M1115 1441v-128h-457v-1298h-153v1298h-456v128h1066z" />
    <glyph glyph-name="U" unicode="U" horiz-adv-x="1268" 
d="M971 1426h163v-971q0 -40 -4.5 -76.5t-14 -69.5t-23.5 -63q-41 -89 -111 -148t-160 -88q-88 -30 -186 -30q-102 0 -191 30q-90 29 -158 88t-107 148t-39 209v971h160v-971q0 -88 26 -153q8 -22 19 -41.5t24 -36.5t28 -31q44 -44 105 -65q60 -21 133 -21q74 0 135 21
q12 4 23.5 9t22.5 11t21 13t19.5 15t18.5 17q15 14 28 31t24 36.5t19 41.5q25 65 25 153v971z" />
    <glyph glyph-name="V" unicode="V" horiz-adv-x="1243" 
d="M205 1441l409 -1232l412 1232h178l-517 -1426h-143l-516 1426h177z" />
    <glyph glyph-name="W" unicode="W" horiz-adv-x="1757" 
d="M222 1441l224 -985l38 -269l57 249l278 1005h136l270 -1005l56 -251l42 272l220 984h162l-343 -1426h-148l-290 1050l-36 181l-37 -181l-300 -1050h-148l-342 1426h161z" />
    <glyph glyph-name="X" unicode="X" horiz-adv-x="1224" 
d="M257 1441l345 -571l342 571h190l-440 -707l451 -719h-192l-351 581l-354 -581h-191l452 719l-441 707h189z" />
    <glyph glyph-name="Y" unicode="Y" horiz-adv-x="1170" 
d="M201 1441l372 -749l374 749h183l-480 -894v-532h-155v532l-480 894h186z" />
    <glyph glyph-name="Z" unicode="Z" horiz-adv-x="1166" 
d="M1054 1320l-785 -1178h817v-127h-1000v124l782 1174h-769v128h955v-121z" />
    <glyph glyph-name="bracketleft" unicode="[" horiz-adv-x="543" 
d="M508 1527h-191v-1702h191v-122h-347v1946h347v-122z" />
    <glyph glyph-name="backslash" unicode="\" horiz-adv-x="840" 
d="M62 1441h144l596 -1551h-144z" />
    <glyph glyph-name="bracketright" unicode="]" horiz-adv-x="543" 
d="M24 1649h348v-1946h-348v122h193v1702h-193v122z" />
    <glyph glyph-name="asciicircum" unicode="^" horiz-adv-x="856" 
d="M426 1252l-200 -508h-140l287 697h107l286 -697h-139z" />
    <glyph glyph-name="underscore" unicode="_" horiz-adv-x="924" 
d="M905 -136h-886v121h886v-121z" />
    <glyph glyph-name="grave" unicode="`" horiz-adv-x="633" 
d="M446 1255h-124l-232 264h182z" />
    <glyph glyph-name="a" unicode="a" horiz-adv-x="1054" 
d="M941 0h-168q-7 17 -11 40l-2 10t-2 10.5l-2 11t-1.5 11t-1 10.5t-1.5 11l-4 32l-22 -23q-12 -14 -27 -26q-13 -13 -27 -25q-29 -25 -63 -43t-74 -29q-20 -5 -41 -7.5t-43 -2.5q-37 0 -71 6t-66 19q-65 24 -110 66q-12 11 -22 22t-18.5 23.5t-16 26t-13.5 27.5
q-25 57 -25 122q0 85 32.5 150t92.5 109q62 44 146 67q27 8 56.5 13t60.5 7.5t65 2.5h187v105q0 108 -62 172q-57 65 -167 65q-50 0 -91 -15q-21 -7 -39 -17t-33 -23q-33 -25 -51 -59q-7 -13 -12 -28t-6 -29h-156q1 16 4.5 31t9 30.5t14.5 31.5q29 54 82 98q54 44 130 71
q71 28 159 28q78 0 145 -22q34 -12 64.5 -28.5t55.5 -38.5q13 -11 24 -23.5t21 -26.5t18.5 -29.5t15.5 -31.5q29 -67 29 -158v-516q0 -29 2.5 -59.5t7.5 -62.5q9 -60 27 -106zM429 115q22 -4 46 -4q48 0 91 15q21 8 40 17.5t37 22.5q34 24 61 56q28 31 44 66l1 3v249h-160
q-149 0 -232 -53q-93 -56 -93 -169q0 -43 14 -81q14 -39 43 -66q10 -10 21 -17.5t22.5 -14.5t23.5 -12q19 -8 41 -12z" />
    <glyph glyph-name="b" unicode="b" horiz-adv-x="1089" 
d="M996 550v-21q0 -60 -7 -115.5t-20 -106.5q-28 -100 -80 -174q-26 -36 -57.5 -64t-69.5 -49q-70 -40 -159 -40q-96 0 -165 37q-70 36 -122 105l-24 32l-11 -154h-141v1536h155v-601l27 34q52 64 120 98q67 35 159 35q46 0 86 -10t76 -29q10 -6 20.5 -12.5t20.5 -13.5
t19 -14.5t18 -15.5t17 -17t16 -18.5t15 -19.5q52 -73 80 -174q27 -102 27 -228zM841 529v21q0 86 -15 161q-16 77 -51 135q-12 20 -26 37q-13 17 -28.5 31.5t-32.5 25.5q-53 35 -129 35q-50 0 -89.5 -14t-71.5 -40q-8 -6 -16 -13t-15.5 -14t-14.5 -15t-13 -17
q-25 -33 -43 -72l-1 -3v-492l2 -3q18 -39 44 -72q8 -12 17.5 -22t20.5 -20q10 -9 21 -17q31 -26 71 -40q14 -5 28.5 -8t29.5 -4.5t32 -1.5q36 0 67.5 8.5t57.5 25.5q52 34 87 92q35 57 52 134q8 38 12 78.5t4 83.5z" />
    <glyph glyph-name="c" unicode="c" horiz-adv-x="1012" 
d="M402 138q56 -37 140 -37q48 0 91 17q22 8 41.5 20t37.5 26q37 30 60 71q19 35 25 76h146q-2 -20 -7 -39.5t-12.5 -38.5t-17.5 -37q-17 -32 -39.5 -59.5t-50.5 -51.5q-56 -48 -129 -77q-68 -28 -145 -28q-109 0 -190 43q-86 43 -144 117q-58 73 -87 171q-29 99 -29 208v44
q0 36 3 71.5t9.5 69.5t16.5 67q29 98 87 171q58 74 143 117q81 43 190 43q28 0 55 -3t51.5 -9.5t47.5 -16.5q19 -7 36.5 -15.5t33.5 -18.5t31 -21.5t28 -23.5q27 -26 48.5 -55.5t36.5 -64.5q7 -16 12.5 -32t10 -33t7.5 -34.5t4 -34.5h-145q-6 45 -24 85q-20 46 -55 80
q-34 35 -79 55q-22 10 -47 15t-52 5q-83 0 -139 -37q-55 -38 -90 -98q-36 -60 -51 -135q-14 -73 -14 -147v-44q0 -76 14 -149q15 -75 50 -134q35 -60 91 -98z" />
    <glyph glyph-name="d" unicode="d" horiz-adv-x="1095" 
d="M95 529v21q0 125 30 228q15 50 36 93.5t48 79.5q54 72 129 112q70 39 156 39q89 0 154 -32q67 -32 119 -93l26 -31v590h155v-1536h-141l-11 143l-24 -30q-51 -65 -120 -99q-68 -34 -160 -34q-84 0 -154 40q-75 41 -129 114t-84 174t-30 221zM250 550v-21q0 -86 17 -162
q8 -38 21.5 -71.5t31.5 -62.5q36 -58 89 -92t126 -34q47 0 85 13q19 6 36 15t33 20q32 23 58 55q26 31 44 69l2 3v523l-2 3q-19 36 -44 66q-25 31 -57 53q-16 12 -33 20.5t-36 14.5q-38 13 -84 13q-74 0 -128 -35q-53 -34 -89 -93t-53 -135q-9 -38 -13 -78.5t-4 -83.5z" />
    <glyph glyph-name="e" unicode="e" horiz-adv-x="1025" 
d="M687 -3q-58 -17 -131 -17q-101 0 -183 39q-86 39 -149 108t-97 164q-34 97 -34 211v43q0 133 38.5 237t102.5 175t143 108q76 37 158 37q104 0 179 -40q81 -40 134 -110q52 -70 78 -167q25 -97 25 -212v-70h-703v-16q2 -80 25 -150q12 -35 28.5 -66t38.5 -57
q13 -17 28.5 -32t32.5 -27.5t36 -22.5q57 -31 128 -31q95 0 163 42q64 38 113 98l91 -70q-12 -17 -25 -32.5t-29 -31.5q-35 -36 -83 -65q-24 -14 -51.5 -25.5t-56.5 -19.5zM652 951q-48 29 -117 29q-27 0 -52.5 -5.5t-48.5 -17.5q-46 -22 -82 -65q-38 -43 -63 -106
q-26 -63 -35 -143l-2 -18h544v31v0q-3 58 -18 115q-8 29 -19.5 55t-27.5 49q-32 47 -79 76z" />
    <glyph glyph-name="f" unicode="f" horiz-adv-x="681" 
d="M386 30h-155v939h-171v113h171v129q0 42 6 79.5t18 69.5q4 11 8 21.5t9.5 20t11 18.5t11.5 17.5t12.5 16t14.5 14.5q6 7 12.5 12.5t13.5 11t14.5 10.5t15 9.5t16 8.5t17 7.5t17.5 6.5q32 12 68 17.5t76 5.5q19 0 37.5 -1.5t37 -4.5t36.5 -7l-8 -121q-4 0 -8 0.5l-8 1
l-8 1t-8 0.5q-14 2 -27.5 2.5t-26.5 0.5q-97 0 -150 -57t-53 -161v-129h231v-113h-231v-939z" />
    <glyph glyph-name="g" unicode="g" horiz-adv-x="1089" 
d="M96 529v21q0 125 29 228q14 51 35 94t47 79q54 72 130 112q71 39 161 39q47 0 87.5 -9t74.5 -26q69 -36 117 -103l23 -30l10 148h140v-1070q0 -106 -32 -189q-33 -80 -91 -136q-29 -27 -61.5 -48t-71 -35.5t-81 -22t-89.5 -7.5q-38 0 -88 9q-17 3 -33.5 7.5t-33.5 10
t-34 12.5q-54 21 -103 56q-22 16 -41.5 35t-35.5 41l77 89q30 -35 61 -59q37 -29 74 -47q35 -17 72 -25q19 -4 37 -6t36 -2q16 0 31 1t29.5 3.5t28.5 6t27 8.5q52 20 89.5 59.5t57.5 95.5t20 130v134l-25 -30q-48 -60 -115.5 -91.5t-158.5 -31.5q-88 0 -159 40
q-75 41 -129 114q-26 36 -47 79.5t-36 94.5q-29 101 -29 221zM252 550v-21q0 -86 17 -162q8 -38 21.5 -71.5t31.5 -62.5q35 -58 89 -92t128 -34q24 0 46 3.5t42 9.5q39 13 70 36q16 12 29.5 25.5t25.5 29.5t22.5 33t18.5 36l2 3v520l-2 3q-6 12 -12.5 23.5t-13.5 22
t-15 21.5q-24 31 -55 54t-70 35.5t-86 12.5q-75 0 -129 -35q-8 -5 -15 -10.5l-14 -11t-13.5 -12t-12.5 -13.5t-12 -14.5t-11.5 -15.5t-11.5 -16q-36 -59 -53 -135q-9 -38 -13 -78.5t-4 -83.5z" />
    <glyph glyph-name="h" unicode="h" horiz-adv-x="1068" 
d="M295 924l27 33q56 68 127 107q71 38 159 38q69 0 130 -21q31 -10 56.5 -26t46.5 -39q43 -45 66 -116q24 -72 24 -176v-694h-155v696q0 65 -15 112q-7 24 -18.5 43.5t-26.5 35t-33 26.5q-17 11 -37 18q-39 14 -89 14q-86 0 -152 -51q-69 -50 -108 -131l-2 -4v-759h-155
v1506h155v-612z" />
    <glyph glyph-name="i" unicode="i" horiz-adv-x="467" 
d="M311 1067v-1052h-155v1052h155zM147 1348q-6 16 -6 36q0 10 1.5 19t4.5 17.5t7.5 15.5t10.5 14q11 13 28.5 19.5t41.5 6.5q47 0 71 -26q24 -27 24 -66t-24 -65q-24 -25 -71 -25q-24 0 -41.5 6.5t-28.5 18.5q-12 13 -18 29z" />
    <glyph glyph-name="j" unicode="j" horiz-adv-x="459" 
d="M146 1052h155v-1196q0 -144 -66 -219q-66 -74 -202 -74q-25 0 -56 5q-23 4 -42 9v119q7 -2 13.5 -2.5t14.5 -0.5q24 -2 41 -2q33 0 60 9.5t45 28.5q37 38 37 127v1196zM133 1348q-6 16 -6 36q0 13 2.5 24.5t8 21.5t13.5 20q23 26 69 26q47 0 71 -26q24 -27 24 -66
t-24 -65q-24 -25 -71 -25q-24 0 -41.5 6.5t-28.5 18.5q-11 13 -17 29z" />
    <glyph glyph-name="k" unicode="k" horiz-adv-x="978" 
d="M781 30l-356 509l-129 -138v-371h-155v1506h155v-955l122 150l305 351h185l-388 -436l441 -616h-180z" />
    <glyph glyph-name="l" unicode="l" horiz-adv-x="467" 
d="M311 1536v-1506h-155v1506h155z" />
    <glyph glyph-name="m" unicode="m" horiz-adv-x="1735" 
d="M139 1082h146l5 -144l25 29q52 64 126.5 99.5t174.5 35.5q98 0 173 -40q15 -8 28.5 -17.5t25.5 -21t22.5 -25t20 -29t17.5 -32.5l11 -24l14 21q26 38 58.5 68.5t73.5 53.5q81 46 192 46q82 0 146 -22q22 -7 41 -16.5t35.5 -22t31.5 -27.5q22 -23 38.5 -52t28.5 -65
q23 -71 23 -171v-696h-155v697q0 23 -2 44t-6 39.5t-9 34.5q-9 24 -22 43.5t-29 34.5q-32 30 -78 41q-22 6 -46 8.5t-50 2.5q-58 0 -103.5 -19t-78 -51.5t-51.5 -76.5q-10 -22 -16 -45.5t-8 -47.5v-1v-704h-152v696q0 66 -17 113q-17 48 -49 78t-76 44t-97 14
q-51 0 -91.5 -11.5t-72.5 -34.5q-61 -45 -92 -118l-1 -3v-778h-155v1052z" />
    <glyph glyph-name="n" unicode="n" horiz-adv-x="1070" 
d="M140 1082h146l6 -162l24 32q52 70 125 110t165 40q71 0 132 -21q31 -10 56.5 -26t46.5 -39q43 -45 66 -116q24 -72 24 -176v-694h-155v696q0 65 -15 112q-7 24 -18.5 43.5t-26.5 35t-33 26.5t-38 18q-40 14 -91 14q-88 0 -155 -51q-66 -50 -103 -131l-2 -4v-759h-154
v1052z" />
    <glyph glyph-name="o" unicode="o" horiz-adv-x="1108" 
d="M91 529v22q0 60 8.5 114.5t25.5 105.5q33 100 95 174q61 74 147 115q82 42 185 42q105 0 187 -42q11 -5 21 -10.5t20 -12l20 -13t19.5 -14t18.5 -15t17.5 -15.5t16.5 -17l16 -18q31 -37 54.5 -80.5t40 -94t25 -105t8.5 -114.5v-22q0 -119 -33 -220q-33 -100 -95 -173
t-148 -115q-82 -41 -186 -41t-186 41q-42 21 -79.5 49.5t-68.5 65.5q-20 24 -37.5 51.5t-32 58t-25.5 63.5q-34 101 -34 220zM247 551v-22q0 -43 5 -83.5t14 -79.5q20 -77 60 -136q20 -29 43.5 -53t51.5 -41q29 -17 62 -26t71 -9q75 0 132 35q19 12 36 26t31.5 31.5t27.5 37
t24.5 41t20 45t15.5 49.5q20 77 20 163v22q0 85 -20 162q-20 78 -60 137q-39 59 -96 94q-57 36 -133 36q-18 0 -35.5 -2t-34 -6.5t-32 -11.5t-29.5 -16q-56 -35 -95 -94q-40 -59 -60 -137q-19 -77 -19 -162z" />
    <glyph glyph-name="p" unicode="p" horiz-adv-x="1089" 
d="M994 550v-21q0 -60 -7 -115.5t-20 -106.5q-28 -100 -80 -174q-25 -36 -56.5 -64t-69.5 -49q-71 -40 -161 -40q-93 0 -163 31q-69 31 -118 89l-25 29v-545h-154v1498h140l10 -147l23 30q24 33 54 58.5t66 43.5q70 35 164 35q46 0 87 -10t77 -29q75 -40 127 -111
q52 -73 79 -174q27 -102 27 -228zM839 529v21q0 43 -4.5 83.5t-12.5 78.5q-9 38 -23 72t-33 63q-18 29 -41 52.5t-50 40.5q-27 18 -60 26.5t-70 8.5q-46 0 -84 -12t-69 -34q-8 -5 -15.5 -11t-14 -12.5t-13 -13.5t-12.5 -15q-23 -30 -41 -64l-2 -4v-543l2 -4q18 -34 41 -64
q24 -30 55 -52q15 -10 32.5 -18.5t36.5 -14.5q13 -4 27 -6.5t28.5 -4t30.5 -1.5q37 0 69 9t60 26q27 18 49.5 41.5t40.5 52.5q38 58 56 136q17 77 17 163z" />
    <glyph glyph-name="q" unicode="q" horiz-adv-x="1104" 
d="M95 529v21q0 63 7 120t21 108q29 101 82 173q54 72 131 112q72 39 165 39q30 0 57.5 -3.5t52.5 -11t47 -17.5q68 -33 117 -94l22 -28l9 134h141v-1498h-154v539l-25 -28q-24 -28 -53 -49t-62 -36q-67 -30 -154 -30q-92 0 -164 40q-76 41 -129 114t-82 173
q-29 102 -29 222zM250 550v-21q0 -43 4.5 -83.5t12.5 -79.5q18 -78 56 -136q36 -59 90 -94q18 -12 39 -19.5t43 -11.5t47 -4q91 0 152 45q30 22 54 50.5t43 63.5l2 3v558l-2 4q-19 33 -43 61q-24 29 -55 49q-15 11 -32 19t-36 14q-37 12 -81 12q-19 0 -36.5 -2t-33.5 -6.5
t-31.5 -11.5t-28.5 -16q-28 -18 -50.5 -41.5t-41.5 -53.5q-12 -19 -22.5 -41t-18.5 -45.5t-14 -49.5q-8 -39 -12.5 -79.5t-4.5 -83.5z" />
    <glyph glyph-name="r" unicode="r" horiz-adv-x="663" 
d="M633 1093v-145q-15 3 -28 3q-11 1 -23 1.5t-25 0.5q-20 0 -38.5 -1.5t-35.5 -5.5t-33 -9t-30.5 -12.5t-27.5 -16.5t-24.5 -19t-21.5 -21.5t-19 -24t-17 -26t-14 -28.5l-1 -3v-756h-155v1052h150l4 -160l27 42q40 64 100 101q59 37 145 37q19 0 43 -4q14 -3 24 -5z" />
    <glyph glyph-name="s" unicode="s" horiz-adv-x="996" 
d="M738 253q2 12 2 24q0 34 -10 64q-10 31 -40 58q-28 26 -76 47q-46 21 -120 39q-81 20 -146 46q-69 26 -118 62q-48 36 -73 84q-25 49 -25 114q0 62 27 118t76 99q50 43 120 69q65 25 146 25q43 0 81.5 -6.5t72.5 -19.5q74 -25 125 -69q13 -11 24.5 -23t21 -25t17.5 -26.5
t15 -28.5q12 -26 18.5 -53.5t7.5 -56.5h-156q-1 10 -3 20t-5 19t-8 19q-16 36 -47 65q-30 28 -70.5 45.5t-93.5 17.5q-55 0 -94 -15q-20 -7 -36 -17t-29 -23q-6 -5 -11 -10.5t-9.5 -11t-8.5 -11.5t-7.5 -12t-5.5 -13q-13 -32 -13 -66q0 -12 1 -22.5t3.5 -20.5t6.5 -19
q11 -29 43 -52q27 -21 73 -39q45 -17 116 -35q89 -23 158 -53q71 -29 117 -67q23 -19 40 -40t28 -46q22 -48 22 -113q0 -69 -28 -127q-14 -29 -34 -53.5t-46 -44.5q-53 -42 -128 -65q-69 -24 -153 -24q-96 0 -169 29q-80 29 -133 77q-54 47 -82 108q-24 53 -27 109h156
q5 -52 28 -89q27 -41 66 -67q18 -12 37.5 -21t40.5 -15q42 -10 83 -10q54 0 95 13q14 4 26.5 9.5t23.5 12.5q12 6 23 14t20 17t16 19t12.5 21t9.5 22.5t6 23.5z" />
    <glyph glyph-name="t" unicode="t" horiz-adv-x="639" 
d="M206 1344h155v-268h202v-115h-202v-702q0 -23 2.5 -41.5t8.5 -33t13.5 -26t17 -20t21 -14.5t23.5 -8q23 -5 48 -5q24 0 51 5q3 0 6 0.5t6 1.5t5.5 1t4.5 1v-123q-11 -3 -21 -5t-24 -5q-33 -7 -82 -7t-92 14q-42 14 -73 46q-16 16 -28.5 37.5t-22.5 48.5q-19 54 -19 134
v701h-197v115h197v268z" />
    <glyph glyph-name="u" unicode="u" horiz-adv-x="1069" 
d="M777 131l-25 -29q-49 -58 -119 -90q-69 -32 -166 -32q-35 0 -67 5q-33 6 -64 17q-62 21 -106.5 67t-68.5 119q-25 74 -25 180v684h155v-686q0 -38 4.5 -69t13.5 -57q18 -50 48 -80q16 -15 33 -26q16 -10 34 -16q34 -11 71 -11q53 0 96 11t76 34q35 23 61.5 53.5
t43.5 68.5l1 3v775h155v-1052h-147z" />
    <glyph glyph-name="v" unicode="v" horiz-adv-x="932" 
d="M190 1067l271 -864l264 864h156l-367 -1052h-110l-371 1052h157z" />
    <glyph glyph-name="w" unicode="w" horiz-adv-x="1479" 
d="M793 1067l261 -867l214 867h153l-304 -1052h-124l-265 855l-258 -855h-124l-303 1052h152l220 -849l255 849h123z" />
    <glyph glyph-name="x" unicode="x" horiz-adv-x="955" 
d="M229 1067l231 -409l233 409h180l-335 -520l346 -532h-178l-243 419l-243 -419h-179l346 532l-335 520h177z" />
    <glyph glyph-name="y" unicode="y" horiz-adv-x="909" 
d="M192 1052l265 -845l249 845h166l-414 -1229q-14 -39 -36 -85q-21 -45 -55 -84t-82 -65q-49 -26 -118 -26q-10 0 -24 2l-30 4q-7 2 -14 3l-14 2q-3 1 -7 2v121h4.5h4.5q8 -1 14 -1q4 -1 6.5 -1h5.5q16 0 31 1t29 3t26 5q20 5 37 13t32 19q29 23 49 59q10 18 19 40t17 47
l39 115l-370 1055h170z" />
    <glyph glyph-name="z" unicode="z" horiz-adv-x="955" 
d="M857 956l-588 -820h618v-121h-799v116l582 813h-573v123h760v-111z" />
    <glyph glyph-name="braceleft" unicode="{" horiz-adv-x="693" 
d="M622 -348q-11 4 -22.5 8t-22 7.5t-20 8t-19 8.5t-18.5 8.5t-17.5 9.5t-16.5 10l-16 10q-33 23 -59.5 49t-46.5 54q-39 58 -56 128q-8 35 -12.5 71.5t-4.5 74.5v206q0 11 -0.5 22t-1.5 21t-2.5 20t-3.5 20t-5 19q-12 47 -40 81q-7 8 -15 15.5t-17 14t-19 12t-21 10.5
q-18 8 -40.5 12.5t-46.5 5.5v115q54 2 93.5 19.5t65.5 50.5q27 34 40 79.5t13 102.5v207q0 77 17 147q17 69 56 127q20 29 46.5 55t59.5 48q31 21 69 38.5t83 31.5l29 -88q-27 -9 -49 -22t-41 -29q-42 -35 -68 -83q-25 -48 -36 -106q-6 -28 -8.5 -58t-2.5 -61v-207
q0 -98 -38 -175q-37 -77 -121 -122l-25 -13l25 -13q28 -15 50.5 -33.5t40 -40.5t30.5 -48q38 -78 38 -175v-206q0 -32 2.5 -62t8.5 -58q11 -57 36 -105q26 -48 68 -83q37 -32 90 -51z" />
    <glyph glyph-name="bar" unicode="|" horiz-adv-x="499" 
d="M309 -255h-119v1696h119v-1696z" />
    <glyph glyph-name="braceright" unicode="}" horiz-adv-x="693" 
d="M38 -260q18 6 33.5 14t29.5 17t27 20q14 11 26.5 24.5t23 28t19.5 30.5q25 48 36 105t11 120v206q0 34 4.5 65t14 59t22.5 54q41 77 131 118l30 14l-30 14q-90 41 -131 117q-13 26 -22.5 54.5t-14 59.5t-4.5 65v207q0 62 -11 119q-2 15 -6 28.5t-8.5 27t-10 26
t-11.5 24.5q-13 24 -30 45t-38 38q-37 32 -90 51l29 88q91 -28 152 -70q66 -45 106 -103q20 -29 34 -61t22 -66q17 -70 17 -147v-207q0 -56 13 -102q6 -23 16 -43.5t24 -37.5q28 -33 72 -51q12 -5 26.5 -9t30 -6t30.5 -3v-115q-16 -1 -31.5 -3t-29.5 -6t-26 -9q-9 -4 -17 -8
t-15.5 -9t-14.5 -10.5t-13.5 -12t-11.5 -12.5q-28 -34 -40 -81q-13 -46 -13 -102v-206q0 -76 -17 -147q-16 -69 -56 -126.5t-106 -103.5q-62 -42 -152 -70z" />
    <glyph glyph-name="asciitilde" unicode="~" horiz-adv-x="1393" 
d="M1248 762q-3 -67 -23 -125q-12 -33 -28 -61.5t-36 -52.5q-11 -13 -22 -23.5t-23.5 -20.5t-25.5 -18t-27 -16q-28 -14 -59 -21t-65 -7q-14 0 -27.5 1t-26 3t-24.5 5q-36 8 -70 25q-9 4 -17 8.5t-16.5 9.5t-17 11t-16.5 12q-34 26 -73 60q-53 48 -97 74q-46 28 -100 28
q-85 0 -132 -59q-21 -27 -32 -62.5t-13 -79.5l-131 -2q2 67 23 125q7 22 16.5 41.5t21.5 37t25 32.5q41 47 97 73q28 14 59.5 20.5t65.5 6.5q41 0 78 -9q9 -2 18 -5l18 -6t17.5 -7t17.5 -8q34 -17 68 -42q17 -13 35 -27.5t36 -30.5q13 -13 26 -24t25 -20q25 -20 48 -32
q23 -13 47 -19q12 -4 25 -5.5t26 -1.5q42 0 77 17t59 48q24 30 37 71q11 34 13 75z" />
    <glyph glyph-name="uni00A0" unicode="&#xa0;" horiz-adv-x="560" 
 />
    <glyph glyph-name="exclamdown" unicode="&#xa1;" horiz-adv-x="499" 
d="M185 669h138l13 -1014h-164zM343 996q0 -10 -1.5 -19t-4.5 -17.5t-7.5 -15.5t-10.5 -14q-11 -13 -28.5 -19.5t-41.5 -6.5q-16 0 -29.5 3t-23.5 9t-18 14q-8 9 -13.5 19t-8 22t-2.5 25q0 39 24 65q24 25 71 25t70 -25q24 -26 24 -65z" />
    <glyph glyph-name="cent" unicode="&#xa2;" horiz-adv-x="1121" 
d="M587 116q52 0 99 17q24 8 45 20t39 26q37 30 60 71q19 35 25 76h146q-5 -52 -29 -100q-13 -28 -31 -53.5t-40 -47.5q-45 -46 -105 -78t-129 -44l-12 -2v-231h-156v233l-12 2q-93 16 -162 63q-34 23 -62.5 52t-51.5 63q-46 69 -68 155q-23 87 -23 182v42q0 47 6 92t17 89
q8 28 18 55t22.5 52t28.5 48q45 68 113.5 115t161.5 64l12 3v223h156v-221l13 -2q25 -4 48 -10t44.5 -15t41.5 -20q30 -16 56 -36.5t47.5 -45t39 -52t29.5 -59.5q22 -55 27 -117h-145q-6 45 -24 85q-20 46 -55.5 80.5t-83.5 54.5q-24 10 -51 15t-56 5q-90 0 -150 -36
t-96 -95q-36 -57 -51 -130q-14 -71 -14 -142v-42q0 -73 14 -144q15 -73 50 -130q36 -58 96 -94q61 -36 152 -36z" />
    <glyph glyph-name="sterling" unicode="&#xa3;" horiz-adv-x="1190" 
d="M433 637l9 -235q0 -35 -3.5 -67t-11.5 -64q-14 -61 -44 -106l-16 -23h746l-1 -127h-1002v127h64h1q32 8 53 39q19 29 30 67q12 37 16 78q5 41 5 75l-9 236h-164v127h161l-10 275q0 100 32 179q33 78 90 132t136 82q79 29 172 29q19 0 37 -1t35.5 -3.5t34 -5.5t32 -7.5
t30.5 -10.5q37 -13 68 -32t56 -44q50 -48 77 -117q12 -31 19 -66t8 -72h-161q-2 57 -21 98q-11 23 -25.5 42t-32 34t-38 26t-43.5 18q-45 13 -93 13q-26 0 -50.5 -5t-47.5 -15q-46 -20 -80 -58q-16 -18 -29.5 -41.5t-23.5 -50.5q-6 -18 -10.5 -38t-6.5 -41.5t-2 -44.5
l10 -275h318v-127h-315z" />
    <glyph glyph-name="currency" unicode="&#xa4;" horiz-adv-x="1460" 
d="M1093 124q-74 -62 -165 -95q-91 -34 -193 -34q-101 0 -192 33q-91 34 -165 94l-10 8l-133 -135l-109 114l137 139l-7 10q-48 73 -75 162q-8 29 -14 60t-9 63t-3 65q0 104 29 194q14 46 34 87.5t46 78.5l7 11l-145 149l109 114l146 -148l10 8q73 56 160 86q87 31 184 31
t185 -31t161 -87l10 -8l148 150l111 -115l-149 -152l7 -10q25 -38 45 -79.5t34 -86.5t21 -93t7 -99q0 -98 -26.5 -186t-73.5 -161l-6 -10l141 -142l-111 -115l-135 138zM296 608q0 -98 34.5 -183.5t94.5 -149.5q29 -32 64 -57.5t75 -44t82.5 -28t88.5 -9.5q45 0 87.5 9.5
t82.5 27.5q80 38 139 102q20 21 37 45t31.5 50t25.5 54q17 43 25.5 89t8.5 95q0 97 -34 183q-17 42 -40.5 79.5t-53.5 69.5q-59 63 -139 100t-170 37q-91 0 -171 -37q-16 -7 -31 -15.5t-29.5 -18t-28 -20t-26.5 -22.5t-24 -24q-20 -21 -37 -45t-31.5 -50t-25.5 -54
q-35 -86 -35 -183z" />
    <glyph glyph-name="yen" unicode="&#xa5;" horiz-adv-x="1240" 
d="M614 750l373 691h184l-418 -720h323v-95h-384v-195h384v-94h-384v-322h-163v322h-378v94h378v195h-378v95h324l-418 720h185z" />
    <glyph glyph-name="brokenbar" unicode="&#xa6;" horiz-adv-x="491" 
d="M162 -255v761h156v-761h-156zM318 713h-156v728h156v-728z" />
    <glyph glyph-name="section" unicode="&#xa7;" horiz-adv-x="1256" 
d="M1130 431q0 -91 -46 -156q-47 -66 -131 -104l-24 -11l21 -15q66 -47 100.5 -112t34.5 -161q0 -83 -33.5 -148t-93.5 -110q-8 -6 -16 -11.5t-16.5 -10.5t-17.5 -9.5l-18 -9t-19 -8.5t-20 -7.5t-20.5 -7t-21.5 -6.5q-88 -24 -197 -24q-94 0 -187 22q-91 21 -162 69
t-114 128q-21 36 -31.5 82t-12.5 100l156 2q3 -74 32 -125q33 -57 84 -92q16 -12 34.5 -21.5t38 -16.5t40.5 -12q61 -14 122 -14q74 0 133 17t99 47q14 11 25.5 22t21 24t16.5 27q22 42 22 91t-19 87q-18 38 -62 69q-42 30 -111 57q-68 27 -170 57q-109 29 -195 64
q-84 34 -143 82q-11 9 -21.5 19t-20 21t-17.5 22t-15 23.5t-13 24.5q-31 64 -31 155q0 88 45 154t129 106l22 11l-20 15q-63 47 -97 112t-34 161q0 79 33 143.5t94 110.5q62 46 150 72q88 25 197 25q56 0 106.5 -7t95.5 -21q88 -27 149 -80q61 -52 93 -129q30 -72 33 -164
h-155q-1 26 -6.5 51t-14.5 48q-11 27 -26.5 51t-36.5 44q-13 13 -29 24.5t-34 21t-38 17.5q-59 23 -137 23q-27 0 -51 -2t-46.5 -6t-42.5 -10t-37.5 -13t-33 -16t-28.5 -19q-40 -31 -60 -74q-9 -21 -14 -43t-5 -45q0 -53 16 -91q9 -20 23.5 -37.5t35.5 -33.5q41 -29 110 -56
q34 -12 78 -26t97 -28q37 -11 71.5 -21.5t66 -21.5t59.5 -23q85 -34 144 -81q57 -47 87 -109.5t30 -152.5zM606 705q-90 24 -164 51l-4 2l-4 -1q-86 -21 -127 -76q-20 -27 -30 -59t-10 -69q0 -27 4 -50t12 -43q3 -6 6 -11.5t6.5 -11t7.5 -11t8.5 -10.5t9.5 -10t10.5 -9.5
t11.5 -8.5q21 -15 49 -29.5t63 -27.5q69 -26 177 -56q15 -5 29.5 -9t28 -8t27.5 -8q10 -3 19.5 -6t19 -6.5t18.5 -7t18 -6.5l4 -2l5 1q82 22 128 76q45 55 45 129q0 12 -1 23.5t-3.5 23t-6 21.5t-8.5 20q-19 39 -63 71q-43 31 -113 59t-173 59z" />
    <glyph glyph-name="dieresis" unicode="&#xa8;" horiz-adv-x="856" 
d="M117 1371q0 39 24 65q23 26 70 26t71 -26t24 -65t-24 -65q-24 -25 -71 -25q-24 0 -41.5 6.5t-28.5 18.5q-12 13 -18 29t-6 36zM547 1369q0 8 1 15.5t3 14.5t4.5 13t6.5 12t9 11q11 13 28.5 19.5t41.5 6.5q12 0 22.5 -1.5t19.5 -5t16 -8.5t13 -11q12 -14 18 -30t6 -36
q0 -39 -24 -65q-24 -25 -71 -25t-70 25q-24 26 -24 65z" />
    <glyph glyph-name="copyright" unicode="&#xa9;" horiz-adv-x="1609" 
d="M1104 582q-1 -22 -3.5 -43t-7 -39.5t-11.5 -35.5q-22 -55 -62.5 -92t-98.5 -55q-59 -19 -133 -19q-39 0 -73 6.5t-65 20.5q-61 26 -104 75t-66 117q-23 69 -23 153v116q0 84 23 152t66 117t104 76t138 27q74 0 133 -19q20 -6 37.5 -14t32.5 -18.5t29 -22.5q40 -37 63 -93
q10 -25 15.5 -54t6.5 -62h-116q-4 94 -52 138q-52 46 -149 46q-54 0 -94.5 -20.5t-67.5 -57.5q-14 -18 -24.5 -40t-16.5 -47q-7 -24 -10.5 -51t-3.5 -56v-117q0 -59 14 -108q13 -51 41 -87q27 -37 67.5 -57.5t94.5 -20.5q48 0 85.5 11.5t63.5 34.5q24 22 36.5 57t14.5 82
h116zM191 729q0 -68 12 -132t36 -123q48 -117 130.5 -204t193.5 -137q112 -50 238 -50t237 50t193.5 137t130.5 204.5t48 254.5q0 136 -48 253t-131 204q-41 43 -89.5 77t-103.5 59q-111 49 -237 49q-63 0 -122.5 -12.5t-115.5 -36.5q-111 -49 -193.5 -136t-130.5 -204
t-48 -253zM106 729q0 104 25 198.5t70 176.5q7 11 13.5 22.5t14 22.5t15 21.5t15.5 21t16 20.5t17 20t18 19q63 66 140.5 112.5t166 72t184.5 25.5t184 -25q45 -13 86 -31t79.5 -41.5t73.5 -51.5t67 -61q64 -66 109 -147q22 -41 39.5 -85t30.5 -91q8 -32 13.5 -64.5t8.5 -66
t3 -68.5q0 -104 -25 -198.5t-70 -176.5t-108.5 -148t-140.5 -113.5t-165.5 -73t-184.5 -25.5t-184.5 25.5t-166 73t-141 113.5t-108.5 148t-70 176q-12 48 -18.5 97.5t-6.5 101.5z" />
    <glyph glyph-name="ordfeminine" unicode="&#xaa;" horiz-adv-x="915" 
d="M629 720q-9 29 -14 59l-5 32l-21 -24q-29 -33 -77 -57t-116 -24q-12 0 -23 0.5t-21.5 2t-20 3t-19 4t-18.5 5.5q-43 15 -72 43q-7 7 -13.5 14.5t-12 16t-10.5 17.5t-9 18q-7 20 -11 42t-4 46q0 103 77 159q80 57 247 57h123v67q0 72 -34 110q-35 40 -105 40
q-74 0 -117 -30q-19 -13 -30.5 -32t-14.5 -42l-132 10q3 39 20 73q21 39 59 68t92 46q55 17 123 17q31 0 59 -4t53 -13q50 -16 86 -49q35 -32 55 -80q19 -49 19 -115v-314q0 -25 1.5 -48.5t4.5 -46.5q3 -18 6.5 -36t8.5 -35h-134zM435 813q12 0 23.5 1.5t23 4t23.5 6.5
t23.5 9.5t22 11t20 11.5t18 13t15.5 14l5 5v163h-122q-12 0 -23 -0.5t-21.5 -2t-20 -3t-18.5 -4.5q-18 -4 -33 -11t-27 -16q-25 -18 -37 -42q-4 -8 -6.5 -16t-4 -17t-1.5 -18q0 -51 35 -81q35 -28 105 -28z" />
    <glyph glyph-name="guillemotleft" unicode="&#xab;" horiz-adv-x="995" 
d="M425 932l-20 -34q-24 -42 -43 -84.5t-33.5 -84.5t-24 -84t-14.5 -84q-3 -21 -4 -42t-1 -42q0 -212 120 -422l20 -35h-118l-7 11q-145 228 -145 446q0 215 145 444l7 11h118zM801 932l-20 -34q-15 -27 -28 -53t-24 -52.5t-20.5 -53t-17.5 -52.5q-15 -53 -22.5 -105.5
t-7.5 -104.5q0 -106 30 -211.5t90 -210.5l20 -35h-118l-7 11q-145 229 -145 446q0 71 16 144.5t48.5 148.5t80.5 151l7 11h118z" />
    <glyph glyph-name="logicalnot" unicode="&#xac;" horiz-adv-x="1134" 
d="M943 390h-156v264h-645v131h801v-395z" />
    <glyph glyph-name="uni00AD" unicode="&#xad;" horiz-adv-x="565" 
d="M510 558h-458v121h458v-121z" />
    <glyph glyph-name="registered" unicode="&#xae;" horiz-adv-x="1610" 
d="M105 729q0 104 25 198.5t70 176.5q7 11 13.5 22.5t14 22.5t15 21.5t15.5 21t16 20.5t17 20t18 19q63 66 140.5 112.5t166 72t184.5 25.5t184 -25q45 -13 86 -31t79.5 -41.5t73.5 -51.5t67 -61q64 -66 109 -147q22 -41 39.5 -85t30 -91.5t19 -97t6.5 -101.5
q0 -104 -25 -198.5t-70 -176.5t-108.5 -148t-140.5 -113.5t-165.5 -73t-184.5 -25.5t-184.5 25.5t-166 73t-141 113.5t-108.5 148t-70 176q-12 48 -18.5 97.5t-6.5 101.5zM190 729q0 -46 5.5 -89.5t16 -84.5t26.5 -81q48 -117 130.5 -204t193.5 -137q112 -50 238 -50t237 50
t194 137t130.5 204.5t47.5 254.5q0 136 -48 253q-23 59 -56 110t-74.5 94t-90 77t-103.5 59q-111 49 -237 49q-63 0 -122.5 -12.5t-115.5 -36.5q-111 -49 -193.5 -136t-130.5 -204t-48 -253zM638 669v-338h-111v819h261q72 0 130 -15q56 -16 96 -45q39 -30 60 -75t21 -106
q0 -58 -30 -101q-15 -21 -37.5 -39.5t-52.5 -34.5l-29 -14l30 -13q32 -13 53.5 -32t34.5 -44q14 -24 20 -54t6 -63v-55q0 -19 1 -37.5t3 -35.5q3 -31 12 -55h-118q-1 4 -1.5 7t-1.5 6t-1 7q-1 5 -1.5 10l-1 10l-1 10t-1.5 10q0 10 -0.5 20t-0.5 19v83q0 19 -2 35.5t-7 31.5
t-12 27.5t-17 22.5q-19 20 -50.5 29.5t-73.5 9.5h-178zM638 767h171q17 1 33 3t32 6.5t29.5 10.5t25.5 15q25 17 40 42q15 26 15 60q0 40 -10 68q-11 29 -36 48q-24 18 -62 26q-35 7 -88 7h-150v-286z" />
    <glyph glyph-name="macron" unicode="&#xaf;" horiz-adv-x="938" 
d="M804 1343h-654v83h654v-83z" />
    <glyph glyph-name="degree" unicode="&#xb0;" horiz-adv-x="765" 
d="M145 1216q0 50 19 95q20 45 52.5 78t76.5 53q43 19 92 19t91 -19q15 -7 28 -15t24.5 -17.5t22.5 -20.5q32 -33 51 -78q10 -23 14.5 -46.5t4.5 -48.5q0 -26 -4.5 -49.5t-14.5 -45.5q-19 -43 -51 -75.5t-75 -51.5q-42 -19 -91 -19t-93 19q-22 9 -41 22t-35 29
q-32 33 -52 77q-19 43 -19 94zM240 1216q0 -15 3 -29.5t9 -28.5q3 -6 6.5 -12l7 -12t8 -11t9.5 -10q20 -19 46 -29.5t56 -10.5q15 0 29 2.5t27 8t24.5 13t21.5 17t17.5 21t13 24.5t8 27.5t2.5 29.5q0 31 -11 58q-10 27 -29.5 47.5t-46 31.5t-56.5 11q-10 0 -19.5 -1
t-19 -3.5t-17.5 -6.5q-27 -11 -46.5 -31.5t-30.5 -47.5q-12 -27 -12 -58z" />
    <glyph glyph-name="plusminus" unicode="&#xb1;" horiz-adv-x="1095" 
d="M635 840h363v-122h-363v-414h-137v414h-386v122h386v412h137v-412zM955 16h-805v121h805v-121z" />
    <glyph glyph-name="twosuperior" unicode="&#xb2;" horiz-adv-x="751" 
d="M668 682h-569v87l283 266q69 62 97 108q29 48 29 85q0 55 -37 90q-36 35 -102 35q-82 0 -121 -43q-35 -37 -39 -90h-128q3 43 19 81q20 44 56 77q12 12 25.5 21.5t29.5 17.5t34 15q26 10 56 15t64 5q13 0 25.5 -0.5t24.5 -2t23 -3.5t21.5 -4.5t21.5 -5.5q25 -8 46 -19
t38 -25q12 -10 21.5 -21t17.5 -23t14 -26q18 -41 18 -92q0 -37 -13 -70q-6 -17 -15 -33.5t-21 -33.5q-8 -11 -17 -22t-19 -22.5t-22 -22.5q-35 -35 -79 -75l-208 -171h426v-98z" />
    <glyph glyph-name="threesuperior" unicode="&#xb3;" horiz-adv-x="751" 
d="M280 1110h69q79 0 120 34q41 35 41 90q0 25 -9 46.5t-27 38.5q-19 17 -47 25t-65 8q-7 0 -14.5 -0.5t-14.5 -1.5t-13.5 -2t-13.5 -3q-9 -2 -17 -5t-15.5 -7t-14 -8.5t-12.5 -10t-11 -11.5t-9 -12q-8 -14 -11 -31h-127q2 38 19 69q21 38 57 65q18 14 40 24.5t47 18t52 11
t56 3.5q16 0 31 -1t29.5 -2.5t28 -4.5t26.5 -6q51 -14 88 -41q17 -13 31 -29t24 -36q20 -39 20 -90q0 -50 -32 -91q-32 -42 -94 -66l-43 -16l44 -12q37 -10 63 -26t42 -37q33 -43 33 -107q0 -52 -22 -92q-21 -40 -60 -67t-92 -42q-27 -8 -56 -11.5t-61 -3.5h-10.5t-11 0.5
l-11 1t-10.5 1t-10.5 1t-10.5 1t-10.5 1.5t-10.5 2t-10.5 2.5t-10.5 2.5q-51 13 -91 40q-39 26 -63 68q-20 34 -23 82h129q3 -22 14 -40t30 -32q22 -17 51 -25t65 -8q18 0 34.5 2t31 6t27.5 10.5t23 14.5q21 17 31.5 41t10.5 52q0 34 -12.5 60t-38.5 41q-16 10 -35 16.5
t-41.5 9.5t-47.5 3h-69v86z" />
    <glyph glyph-name="acute" unicode="&#xb4;" horiz-adv-x="642" 
d="M324 1519h182l-241 -264h-114z" />
    <glyph glyph-name="mu" unicode="&#xb5;" horiz-adv-x="1160" 
d="M324 1067v-607q0 -105 17 -171q18 -68 50 -107q33 -39 77 -53q43 -14 91 -14q112 0 178 43q22 14 40 32t32.5 39.5t24.5 46.5l1 3v788h156v-1052h-137l-13 145l-24 -36q-40 -62 -102 -95.5t-148 -33.5q-35 0 -66.5 4t-58.5 13q-27 8 -50 21t-43 31l-25 23v-488h-155v1468
h155z" />
    <glyph glyph-name="paragraph" unicode="&#xb6;" horiz-adv-x="1001" 
d="M661 15v520h-102q-116 0 -206 34q-89 34 -149 94t-91 143q-31 84 -31 182q0 97 31 181q31 83 91 143t149 95q90 34 206 34h258v-1426h-156z" />
    <glyph glyph-name="periodcentered" unicode="&#xb7;" horiz-adv-x="534" 
d="M162 729q0 42 25 70q24 27 74 27q26 0 44.5 -7t30.5 -20q13 -14 19.5 -31.5t6.5 -38.5q0 -41 -25 -68q-26 -27 -76 -27t-74 27q-25 27 -25 68z" />
    <glyph glyph-name="cedilla" unicode="&#xb8;" horiz-adv-x="507" 
d="M266 -15l-11 -49l15 -3q6 -1 11 -2t10.5 -2.5t10.5 -3t10.5 -3.5t10.5 -4t9.5 -4.5t9.5 -5.5t9 -6t8.5 -6.5t8.5 -6.5l12 -14t10.5 -15t8.5 -17q12 -28 12 -68q0 -43 -18 -78.5t-53 -61.5q-18 -13 -40.5 -23t-49.5 -18q-50 -13 -113 -14l-5 77q27 1 51 6q33 6 58 19
t40 36q16 22 16 53q0 14 -3 26.5t-9 22.5q-11 20 -34 33q-22 11 -55 18q-25 5 -57 8l25 106h102z" />
    <glyph glyph-name="onesuperior" unicode="&#xb9;" horiz-adv-x="697" 
d="M480 689h-127v605l-216 -57v98l343 113v-759z" />
    <glyph glyph-name="ordmasculine" unicode="&#xba;" horiz-adv-x="931" 
d="M137 1123q0 74 23 137q23 62 65.5 106.5t102.5 69.5q61 25 136 25q77 0 138 -25q20 -8 38 -18.5t34.5 -23t30.5 -27.5t25.5 -32t21.5 -35.5t17 -39.5q23 -63 23 -137v-80q0 -74 -23 -137q-22 -62 -64.5 -106.5t-102.5 -69.5q-30 -13 -64 -19t-72 -6q-76 0 -137 25
q-60 25 -103 69.5t-66 106.5q-23 63 -23 137v80zM270 1043q0 -48 12 -89q11 -42 36 -73q12 -15 27.5 -27.5t33.5 -21.5q38 -18 87 -18q48 0 85 18q9 5 17.5 10t16 11.5t14.5 13.5t13 14q24 31 35 73q6 20 9 42.5t3 46.5v80q0 47 -12 88q-2 8 -5 16t-6 15.5t-7 14.5t-8.5 14
t-9.5 13q-24 31 -61 49q-18 9 -39.5 13.5t-46.5 4.5q-48 0 -85 -18q-12 -6 -23 -13.5t-20.5 -16.5t-17.5 -19q-12 -16 -21.5 -34t-14.5 -39q-4 -14 -6.5 -28t-4 -29t-1.5 -31v-80z" />
    <glyph glyph-name="guillemotright" unicode="&#xbb;" horiz-adv-x="992" 
d="M570 932h118l7 -11q48 -76 80.5 -151t48.5 -148.5t16 -145.5q0 -24 -2 -48t-5.5 -48.5t-8.5 -48.5q-16 -73 -48 -148t-81 -152l-7 -11h-118l20 35q120 210 120 421q0 23 -1.5 46.5t-4.5 47t-7.5 47t-10.5 47t-13.5 47t-16.5 47t-19 46.5t-22 46.5t-25 47.5zM194 932h118
l7 -11q145 -229 145 -445.5t-145 -444.5l-7 -11h-118l20 35q120 210 120 421q0 35 -3.5 70t-10 70.5t-16.5 70.5t-23.5 70t-30 70.5t-36.5 70.5z" />
    <glyph glyph-name="onequarter" unicode="&#xbc;" horiz-adv-x="1500" 
d="M1303 284h107v-100h-107v-169h-127v169h-376l-5 83l370 507h138v-490zM907 284h269v358l-44 -73zM443 679h-127v605l-216 -57v98l343 113v-759zM438 139l-78 50l695 1112l78 -50z" />
    <glyph glyph-name="onehalf" unicode="&#xbd;" horiz-adv-x="1589" 
d="M1466 15h-569v87l283 266q11 10 21.5 20t19.5 19.5t17 18.5t15 17.5t13 16.5t11 16q7 12 12.5 23t9 21.5t5.5 20.5t2 20q0 55 -37 90q-36 35 -102 35q-82 0 -121 -43q-35 -37 -39 -90h-128q3 43 19 81q7 14 15 28t18.5 26t22.5 23q36 34 89 54t120 20q32 0 61 -4t55 -12
q50 -15 84 -44q35 -29 53 -70t18 -92v-9.5t-0.5 -9l-1 -9t-1.5 -9t-2 -8.5t-2 -8.5t-2.5 -8.5t-3.5 -8q-6 -17 -15 -33.5t-21 -33t-26.5 -33.5t-31.5 -34t-37 -36t-42 -39l-208 -171h426v-98zM438 679h-127v605l-216 -57v98l343 113v-759zM394 139l-78 50l695 1112l78 -50z
" />
    <glyph glyph-name="threequarters" unicode="&#xbe;" horiz-adv-x="1593" 
d="M1395 284h107v-100h-107v-169h-127v169h-376l-5 83l370 507h138v-490zM999 284h269v358l-44 -73zM329 1111h69q79 0 120 34q20 17 30.5 40t10.5 50q0 52 -36 85t-112 33h-8.5t-8.5 -0.5l-8 -1l-8 -1l-8 -1t-7.5 -1.5t-7.5 -2q-13 -4 -24.5 -9t-21.5 -12q-7 -4 -13 -9.5
t-11 -11.5t-9 -12q-8 -14 -11 -31h-127q2 38 19 69q10 19 24.5 35t32.5 30t40 24.5t47 18t52 11t56 3.5q21 0 41 -1.5t38.5 -4.5t35.5 -8q51 -14 88 -41q9 -6 16.5 -13.5t14.5 -15.5t13 -17t11 -19q20 -39 20 -90q0 -50 -32 -91q-32 -42 -94 -66l-43 -16l44 -12
q37 -10 63 -26t42 -37q33 -43 33 -107q0 -52 -22 -92q-21 -40 -60 -67t-92 -42q-54 -15 -117 -15q-11 0 -21.5 0.5t-21.5 1.5t-21.5 2.5t-20.5 3.5t-21 5q-17 4 -32.5 10t-30 13.5t-28.5 16.5q-19 13 -35 30t-28 38q-6 11 -11 24.5t-8 28t-4 29.5h129q3 -22 14 -40t30 -32
q22 -17 51 -25t65 -8q12 0 23.5 1t22 2.5t20 4.5t18.5 6.5t17 8.5t15 10q21 17 31.5 41t10.5 52q0 70 -51 101q-47 29 -124 29h-69v86zM565 139l-78 50l695 1112l78 -50z" />
    <glyph glyph-name="questiondown" unicode="&#xbf;" horiz-adv-x="969" 
d="M573 665q-2 -61 -10 -104q-8 -48 -27 -87q-20 -40 -51 -77q-15 -20 -34.5 -42t-42.5 -47q-32 -35 -62 -66q-31 -33 -54 -68q-25 -36 -39 -78q-15 -42 -15 -96q0 -115 62 -177q32 -31 76.5 -46.5t101.5 -15.5q45 0 88 13q22 7 41.5 17t36.5 24q33 27 53 68q18 35 21 82
h155q-2 -37 -10 -69.5t-22 -61.5q-15 -32 -35.5 -59.5t-46.5 -50.5q-53 -46 -124 -70q-36 -12 -75.5 -18t-81.5 -6q-24 0 -46.5 1.5t-43.5 4.5t-41 8t-38 11q-73 24 -123 71t-77 114q-13 34 -19.5 72.5t-6.5 82.5q0 65 21 123t54 110q34 53 77 100q44 49 88 92q57 54 76 119
q9 29 13.5 61t5.5 65h155zM581 997q0 -10 -1.5 -19t-4.5 -17.5t-7.5 -15.5t-10.5 -14q-11 -13 -28.5 -19.5t-41.5 -6.5t-41.5 6.5t-29.5 19.5q-12 14 -18 30t-6 36q0 38 24 64q24 25 71 25t70 -25q24 -26 24 -64z" />
    <glyph glyph-name="uni02BC" unicode="&#x2bc;" horiz-adv-x="409" 
d="M312 1408q0 -9 -0.5 -18t-1.5 -18t-2 -18.5t-3 -19t-4 -18.5q-3 -12 -6.5 -24t-7.5 -23.5t-9 -23.5t-10.5 -23.5t-11.5 -23t-12.5 -22.5t-13.5 -22t-15 -22q-27 -37 -63 -67l-83 57q42 62 65 127q25 71 25 156v116h153v-113z" />
    <glyph glyph-name="circumflex" unicode="&#x2c6;" horiz-adv-x="964" 
d="M749 1267h-121l-157 178l-156 -178h-123l230 254h98z" />
    <glyph glyph-name="caron" unicode="&#x2c7;" horiz-adv-x="909" 
d="M448 1342l157 178h128l-236 -254h-99l-233 254h125z" />
    <glyph glyph-name="breve" unicode="&#x2d8;" horiz-adv-x="874" 
d="M713 1480q-3 -47 -19 -87q-20 -46 -56 -79q-18 -17 -40.5 -30t-49.5 -23q-53 -19 -119 -19q-8 0 -16.5 0.5t-16 1t-15.5 1.5t-15.5 2t-14.5 2.5t-14 3.5l-14 4t-13 4q-53 19 -90 53q-36 33 -56 79q-4 8 -6.5 16.5l-5 17t-4 17.5t-2.5 18l-2 18h121q2 -24 9 -46
q2 -8 5 -15t6.5 -13.5t7.5 -13t9 -11.5q10 -12 23 -21t29 -16t34.5 -10t40.5 -3q43 0 74 13q32 14 52 37q7 7 12.5 15.5t9.5 18t7 19.5q7 22 9 46h120z" />
    <glyph glyph-name="dotaccent" unicode="&#x2d9;" horiz-adv-x="497" 
d="M156 1367q0 8 1 15.5t3 14.5t4.5 13t6.5 12t9 11q7 9 17 14.5t23.5 8.5t29.5 3q47 0 71 -26q24 -27 24 -66t-24 -65q-24 -25 -71 -25q-24 0 -41.5 6.5t-28.5 18.5q-12 13 -18 29t-6 36z" />
    <glyph glyph-name="ring" unicode="&#x2da;" horiz-adv-x="685" 
d="M136 1408q0 20 4 38.5t11 36.5q4 9 8.5 17t10 16t11.5 15t13 14q26 26 63 41q18 8 37.5 11.5t41.5 3.5q42 0 79 -15t63.5 -41.5t42 -61.5t15.5 -75q0 -14 -1.5 -26.5t-5 -25t-8.5 -23.5q-15 -34 -42 -59.5t-64 -40.5q-18 -7 -38 -10.5t-41 -3.5q-43 0 -79.5 14.5
t-63.5 39.5q-13 13 -23.5 28t-18 32t-11.5 35.5t-4 39.5zM205 1408q0 -5 0.5 -10l1 -10t2 -9.5t3 -9.5t3.5 -10q9 -23 26.5 -41t41.5 -29t53 -11q28 0 53 11q24 10 41.5 28t27 41.5t9.5 49.5q0 13 -2.5 26t-7.5 25q-9 23 -27 42q-8 9 -18.5 16.5t-22.5 12.5q-7 3 -13 5
t-12.5 3.5t-13.5 2t-14 0.5q-6 0 -11.5 -0.5t-11 -1.5t-10.5 -2t-10 -3l-10 -4q-24 -11 -41.5 -29.5t-27 -42t-9.5 -50.5z" />
    <glyph glyph-name="ogonek" unicode="&#x2db;" horiz-adv-x="554" 
d="M357 0q-12 -10 -24 -19t-23 -18t-21 -18t-19 -18.5t-17.5 -19t-15.5 -19.5t-13.5 -20t-11.5 -21q-8 -16 -12 -33.5t-4 -35.5q0 -39 21 -62q21 -25 72 -25h10t9.5 0.5l9 1t9 1.5l9 2t8.5 2t8 3q13 4 24 9l10 -91q-21 -12 -51 -23q-36 -14 -93 -14q-38 0 -71 11
q-32 11 -55 33q-12 11 -21 24.5t-16 29.5q-14 33 -14 77q0 37 13.5 74.5t43.5 74.5t77 71q44 33 106 62z" />
    <glyph glyph-name="tilde" unicode="&#x2dc;" horiz-adv-x="966" 
d="M815 1486q-2 -44 -16 -81q-15 -42 -42.5 -71t-63.5 -45q-9 -4 -18.5 -7t-19 -5t-19.5 -3t-21 -1q-48 0 -78 14q-32 14 -58 31q-27 18 -56 33q-31 17 -77 17q-6 0 -12 -0.5t-11.5 -2l-11 -3t-10.5 -4.5q-21 -10 -36.5 -27t-24.5 -40q-5 -16 -7 -34l-95 5q2 45 16 81
q15 43 42 74q26 30 62.5 46.5t78.5 16.5q20 0 37.5 -3.5t31.5 -10.5q11 -5 21 -10t20 -10.5t20 -11.5q30 -18 61 -34q35 -16 78 -16q24 0 45 10t37 28q15 17 24 40q6 16 8 34z" />
    <glyph glyph-name="hungarumlaut" unicode="&#x2dd;" horiz-adv-x="764" 
d="M612 1520h167l-243 -273h-132zM274 1520h159l-197 -273h-116z" />
    <glyph glyph-name="uni02F3" unicode="&#x2f3;" horiz-adv-x="602" 
d="M141 -242q0 11 1.5 21.5t4 20t7.5 19.5q6 14 14.5 26t19.5 22q21 20 50 31.5t62 11.5q32 0 60 -11.5t48.5 -31.5t33.5 -48q6 -14 9 -29t3 -32q0 -34 -12 -61t-33 -47q-11 -9 -23 -16.5t-26 -13t-29 -8t-31 -2.5q-33 0 -62 11q-29 10 -50.5 29.5t-33.5 46.5q-7 14 -10 29
t-3 32zM198 -242q0 -10 2 -20t6 -19t10 -17t13 -14q14 -13 32 -20q18 -8 39 -8q41 0 69.5 28.5t28.5 69.5q0 42 -28 71q-29 30 -70 30q-10 0 -20 -2t-19 -6q-6 -2 -12 -5.5t-11 -7.5l-10 -8q-14 -14 -22 -32q-4 -10 -6 -19.5t-2 -20.5z" />
    <glyph glyph-name="gravecomb" unicode="&#x300;" 
d="M-478 1255h-96l-117 265h142z" />
    <glyph glyph-name="acutecomb" unicode="&#x301;" 
d="M-513 1521h136l-150 -263h-85z" />
    <glyph glyph-name="tildecomb" unicode="&#x303;" 
d="M-193 1486q-2 -44 -16 -81q-15 -42 -42.5 -71t-63.5 -45q-9 -4 -18.5 -7t-19 -5t-19.5 -3t-21 -1q-48 0 -78 14q-32 14 -58 31q-27 18 -56 33q-31 17 -77 17q-6 0 -12 -0.5t-11.5 -2l-11 -3t-10.5 -4.5q-21 -10 -36.5 -27t-24.5 -40q-5 -16 -7 -34l-95 5q2 45 16 81
q15 43 42 74q26 30 62.5 46.5t78.5 16.5q20 0 37.5 -3.5t31.5 -10.5q11 -5 21 -10t20 -10.5t20 -11.5q30 -18 61 -34q35 -16 78 -16q24 0 45 10t37 28q15 17 24 40q6 16 8 34z" />
    <glyph glyph-name="hook" unicode="&#x309;" 
d="M-637 1256l-1 124q67 6 101 20q21 9 32.5 26.5t11.5 41.5q0 27 -17 46q-15 18 -41 28q-12 5 -26 8.5t-30 5.5q-25 4 -51 5l5 76q45 -1 83 -7t68 -16.5t53 -25.5q35 -24 52.5 -54.5t17.5 -69.5q0 -34 -12 -58q-6 -12 -14 -22.5t-17 -17.5q-20 -17 -45 -26q-27 -9 -54 -13
l-13 -2l-1 -69h-102z" />
    <glyph glyph-name="uni030F" unicode="&#x30f;" 
d="M-545 1267h-128l-272 236h179zM-278 1267h-114l-219 236h164z" />
    <glyph glyph-name="dotbelow" unicode="&#x323;" horiz-adv-x="495" 
d="M-697 -245q0 39 24 66q23 26 70 26q8 0 15.5 -1t14 -2.5t12.5 -3.5t11 -5t9.5 -6.5t8.5 -7.5q12 -14 18 -30t6 -36q0 -39 -24 -65q-24 -25 -71 -25t-70 25q-24 26 -24 65z" />
    <glyph glyph-name="tonos" unicode="&#x384;" horiz-adv-x="495" 
d="M183 1277l49 307h140l-105 -307h-84z" />
    <glyph glyph-name="dieresistonos" unicode="&#x385;" horiz-adv-x="975" 
d="M427 1423l38 234h137l-80 -234h-95zM119 1335q-6 16 -6 36q0 39 24 65q23 26 70 26t71 -26t24 -65t-24 -65q-24 -25 -71 -25q-16 0 -29.5 3t-23.5 8.5t-17 13.5q-12 13 -18 29zM674 1304q-24 26 -24 65q0 8 1 15.5t3 14.5t4.5 13t6.5 12t9 11q11 13 28.5 19.5t41.5 6.5
t41.5 -6.5t29.5 -19.5q12 -14 18 -30t6 -36q0 -39 -24 -65q-24 -25 -71 -25t-70 25z" />
    <glyph glyph-name="Delta" unicode="&#x394;" horiz-adv-x="1324" 
d="M1246 30h-1215l564 1396h119zM1075 127l-422 1177l-449 -1177h871z" />
    <glyph glyph-name="Omega" unicode="&#x3a9;" horiz-adv-x="1242" 
d="M1101 60h-403v108q24 8 46 20q14 7 27 16t25 19q3 3 6.5 6t6.5 6.5t6.5 6.5t6.5 7q6 6 12 13.5t12 14.5q3 5 7 10.5t7.5 11t6.5 11.5q3 4 5.5 8.5t5.5 9t5.5 9t4.5 8.5q10 19 19 39.5t17 42.5q15 44 26 96q11 51 16.5 109t5.5 124v115q0 121 -26 214q-7 24 -15 45.5
t-17.5 41.5t-21.5 38q-10 18 -23 34q-47 66 -113 100q-65 34 -147 34q-13 0 -26 -1t-25.5 -3t-24.5 -4q-6 -2 -12 -3.5t-12 -3.5l-12 -4t-11.5 -4.5l-11 -5t-11.5 -5.5q-33 -17 -60.5 -42t-51.5 -58q-10 -13 -18 -27q-3 -5 -6 -9.5t-6 -9.5l-6 -10q-4 -8 -7.5 -16t-7.5 -16
l-14 -34l-6 -18t-5 -19q-27 -93 -27 -214v-115q0 -65 5.5 -123.5t17.5 -110.5q5 -26 12 -50t15 -46t17.5 -42.5t19.5 -39.5q20 -38 43 -68q24 -31 51 -53q45 -38 100 -55v-108h-411v97h264l-52 52q-50 47 -90 109t-68 133q-5 11 -9 23t-8 24.5l-8 25t-7 25l-6 25t-6 25.5
q-7 39 -11 78t-4 79v113q0 137 39 249q38 112 108 191q23 27 49 49q3 3 7 6.5t7.5 6.5t7.5 6t8 5.5t8 5.5t8 5.5t8 5.5q26 19 55 33.5t59.5 24t63.5 14.5t68 5q105 0 192 -44q90 -44 159 -123q70 -79 108 -191q20 -56 29 -118q5 -31 7.5 -64t2.5 -67v-113q0 -40 -4 -79
q0 -6 -1 -12.5l-2 -13l-2 -13l-2 -13l-2 -13t-2 -13.5q-4 -19 -9 -38q-2 -7 -3.5 -13t-3 -12.5t-3.5 -12.5q-3 -9 -6 -18.5t-6 -18.5q-6 -18 -13 -35q-3 -9 -7 -18t-8 -17.5l-8 -17t-8 -16.5q-8 -17 -17.5 -33t-19.5 -31q-8 -12 -16.5 -24t-17.5 -23l-18 -22t-18.5 -21
t-19.5 -19l-52 -52h263v-97z" />
    <glyph glyph-name="afii57388" unicode="&#x60c;" horiz-adv-x="627" 
d="M323 14q-15 0 -28.5 1.5t-25 5t-21.5 8.5t-19 11q-34 27 -46 81q-6 26 -3 63q1 19 4.5 40.5t9.5 45.5q38 170 218 347l38 -27q-19 -21 -36 -41t-31.5 -40.5t-27 -40t-22.5 -39.5q-42 -79 -48 -156l-1 -16v-2h2h17q21 0 39 -2q9 -1 17 -3t15 -4.5t13.5 -5.5t12.5 -7
t11 -8.5t9 -9.5q3 -3 5.5 -7t4.5 -8t4 -8.5t3.5 -9t2.5 -9.5l2 -10q1 -4 1.5 -8.5l1 -9t0.5 -9v-9.5q0 -47 -20 -74.5t-61 -35.5q-6 -1 -13 -1.5l-14 -1t-14 -0.5z" />
    <glyph glyph-name="uni0615" unicode="&#x615;" horiz-adv-x="11" 
d="M791 1869q-38 3 -93.5 -32.5t-128.5 -109.5l-40 -39l-3 -4h4h123q95 0 145 23t53 69q6 88 -60 93zM928 1835q1 -14 1 -27q1 -195 -297 -195h-283v71h100h2v2v499h73v-403v-5l3 4l35 35q129 134 222 135q133 1 144 -116z" />
    <glyph glyph-name="uni061B" unicode="&#x61b;" horiz-adv-x="627" 
d="M323 458q-30 0 -53.5 6.5t-40.5 19.5t-28.5 33.5t-17.5 47.5q-4 18 -4 40.5t3.5 49.5t11.5 59q38 170 218 347l38 -27q-76 -82 -117 -161q-21 -40 -33 -79t-15 -77l-1 -16v-3h2l17 1q73 1 108 -30q3 -4 6.5 -7.5t6.5 -8t5.5 -9t4.5 -10l4 -11t3 -11.5t2 -12.5t1.5 -13.5
t0.5 -15q0 -29 -7 -50.5t-22 -35.5q-29 -27 -93 -27zM202 127.5q0 23.5 8 43.5q4 10 10.5 19t14.5 17q33 33 80 34q25 0 45 -8.5t37 -25.5q33 -33 33 -80q0 -23 -8.5 -43t-24.5 -37q-11 -11 -23.5 -18t-26.5 -11l-10 -2t-10 -1.5t-11 -0.5q-48 0 -81 33q-17 17 -25 37
t-8 43.5z" />
    <glyph glyph-name="uni061F" unicode="&#x61f;" horiz-adv-x="911" 
d="M402 127q0 16 4 30t11 26.5t18 23.5q33 33 81 34q48 -1 81 -34t33 -80t-33 -80t-80 -33q-49 0 -82 33t-33 80zM440 427v19q0 39 -12.5 75.5t-37.5 70t-61 64.5l-57 48q-157 133 -156 294q0 15 1 30t3 29t5 27.5t7 26.5t9 25t10.5 23.5t12 22.5t14.5 21q93 124 271 124
q25 0 48 -2.5t44.5 -8t41 -14t37.5 -19.5t34.5 -25t31 -31t27.5 -36.5t24.5 -42.5t21 -48.5t17.5 -53.5l-124 -41q-33 83 -83 125.5t-115 41.5q-50 -1 -87.5 -17.5t-63.5 -47.5q-40 -52 -40 -117q-1 -101 131 -200l44 -33q80 -60 119.5 -137.5t39.5 -172.5v-20h-157z" />
    <glyph glyph-name="uni0621" unicode="&#x621;" horiz-adv-x="807" 
d="M445 685q-16 0 -31 -1.5t-29 -4.5t-27 -7q-39 -14 -69 -42q-49 -47 -49 -126q0 -146 182 -192q35 -9 76 -9q71 0 160 43l37 -124l-519 -198l-47 112l196 69l46 16l6 2l-6 2l-48 12q-109 28 -162 96.5t-52 180.5q0 20 2 39.5t6 37.5t10 34.5t14.5 32t18.5 29.5t22.5 27
t27 24t30.5 22q41 25 90 37.5t106 13.5q80 0 144 -28v-118q-33 10 -66 15q-34 5 -69 5z" />
    <glyph glyph-name="uni0627" unicode="&#x627;" horiz-adv-x="469" 
d="M175 1319h136v-1303h-136v1303z" />
    <glyph glyph-name="uni0628" unicode="&#x628;" horiz-adv-x="1901" 
d="M537 165h836q130 0 197.5 71t67.5 207v182h144v-179q0 -218 -103 -324.5t-313 -106.5h-832q-211 0 -314 105.5t-103 321.5v186h145v-185q0 -91 31 -153t92.5 -93.5t151.5 -31.5zM831 -308l91 91q29 29 52 6l98 -98q26 -26 -3 -55l-91 -91q-27 -27 -53 -1l-98 98
q-23 23 4 50z" />
    <glyph glyph-name="uni0629" unicode="&#x629;" horiz-adv-x="924" 
d="M519 1212l91 91q27 27 48 6l98 -98q24 -24 -3 -51l-91 -91q-25 -25 -49 -1l-98 98q-10 10 -9 21.5t13 24.5zM172 1212l91 91q27 27 48 6l98 -98q24 -24 -3 -51l-91 -91q-25 -25 -49 -1l-98 98q-20 21 4 46zM447 636q-64 -54 -106 -105t-64 -102t-22 -100q0 -83 56 -125
t161 -42q65 0 110 19t68.5 57.5t23.5 94.5q0 137 -206 303l-1 1l-10 8l-9 -8zM118 312q0 207 232 417l1 1l12 11l-12 12l-1 1l-27 25l85 99q405 -294 404 -551q0 -158 -84 -234.5t-258 -76.5q-179 0 -265.5 73.5t-86.5 222.5z" />
    <glyph glyph-name="uni062A" unicode="&#x62a;" horiz-adv-x="1901" 
d="M537 165h836q130 0 197.5 71t67.5 207v182h144v-179q0 -218 -103 -324.5t-313 -106.5h-832q-211 0 -314 105.5t-103 321.5v186h145v-185q0 -91 31 -153t92.5 -93.5t151.5 -31.5zM1006 918l91 91q27 27 48 6l98 -98q24 -24 -3 -51l-91 -91q-25 -25 -49 -1l-98 98
q-10 10 -9 21.5t13 24.5zM659 918l91 91q27 27 48 6l98 -98q24 -24 -3 -51l-91 -91q-25 -25 -49 -1l-98 98q-20 21 4 46z" />
    <glyph glyph-name="uni062B" unicode="&#x62b;" horiz-adv-x="1901" 
d="M537 165h836q130 0 197.5 71t67.5 207v182h144v-179q0 -218 -103 -324.5t-313 -106.5h-832q-211 0 -314 105.5t-103 321.5v186h145v-185q0 -91 31 -153t92.5 -93.5t151.5 -31.5zM1008 835l91 91q13 13 24 14t20 -8l98 -98q7 -8 9 -15.5t-1 -15t-11 -16.5l-91 -91
q-23 -23 -45 -1l-97 98q-7 6 -9 12.5t1 14t11 15.5zM661 835l91 91q25 25 44 6l98 -98q20 -23 -3 -47l-91 -91q-23 -23 -45 -1l-97 98q-19 19 3 42zM894 834zM834 1121l91 91q26 26 44 6v0l98 -98q22 -22 -3 -47l-91 -91q-12 -11 -23 -11.5t-22 10.5l-97 98q-5 5 -7.5 10
t-2 10t3.5 10.5t9 11.5z" />
    <glyph glyph-name="uni062C" unicode="&#x62c;" horiz-adv-x="1319" 
d="M685 -98l91 91q29 29 52 6l98 -98q26 -26 -3 -55l-91 -91q-27 -27 -53 -1l-98 98q-23 23 4 50zM1074 337q-397 -56 -609 -188q-206 -128 -206 -329q-1 -39 6 -74.5t21 -66t35 -57.5q62 -79 184 -118q121 -38 299 -38h397v-146h-409q-192 1 -327 39q-135 37 -212 111
q-139 134 -136 344q6 513 810 634l42 7h6l-5 3l-38 22l-118 68q-278 160 -507 -22l-60 -48l-96 107l50 42q304 261 637 68l189 -111q48 -27 91 -46q21 -9 41.5 -16t40.5 -11v-157q-63 -8 -126 -17z" />
    <glyph glyph-name="uni062D" unicode="&#x62d;" horiz-adv-x="1319" 
d="M1074 337q-397 -56 -609 -188q-206 -128 -206 -329q-1 -39 6 -74.5t21 -66t35 -57.5q62 -79 184 -118q121 -38 299 -38h397v-146h-409q-192 1 -327 39q-135 37 -212 111q-139 134 -136 344q6 513 810 634l42 7h6l-5 3l-38 22l-118 68q-278 160 -507 -22l-60 -48l-96 107
l50 42q304 261 637 68l189 -111q48 -27 91 -46q21 -9 41.5 -16t40.5 -11v-157q-63 -8 -126 -17z" />
    <glyph glyph-name="uni062E" unicode="&#x62e;" horiz-adv-x="1319" 
d="M466 1173l91 91q29 29 52 6l98 -98q26 -26 -3 -55l-91 -91q-27 -27 -53 -1l-98 98q-23 23 4 50zM1074 337q-397 -56 -609 -188q-206 -128 -206 -329q-1 -39 6 -74.5t21 -66t35 -57.5q62 -79 184 -118q121 -38 299 -38h397v-146h-409q-192 1 -327 39q-135 37 -212 111
q-139 134 -136 344q6 513 810 634l42 7h6l-5 3l-38 22l-118 68q-278 160 -507 -22l-60 -48l-96 107l50 42q304 261 637 68l189 -111q48 -27 91 -46q21 -9 41.5 -16t40.5 -11v-157q-63 -8 -126 -17z" />
    <glyph glyph-name="uni062F" unicode="&#x62f;" horiz-adv-x="1011" 
d="M468 15h-349v150h350q277 0 278 142q-1 74 -106 196l-265 306l100 113l288 -335q130 -151 129 -292q0 -140 -104.5 -210t-320.5 -70z" />
    <glyph glyph-name="uni0630" unicode="&#x630;" horiz-adv-x="1011" 
d="M261 1286l91 91q29 29 52 6l98 -98q26 -26 -3 -55l-91 -91q-27 -27 -53 -1l-98 98q-23 23 4 50zM468 15h-349v150h350q277 0 278 142q-1 74 -106 196l-265 306l100 113l288 -335q130 -151 129 -292q0 -140 -104.5 -210t-320.5 -70z" />
    <glyph glyph-name="uni0631" unicode="&#x631;" horiz-adv-x="755" 
d="M94 -299q403 -1 403 370v519l144 1v-523q0 -510 -545 -514l-57 -1v148h55z" />
    <glyph glyph-name="uni0632" unicode="&#x632;" horiz-adv-x="755" 
d="M405 1048l91 91q29 29 52 6l98 -98q26 -26 -3 -55l-91 -91q-27 -27 -53 -1l-98 98q-23 23 4 50zM94 -299q403 -1 403 370v519l144 1v-523q0 -510 -545 -514l-57 -1v148h55z" />
    <glyph glyph-name="uni0633" unicode="&#x633;" horiz-adv-x="2484" 
d="M1534 14q-128 1 -218 95l-3 3v-5v-27v-28q0 -123 -35 -214.5t-105 -152.5q-139 -121 -424 -121h-55q-290 0 -433 133q-71 67 -107 168t-36 236v326h147v-325q0 -191 109 -289t322 -98h51q213 0 322 83q110 84 110 248v570h146v-219q0 -233 208 -233q184 0 185 208v246
h146l1 -244q0 -104 48 -156.5t142 -53.5q167 -2 167 206v280h145v-288q0 -59 -8.5 -108t-25.5 -87.5t-43 -67.5q-77 -85 -234 -85q-180 0 -256 148l-2 4l-2 -4q-70 -150 -262 -148z" />
    <glyph glyph-name="uni0634" unicode="&#x634;" horiz-adv-x="2484" 
d="M1808 1008l91 91q13 13 24 14t20 -8l98 -98q7 -8 9 -15.5t-1 -15t-11 -16.5l-91 -91q-23 -23 -45 -1l-97 98q-7 6 -9 12.5t1 14t11 15.5zM1461 1008l91 91q25 25 44 6l98 -98q20 -23 -3 -47l-91 -91q-23 -23 -45 -1l-97 98q-19 19 3 42zM1694 1007zM1634 1294l91 91
q26 26 44 6v0l98 -98q22 -22 -3 -47l-91 -91q-12 -11 -23 -11.5t-22 10.5l-97 98q-5 5 -7.5 10t-2 10t3.5 10.5t9 11.5zM1534 14q-128 1 -218 95l-3 3v-5v-27v-28q0 -123 -35 -214.5t-105 -152.5q-139 -121 -424 -121h-55q-290 0 -433 133q-71 67 -107 168t-36 236v326h147
v-325q0 -191 109 -289t322 -98h51q213 0 322 83q110 84 110 248v570h146v-219q0 -233 208 -233q184 0 185 208v246h146l1 -244q0 -104 48 -156.5t142 -53.5q167 -2 167 206v280h145v-288q0 -59 -8.5 -108t-25.5 -87.5t-43 -67.5q-77 -85 -234 -85q-180 0 -256 148l-2 4
l-2 -4q-70 -150 -262 -148z" />
    <glyph glyph-name="uni0635" unicode="&#x635;" horiz-adv-x="2515" 
d="M1325 417q0 -95 26.5 -152.5t82.5 -71.5l1 -1l13 -3l5 12l1 2q226 557 564 557q198 0 299 -135q81 -106 81 -258q-1 -170 -128 -269q-108 -83 -309 -83h-340q-77 0 -134.5 9.5t-93.5 27.5t-53 43l-27 41v-49v-35q0 -246 -139.5 -367t-424.5 -121h-55q-486 0 -562 380
q-14 72 -14 157v326h147v-325q0 -191 109 -289t322 -98h51q213 0 322.5 83.5t109.5 248.5v569h146v-199zM2241 425q-8 36 -23 65t-35.5 51t-47 36.5t-58.5 22t-70 7.5q-27 0 -53.5 -7t-52.5 -20.5t-51.5 -33.5t-50.5 -46.5t-49.5 -59.5t-48.5 -72t-47.5 -84.5t-47.5 -96.5
l-9 -21h23h3h358q154 0 217 56q50 44 50 125q0 47 -7 78z" />
    <glyph glyph-name="uni0636" unicode="&#x636;" horiz-adv-x="2515" 
d="M1820 1168l91 91q29 29 52 6l98 -98q26 -26 -3 -55l-91 -91q-27 -27 -53 -1l-98 98q-23 23 4 50zM1325 417q0 -95 26.5 -152.5t82.5 -71.5l1 -1l13 -3l5 12l1 2q226 557 564 557q198 0 299 -135q81 -106 81 -258q-1 -170 -128 -269q-108 -83 -309 -83h-340
q-77 0 -134.5 9.5t-93.5 27.5t-53 43l-27 41v-49v-35q0 -246 -139.5 -367t-424.5 -121h-55q-486 0 -562 380q-14 72 -14 157v326h147v-325q0 -191 109 -289t322 -98h51q213 0 322.5 83.5t109.5 248.5v569h146v-199zM2241 425q-8 36 -23 65t-35.5 51t-47 36.5t-58.5 22
t-70 7.5q-27 0 -53.5 -7t-52.5 -20.5t-51.5 -33.5t-50.5 -46.5t-49.5 -59.5t-48.5 -72t-47.5 -84.5t-47.5 -96.5l-9 -21h23h3h358q154 0 217 56q50 44 50 125q0 47 -7 78z" />
    <glyph glyph-name="uni0637" unicode="&#x637;" horiz-adv-x="1369" 
d="M815 15h-696v150h164h1h11l4 10v2q14 39 107 215l2 4v4v920h136v-689v-5v-36l26 25l3 4q143 141 299 141q194 0 299 -136q80 -102 80 -257q1 -85 -31 -152t-97 -117q-109 -83 -308 -83zM861 607q-212 0 -400 -417l-1 -3l-10 -21h24h3h358q156 0 217 56q48 44 50 125
q0 23 -2 42.5t-5 36.5q-21 89 -80.5 135t-153.5 46z" />
    <glyph glyph-name="uni0638" unicode="&#x638;" horiz-adv-x="1369" 
d="M776 1167l91 91q29 29 52 6l98 -98q26 -26 -3 -55l-91 -91q-27 -27 -53 -1l-98 98q-23 23 4 50zM815 15h-696v150h164h1h11l4 10v2q14 39 107 215l2 4v4v920h136v-689v-5v-36l26 25l3 4q143 141 299 141q194 0 299 -136q80 -102 80 -257q1 -85 -31 -152t-97 -117
q-109 -83 -308 -83zM861 607q-212 0 -400 -417l-1 -3l-10 -21h24h3h358q156 0 217 56q48 44 50 125q0 23 -2 42.5t-5 36.5q-21 89 -80.5 135t-153.5 46z" />
    <glyph glyph-name="uni0639" unicode="&#x639;" horiz-adv-x="1249" 
d="M117 -178q5 343 386 476l24 8l4 1l-3 3l-19 17q-126 109 -126 246q1 166 105 272q105 108 275 108q173 0 288 -136l-58 -107q-50 44 -106 66q-56 23 -120 22q-12 0 -24.5 -1t-24 -2.5t-22.5 -4.5t-21 -7q-21 -7 -40 -18.5t-35 -26.5l-16 -16t-15 -18q-20 -27 -30 -59.5
t-11 -69.5q0 -15 2 -28.5t6 -27t10.5 -26.5t14.5 -25.5t18 -24.5t22 -24t26.5 -23t30.5 -22t34 -21l4 -2h1h5q109 8 239 8h153v-151h-169q-668 -1 -666 -388q0 -178 139 -266t406 -88h327v-146h-339q-192 1 -327 39q-135 37 -212 111q-139 134 -136 352z" />
    <glyph glyph-name="uni063A" unicode="&#x63a;" horiz-adv-x="1249" 
d="M623 1325l91 91q29 29 52 6l98 -98q26 -26 -3 -55l-91 -91q-27 -27 -53 -1l-98 98q-23 23 4 50zM117 -178q5 343 386 476l24 8l4 1l-3 3l-19 17q-126 109 -126 246q1 166 105 272q105 108 275 108q173 0 288 -136l-58 -107q-50 44 -106 66q-56 23 -120 22q-12 0 -24.5 -1
t-24 -2.5t-22.5 -4.5t-21 -7q-21 -7 -40 -18.5t-35 -26.5l-16 -16t-15 -18q-20 -27 -30 -59.5t-11 -69.5q0 -15 2 -28.5t6 -27t10.5 -26.5t14.5 -25.5t18 -24.5t22 -24t26.5 -23t30.5 -22t34 -21l4 -2h1h5q109 8 239 8h153v-151h-169q-668 -1 -666 -388q0 -178 139 -266
t406 -88h327v-146h-339q-192 1 -327 39q-135 37 -212 111q-139 134 -136 352z" />
    <glyph glyph-name="afii57440" unicode="&#x640;" horiz-adv-x="250" 
d="M254 165q9 -12 9 -68v-11q0 -59 -10 -71h-258q-19 0 -28 15q-5 8 -7.5 22t-2.5 34v11q0 19 2.5 32.5t7.5 20.5q9 15 28 15h259z" />
    <glyph glyph-name="uni0641" unicode="&#x641;" horiz-adv-x="1886" 
d="M1324 1339l91 91q29 29 52 6l98 -98q26 -26 -3 -55l-91 -91q-27 -27 -53 -1l-98 98q-23 23 4 50zM1288 15h-754q-211 0 -314 105.5t-103 321.5v186h145v-185q0 -91 31 -153t92.5 -93.5t151.5 -31.5h754q345 0 345 163v23v2v17l-17 -2h-2q-39 -4 -76.5 -6t-72.5 -3
q-174 0 -257.5 66.5t-83.5 200.5q0 21 1.5 40.5t4 37.5t6.5 35t9 33q21 61 62 104q43 44 103.5 66.5t138.5 22.5q108 0 178 -34t104.5 -103t34.5 -174v-319q0 -106 -51.5 -177t-158.5 -107t-271 -36zM1636 657q0 82 -47 125t-135 42h-11t-10.5 -0.5t-10.5 -1l-10 -1
t-10 -1.5t-9.5 -2t-9 -2.5l-9 -3t-8.5 -2.5q-19 -7 -34.5 -18.5t-27.5 -26.5q-11 -13 -19 -27.5t-13 -30.5t-7.5 -33.5t-2.5 -36.5q0 -46 26 -76t73 -44.5t115 -13.5q74 0 145 10h2l13 2v13v2v127z" />
    <glyph glyph-name="uni0642" unicode="&#x642;" horiz-adv-x="1434" 
d="M1032 1058l91 91q27 27 48 6l98 -98q24 -24 -3 -51l-91 -91q-25 -25 -49 -1l-98 98q-10 10 -9 21.5t13 24.5zM685 1058l91 91q27 27 48 6l98 -98q24 -24 -3 -51l-91 -91q-25 -25 -49 -1l-98 98q-20 21 4 46zM1314 358l2 -425q1 -185 -129 -277.5t-398 -92.5h-98
q-288 1 -430 135t-143 404v325l145 1v-325q0 -192 109 -289t321 -96l95 1q389 2 387 218v64v2v15h-15h-2h-161q-169 0 -251 80.5t-82 246.5q1 60 10.5 110.5t28 90.5t45.5 71q42 47 104 71t144 24q143 1 228 -81q44 -43 66.5 -111t23.5 -162zM801 346q0 -88 50 -134t145 -46
h162h2h15v15v2v169q-1 107 -47 163.5t-136 55.5q-94 0 -142.5 -57.5t-48.5 -167.5z" />
    <glyph glyph-name="uni0643" unicode="&#x643;" horiz-adv-x="1889" 
d="M701 725q33 -4 66 -6.5t66 -2.5q7 0 14.5 0.5l15 1t14.5 1.5l14 2t14 2.5t14 3.5q21 5 40 12q13 5 24 10.5t20.5 11.5t17.5 13t14 14.5t10.5 15.5t6.5 17t2 19q0 17 -7.5 31.5t-21.5 24.5q-27 19 -76 27q-84 14 -116 55q-50 65 -28 133t94 107q10 5 21.5 10.5t24.5 9.5
t27 8t29 7.5t31 6t33.5 4.5t36.5 3l11 1v-66l-10 -1q-111 -9 -169 -39q-62 -33 -62 -91q0 -30 17 -51t48 -31q15 -5 35.5 -9t46.5 -8q6 -1 11.5 -2t11.5 -3q10 -3 19.5 -7.5t17.5 -10.5q4 -2 8 -5.5t8 -7.5q29 -27 29 -77q0 -52 -21 -85q-107 -170 -404 -123l-9 1v74z
M538 165h814q120 0 181 72.5t61 210.5v870h137v-873q0 -145 -42.5 -240.5t-127.5 -142.5t-214 -47h-812q-211 0 -314.5 105.5t-103.5 321.5v196h145v-195q0 -91 31 -153t92.5 -93.5t152.5 -31.5z" />
    <glyph glyph-name="uni0644" unicode="&#x644;" horiz-adv-x="1337" 
d="M263 102q0 -189 96.5 -286t284.5 -97h53q172 0 259.5 93t87.5 274v1232h135l-1 -1236q0 -130 -30 -226.5t-91 -160.5t-152.5 -95.5t-214.5 -31.5h-46q-439 0 -511 369q-15 75 -15 164v326h145v-325z" />
    <glyph glyph-name="uni0645" unicode="&#x645;" horiz-adv-x="1310" 
d="M843 584h-157h-2h-15v-15v-2v-199q0 -79 22 -133t67 -82.5t111 -28.5q90 0 135.5 63t45.5 181v42q0 86 -53.5 130t-153.5 44zM858 726q170 0 252.5 -78t82.5 -237v-44q0 -189 -80.5 -281t-243.5 -91q-173 0 -258 91.5t-85 279.5v186v2v17l-17 -2h-2q-62 -6 -109.5 -36
t-78.5 -82t-46 -124.5t-15 -167.5v-640h-140v633v6q-1 287 115 427.5t350 140.5h275z" />
    <glyph glyph-name="uni0646" unicode="&#x646;" horiz-adv-x="1442" 
d="M587 683l91 91q29 29 52 6l98 -98q26 -26 -3 -55l-91 -91q-27 -27 -53 -1l-98 98q-23 23 4 50zM1313 52q-6 -245 -145 -367q-35 -30 -78.5 -52.5t-96 -38t-113.5 -23t-131 -7.5h-55q-290 0 -433 133q-143 134 -143 404v326h147v-325q0 -191 109 -289t322 -98h51
q213 0 322 83q110 84 110 248v570h146z" />
    <glyph glyph-name="uni0647" unicode="&#x647;" horiz-adv-x="924" 
d="M447 636q-64 -54 -106 -105t-64 -102t-22 -100q0 -83 56 -125t161 -42q65 0 110 19t68.5 57.5t23.5 94.5q0 137 -206 303l-1 1l-10 8l-9 -8zM118 312q0 207 232 417l1 1l12 11l-12 12l-1 1l-27 25l85 99q405 -294 404 -551q0 -158 -84 -234.5t-258 -76.5
q-179 0 -265.5 73.5t-86.5 222.5z" />
    <glyph glyph-name="uni0648" unicode="&#x648;" horiz-adv-x="877" 
d="M628 15h-17h-160q-169 0 -251 80.5t-82 252.5q1 214 121 300q82 59 206 61q138 1 231 -83q92 -85 92 -271v-357q0 -444 -553 -443h-59v149h53q418 -1 419 294v17zM255 336q0 -80 50 -125t145 -45h162h17l-1 183q0 220 -182 219q-191 0 -191 -232z" />
    <glyph glyph-name="uni0649" unicode="&#x649;" horiz-adv-x="1446" 
d="M1061 214q137 0 202 -50.5t65 -154.5v-29q0 -208 -136.5 -311t-416.5 -103h-84q-484 0 -559 380q-15 73 -15 158v396h145v-395q0 -192 109 -290t322 -98h91q98 0 172.5 15t125.5 45t77.5 76.5t26.5 108.5v12q0 80 -91 93q-17 3 -35 3h-161q-81 0 -118.5 36.5t-37.5 113.5
v65q0 78 11.5 142t34 114t55.5 87q50 56 126 84.5t179 28.5h179l1 -155h-222q-106 0 -161.5 -75t-57.5 -219l-2 -60v-2v-16h15h2h158z" />
    <glyph glyph-name="uni064A" unicode="&#x64a;" horiz-adv-x="1446" 
d="M810 -690l91 91q27 27 48 6l98 -98q24 -24 -3 -51l-91 -91q-25 -25 -49 -1l-98 98q-10 10 -9 21.5t13 24.5zM463 -690l91 91q27 27 48 6l98 -98q24 -24 -3 -51l-91 -91q-25 -25 -49 -1l-98 98q-20 21 4 46zM1061 214q137 0 202 -50.5t65 -154.5v-29q0 -208 -136.5 -311
t-416.5 -103h-84q-484 0 -559 380q-15 73 -15 158v396h145v-395q0 -192 109 -290t322 -98h91q98 0 172.5 15t125.5 45t77.5 76.5t26.5 108.5v12q0 80 -91 93q-17 3 -35 3h-161q-81 0 -118.5 36.5t-37.5 113.5v65q0 78 11.5 142t34 114t55.5 87q50 56 126 84.5t179 28.5h179
l1 -155h-222q-106 0 -161.5 -75t-57.5 -219l-2 -60v-2v-16h15h2h158z" />
    <glyph glyph-name="uni064B" unicode="&#x64b;" 
d="M337 1053v97l392 160v-97zM337 1260v97l392 160v-97z" />
    <glyph glyph-name="uni064C" unicode="&#x64c;" 
d="M647 1471l8 20q5 10 7 21t2 22q0 35 -19 51q-18 15 -40 15q-23 0 -36 -10q-10 -8 -15 -19.5t-5 -25.5q0 -40 46 -59q9 -3 19 -6.5t21 -7.5l9 -3h2zM564 1323q17 16 30 33.5t23 36.5l6 12l1 2l-3 1l-13 3q-9 1 -17 3.5t-14.5 5.5t-13.5 6q-17 10 -30.5 20t-24 21.5
t-17.5 23.5t-10.5 25.5t-3.5 28.5q0 68 55 109q20 15 70 15q57 0 88 -30q43 -42 43 -105q0 -31 -9 -62l-4 -13l-1 -2h2l14 -1q16 -1 28 -1h21v-70q-16 0 -26.5 0.5t-17.5 1.5l-52 5h-1l-1 -1l-3 -7q-21 -51 -84 -116q-34 -35 -70.5 -52.5t-73.5 -17.5q-106 0 -134 124
q-2 9 -4 19.5t-3.5 21.5t-2.5 23t-1.5 25t-0.5 26h52q0 -22 1.5 -39.5t4 -32t5.5 -26.5q23 -72 83 -71q26 0 53.5 13.5t55.5 41.5z" />
    <glyph glyph-name="uni064D" unicode="&#x64d;" 
d="M342 -437v97l392 160v-97zM342 -230v97l392 160v-97z" />
    <glyph glyph-name="uni064E" unicode="&#x64e;" 
d="M308 1285v97l392 160v-97z" />
    <glyph glyph-name="uni064F" unicode="&#x64f;" 
d="M565 1441q-86 36 -86 118q0 68 54 109q21 15 70 15q58 0 89 -30q43 -42 43 -105q0 -25 -12 -62l-3 -12l-1 -3h2l14 -1q14 -1 30 -1q9 0 20 -1v-69q-11 0 -22 0.5t-22 1.5q-25 1 -49 4l-6 1h-1l-1 -1l-3 -5q-12 -17 -26 -32t-31 -28t-36 -25q-159 -98 -278 -103v69
q128 5 245 96q20 16 37 34l13 13l2 3h-3q-17 4 -39 14zM648 1484l9 21q9 20 9 43q0 18 -5 30.5t-15 20.5q-18 15 -39 15q-24 0 -37 -10q-20 -16 -20 -45q0 -40 46 -59q18 -7 41 -14l9 -3h1z" />
    <glyph glyph-name="uni0650" unicode="&#x650;" 
d="M352 -309v97l392 160v-97z" />
    <glyph glyph-name="uni0651" unicode="&#x651;" 
d="M437 1334q-134 0 -135 151v119h67l1 -120q0 -66 67 -67q75 0 76 98l2 132h66l2 -124q1 -67 80 -67q62 0 63 100l2 131h70l-1 -130q-3 -182 -133 -182q-38 0 -64.5 11.5t-42.5 33.5l-2 4l-1 -5q-22 -85 -117 -85z" />
    <glyph glyph-name="uni0652" unicode="&#x652;" 
d="M665 1382q0 42 -28.5 70.5t-70.5 28.5q-6 0 -12 -0.5t-11.5 -1.5t-10.5 -3l-10 -4q-2 -1 -4.5 -2.5t-5.5 -2.5q-4 -3 -8.5 -6.5t-8.5 -7.5q-14 -15 -21 -32q-4 -9 -5.5 -18.5t-1.5 -20.5q0 -42 28.5 -70.5t70.5 -28.5q21 0 38 7l4 2l4 2l4 2t3.5 2t3.5 2.5t3.5 2.5
t3.5 2.5t3.5 3l3.5 3.5q14 14 21 32q4 9 5.5 18.5t1.5 19.5zM743 1382q0 -74 -51 -125q-26 -26 -57.5 -39t-68.5 -13q-9 0 -18 1t-17.5 2.5t-16.5 3.5q-3 1 -5.5 2t-5.5 2t-5 2q-8 3 -15.5 7t-14.5 9t-14 10.5t-13 12.5q-26 25 -38.5 56.5t-12.5 68.5q0 13 1 25q0 2 0.5 5
l1 6t1.5 6t1 5q2 6 3.5 11.5t3.5 10.5q5 10 10.5 20t12.5 19t16 18q51 51 125 51q15 0 29 -2t27 -6t25 -10.5t23 -14.5t22 -18q25 -26 38 -57q3 -8 5.5 -16t4 -16.5t2.5 -17.5t1 -19z" />
    <glyph glyph-name="uni0653" unicode="&#x653;" horiz-adv-x="11" 
d="M319 1684h367l1 -128h-358q-110 0 -165 -73l-4 -4l-78 90l2 3q37 56 95.5 84t139.5 28z" />
    <glyph glyph-name="uni0654" unicode="&#x654;" 
d="M399 1644l102 24l16 4l5 1l-4 2l-15 9q-72 45 -72 141q0 115 96 169q13 7 27 13q3 1 6.5 2.5t7 2.5l7 2t7.5 2t7.5 1.5t7.5 1.5t8 1.5t8 0.5q7 1 15.5 1.5t16.5 0.5q74 0 133 -35v-95q-12 6 -24.5 10t-26 6.5t-28 4t-29.5 1.5q-61 -1 -93 -25t-33 -71q0 -26 10.5 -47
t32 -36t52.5 -24l2 -1h1h1l162 27v-103l-406 -91v100z" />
    <glyph glyph-name="uni0655" unicode="&#x655;" 
d="M399 -191l102 24l16 4l5 1l-4 2l-15 9q-72 45 -72 141q0 115 96 169q13 7 27 13q3 1 6.5 2.5t7 2.5l7 2t7.5 2t7.5 1.5t7.5 1.5t8 1.5t8 0.5q7 1 15.5 1.5t16.5 0.5q74 0 133 -35v-95q-12 6 -24.5 10t-26 6.5t-28 4t-29.5 1.5q-61 -1 -93 -25t-33 -71q0 -26 10.5 -47
t32 -36t52.5 -24l2 -1h1h1l162 27v-103l-406 -91v100z" />
    <glyph glyph-name="uni0657" unicode="&#x657;" horiz-adv-x="11" 
d="M377 1975l113 -8h1l1 1q47 67 113 107q177 109 314 120v-66q-50 -3 -98.5 -16.5t-94.5 -37.5t-91 -59q-4 -4 -8 -7t-8 -6.5t-7.5 -6.5t-7 -6.5l-7 -7l-7.5 -7.5l-24 -26l-3 -3h4l35 -8q3 -1 13 -5.5t26 -13.5q32 -17 56 -49.5t24 -72t-11 -62.5q-39 -77 -132 -77
q-47 0 -79.5 21t-49.5 65q-5 9 -7.5 19t-4 20.5t-1.5 21t1.5 22.5t4.5 25t7 27l8 25l1 2h-3l-26 2q-23 1 -52 2v65zM526 1893l-13 -31q-11 -25 -11 -62q0 -18 6 -32.5t18 -24.5q25 -20 53 -20q29 1 47 13.5t25 36.5q1 5 1.5 10t0.5 10q0 63 -107 96l-18 5l-1 1z" />
    <glyph glyph-name="uni065A" unicode="&#x65a;" horiz-adv-x="1295" 
d="M571 1594l-212 354h111l176 -265l2 -2l2 2l176 265h111l-212 -354h-154z" />
    <glyph glyph-name="afii57392" unicode="&#x660;" horiz-adv-x="936" 
d="M195 500q3 114 81 193q26 26 56 43.5t64 26.5t72 9q57 0 105 -20t87 -59q10 -10 19 -20.5t16 -21.5q15 -22 25 -46q5 -12 8.5 -24.5t6.5 -25.5q1 -9 2.5 -18t2 -18t0.5 -19q0 -38 -9 -71.5t-26.5 -63.5t-44.5 -57q-39 -39 -87 -59q-9 -4 -19 -7t-20.5 -5.5t-21 -4.5
t-21.5 -2.5t-23 -0.5q-113 1 -192 79q-39 40 -59 87.5t-22 104.5zM326 500q0 -3 0.5 -6t0.5 -5.5t0.5 -5.5t1 -5.5t1 -5.5t1 -5.5t1.5 -5.5t1.5 -5.5t1.5 -5t2 -4.5q5 -13 13 -24.5t18 -21.5q41 -41 100 -41t100 41q42 42 42 100q0 12 -2 23t-5 21q-2 6 -4 11t-5 10
q-1 1 -2 3l-2 4l-2 4t-2.5 3.5t-2.5 3.5q-7 9 -15 17q-10 11 -21.5 18.5t-24.5 12.5q-25 11 -54 11q-59 -1 -100 -42q-43 -43 -42 -100z" />
    <glyph glyph-name="afii57393" unicode="&#x661;" horiz-adv-x="702" 
d="M453 19h-141v291q0 541 -118 946l134 42q62 -215 93.5 -461.5t31.5 -527.5v-290z" />
    <glyph glyph-name="afii57394" unicode="&#x662;" horiz-adv-x="1138" 
d="M452 310v-291h-141v291q0 541 -116 946l133 41l40 -177q12 -53 37 -95t62 -73q71 -60 188 -61q89 0 142 37.5t66 113.5q8 55 8 181v80h135v-76q0 -152 -11 -217q-22 -135 -106 -201t-233 -67q-61 0 -111.5 13.5t-91.5 39.5l-4 3l-28 18l6 -33v-5q25 -153 25 -468z" />
    <glyph glyph-name="afii57395" unicode="&#x663;" horiz-adv-x="1405" 
d="M368 1110q24 -112 79.5 -169.5t141.5 -56.5q67 1 100.5 52.5t33.5 145.5l1 180h133l-1 -189q0 -61 18 -103t54.5 -64t89.5 -22q66 0 99.5 47.5t32.5 135.5v234h132l1 -168q1 -199 -63.5 -295t-194.5 -96q-154 0 -211 112l-2 3l-13 25l-13 -25l-2 -3q-60 -109 -176 -109
q-98 0 -152 48l-5 4l-31 27l7 -41l1 -6q10 -64 18 -188q1 -13 1.5 -28.5t1 -32.5t1 -36t1 -39.5t1 -43.5t0.5 -47.5v-51.5v-291h-141v291q0 541 -116 946l133 41z" />
    <glyph glyph-name="afii57396" unicode="&#x664;" horiz-adv-x="966" 
d="M157 323q2 191 338 350l27 14l-27 13q-298 150 -298 325q0 132 100 198t307 67h122l2 -144l-121 -1q-236 -1 -236 -126q0 -66 86.5 -129t257.5 -128l-8 -144q-188 -63 -282.5 -133.5t-94.5 -153.5q1 -166 290 -166h221v-145h-221q-236 0 -350 75.5t-113 227.5z" />
    <glyph glyph-name="afii57397" unicode="&#x665;" horiz-adv-x="1172" 
d="M562 1003q-154 -173 -231 -331t-77 -302q0 -201 345 -201q313 1 313 191q0 157 -81.5 318t-243.5 326l-2 1l-11 12l-11 -12zM399 1150l80 123q575 -414 576 -895q0 -184 -111.5 -274.5t-341.5 -89.5q-245 0 -364.5 88.5t-120.5 266.5q0 336 330 724l2 2l10 12l-13 10
l-2 1z" />
    <glyph glyph-name="afii57398" unicode="&#x666;" horiz-adv-x="1246" 
d="M129 1301l564 1q155 0 230.5 -82t75.5 -251v-950h-138v946q0 84 -44 128t-128 44h-560v164z" />
    <glyph glyph-name="afii57399" unicode="&#x667;" horiz-adv-x="1201" 
d="M616 389q100 418 331 916l130 -68q-305 -581 -416 -1218h-121q-111 637 -416 1218l130 68q231 -498 329 -916l2 -8l15 -62l15 62z" />
    <glyph glyph-name="afii57400" unicode="&#x668;" horiz-adv-x="1201" 
d="M584 921q-99 -418 -330 -916l-130 68q305 581 416 1218h121q111 -637 416 -1218l-130 -68q-231 498 -329 916l-2 8l-15 61l-15 -61z" />
    <glyph glyph-name="afii57401" unicode="&#x669;" horiz-adv-x="1147" 
d="M758 310l-1 343v4v26l-22 -14l-3 -1q-49 -30 -106.5 -44.5t-124.5 -14.5q-184 1 -273 105q-27 32 -45 66.5t-27 71t-9 76.5q0 165 88 261q111 121 300 121q159 0 245 -88t102 -268q17 -202 17 -645v-290h-141v291zM514 747q147 0 227 86l4 5v6q0 68 -15 164q-6 37 -20 66
t-37 49q-49 46 -139 46q-143 0 -209 -95q-43 -61 -43 -145q1 -90 60.5 -136t171.5 -46z" />
    <glyph glyph-name="afii57381" unicode="&#x66a;" horiz-adv-x="1291" 
d="M813 256q0 28 9 52q4 7 8.5 14.5t10 14.5t12.5 14q21 20 45 30q8 3 16.5 5t17.5 3.5t19 1.5q56 0 97 -40q21 -20 31 -43q5 -12 7.5 -25t2.5 -27q0 -27 -10 -50.5t-31 -43.5q-41 -40 -97 -40q-29 0 -53 9.5t-45 30.5q-41 40 -40 94zM202 1123q1 55 41 94q41 40 98 40
q28 0 52 -10q3 -1 6 -2.5l6 -3l6 -3t5.5 -3.5t5.5 -4t5.5 -4.5t5.5 -4.5t5 -5q21 -20 31 -43.5t10 -50.5q0 -14 -2.5 -27t-7.5 -24q-10 -24 -31 -44q-41 -40 -97 -40q-10 0 -19 1t-17.5 3.5t-16.5 5.5t-16 7.5t-15 10t-14 12.5q-10 10 -18 21t-13 23q-10 23 -10 51z
M881 1308l125 -63l-656 -1215l-123 65z" />
    <glyph glyph-name="uni066B" unicode="&#x66b;" horiz-adv-x="667" 
d="M78 -205l384 756l92 -44l-380 -758z" />
    <glyph glyph-name="uni066C" unicode="&#x66c;" horiz-adv-x="592" 
d="M299 243q30 -1 53 -7.5t38 -18.5q10 -8 17 -19t11.5 -24.5t5.5 -30.5q9 -95 -20 -193q-53 -178 -231 -263l-25 23q179 110 198 286l2 17v2h-3h-17q-10 -1 -17 -1h-4h-3.5h-3t-3.5 1h-2.5h-3h-2.5q-62 3 -90 29t-27 78q1 64 31.5 93t95.5 28z" />
    <glyph glyph-name="afii63167" unicode="&#x66d;" horiz-adv-x="1411" 
d="M245 892h339h11h1v1l4 11l106 322l106 -322l3 -11l1 -1h1h11h339l-274 -200l-9 -7l-1 -1v-1l4 -10l104 -322l-275 199l-9 7l-1 1l-1 -1l-9 -7l-276 -199l105 322l3 10l1 1l-2 1l-8 7z" />
    <glyph glyph-name="uni066E" unicode="&#x66e;" horiz-adv-x="1901" 
d="M537 165h836q130 0 197.5 71t67.5 207v182h144v-179q0 -218 -103 -324.5t-313 -106.5h-832q-211 0 -314 105.5t-103 321.5v186h145v-185q0 -91 31 -153t92.5 -93.5t151.5 -31.5z" />
    <glyph glyph-name="uni066F" unicode="&#x66f;" horiz-adv-x="1434" 
d="M1314 358l2 -425q1 -185 -129 -277.5t-398 -92.5h-98q-288 1 -430 135t-143 404v325l145 1v-325q0 -192 109 -289t321 -96l95 1q389 2 387 218v64v2v15h-15h-2h-161q-169 0 -251 80.5t-82 246.5q1 60 10.5 110.5t28 90.5t45.5 71q42 47 104 71t144 24q143 1 228 -81
q44 -43 66.5 -111t23.5 -162zM801 346q0 -88 50 -134t145 -46h162h2h15v15v2v169q-1 107 -47 163.5t-136 55.5q-94 0 -142.5 -57.5t-48.5 -167.5z" />
    <glyph glyph-name="uni0670" unicode="&#x670;" horiz-adv-x="11" 
d="M615 1565v353h66v-353h-66z" />
    <glyph glyph-name="uni0674" unicode="&#x674;" horiz-adv-x="759" 
d="M171 1767l102 24l16 4l5 1l-4 2l-15 9q-72 45 -72 141q0 115 96 169q13 7 27 13q3 1 6.5 2.5t7 2.5l7 2t7.5 2t7.5 1.5t7.5 1.5t8 1.5t8 0.5q7 1 15.5 1.5t16.5 0.5q74 0 133 -35v-95q-12 6 -24.5 10t-26 6.5t-28 4t-29.5 1.5q-61 -1 -93 -25t-33 -71q0 -26 10.5 -47
t32 -36t52.5 -24l2 -1h1h1l162 27v-103l-406 -91v100z" />
    <glyph glyph-name="afii57506" unicode="&#x67e;" horiz-adv-x="1901" 
d="M538 165h836q130 0 197.5 71t67.5 207v182h144v-179q0 -218 -103 -324.5t-313 -106.5h-832q-211 0 -314 105.5t-103 321.5v186h145v-185q0 -91 31 -153t92.5 -93.5t151.5 -31.5zM1008 -315q-22 23 -4 42l98 98q22 21 45 -1l91 -91q25 -25 3 -47l-98 -98
q-10 -10 -20.5 -8.5t-23.5 14.5zM661 -315q-22 23 -4 42l98 98q11 11 22 10.5t23 -11.5l91 -91q25 -25 3 -47l-98 -98q-19 -19 -44 6zM834 -601q-22 23 -3 42l97 98q22 21 45 -1l91 -91q25 -25 3 -47l-98 -98q-6 -6 -13 -7.5t-14.5 2t-16.5 11.5z" />
    <glyph glyph-name="afii57507" unicode="&#x686;" horiz-adv-x="1319" 
d="M841.234 -43.7217q-20.2393 21.1602 -3.67969 38.6396l90.1582 90.1582q20.2393 19.3193 41.3994 -0.919922l83.7178 -83.7188q23 -22.999 2.76074 -43.2393l-90.1582 -90.1582q-9.2002 -9.19922 -18.8604 -7.81934q-9.65918 1.37988 -21.6191 13.3398zM522 -43.7217
q-20.2393 21.1602 -3.67969 38.6396l90.1582 90.1582q10.1201 10.1201 20.2402 9.66016q10.1191 -0.459961 21.1592 -10.5801l83.7188 -83.7188q22.999 -22.999 2.75977 -43.2393l-90.1582 -90.1582q-17.4795 -17.4795 -40.4795 5.52051zM681.157 -306.837
q-20.2393 21.1602 -2.75977 38.6396l89.2383 90.1582q20.2393 19.3193 41.3994 -0.919922l83.7188 -83.7188q22.999 -22.999 2.75977 -43.2393l-90.1582 -90.1582q-5.52051 -5.51953 -11.96 -6.89941q-6.44043 -1.37988 -13.3398 1.83984t-15.1797 10.5801zM1074 337
q-397 -56 -609 -188q-206 -128 -206 -329q-1 -39 6 -74.5t21 -66t35 -57.5q62 -79 184 -118q121 -38 299 -38h397v-146h-409q-192 1 -327 39q-135 37 -212 111q-139 134 -136 344q6 513 810 634l42 7h6l-5 3l-38 22l-118 68q-278 160 -507 -22l-60 -48l-96 107l50 42
q304 261 637 68l189 -111q48 -27 91 -46q21 -9 41.5 -16t40.5 -11v-157q-63 -8 -126 -17z" />
    <glyph glyph-name="afii57508" unicode="&#x698;" horiz-adv-x="824" 
d="M530 968l91 91q13 13 24 14t20 -8l98 -98q7 -8 9 -15.5t-1 -15t-11 -16.5l-91 -91q-23 -23 -45 -1l-97 98q-7 6 -9 12.5t1 14t11 15.5zM183 968l91 91q25 25 44 6l98 -98q20 -23 -3 -47l-91 -91q-23 -23 -45 -1l-97 98q-19 19 3 42zM416 967zM356 1254l91 91q26 26 44 6
v0l98 -98q22 -22 -3 -47l-91 -91q-12 -11 -23 -11.5t-22 10.5l-97 98q-5 5 -7.5 10t-2 10t3.5 10.5t9 11.5zM94 -299q403 -1 403 370v519l144 1v-523q0 -510 -545 -514l-57 -1v148h55z" />
    <glyph glyph-name="uni06A1" unicode="&#x6a1;" horiz-adv-x="1886" 
d="M1288 15h-754q-211 0 -314 105.5t-103 321.5v186h145v-185q0 -91 31 -153t92.5 -93.5t151.5 -31.5h754q345 0 345 163v23v2v17l-17 -2h-2q-39 -4 -76.5 -6t-72.5 -3q-174 0 -257.5 66.5t-83.5 200.5q0 21 1.5 40.5t4 37.5t6.5 35t9 33q21 61 62 104q43 44 103.5 66.5
t138.5 22.5q108 0 178 -34t104.5 -103t34.5 -174v-319q0 -106 -51.5 -177t-158.5 -107t-271 -36zM1636 657q0 82 -47 125t-135 42h-11t-10.5 -0.5t-10.5 -1l-10 -1t-10 -1.5t-9.5 -2t-9 -2.5l-9 -3t-8.5 -2.5q-19 -7 -34.5 -18.5t-27.5 -26.5q-11 -13 -19 -27.5t-13 -30.5
t-7.5 -33.5t-2.5 -36.5q0 -46 26 -76t73 -44.5t115 -13.5q74 0 145 10h2l13 2v13v2v127z" />
    <glyph glyph-name="uni06A9" unicode="&#x6a9;" horiz-adv-x="1855" 
d="M537 165h723q265 0 265 149q0 61 -115 193l-321 365q-44 51 -43 126q1 109 106 144l605 199v-149l-558 -182l-3 -1l-21 -7l15 -17l2 -2l310 -354q158 -181 160 -321q0 -73 -23.5 -127.5t-73 -91.5t-125.5 -55.5t-179 -18.5h-1h-1h-725q-211 0 -314 105.5t-103 321.5v186
h145v-185q0 -69 17.5 -121t52 -86.5t86 -52.5t119.5 -18z" />
    <glyph glyph-name="afii57509" unicode="&#x6af;" horiz-adv-x="1855" 
d="M1747.06 1492.67l-602.38 -208.64v99.5049l602.38 209.71v-100.575zM537 165h723q265 0 265 149q0 61 -115 193l-321 365q-44 51 -43 126q1 109 106 144l605 199v-149l-558 -182l-3 -1l-21 -7l15 -17l2 -2l310 -354q158 -181 160 -321q0 -73 -23.5 -127.5t-73 -91.5
t-125.5 -55.5t-179 -18.5h-1h-1h-725q-211 0 -314 105.5t-103 321.5v186h145v-185q0 -69 17.5 -121t52 -86.5t86 -52.5t119.5 -18z" />
    <glyph glyph-name="afii57514" unicode="&#x6ba;" horiz-adv-x="1442" 
d="M1313 52q-6 -245 -145 -367q-35 -30 -78.5 -52.5t-96 -38t-113.5 -23t-131 -7.5h-55q-290 0 -433 133q-143 134 -143 404v326h147v-325q0 -191 109 -289t322 -98h51q213 0 322 83q110 84 110 248v570h146z" />
    <glyph glyph-name="uni06C0" unicode="&#x6c0;" horiz-adv-x="924" 
d="M187 1122q36 -13 104 -13h52q223 -1 223 95v6q-1 49 -66 49h-92q-48 0 -71.5 22t-23.5 69v38q0 127 128 172q46 16 110 16h108l1 -100h-133q-117 -1 -119 -84l-1 -31v-8h8h86q80 0 119 -30.5t39 -92.5v-16q0 -204 -321 -204h-48q-40 0 -72 4t-55 11zM447 636
q-64 -54 -106 -105t-64 -102t-22 -100q0 -83 56 -125t161 -42q65 0 110 19t68.5 57.5t23.5 94.5q0 137 -206 303l-1 1l-10 8l-9 -8zM118 312q0 207 232 417l1 1l12 11l-12 12l-1 1l-27 25l85 99q405 -294 404 -551q0 -158 -84 -234.5t-258 -76.5q-179 0 -265.5 73.5
t-86.5 222.5z" />
    <glyph glyph-name="uni06CA" unicode="&#x6ca;" horiz-adv-x="877" 
d="M499 1063l91 91q27 27 48 6l98 -98q24 -24 -3 -51l-91 -91q-25 -25 -49 -1l-98 98q-10 10 -9 21.5t13 24.5zM152 1063l91 91q27 27 48 6l98 -98q24 -24 -3 -51l-91 -91q-25 -25 -49 -1l-98 98q-20 21 4 46zM628 15h-17h-160q-169 0 -251 80.5t-82 252.5q1 214 121 300
q82 59 206 61q138 1 231 -83q92 -85 92 -271v-357q0 -444 -553 -443h-59v149h53q418 -1 419 294v17zM255 336q0 -80 50 -125t145 -45h162h17l-1 183q0 220 -182 219q-191 0 -191 -232z" />
    </font>
</defs>
</svg>
